<?xml version="1.0" encoding="UTF-8" standalone="no"?>
<!-- Created with Inkscape (http://www.inkscape.org/) -->

<svg
   width="256"
   height="256"
   viewBox="0 0 67.733332 67.733333"
   version="1.1"
   id="svg5230"
   inkscape:version="1.2.2 (1:1.2.2+202212051552+b0a8486541)"
   sodipodi:docname="pydoxtools.svg"
   xmlns:inkscape="http://www.inkscape.org/namespaces/inkscape"
   xmlns:sodipodi="http://sodipodi.sourceforge.net/DTD/sodipodi-0.dtd"
   xmlns="http://www.w3.org/2000/svg"
   xmlns:svg="http://www.w3.org/2000/svg">
  <sodipodi:namedview
     id="namedview5232"
     pagecolor="#ffffff"
     bordercolor="#666666"
     borderopacity="1.0"
     inkscape:showpageshadow="2"
     inkscape:pageopacity="0.0"
     inkscape:pagecheckerboard="0"
     inkscape:deskcolor="#d1d1d1"
     inkscape:document-units="mm"
     showgrid="false"
     inkscape:zoom="0.67793911"
     inkscape:cx="320.82527"
     inkscape:cy="560.52231"
     inkscape:window-width="1856"
     inkscape:window-height="1043"
     inkscape:window-x="64"
     inkscape:window-y="0"
     inkscape:window-maximized="1"
     inkscape:current-layer="layer1" />
  <defs
     id="defs5227" />
  <g
     inkscape:label="Layer 1"
     inkscape:groupmode="layer"
     id="layer1">
    <g
       id="g16487"
       transform="matrix(0.14419227,0,0,0.14419227,-340.25976,-126.22925)"
       inkscape:export-filename="pydoxtools.png"
       inkscape:export-xdpi="54.21928"
       inkscape:export-ydpi="54.21928"
       style="display:inline;stroke-width:1.95726">
      <path
         id="rect372"
         style="fill:#f78f3b;fill-opacity:1;stroke:#fcfcfc;stroke-width:0.693517;stroke-linecap:round;stroke-linejoin:round;stop-color:#000000"
         d="m 2638.451,898.00881 c -10.2117,-0.0284 -23.8486,0.0283 -42.1308,0.10063 l -67.9376,0.26362 -2.6001,2.60008 -2.5983,2.59827 -0.2271,204.58929 c -0.1247,112.5233 0,205.9797 0.2856,207.68 0.3588,2.1669 1.4084,3.6379 3.5083,4.9182 2.896,1.7659 5.2403,1.8258 70.2905,1.8292 55.5205,0 67.8455,-0.226 70.4334,-1.3073 1.7252,-0.7209 3.4093,-1.7514 3.7426,-2.2907 1.0771,-1.7427 0.6851,-414.4121 -0.3955,-416.43126 -1.9289,-3.60414 -1.7362,-4.46481 -32.3712,-4.55017 z"
         sodipodi:nodetypes="ccccccsssssssc" />
      <path
         id="path311"
         style="fill:#2a3548;fill-opacity:1;stroke-width:6.93519"
         d="m 2639.0552,908.42835 c -11.7508,-0.0502 -27.5403,-0.0474 -44.5313,0.0183 l -61.7852,0.23987 -0.09,201.55338 -0.09,201.5515 2.8125,0.5456 c 1.5469,0.2996 30.7618,0.611 64.9219,0.694 l 62.1094,0.152 V 1111.2103 909.2395 l -3.0469,-0.51635 c -0.8379,-0.14187 -8.5501,-0.24465 -20.3009,-0.2948 z m -99.4647,7.28943 h 58.125 58.125 v 195.00002 195 h -58.125 -58.125 v -195 z m 234.6826,10.76294 c -3.7267,-0.21821 -7.5327,0.98029 -10.4755,3.64929 -7.3923,6.70453 -6.2371,19.72082 2.1021,23.69751 2.2679,1.08148 3.3583,2.33875 3.7555,4.32495 1.3232,6.61598 1.904,6.31347 -12.2077,6.31347 h -12.7661 l -3.2025,-2.8125 c -3.6057,-3.16576 -8.0731,-3.70164 -12.3596,-1.48498 -3.8443,1.98797 -5.1984,5.25744 -4.596,11.09436 l 0.5164,5.0061 -5.6195,6.28601 -5.6177,6.28601 h -20.5444 -20.5426 v 3.17872 3.18054 l 21.9854,-0.13184 21.9855,-0.13183 3.8818,-3.75 c 2.1354,-2.06253 5.13,-5.54295 6.6541,-7.73438 2.5799,-3.70977 3.068,-3.98437 7.088,-3.98437 3.8354,0 4.705,-0.41895 7.7802,-3.75 l 3.4625,-3.75 h 11.8616 11.8634 v 13.95996 c 0,13.72378 -0.036,13.97074 -2.1241,14.49466 -1.168,0.2932 -3.5739,2.0291 -5.3466,3.858 -2.8542,2.9448 -3.2607,3.9944 -3.5523,9.1772 -0.3822,6.7936 1.4871,10.7328 6.5607,13.8263 3.7605,2.2928 10.0292,2.4297 14.4818,0.3168 9.9761,-4.734 10.9656,-20.2903 1.6406,-25.7922 l -3.2226,-1.90249 V 977.5232 955.14038 l 2.7374,-1.41723 c 3.6979,-1.91228 6.7231,-6.37978 7.3169,-10.80689 0.666,-4.96491 -0.1994,-7.83887 -3.4918,-11.58874 -2.6299,-2.99528 -6.2783,-4.6286 -10.0049,-4.8468 z m -225.3076,0.48706 v 15 15 h 48.2812 48.2813 v -15 -15 h -48.2813 z m 31.9592,8.33496 -0.2765,6.83349 -0.2765,6.8335 -4.4549,0.32226 c -5.2865,0.38119 -5.608,-0.10719 -5.2057,-7.89917 l 0.2856,-5.51879 4.964,-0.28565 z m 18.4149,0.0128 0.5731,3.57605 c 0.3104,1.96749 0.3122,5.1528 0,7.07703 h 0.01 c -0.5642,3.47725 -0.5969,3.49731 -5.0775,3.49731 -2.4802,0 -4.6943,-0.3164 -4.92,-0.70312 -0.2259,-0.38671 -0.3582,-3.44534 -0.2912,-6.79688 l 0.1209,-6.09375 4.7955,-0.27832 z m 15.3278,0.0897 h 3.6731 v 6.45263 c 0,5.89968 -0.1809,6.50165 -2.1094,7.01844 v 0.002 c -2.823,0.75525 -6.806,0.73609 -7.5787,-0.0366 -0.3436,-0.34378 -0.6244,-3.25135 -0.6244,-6.4618 0,-6.51769 0.4358,-6.97448 6.6394,-6.97448 z m 12.1106,0 h 5.1562 5.1563 v 7.03125 7.03125 h -4.5319 c -2.4922,0 -4.8125,-0.28253 -5.1562,-0.62622 -0.3436,-0.34378 -0.6244,-3.50783 -0.6244,-7.03125 z m -64.6875,0.32409 v 6.29883 c 0,4.87981 -0.3345,6.42933 -1.4832,6.87012 -3.5918,1.37827 -4.1418,0.51217 -4.1418,-6.51306 0,-5.76227 0.033,-5.83599 2.8125,-6.2439 z m -143.747,10.63843 c -2.4686,-0.0903 -4.9266,0.43044 -6.6925,1.58752 -8.1464,5.33763 -8.0694,17.40372 0.1392,21.82435 l 3.1128,1.67541 v 18.1073 18.10546 l -3.8746,3.686 c -3.7064,3.5258 -3.8542,3.8797 -3.3746,8.1353 0.3875,3.4376 1.1665,5.0414 3.4223,7.0569 3.4205,3.0562 8.1864,3.4628 12.2753,1.0474 5.2784,-3.118 6.2994,-10.4301 2.146,-15.3662 l -2.5323,-3.0084 -0.046,-18.62558 -0.048,-18.62548 h 11.3104 11.3105 l 1.5893,3.33252 c 1.5726,3.29785 6.0113,6.04248 9.7724,6.04248 0.9764,0 3.2477,2.13685 5.3411,5.02624 2.0036,2.76534 4.523,5.61302 5.5976,6.32813 1.5214,1.01254 7.8141,1.36719 28.4381,1.60034 l 26.4844,0.30029 v -3.33252 -3.33069 l -25.4425,-0.24902 -25.4425,-0.24902 -3.6896,-4.35608 -3.6914,-4.35425 1.4758,-4.34876 c 1.2773,-3.76266 1.303,-4.76514 0.1849,-7.4414 -3.1257,-7.48066 -11.7985,-9.59795 -17.7832,-4.34326 -3.0314,2.66154 -3.639,2.8125 -11.3159,2.8125 -7.73,0 -8.0658,-0.0867 -7.1411,-1.81458 2.4779,-4.62996 0.3044,-11.52954 -4.7699,-15.14282 -1.8085,-1.28776 -4.2879,-1.98982 -6.7566,-2.08008 z m 178.8245,21.84998 c -40.7445,0 -46.3666,0.17274 -47.666,1.47216 -1.9204,1.92009 -1.8829,5.89661 0.077,8.06214 1.4631,1.61663 4.1847,1.7157 47.7594,1.7157 h 46.2085 l 1.4593,-2.08374 c 1.885,-2.69093 1.8531,-5.3036 -0.091,-7.4524 -1.4631,-1.61666 -4.1854,-1.71386 -47.7466,-1.71386 z m -48.2025,22.5 v 10.24296 c 0,8.9757 0.203,10.2942 1.6406,10.6512 2.5223,0.6265 86.4179,0.6874 90.9375,0.066 l 3.9844,-0.5494 v -10.2063 -10.20446 h -48.2813 z m 7.5,7.5 h 40.7812 40.7813 v 2.81256 2.8125 h -40.7813 -40.7812 v -2.8125 z m -33.7519,5.15446 -24.3237,0.1007 c -27.0969,0.1108 -28.7586,0.4143 -32.1515,5.8704 -1.9029,3.0598 -2.1502,4.823 -2.4408,17.3803 l -0.3223,13.9746 -3.1933,3.0103 c -2.7533,2.5966 -3.1915,3.6176 -3.1915,7.4249 0,3.6292 0.4864,4.9029 2.7392,7.1558 5.2282,5.2283 14.592,2.8497 16.9538,-4.3067 1.3694,-4.1492 -0.1464,-9.2634 -3.371,-11.3763 -2.2161,-1.4519 -2.2595,-1.745 -2.2595,-15.0275 0,-7.5459 0.4298,-14.3507 0.9704,-15.3607 0.9219,-1.7224 2.2111,-1.8146 25.7813,-1.8146 h 24.8108 v -3.5156 z m 150.0019,1.4081 v 3.2812 3.2813 h 24.7284 c 26.45,0 27.7792,-0.2349 26.38,-4.6436 -0.5943,-1.872 -1.2369,-1.9189 -25.86,-1.9189 z m -123.75,18.75 v 13.125 13.125 h 48.2812 48.2813 v -13.125 -13.125 h -48.2813 z m 7.5,7.5 h 40.7812 40.7813 v 5.625 5.625 h -40.7813 -40.7812 v -5.625 z m 174.4683,1.3659 c -3.4219,-0.09 -4.4286,0.3494 -6.7456,2.9425 -1.738,1.9452 -2.7227,4.0772 -2.7227,5.8924 0,3.4003 2.179,7.9318 4.1839,8.7012 1.2053,0.4625 1.4411,2.7965 1.4411,14.2712 v 13.7164 l -3.133,3.1311 -3.1311,3.133 -24.0564,-0.2143 -24.0545,-0.2142 v 3.0817 3.0816 h 25.1733 c 24.5629,0 25.2493,-0.051 28.2733,-2.1093 6.5495,-4.4575 6.9904,-5.7978 7.3206,-22.2876 0.2761,-13.7814 0.433,-14.9338 2.1185,-15.4688 1.0018,-0.3179 2.4495,-1.7928 3.2172,-3.2776 3.5321,-6.8302 -0.501,-14.1858 -7.8846,-14.3793 z m -181.9683,28.6341 v 13.114 13.1158 l 40.5468,0.2546 c 22.3008,0.14 42.4454,0.3511 44.7657,0.4687 2.3203,0.1176 5.8007,-0.048 7.7343,-0.368 l 3.5157,-0.5805 v -13.0023 -13.0023 h -48.2813 z m 7.5,7.478 40.4919,0.2454 40.4938,0.2453 0.3644,5.3907 0.3643,5.3887 h -40.8581 -40.8563 v -5.6341 z m -143.9063,8.4668 -7.2656,13.9417 c -3.9961,7.6675 -7.2638,14.9436 -7.2638,16.1682 0,1.2245 3.2288,8.4492 7.1722,16.0547 l 7.1704,13.8354 h 45.7966 45.7965 v -10.3125 -10.3125 h 9.375 9.375 v -3.75 -3.75 h -9.375 -9.375 v -15.9375 -15.9375 h -45.7032 z m 361.1426,2.6715 c -3.9905,0.1964 -7.9854,1.8356 -11.1621,5.2332 -7.3305,7.8401 -5.4966,20.4121 3.7189,25.4956 l 3.9569,2.1826 v 11.4752 11.4734 l -3.2319,1.5417 c -1.8744,0.8939 -4.1374,3.1267 -5.3906,5.3211 l -2.1588,3.7829 -8.2892,0.01 c -6.8403,0.01 -8.7011,-0.3151 -10.6421,-1.842 -2.9607,-2.3287 -7.5544,-3.2231 -10.5999,-2.0618 -2.0923,0.7979 -2.8498,0.3701 -7.0533,-3.999 -3.1097,-3.2322 -5.7758,-5.1074 -7.8515,-5.5225 -1.7286,-0.3459 -11.9487,-0.6299 -22.7124,-0.6299 h -19.5703 v 3.2813 3.2812 h 20.3613 20.3613 l 4.9512,4.8908 c 4.4174,4.3626 4.9512,5.3157 4.9512,8.8348 0,5.2693 2.7629,8.8153 7.24,9.5563 v 21.7401 h -30.3681 c -2.8227,0 -5.2249,1.6252 -6.698,3.6841 -1.4732,2.0589 -2.2375,4.6294 -2.2375,7.3974 v 94.5868 c 0,2.768 0.7643,5.3386 2.2375,7.3975 1.4731,2.0589 3.8753,3.6822 6.698,3.6822 h 71.2903 c 2.8226,0 5.2231,-1.6233 6.6962,-3.6822 1.4731,-2.0589 2.2393,-4.6295 2.2393,-7.3975 v -94.5868 c 0,-2.768 -0.7662,-5.3385 -2.2393,-7.3974 -1.4731,-2.0589 -3.8736,-3.6841 -6.6962,-3.6841 h -33.8361 v -22.5037 c 2.5567,-0.9113 4.4375,-2.4571 5.2112,-4.6765 l 0.9906,-2.8418 h 7.5952 7.5971 l 1.2762,3.0469 c 1.5676,3.7414 4.6277,6.6968 8.9466,8.6371 v 0 c 4.2191,1.8954 10.1269,1.3489 14.4781,-1.3403 10.0761,-6.2274 9.0321,-22.4697 -1.7743,-27.5977 l -3.3343,-1.582 0.051,-10.9717 0.05,-10.9717 4.3707,-2.8125 c 5.6763,-3.6536 8.1171,-7.9069 8.1171,-14.143 0,-10.1654 -8.7607,-16.7156 -17.5397,-16.2836 z m -356.5576,4.8212 h 39.6606 39.6607 v 22.5 22.5 h -39.8365 -39.8364 l -5.6689,-11.3104 -5.6708,-11.3086 5.8465,-11.1914 z m 255.5713,14.7949 v 3.3124 3.3124 l 24.6093,-0.2491 24.6094,-0.2508 v -2.8125 -2.8125 l -24.6094,-0.249 z m -27.074,0.1868 -48.1037,0.2435 -48.1036,0.2435 -0.3094,2.1772 c -0.1696,1.1976 -0.075,2.7823 0.2087,3.5229 0.4415,1.1507 7.4487,1.3117 48.1201,1.1041 l 47.6056,-0.2435 0.2911,-3.523 z m 27.074,16.7193 v 3.2813 3.2831 l 22.7343,-0.015 c 12.5039,-0.01 23.6534,-0.2587 24.7779,-0.5603 2.2978,-0.6162 3.3207,-2.4808 2.514,-4.5831 -0.4608,-1.2007 -4.1539,-1.4063 -25.2832,-1.4063 z m -123.75,2.049 v 13.125 13.125 h 48.2812 48.2813 v -13.125 -13.125 h -48.2813 z m 7.9687,7.9669 h 40.3125 40.3125 v 5.1581 5.1544 l -40.5945,0.2454 -40.5926,0.2435 0.2801,-5.3998 z m -89.7363,14.0643 c -7.8665,0.4615 -12.2096,11.4663 -4.9494,17.1772 2.1318,1.6768 2.2181,2.2658 2.5086,16.8164 0.2912,14.5888 0.3784,15.161 2.6459,17.5982 1.2891,1.3855 3.1874,2.8676 4.2187,3.2941 1.0313,0.4265 12.9493,0.803 26.4844,0.835 l 24.6094,0.06 v -3.2813 -3.2812 h -24.3219 c -29.751,0 -27.2406,1.5819 -27.2406,-17.1771 v -13.0097 l 2.8125,-2.6257 c 2.2963,-2.1451 2.8125,-3.3812 2.8125,-6.731 0,-5.0272 -1.8141,-7.7939 -6.0169,-9.1809 -1.244,-0.4106 -2.4394,-0.5603 -3.5632,-0.4944 z m 81.7676,15.4688 v 14.3738 c 0,7.9061 0.2807,14.6563 0.6244,15 0.3437,0.3436 22.0703,0.6262 48.2812,0.6262 h 47.6569 v -15 -15 h -48.2813 z m 88.125,8.3386 v 6.6119 6.612 h -5.1984 -5.2002 l 0.2765,-6.3281 0.2783,-6.3282 4.9219,-0.2838 z m -65.625,0.099 h 5.1562 5.1563 v 6.4618 c 0,7.1641 -0.1269,7.3007 -6.3282,6.8463 l -3.9843,-0.2912 v -6.5094 z m 18.75,0 h 5.1562 5.1563 v 6.5625 6.5625 h -5.1563 -5.1562 v -6.5625 z m 23.4082,0 h 4.7168 v 7.0312 7.0313 l -3.0469,-0.1099 c -5.7097,-0.2038 -6.1653,-0.6042 -6.8427,-6.026 -0.8995,-7.1992 -0.4245,-7.9266 5.1728,-7.9266 z m -51.9123,0.079 c 1.2749,0.072 1.3166,0.7931 1.3166,3.4937 0,2.0307 -0.2639,5.0116 -0.586,6.6229 -0.4958,2.4788 -1.0066,2.9297 -3.3233,2.9297 h -2.7393 l 0.2765,-6.3281 0.2783,-6.3282 3.0469,-0.2948 c 0.7429,-0.072 1.3054,-0.119 1.7303,-0.095 z m 138.501,26.5448 h 41.6547 v 18.2648 h -43.5041 v -14.2713 c 0,-1.4074 0.4375,-2.6064 0.9137,-3.2721 0.4763,-0.6657 0.7709,-0.7214 0.9357,-0.7214 z m 48.7409,0 h 22.5494 c 0.1647,0 0.4558,0.056 0.932,0.7214 0.4763,0.6657 0.9155,1.8647 0.9155,3.2721 v 14.2713 h -24.3969 z m -331.1994,0.9686 c -0.9478,0 -1.919,0.1422 -2.8931,0.434 -8.9902,2.6936 -10.9553,14.174 -3.2867,19.1986 l 2.3914,1.5674 v 30.0165 30.0165 l -3.75,3.5668 c -3.2274,3.0701 -3.75,4.1219 -3.75,7.5513 0,4.9547 2.7623,9.0914 6.8518,10.2612 v 0 c 1.6456,0.4707 3.6247,0.7217 4.3982,0.5566 6.7254,-1.4353 10.3125,-5.2367 10.3125,-10.9277 0,-3.0253 -0.619,-4.391 -3.1275,-6.8994 l -3.1274,-3.1274 0.038,-11.3105 0.04,-11.3104 h 11.9934 c 7.4871,0 11.9953,0.3584 11.9953,0.9522 0,0.5232 1.3711,1.787 3.0468,2.8088 8.423,5.1355 18.5225,-2.2202 15.7508,-11.4716 -1.0649,-3.5542 -0.9606,-3.9141 2.8143,-9.7082 l 3.9203,-6.0187 h 25.6714 25.6714 v -3.2812 -3.2813 h -26.0157 c -30.2194,0 -29.5809,-0.1624 -35.4181,9.2944 -3.0848,4.9979 -3.8809,5.7056 -6.4343,5.7056 -3.6027,0 -8.6311,2.96 -9.4555,5.5573 -0.5782,1.8217 -1.3119,1.9409 -12.0612,1.9409 h -11.4459 l 0.2069,-15.5292 c 0.2051,-15.3865 0.2288,-15.5439 2.5799,-17.3932 1.305,-1.0265 2.8277,-3.5561 3.3838,-5.6213 1.8737,-6.9585 -3.6667,-13.5713 -10.3015,-13.5517 z m 179.4141,5.2204 c -40.7445,0 -46.3665,0.1727 -47.666,1.4721 -1.9204,1.9201 -1.8828,5.8966 0.077,8.0622 1.4629,1.6164 4.1772,1.7157 47.5048,1.7157 41.4439,0 46.1216,-0.1534 47.6679,-1.5528 2.1348,-1.9318 2.2121,-5.7192 0.163,-7.9834 -1.4632,-1.6165 -4.1853,-1.7138 -47.7466,-1.7138 z m -74.4507,7.9669 -28.3484,0.4706 c -27.0843,0.4479 -28.3636,0.5493 -28.6963,2.2815 -0.1916,0.9972 0.4105,2.3681 1.3385,3.0468 1.3027,0.9525 7.846,1.2342 28.6963,1.2342 h 27.0081 v -3.5156 z m 175.6457,11.1969 h 6.9745 v 10.1862 h -6.9745 z m 14.0625,0 h 29.4416 v 10.1862 h -29.4416 z m 36.5278,0 h 24.3969 v 10.1862 h -24.3969 z m -151.8677,3.3362 c -41.1429,0 -45.7979,0.1519 -47.3438,1.5509 -3.2034,2.899 -1.6779,8.9832 2.5049,9.992 1.0313,0.2486 22.0528,0.3892 46.7157,0.3132 43.2214,-0.1337 44.8898,-0.2034 46.1719,-1.9574 1.8738,-2.5636 1.6532,-5.8267 -0.5438,-8.0237 -1.8236,-1.824 -3.1257,-1.875 -47.5049,-1.875 z m 101.2774,13.9361 h 6.9745 v 10.188 h -6.9745 z m 14.0625,0 h 29.4416 v 10.188 h -29.4416 z m 36.5278,0 h 24.3969 v 10.188 h -24.3969 z m -152.287,9.5014 c -45.2082,0 -46.7284,0.057 -47.6679,1.8127 -1.416,2.6458 -1.188,6.2736 0.5017,7.9633 1.2993,1.2992 6.9086,1.474 47.5049,1.474 41.5168,0 46.1985,-0.1534 47.7448,-1.5528 2.1348,-1.9318 2.212,-5.7192 0.1629,-7.9834 -1.4635,-1.6174 -4.1981,-1.7138 -48.2464,-1.7138 z m 101.6967,7.7728 h 6.9745 v 10.188 h -6.9745 z m 14.0625,0 h 29.4416 v 10.188 h -29.4416 z m 36.5278,0 h 24.3969 v 10.188 h -24.3969 z m -199.7315,14.7272 -0.5933,4.3323 c -0.3279,2.3827 -0.3223,9.1328 0.013,15 l 0.6115,10.6677 h 48.1385 48.1384 v -15 -15 h -48.1549 z m 149.1412,2.547 h 6.9745 v 10.188 h -6.9745 z m 14.0625,0 h 29.4416 v 10.188 h -29.4416 z m 36.5278,0 h 24.3969 v 10.188 h -24.3969 z m -192.4878,5.8905 h 2.8125 2.8125 v 6.5625 6.5625 h -2.8125 -2.8125 v -6.5625 z m 14.0625,0 h 5.1562 5.1563 v 6.5625 6.5625 h -5.1563 -5.1562 v -6.5625 z m 18.75,0 h 5.1562 5.1563 v 6.5625 6.5625 h -5.1563 -5.1562 v -6.5625 z m 18.75,0 h 5.1562 5.1563 v 6.5625 6.5625 h -5.1563 -5.1562 v -6.5625 z m 18.75,0 h 5.625 5.625 v 5.0793 c 0,2.7937 -0.2566,5.7469 -0.5695,6.5625 -0.4215,1.0985 -1.8795,1.4832 -5.625,1.4832 h -5.0555 v -6.5625 z m 71.585,11.3836 h 6.9745 v 8.1263 h -5.1251 c -0.1648,0 -0.4594,-0.054 -0.9357,-0.7196 -0.4762,-0.6656 -0.9137,-1.8666 -0.9137,-3.274 z m 14.0625,0 h 29.4416 v 8.1263 h -29.4416 z m 36.5278,0 h 24.3969 v 4.1327 c 0,1.4074 -0.4392,2.6084 -0.9155,3.274 -0.4762,0.6657 -0.7673,0.7196 -0.932,0.7196 h -22.5494 z" />
    </g>
  </g>
</svg>
