<?xml version="1.0" encoding="UTF-8" standalone="no"?>
<!DOCTYPE svg PUBLIC "-//W3C//DTD SVG 1.1//EN"
 "http://www.w3.org/Graphics/SVG/1.1/DTD/svg11.dtd">
<!-- Generated by graphviz version 2.43.0 (0)
 -->
<!-- Pages: 1 -->
<svg width="1022pt" height="1069pt"
 viewBox="0.00 0.00 1021.69 1069.00" xmlns="http://www.w3.org/2000/svg" xmlns:xlink="http://www.w3.org/1999/xlink">
<g id="graph0" class="graph" transform="scale(1 1) rotate(0) translate(4 1065)">
<polygon fill="white" stroke="transparent" points="-4,4 -4,-1065 1017.69,-1065 1017.69,4 -4,4"/>
<!-- Configurationdoc_configuration -->
<g id="node1" class="node">
<title>Configurationdoc_configuration</title>
<polygon fill="none" stroke="black" points="67.5,-660.44 260.5,-648 453.5,-660.44 453.32,-680.56 67.68,-680.56 67.5,-660.44"/>
<text text-anchor="middle" x="260.5" y="-662.3" font-family="Times,serif" font-size="14.00">Configurationdoc_configuration</text>
</g>
<!-- doc_configuration -->
<g id="node2" class="node">
<title>doc_configuration</title>
<ellipse fill="none" stroke="black" cx="337.5" cy="-594" rx="93" ry="18"/>
<text text-anchor="middle" x="337.5" y="-590.3" font-family="Times,serif" font-size="14.00">doc_configuration</text>
</g>
<!-- Configurationdoc_configuration&#45;&gt;doc_configuration -->
<g id="edge1" class="edge">
<title>Configurationdoc_configuration&#45;&gt;doc_configuration</title>
<path fill="none" stroke="black" d="M277.97,-649.12C287.83,-640.16 300.33,-628.79 311.34,-618.79"/>
<polygon fill="black" stroke="black" points="313.98,-621.12 319.02,-611.8 309.27,-615.94 313.98,-621.12"/>
</g>
<!-- BagMapOperatordocs -->
<g id="node3" class="node">
<title>BagMapOperatordocs</title>
<text text-anchor="middle" x="406.5" y="-518.3" font-family="Times,serif" font-size="14.00">BagMapOperatordocs</text>
</g>
<!-- doc_configuration&#45;&gt;BagMapOperatordocs -->
<g id="edge2" class="edge">
<title>doc_configuration&#45;&gt;BagMapOperatordocs</title>
<path fill="none" stroke="black" d="M354.2,-576.05C362.64,-567.5 373.03,-556.96 382.32,-547.54"/>
<polygon fill="black" stroke="black" points="384.95,-549.86 389.47,-540.28 379.96,-544.95 384.95,-549.86"/>
</g>
<!-- docs -->
<g id="node4" class="node">
<title>docs</title>
<ellipse fill="none" stroke="black" cx="406.5" cy="-450" rx="32" ry="18"/>
<text text-anchor="middle" x="406.5" y="-446.3" font-family="Times,serif" font-size="14.00">docs</text>
</g>
<!-- BagMapOperatordocs&#45;&gt;docs -->
<g id="edge3" class="edge">
<title>BagMapOperatordocs&#45;&gt;docs</title>
<path fill="none" stroke="black" d="M406.5,-503.7C406.5,-495.98 406.5,-486.71 406.5,-478.11"/>
<polygon fill="black" stroke="black" points="410,-478.1 406.5,-468.1 403,-478.1 410,-478.1"/>
</g>
<!-- LambdaOperatortake -->
<g id="node5" class="node">
<title>LambdaOperatortake</title>
<text text-anchor="middle" x="84.5" y="-374.3" font-family="Times,serif" font-size="14.00">LambdaOperatortake</text>
</g>
<!-- docs&#45;&gt;LambdaOperatortake -->
<g id="edge4" class="edge">
<title>docs&#45;&gt;LambdaOperatortake</title>
<path fill="none" stroke="black" d="M377.36,-442.66C331.61,-432.72 241.14,-413.05 172.79,-398.19"/>
<polygon fill="black" stroke="black" points="173.38,-394.74 162.87,-396.04 171.9,-401.58 173.38,-394.74"/>
</g>
<!-- LambdaOperatorcompute -->
<g id="node6" class="node">
<title>LambdaOperatorcompute</title>
<text text-anchor="middle" x="287.5" y="-374.3" font-family="Times,serif" font-size="14.00">LambdaOperatorcompute</text>
</g>
<!-- docs&#45;&gt;LambdaOperatorcompute -->
<g id="edge5" class="edge">
<title>docs&#45;&gt;LambdaOperatorcompute</title>
<path fill="none" stroke="black" d="M385.23,-436.49C368.64,-426.73 345.2,-412.94 325.42,-401.31"/>
<polygon fill="black" stroke="black" points="327.03,-398.2 316.64,-396.14 323.48,-404.23 327.03,-398.2"/>
</g>
<!-- BagPropertyExtractorget_dicts -->
<g id="node7" class="node">
<title>BagPropertyExtractorget_dicts</title>
<text text-anchor="middle" x="525.5" y="-374.3" font-family="Times,serif" font-size="14.00">BagPropertyExtractorget_dicts</text>
</g>
<!-- docs&#45;&gt;BagPropertyExtractorget_dicts -->
<g id="edge6" class="edge">
<title>docs&#45;&gt;BagPropertyExtractorget_dicts</title>
<path fill="none" stroke="black" d="M427.77,-436.49C444.36,-426.73 467.8,-412.94 487.58,-401.31"/>
<polygon fill="black" stroke="black" points="489.52,-404.23 496.36,-396.14 485.97,-398.2 489.52,-404.23"/>
</g>
<!-- LambdaOperatorget_datadocs -->
<g id="node8" class="node">
<title>LambdaOperatorget_datadocs</title>
<text text-anchor="middle" x="779.5" y="-374.3" font-family="Times,serif" font-size="14.00">LambdaOperatorget_datadocs</text>
</g>
<!-- docs&#45;&gt;LambdaOperatorget_datadocs -->
<g id="edge7" class="edge">
<title>docs&#45;&gt;LambdaOperatorget_datadocs</title>
<path fill="none" stroke="black" d="M436.39,-443.39C488.28,-433.65 597.26,-413.2 678.55,-397.95"/>
<polygon fill="black" stroke="black" points="679.64,-401.31 688.82,-396.02 678.35,-394.43 679.64,-401.31"/>
</g>
<!-- take -->
<g id="node9" class="node">
<title>take</title>
<ellipse fill="none" stroke="black" cx="84.5" cy="-306" rx="30.59" ry="18"/>
<text text-anchor="middle" x="84.5" y="-302.3" font-family="Times,serif" font-size="14.00">take</text>
</g>
<!-- LambdaOperatortake&#45;&gt;take -->
<g id="edge8" class="edge">
<title>LambdaOperatortake&#45;&gt;take</title>
<path fill="none" stroke="black" d="M84.5,-359.7C84.5,-351.98 84.5,-342.71 84.5,-334.11"/>
<polygon fill="black" stroke="black" points="88,-334.1 84.5,-324.1 81,-334.1 88,-334.1"/>
</g>
<!-- compute -->
<g id="node10" class="node">
<title>compute</title>
<ellipse fill="none" stroke="black" cx="287.5" cy="-306" rx="50.89" ry="18"/>
<text text-anchor="middle" x="287.5" y="-302.3" font-family="Times,serif" font-size="14.00">compute</text>
</g>
<!-- LambdaOperatorcompute&#45;&gt;compute -->
<g id="edge9" class="edge">
<title>LambdaOperatorcompute&#45;&gt;compute</title>
<path fill="none" stroke="black" d="M287.5,-359.7C287.5,-351.98 287.5,-342.71 287.5,-334.11"/>
<polygon fill="black" stroke="black" points="291,-334.1 287.5,-324.1 284,-334.1 291,-334.1"/>
</g>
<!-- get_dicts -->
<g id="node11" class="node">
<title>get_dicts</title>
<ellipse fill="none" stroke="black" cx="525.5" cy="-306" rx="52.79" ry="18"/>
<text text-anchor="middle" x="525.5" y="-302.3" font-family="Times,serif" font-size="14.00">get_dicts</text>
</g>
<!-- BagPropertyExtractorget_dicts&#45;&gt;get_dicts -->
<g id="edge10" class="edge">
<title>BagPropertyExtractorget_dicts&#45;&gt;get_dicts</title>
<path fill="none" stroke="black" d="M525.5,-359.7C525.5,-351.98 525.5,-342.71 525.5,-334.11"/>
<polygon fill="black" stroke="black" points="529,-334.1 525.5,-324.1 522,-334.1 529,-334.1"/>
</g>
<!-- get_datadocs -->
<g id="node12" class="node">
<title>get_datadocs</title>
<ellipse fill="none" stroke="black" cx="779.5" cy="-306" rx="71.5" ry="18"/>
<text text-anchor="middle" x="779.5" y="-302.3" font-family="Times,serif" font-size="14.00">get_datadocs</text>
</g>
<!-- LambdaOperatorget_datadocs&#45;&gt;get_datadocs -->
<g id="edge11" class="edge">
<title>LambdaOperatorget_datadocs&#45;&gt;get_datadocs</title>
<path fill="none" stroke="black" d="M779.5,-359.7C779.5,-351.98 779.5,-342.71 779.5,-334.11"/>
<polygon fill="black" stroke="black" points="783,-334.1 779.5,-324.1 776,-334.1 783,-334.1"/>
</g>
<!-- LambdaOperatoridx_dict -->
<g id="node13" class="node">
<title>LambdaOperatoridx_dict</title>
<text text-anchor="middle" x="525.5" y="-230.3" font-family="Times,serif" font-size="14.00">LambdaOperatoridx_dict</text>
</g>
<!-- get_dicts&#45;&gt;LambdaOperatoridx_dict -->
<g id="edge12" class="edge">
<title>get_dicts&#45;&gt;LambdaOperatoridx_dict</title>
<path fill="none" stroke="black" d="M525.5,-287.7C525.5,-279.98 525.5,-270.71 525.5,-262.11"/>
<polygon fill="black" stroke="black" points="529,-262.1 525.5,-252.1 522,-262.1 529,-262.1"/>
</g>
<!-- LambdaOperatorget_data_docbag -->
<g id="node14" class="node">
<title>LambdaOperatorget_data_docbag</title>
<text text-anchor="middle" x="860.5" y="-230.3" font-family="Times,serif" font-size="14.00">LambdaOperatorget_data_docbag</text>
</g>
<!-- get_datadocs&#45;&gt;LambdaOperatorget_data_docbag -->
<g id="edge13" class="edge">
<title>get_datadocs&#45;&gt;LambdaOperatorget_data_docbag</title>
<path fill="none" stroke="black" d="M798.7,-288.41C808.86,-279.63 821.53,-268.68 832.74,-258.99"/>
<polygon fill="black" stroke="black" points="835.32,-261.39 840.6,-252.2 830.74,-256.09 835.32,-261.39"/>
</g>
<!-- idx_dict -->
<g id="node16" class="node">
<title>idx_dict</title>
<ellipse fill="none" stroke="black" cx="525.5" cy="-162" rx="47" ry="18"/>
<text text-anchor="middle" x="525.5" y="-158.3" font-family="Times,serif" font-size="14.00">idx_dict</text>
</g>
<!-- LambdaOperatoridx_dict&#45;&gt;idx_dict -->
<g id="edge15" class="edge">
<title>LambdaOperatoridx_dict&#45;&gt;idx_dict</title>
<path fill="none" stroke="black" d="M525.5,-215.7C525.5,-207.98 525.5,-198.71 525.5,-190.11"/>
<polygon fill="black" stroke="black" points="529,-190.1 525.5,-180.1 522,-190.1 529,-190.1"/>
</g>
<!-- get_data_docbag -->
<g id="node18" class="node">
<title>get_data_docbag</title>
<ellipse fill="none" stroke="black" cx="860.5" cy="-162" rx="88.5" ry="18"/>
<text text-anchor="middle" x="860.5" y="-158.3" font-family="Times,serif" font-size="14.00">get_data_docbag</text>
</g>
<!-- LambdaOperatorget_data_docbag&#45;&gt;get_data_docbag -->
<g id="edge17" class="edge">
<title>LambdaOperatorget_data_docbag&#45;&gt;get_data_docbag</title>
<path fill="none" stroke="black" d="M860.5,-215.7C860.5,-207.98 860.5,-198.71 860.5,-190.11"/>
<polygon fill="black" stroke="black" points="864,-190.1 860.5,-180.1 857,-190.1 864,-190.1"/>
</g>
<!-- bag -->
<g id="node15" class="node">
<title>bag</title>
<ellipse fill="none" stroke="black" cx="514.5" cy="-594" rx="28" ry="18"/>
<text text-anchor="middle" x="514.5" y="-590.3" font-family="Times,serif" font-size="14.00">bag</text>
</g>
<!-- bag&#45;&gt;BagMapOperatordocs -->
<g id="edge14" class="edge">
<title>bag&#45;&gt;BagMapOperatordocs</title>
<path fill="none" stroke="black" d="M495.44,-580.65C480.56,-571 459.47,-557.33 441.56,-545.72"/>
<polygon fill="black" stroke="black" points="443.37,-542.72 433.07,-540.22 439.56,-548.59 443.37,-542.72"/>
</g>
<!-- ChromaIndexFromBagchromaidx -->
<g id="node17" class="node">
<title>ChromaIndexFromBagchromaidx</title>
<text text-anchor="middle" x="525.5" y="-86.3" font-family="Times,serif" font-size="14.00">ChromaIndexFromBagchromaidx</text>
</g>
<!-- idx_dict&#45;&gt;ChromaIndexFromBagchromaidx -->
<g id="edge16" class="edge">
<title>idx_dict&#45;&gt;ChromaIndexFromBagchromaidx</title>
<path fill="none" stroke="black" d="M525.5,-143.7C525.5,-135.98 525.5,-126.71 525.5,-118.11"/>
<polygon fill="black" stroke="black" points="529,-118.1 525.5,-108.1 522,-118.1 529,-118.1"/>
</g>
<!-- chromaidx -->
<g id="node20" class="node">
<title>chromaidx</title>
<ellipse fill="none" stroke="black" cx="525.5" cy="-18" rx="60" ry="18"/>
<text text-anchor="middle" x="525.5" y="-14.3" font-family="Times,serif" font-size="14.00">chromaidx</text>
</g>
<!-- ChromaIndexFromBagchromaidx&#45;&gt;chromaidx -->
<g id="edge19" class="edge">
<title>ChromaIndexFromBagchromaidx&#45;&gt;chromaidx</title>
<path fill="none" stroke="black" d="M525.5,-71.7C525.5,-63.98 525.5,-54.71 525.5,-46.11"/>
<polygon fill="black" stroke="black" points="529,-46.1 525.5,-36.1 522,-46.1 529,-46.1"/>
</g>
<!-- configuration -->
<g id="node19" class="node">
<title>configuration</title>
<ellipse fill="none" stroke="black" cx="941.5" cy="-306" rx="72.29" ry="18"/>
<text text-anchor="middle" x="941.5" y="-302.3" font-family="Times,serif" font-size="14.00">configuration</text>
</g>
<!-- configuration&#45;&gt;LambdaOperatorget_data_docbag -->
<g id="edge18" class="edge">
<title>configuration&#45;&gt;LambdaOperatorget_data_docbag</title>
<path fill="none" stroke="black" d="M922.3,-288.41C912.14,-279.63 899.47,-268.68 888.26,-258.99"/>
<polygon fill="black" stroke="black" points="890.26,-256.09 880.4,-252.2 885.68,-261.39 890.26,-256.09"/>
</g>
<!-- LambdaOperatorsql
connection_string
index_column -->
<g id="node21" class="node">
<title>LambdaOperatorsql
connection_string
index_column</title>
<text text-anchor="middle" x="461.5" y="-973.8" font-family="Times,serif" font-size="14.00">LambdaOperatorsql</text>
<text text-anchor="middle" x="461.5" y="-958.8" font-family="Times,serif" font-size="14.00">connection_string</text>
<text text-anchor="middle" x="461.5" y="-943.8" font-family="Times,serif" font-size="14.00">index_column</text>
</g>
<!-- sql -->
<g id="node22" class="node">
<title>sql</title>
<ellipse fill="none" stroke="black" cx="323.5" cy="-882" rx="27" ry="18"/>
<text text-anchor="middle" x="323.5" y="-878.3" font-family="Times,serif" font-size="14.00">sql</text>
</g>
<!-- LambdaOperatorsql
connection_string
index_column&#45;&gt;sql -->
<g id="edge20" class="edge">
<title>LambdaOperatorsql
connection_string
index_column&#45;&gt;sql</title>
<path fill="none" stroke="black" d="M416.31,-935.8C395.2,-923.79 370.69,-909.84 352.17,-899.31"/>
<polygon fill="black" stroke="black" points="353.75,-896.18 343.33,-894.28 350.29,-902.27 353.75,-896.18"/>
</g>
<!-- connection_string -->
<g id="node23" class="node">
<title>connection_string</title>
<ellipse fill="none" stroke="black" cx="461.5" cy="-882" rx="93" ry="18"/>
<text text-anchor="middle" x="461.5" y="-878.3" font-family="Times,serif" font-size="14.00">connection_string</text>
</g>
<!-- LambdaOperatorsql
connection_string
index_column&#45;&gt;connection_string -->
<g id="edge21" class="edge">
<title>LambdaOperatorsql
connection_string
index_column&#45;&gt;connection_string</title>
<path fill="none" stroke="black" d="M461.5,-935.8C461.5,-927.71 461.5,-918.76 461.5,-910.55"/>
<polygon fill="black" stroke="black" points="465,-910.33 461.5,-900.33 458,-910.33 465,-910.33"/>
</g>
<!-- index_column -->
<g id="node24" class="node">
<title>index_column</title>
<ellipse fill="none" stroke="black" cx="646.5" cy="-882" rx="74.19" ry="18"/>
<text text-anchor="middle" x="646.5" y="-878.3" font-family="Times,serif" font-size="14.00">index_column</text>
</g>
<!-- LambdaOperatorsql
connection_string
index_column&#45;&gt;index_column -->
<g id="edge22" class="edge">
<title>LambdaOperatorsql
connection_string
index_column&#45;&gt;index_column</title>
<path fill="none" stroke="black" d="M521.82,-935.9C547.98,-924.81 578.06,-912.04 602.12,-901.83"/>
<polygon fill="black" stroke="black" points="603.52,-905.04 611.36,-897.91 600.79,-898.59 603.52,-905.04"/>
</g>
<!-- SQLTableLoaderdataframe -->
<g id="node25" class="node">
<title>SQLTableLoaderdataframe</title>
<text text-anchor="middle" x="553.5" y="-806.3" font-family="Times,serif" font-size="14.00">SQLTableLoaderdataframe</text>
</g>
<!-- sql&#45;&gt;SQLTableLoaderdataframe -->
<g id="edge23" class="edge">
<title>sql&#45;&gt;SQLTableLoaderdataframe</title>
<path fill="none" stroke="black" d="M344.56,-870.31C349.4,-868.06 354.57,-865.82 359.5,-864 394.82,-850.95 434.82,-839.49 469.28,-830.59"/>
<polygon fill="black" stroke="black" points="470.49,-833.89 479.31,-828.03 468.76,-827.11 470.49,-833.89"/>
</g>
<!-- connection_string&#45;&gt;SQLTableLoaderdataframe -->
<g id="edge24" class="edge">
<title>connection_string&#45;&gt;SQLTableLoaderdataframe</title>
<path fill="none" stroke="black" d="M483.3,-864.41C495.07,-855.46 509.79,-844.25 522.71,-834.42"/>
<polygon fill="black" stroke="black" points="525.05,-837.04 530.89,-828.2 520.81,-831.47 525.05,-837.04"/>
</g>
<!-- index_column&#45;&gt;SQLTableLoaderdataframe -->
<g id="edge25" class="edge">
<title>index_column&#45;&gt;SQLTableLoaderdataframe</title>
<path fill="none" stroke="black" d="M624.93,-864.76C612.84,-855.67 597.57,-844.17 584.25,-834.14"/>
<polygon fill="black" stroke="black" points="586.34,-831.34 576.25,-828.12 582.14,-836.93 586.34,-831.34"/>
</g>
<!-- dataframe -->
<g id="node26" class="node">
<title>dataframe</title>
<ellipse fill="none" stroke="black" cx="553.5" cy="-738" rx="58.5" ry="18"/>
<text text-anchor="middle" x="553.5" y="-734.3" font-family="Times,serif" font-size="14.00">dataframe</text>
</g>
<!-- SQLTableLoaderdataframe&#45;&gt;dataframe -->
<g id="edge26" class="edge">
<title>SQLTableLoaderdataframe&#45;&gt;dataframe</title>
<path fill="none" stroke="black" d="M553.5,-791.7C553.5,-783.98 553.5,-774.71 553.5,-766.11"/>
<polygon fill="black" stroke="black" points="557,-766.1 553.5,-756.1 550,-766.1 557,-766.1"/>
</g>
<!-- LambdaOperatorbag -->
<g id="node27" class="node">
<title>LambdaOperatorbag</title>
<text text-anchor="middle" x="553.5" y="-662.3" font-family="Times,serif" font-size="14.00">LambdaOperatorbag</text>
</g>
<!-- dataframe&#45;&gt;LambdaOperatorbag -->
<g id="edge27" class="edge">
<title>dataframe&#45;&gt;LambdaOperatorbag</title>
<path fill="none" stroke="black" d="M553.5,-719.7C553.5,-711.98 553.5,-702.71 553.5,-694.11"/>
<polygon fill="black" stroke="black" points="557,-694.1 553.5,-684.1 550,-694.1 557,-694.1"/>
</g>
<!-- LambdaOperatorbag&#45;&gt;bag -->
<g id="edge31" class="edge">
<title>LambdaOperatorbag&#45;&gt;bag</title>
<path fill="none" stroke="black" d="M543.86,-647.7C539.19,-639.32 533.5,-629.1 528.37,-619.9"/>
<polygon fill="black" stroke="black" points="531.41,-618.17 523.49,-611.14 525.3,-621.58 531.41,-618.17"/>
</g>
<!-- source -->
<g id="node28" class="node">
<title>source</title>
<ellipse fill="none" stroke="black" cx="461.5" cy="-1043" rx="41.69" ry="18"/>
<text text-anchor="middle" x="461.5" y="-1039.3" font-family="Times,serif" font-size="14.00">source</text>
</g>
<!-- source&#45;&gt;LambdaOperatorsql
connection_string
index_column -->
<g id="edge28" class="edge">
<title>source&#45;&gt;LambdaOperatorsql
connection_string
index_column</title>
<path fill="none" stroke="black" d="M461.5,-1025C461.5,-1017.4 461.5,-1008.3 461.5,-999.4"/>
<polygon fill="black" stroke="black" points="465,-999.16 461.5,-989.16 458,-999.16 465,-999.16"/>
</g>
<!-- Configurationbytes_per_chunk -->
<g id="node29" class="node">
<title>Configurationbytes_per_chunk</title>
<polygon fill="none" stroke="black" points="639.13,-956.94 826.5,-944.5 1013.87,-956.94 1013.7,-977.06 639.3,-977.06 639.13,-956.94"/>
<text text-anchor="middle" x="826.5" y="-958.8" font-family="Times,serif" font-size="14.00">Configurationbytes_per_chunk</text>
</g>
<!-- bytes_per_chunk -->
<g id="node30" class="node">
<title>bytes_per_chunk</title>
<ellipse fill="none" stroke="black" cx="826.5" cy="-882" rx="88.5" ry="18"/>
<text text-anchor="middle" x="826.5" y="-878.3" font-family="Times,serif" font-size="14.00">bytes_per_chunk</text>
</g>
<!-- Configurationbytes_per_chunk&#45;&gt;bytes_per_chunk -->
<g id="edge29" class="edge">
<title>Configurationbytes_per_chunk&#45;&gt;bytes_per_chunk</title>
<path fill="none" stroke="black" d="M826.5,-944.47C826.5,-934.49 826.5,-921.65 826.5,-910.3"/>
<polygon fill="black" stroke="black" points="830,-910 826.5,-900 823,-910 830,-910"/>
</g>
<!-- bytes_per_chunk&#45;&gt;SQLTableLoaderdataframe -->
<g id="edge30" class="edge">
<title>bytes_per_chunk&#45;&gt;SQLTableLoaderdataframe</title>
<path fill="none" stroke="black" d="M773.86,-867.5C733.01,-857.03 675.8,-842.36 629.91,-830.59"/>
<polygon fill="black" stroke="black" points="630.56,-827.14 620,-828.05 628.82,-833.92 630.56,-827.14"/>
</g>
</g>
</svg>
