<?xml version="1.0" encoding="UTF-8" standalone="no"?>
<!DOCTYPE svg PUBLIC "-//W3C//DTD SVG 1.1//EN"
 "http://www.w3.org/Graphics/SVG/1.1/DTD/svg11.dtd">
<!-- Generated by graphviz version 2.43.0 (0)
 -->
<!-- Pages: 1 -->
<svg width="1268pt" height="764pt"
 viewBox="0.00 0.00 1268.25 764.00" xmlns="http://www.w3.org/2000/svg" xmlns:xlink="http://www.w3.org/1999/xlink">
<g id="graph0" class="graph" transform="scale(1 1) rotate(0) translate(4 760)">
<polygon fill="white" stroke="transparent" points="-4,4 -4,-760 1264.25,-760 1264.25,4 -4,4"/>
<!-- Configuration
doc_configuration -->
<g id="node1" class="node">
<title>Configuration
doc_configuration</title>
<polygon fill="none" stroke="black" points="590.33,-660.44 682,-648 773.67,-660.44 773.58,-680.56 590.42,-680.56 590.33,-660.44"/>
<text text-anchor="middle" x="682" y="-662.3" font-family="Times,serif" font-size="14.00">Configuration</text>
</g>
<!-- doc_configuration -->
<g id="node2" class="node">
<title>doc_configuration</title>
<ellipse fill="none" stroke="black" cx="682" cy="-594" rx="93" ry="18"/>
<text text-anchor="middle" x="682" y="-590.3" font-family="Times,serif" font-size="14.00">doc_configuration</text>
</g>
<!-- Configuration
doc_configuration&#45;&gt;doc_configuration -->
<g id="edge1" class="edge">
<title>Configuration
doc_configuration&#45;&gt;doc_configuration</title>
<path fill="none" stroke="black" d="M682,-647.7C682,-639.98 682,-630.71 682,-622.11"/>
<polygon fill="black" stroke="black" points="685.5,-622.1 682,-612.1 678.5,-622.1 685.5,-622.1"/>
</g>
<!-- FunctionOperator
Document -->
<g id="node3" class="node">
<title>FunctionOperator
Document</title>
<text text-anchor="middle" x="72" y="-518.3" font-family="Times,serif" font-size="14.00">FunctionOperator</text>
</g>
<!-- doc_configuration&#45;&gt;FunctionOperator
Document -->
<g id="edge2" class="edge">
<title>doc_configuration&#45;&gt;FunctionOperator
Document</title>
<path fill="none" stroke="black" d="M595.51,-587.19C492.62,-579.64 315.52,-564.6 154.45,-540.13"/>
<polygon fill="black" stroke="black" points="154.76,-536.64 144.35,-538.59 153.71,-543.56 154.76,-536.64"/>
</g>
<!-- BagMapOperator
docs -->
<g id="node4" class="node">
<title>BagMapOperator
docs</title>
<text text-anchor="middle" x="734" y="-518.3" font-family="Times,serif" font-size="14.00">BagMapOperator</text>
</g>
<!-- doc_configuration&#45;&gt;BagMapOperator
docs -->
<g id="edge3" class="edge">
<title>doc_configuration&#45;&gt;BagMapOperator
docs</title>
<path fill="none" stroke="black" d="M694.59,-576.05C700.76,-567.75 708.31,-557.58 715.15,-548.38"/>
<polygon fill="black" stroke="black" points="718.01,-550.39 721.17,-540.28 712.4,-546.22 718.01,-550.39"/>
</g>
<!-- Document -->
<g id="node5" class="node">
<title>Document</title>
<ellipse fill="none" stroke="black" cx="72" cy="-450" rx="58" ry="18"/>
<text text-anchor="middle" x="72" y="-446.3" font-family="Times,serif" font-size="14.00">Document</text>
</g>
<!-- FunctionOperator
Document&#45;&gt;Document -->
<g id="edge4" class="edge">
<title>FunctionOperator
Document&#45;&gt;Document</title>
<path fill="none" stroke="black" d="M72,-503.7C72,-495.98 72,-486.71 72,-478.11"/>
<polygon fill="black" stroke="black" points="75.5,-478.1 72,-468.1 68.5,-478.1 75.5,-478.1"/>
</g>
<!-- docs -->
<g id="node6" class="node">
<title>docs</title>
<ellipse fill="none" stroke="black" cx="734" cy="-450" rx="32" ry="18"/>
<text text-anchor="middle" x="734" y="-446.3" font-family="Times,serif" font-size="14.00">docs</text>
</g>
<!-- BagMapOperator
docs&#45;&gt;docs -->
<g id="edge5" class="edge">
<title>BagMapOperator
docs&#45;&gt;docs</title>
<path fill="none" stroke="black" d="M734,-503.7C734,-495.98 734,-486.71 734,-478.11"/>
<polygon fill="black" stroke="black" points="737.5,-478.1 734,-468.1 730.5,-478.1 737.5,-478.1"/>
</g>
<!-- FunctionOperator
vectorizer -->
<g id="node7" class="node">
<title>FunctionOperator
vectorizer</title>
<text text-anchor="middle" x="72" y="-374.3" font-family="Times,serif" font-size="14.00">FunctionOperator</text>
</g>
<!-- Document&#45;&gt;FunctionOperator
vectorizer -->
<g id="edge6" class="edge">
<title>Document&#45;&gt;FunctionOperator
vectorizer</title>
<path fill="none" stroke="black" d="M72,-431.7C72,-423.98 72,-414.71 72,-406.11"/>
<polygon fill="black" stroke="black" points="75.5,-406.1 72,-396.1 68.5,-406.1 75.5,-406.1"/>
</g>
<!-- BagPropertyExtractor
get_dicts -->
<g id="node8" class="node">
<title>BagPropertyExtractor
get_dicts</title>
<text text-anchor="middle" x="399" y="-374.3" font-family="Times,serif" font-size="14.00">BagPropertyExtractor</text>
</g>
<!-- docs&#45;&gt;BagPropertyExtractor
get_dicts -->
<g id="edge7" class="edge">
<title>docs&#45;&gt;BagPropertyExtractor
get_dicts</title>
<path fill="none" stroke="black" d="M704.56,-442.85C657.22,-432.96 562.21,-413.1 490.63,-398.15"/>
<polygon fill="black" stroke="black" points="491.21,-394.69 480.7,-396.07 489.77,-401.55 491.21,-394.69"/>
</g>
<!-- DocumentBagMap
bag_apply -->
<g id="node9" class="node">
<title>DocumentBagMap
bag_apply</title>
<text text-anchor="middle" x="579" y="-374.3" font-family="Times,serif" font-size="14.00">DocumentBagMap</text>
</g>
<!-- docs&#45;&gt;DocumentBagMap
bag_apply -->
<g id="edge8" class="edge">
<title>docs&#45;&gt;DocumentBagMap
bag_apply</title>
<path fill="none" stroke="black" d="M709.78,-438.06C687.54,-428.02 653.96,-412.85 626.39,-400.4"/>
<polygon fill="black" stroke="black" points="627.47,-397.05 616.92,-396.12 624.59,-403.43 627.47,-397.05"/>
</g>
<!-- FunctionOperator
take -->
<g id="node10" class="node">
<title>FunctionOperator
take</title>
<text text-anchor="middle" x="906" y="-374.3" font-family="Times,serif" font-size="14.00">FunctionOperator</text>
</g>
<!-- docs&#45;&gt;FunctionOperator
take -->
<g id="edge9" class="edge">
<title>docs&#45;&gt;FunctionOperator
take</title>
<path fill="none" stroke="black" d="M759.01,-438.82C783.92,-428.68 822.89,-412.82 854.45,-399.98"/>
<polygon fill="black" stroke="black" points="856.04,-403.11 863.98,-396.1 853.4,-396.63 856.04,-403.11"/>
</g>
<!-- FunctionOperator
compute -->
<g id="node11" class="node">
<title>FunctionOperator
compute</title>
<text text-anchor="middle" x="1068" y="-374.3" font-family="Times,serif" font-size="14.00">FunctionOperator</text>
</g>
<!-- docs&#45;&gt;FunctionOperator
compute -->
<g id="edge10" class="edge">
<title>docs&#45;&gt;FunctionOperator
compute</title>
<path fill="none" stroke="black" d="M763.6,-442.8C809.09,-433.28 899.17,-414.41 985.6,-396.29"/>
<polygon fill="black" stroke="black" points="986.51,-399.68 995.58,-394.2 985.07,-392.82 986.51,-399.68"/>
</g>
<!-- vectorizer -->
<g id="node33" class="node">
<title>vectorizer</title>
<ellipse fill="none" stroke="black" cx="72" cy="-306" rx="58" ry="18"/>
<text text-anchor="middle" x="72" y="-302.3" font-family="Times,serif" font-size="14.00">vectorizer</text>
</g>
<!-- FunctionOperator
vectorizer&#45;&gt;vectorizer -->
<g id="edge37" class="edge">
<title>FunctionOperator
vectorizer&#45;&gt;vectorizer</title>
<path fill="none" stroke="black" d="M72,-359.7C72,-351.98 72,-342.71 72,-334.11"/>
<polygon fill="black" stroke="black" points="75.5,-334.1 72,-324.1 68.5,-334.1 75.5,-334.1"/>
</g>
<!-- get_dicts -->
<g id="node15" class="node">
<title>get_dicts</title>
<ellipse fill="none" stroke="black" cx="202" cy="-306" rx="52.79" ry="18"/>
<text text-anchor="middle" x="202" y="-302.3" font-family="Times,serif" font-size="14.00">get_dicts</text>
</g>
<!-- BagPropertyExtractor
get_dicts&#45;&gt;get_dicts -->
<g id="edge15" class="edge">
<title>BagPropertyExtractor
get_dicts&#45;&gt;get_dicts</title>
<path fill="none" stroke="black" d="M351.06,-359.97C319.3,-348.68 277.93,-333.98 246.83,-322.93"/>
<polygon fill="black" stroke="black" points="247.71,-319.53 237.12,-319.48 245.37,-326.13 247.71,-319.53"/>
</g>
<!-- bag_apply -->
<g id="node16" class="node">
<title>bag_apply</title>
<ellipse fill="none" stroke="black" cx="425" cy="-306" rx="58" ry="18"/>
<text text-anchor="middle" x="425" y="-302.3" font-family="Times,serif" font-size="14.00">bag_apply</text>
</g>
<!-- DocumentBagMap
bag_apply&#45;&gt;bag_apply -->
<g id="edge16" class="edge">
<title>DocumentBagMap
bag_apply&#45;&gt;bag_apply</title>
<path fill="none" stroke="black" d="M541.33,-359.88C518.4,-349.45 489.1,-336.14 465.65,-325.48"/>
<polygon fill="black" stroke="black" points="466.87,-322.19 456.32,-321.24 463.98,-328.56 466.87,-322.19"/>
</g>
<!-- take -->
<g id="node27" class="node">
<title>take</title>
<ellipse fill="none" stroke="black" cx="906" cy="-306" rx="30.59" ry="18"/>
<text text-anchor="middle" x="906" y="-302.3" font-family="Times,serif" font-size="14.00">take</text>
</g>
<!-- FunctionOperator
take&#45;&gt;take -->
<g id="edge30" class="edge">
<title>FunctionOperator
take&#45;&gt;take</title>
<path fill="none" stroke="black" d="M906,-359.7C906,-351.98 906,-342.71 906,-334.11"/>
<polygon fill="black" stroke="black" points="909.5,-334.1 906,-324.1 902.5,-334.1 909.5,-334.1"/>
</g>
<!-- compute -->
<g id="node28" class="node">
<title>compute</title>
<ellipse fill="none" stroke="black" cx="1068" cy="-306" rx="50.89" ry="18"/>
<text text-anchor="middle" x="1068" y="-302.3" font-family="Times,serif" font-size="14.00">compute</text>
</g>
<!-- FunctionOperator
compute&#45;&gt;compute -->
<g id="edge31" class="edge">
<title>FunctionOperator
compute&#45;&gt;compute</title>
<path fill="none" stroke="black" d="M1068,-359.7C1068,-351.98 1068,-342.71 1068,-334.11"/>
<polygon fill="black" stroke="black" points="1071.5,-334.1 1068,-324.1 1064.5,-334.1 1071.5,-334.1"/>
</g>
<!-- Configuration
forgiving_extracts -->
<g id="node12" class="node">
<title>Configuration
forgiving_extracts</title>
<polygon fill="none" stroke="black" points="162.33,-516.44 254,-504 345.67,-516.44 345.58,-536.56 162.42,-536.56 162.33,-516.44"/>
<text text-anchor="middle" x="254" y="-518.3" font-family="Times,serif" font-size="14.00">Configuration</text>
</g>
<!-- forgiving_extracts -->
<g id="node13" class="node">
<title>forgiving_extracts</title>
<ellipse fill="none" stroke="black" cx="286" cy="-450" rx="95" ry="18"/>
<text text-anchor="middle" x="286" y="-446.3" font-family="Times,serif" font-size="14.00">forgiving_extracts</text>
</g>
<!-- Configuration
forgiving_extracts&#45;&gt;forgiving_extracts -->
<g id="edge11" class="edge">
<title>Configuration
forgiving_extracts&#45;&gt;forgiving_extracts</title>
<path fill="none" stroke="black" d="M261.42,-504.76C265.15,-496.61 269.76,-486.53 273.97,-477.31"/>
<polygon fill="black" stroke="black" points="277.2,-478.67 278.17,-468.12 270.83,-475.76 277.2,-478.67"/>
</g>
<!-- forgiving_extracts&#45;&gt;BagPropertyExtractor
get_dicts -->
<g id="edge12" class="edge">
<title>forgiving_extracts&#45;&gt;BagPropertyExtractor
get_dicts</title>
<path fill="none" stroke="black" d="M312.49,-432.59C327.46,-423.31 346.4,-411.59 362.73,-401.47"/>
<polygon fill="black" stroke="black" points="364.83,-404.28 371.49,-396.04 361.15,-398.33 364.83,-404.28"/>
</g>
<!-- forgiving_extracts&#45;&gt;DocumentBagMap
bag_apply -->
<g id="edge13" class="edge">
<title>forgiving_extracts&#45;&gt;DocumentBagMap
bag_apply</title>
<path fill="none" stroke="black" d="M342.49,-435.5C386.52,-424.98 448.26,-410.24 497.61,-398.44"/>
<polygon fill="black" stroke="black" points="498.71,-401.77 507.63,-396.05 497.09,-394.97 498.71,-401.77"/>
</g>
<!-- DocumentBagCreator
apply -->
<g id="node14" class="node">
<title>DocumentBagCreator
apply</title>
<text text-anchor="middle" x="381" y="-230.3" font-family="Times,serif" font-size="14.00">DocumentBagCreator</text>
</g>
<!-- forgiving_extracts&#45;&gt;DocumentBagCreator
apply -->
<g id="edge14" class="edge">
<title>forgiving_extracts&#45;&gt;DocumentBagCreator
apply</title>
<path fill="none" stroke="black" d="M287.13,-431.74C288.78,-413.41 292.73,-383.85 302,-360 316.5,-322.71 342.62,-284.49 360.85,-260.3"/>
<polygon fill="black" stroke="black" points="363.87,-262.12 367.17,-252.05 358.31,-257.86 363.87,-262.12"/>
</g>
<!-- apply -->
<g id="node17" class="node">
<title>apply</title>
<ellipse fill="none" stroke="black" cx="381" cy="-162" rx="36.5" ry="18"/>
<text text-anchor="middle" x="381" y="-158.3" font-family="Times,serif" font-size="14.00">apply</text>
</g>
<!-- DocumentBagCreator
apply&#45;&gt;apply -->
<g id="edge17" class="edge">
<title>DocumentBagCreator
apply&#45;&gt;apply</title>
<path fill="none" stroke="black" d="M381,-215.7C381,-207.98 381,-198.71 381,-190.11"/>
<polygon fill="black" stroke="black" points="384.5,-190.1 381,-180.1 377.5,-190.1 384.5,-190.1"/>
</g>
<!-- Alias
get_dicts -->
<g id="node18" class="node">
<title>Alias
get_dicts</title>
<text text-anchor="middle" x="202" y="-230.3" font-family="Times,serif" font-size="14.00">Alias</text>
</g>
<!-- get_dicts&#45;&gt;Alias
get_dicts -->
<g id="edge18" class="edge">
<title>get_dicts&#45;&gt;Alias
get_dicts</title>
<path fill="none" stroke="black" d="M202,-287.7C202,-279.98 202,-270.71 202,-262.11"/>
<polygon fill="black" stroke="black" points="205.5,-262.1 202,-252.1 198.5,-262.1 205.5,-262.1"/>
</g>
<!-- bag_apply&#45;&gt;DocumentBagCreator
apply -->
<g id="edge19" class="edge">
<title>bag_apply&#45;&gt;DocumentBagCreator
apply</title>
<path fill="none" stroke="black" d="M414.35,-288.05C409.24,-279.92 403,-270 397.31,-260.94"/>
<polygon fill="black" stroke="black" points="400.15,-258.88 391.86,-252.28 394.22,-262.61 400.15,-258.88"/>
</g>
<!-- DocumentBagExplode
exploded -->
<g id="node19" class="node">
<title>DocumentBagExplode
exploded</title>
<text text-anchor="middle" x="573" y="-230.3" font-family="Times,serif" font-size="14.00">DocumentBagExplode</text>
</g>
<!-- bag_apply&#45;&gt;DocumentBagExplode
exploded -->
<g id="edge20" class="edge">
<title>bag_apply&#45;&gt;DocumentBagExplode
exploded</title>
<path fill="none" stroke="black" d="M455.31,-290.67C476.21,-280.78 504.36,-267.46 527.89,-256.33"/>
<polygon fill="black" stroke="black" points="529.44,-259.47 536.99,-252.03 526.45,-253.14 529.44,-259.47"/>
</g>
<!-- d -->
<g id="node26" class="node">
<title>d</title>
<ellipse fill="none" stroke="black" cx="202" cy="-162" rx="27" ry="18"/>
<text text-anchor="middle" x="202" y="-158.3" font-family="Times,serif" font-size="14.00">d</text>
</g>
<!-- Alias
get_dicts&#45;&gt;d -->
<g id="edge29" class="edge">
<title>Alias
get_dicts&#45;&gt;d</title>
<path fill="none" stroke="black" d="M202,-215.7C202,-207.98 202,-198.71 202,-190.11"/>
<polygon fill="black" stroke="black" points="205.5,-190.1 202,-180.1 198.5,-190.1 205.5,-190.1"/>
</g>
<!-- exploded -->
<g id="node29" class="node">
<title>exploded</title>
<ellipse fill="none" stroke="black" cx="573" cy="-162" rx="52.79" ry="18"/>
<text text-anchor="middle" x="573" y="-158.3" font-family="Times,serif" font-size="14.00">exploded</text>
</g>
<!-- DocumentBagExplode
exploded&#45;&gt;exploded -->
<g id="edge32" class="edge">
<title>DocumentBagExplode
exploded&#45;&gt;exploded</title>
<path fill="none" stroke="black" d="M573,-215.7C573,-207.98 573,-198.71 573,-190.11"/>
<polygon fill="black" stroke="black" points="576.5,-190.1 573,-180.1 569.5,-190.1 576.5,-190.1"/>
</g>
<!-- Constant
_stats -->
<g id="node20" class="node">
<title>Constant
_stats</title>
<text text-anchor="middle" x="605" y="-518.3" font-family="Times,serif" font-size="14.00">Constant</text>
</g>
<!-- _stats -->
<g id="node21" class="node">
<title>_stats</title>
<ellipse fill="none" stroke="black" cx="591" cy="-450" rx="38.5" ry="18"/>
<text text-anchor="middle" x="591" y="-446.3" font-family="Times,serif" font-size="14.00">_stats</text>
</g>
<!-- Constant
_stats&#45;&gt;_stats -->
<g id="edge21" class="edge">
<title>Constant
_stats&#45;&gt;_stats</title>
<path fill="none" stroke="black" d="M601.54,-503.7C600,-495.98 598.14,-486.71 596.42,-478.11"/>
<polygon fill="black" stroke="black" points="599.81,-477.22 594.42,-468.1 592.95,-478.59 599.81,-477.22"/>
</g>
<!-- _stats&#45;&gt;BagPropertyExtractor
get_dicts -->
<g id="edge22" class="edge">
<title>_stats&#45;&gt;BagPropertyExtractor
get_dicts</title>
<path fill="none" stroke="black" d="M561.42,-438.22C533.25,-427.94 490.11,-412.22 455.37,-399.55"/>
<polygon fill="black" stroke="black" points="456.4,-396.2 445.81,-396.07 454.01,-402.78 456.4,-396.2"/>
</g>
<!-- _stats&#45;&gt;DocumentBagMap
bag_apply -->
<g id="edge23" class="edge">
<title>_stats&#45;&gt;DocumentBagMap
bag_apply</title>
<path fill="none" stroke="black" d="M588.03,-431.7C586.71,-423.98 585.12,-414.71 583.65,-406.11"/>
<polygon fill="black" stroke="black" points="587.07,-405.36 581.93,-396.1 580.17,-406.55 587.07,-405.36"/>
</g>
<!-- FunctionOperator
stats -->
<g id="node22" class="node">
<title>FunctionOperator
stats</title>
<text text-anchor="middle" x="744" y="-374.3" font-family="Times,serif" font-size="14.00">FunctionOperator</text>
</g>
<!-- _stats&#45;&gt;FunctionOperator
stats -->
<g id="edge24" class="edge">
<title>_stats&#45;&gt;FunctionOperator
stats</title>
<path fill="none" stroke="black" d="M617.65,-436.81C639.61,-426.76 671.28,-412.27 697.42,-400.31"/>
<polygon fill="black" stroke="black" points="699.13,-403.37 706.77,-396.03 696.22,-397.01 699.13,-403.37"/>
</g>
<!-- stats -->
<g id="node23" class="node">
<title>stats</title>
<ellipse fill="none" stroke="black" cx="744" cy="-306" rx="34" ry="18"/>
<text text-anchor="middle" x="744" y="-302.3" font-family="Times,serif" font-size="14.00">stats</text>
</g>
<!-- FunctionOperator
stats&#45;&gt;stats -->
<g id="edge25" class="edge">
<title>FunctionOperator
stats&#45;&gt;stats</title>
<path fill="none" stroke="black" d="M744,-359.7C744,-351.98 744,-342.71 744,-334.11"/>
<polygon fill="black" stroke="black" points="747.5,-334.1 744,-324.1 740.5,-334.1 747.5,-334.1"/>
</g>
<!-- Configuration
verbosity -->
<g id="node24" class="node">
<title>Configuration
verbosity</title>
<polygon fill="none" stroke="black" points="363.33,-516.44 455,-504 546.67,-516.44 546.58,-536.56 363.42,-536.56 363.33,-516.44"/>
<text text-anchor="middle" x="455" y="-518.3" font-family="Times,serif" font-size="14.00">Configuration</text>
</g>
<!-- verbosity -->
<g id="node25" class="node">
<title>verbosity</title>
<ellipse fill="none" stroke="black" cx="455" cy="-450" rx="54" ry="18"/>
<text text-anchor="middle" x="455" y="-446.3" font-family="Times,serif" font-size="14.00">verbosity</text>
</g>
<!-- Configuration
verbosity&#45;&gt;verbosity -->
<g id="edge26" class="edge">
<title>Configuration
verbosity&#45;&gt;verbosity</title>
<path fill="none" stroke="black" d="M455,-503.7C455,-495.98 455,-486.71 455,-478.11"/>
<polygon fill="black" stroke="black" points="458.5,-478.1 455,-468.1 451.5,-478.1 458.5,-478.1"/>
</g>
<!-- verbosity&#45;&gt;BagPropertyExtractor
get_dicts -->
<g id="edge27" class="edge">
<title>verbosity&#45;&gt;BagPropertyExtractor
get_dicts</title>
<path fill="none" stroke="black" d="M441.73,-432.41C435.02,-424.03 426.75,-413.68 419.27,-404.33"/>
<polygon fill="black" stroke="black" points="421.94,-402.07 412.96,-396.45 416.48,-406.44 421.94,-402.07"/>
</g>
<!-- verbosity&#45;&gt;DocumentBagMap
bag_apply -->
<g id="edge28" class="edge">
<title>verbosity&#45;&gt;DocumentBagMap
bag_apply</title>
<path fill="none" stroke="black" d="M481.3,-434.15C498.36,-424.52 520.89,-411.8 540.02,-401.01"/>
<polygon fill="black" stroke="black" points="541.83,-404.01 548.81,-396.04 538.38,-397.92 541.83,-404.01"/>
</g>
<!-- Alias
exploded -->
<g id="node30" class="node">
<title>Alias
exploded</title>
<text text-anchor="middle" x="573" y="-86.3" font-family="Times,serif" font-size="14.00">Alias</text>
</g>
<!-- exploded&#45;&gt;Alias
exploded -->
<g id="edge33" class="edge">
<title>exploded&#45;&gt;Alias
exploded</title>
<path fill="none" stroke="black" d="M573,-143.7C573,-135.98 573,-126.71 573,-118.11"/>
<polygon fill="black" stroke="black" points="576.5,-118.1 573,-108.1 569.5,-118.1 576.5,-118.1"/>
</g>
<!-- e -->
<g id="node32" class="node">
<title>e</title>
<ellipse fill="none" stroke="black" cx="573" cy="-18" rx="27" ry="18"/>
<text text-anchor="middle" x="573" y="-14.3" font-family="Times,serif" font-size="14.00">e</text>
</g>
<!-- Alias
exploded&#45;&gt;e -->
<g id="edge36" class="edge">
<title>Alias
exploded&#45;&gt;e</title>
<path fill="none" stroke="black" d="M573,-71.7C573,-63.98 573,-54.71 573,-46.11"/>
<polygon fill="black" stroke="black" points="576.5,-46.1 573,-36.1 569.5,-46.1 576.5,-46.1"/>
</g>
<!-- configuration -->
<g id="node31" class="node">
<title>configuration</title>
<ellipse fill="none" stroke="black" cx="573" cy="-306" rx="72.29" ry="18"/>
<text text-anchor="middle" x="573" y="-302.3" font-family="Times,serif" font-size="14.00">configuration</text>
</g>
<!-- configuration&#45;&gt;DocumentBagCreator
apply -->
<g id="edge34" class="edge">
<title>configuration&#45;&gt;DocumentBagCreator
apply</title>
<path fill="none" stroke="black" d="M533.68,-290.67C505.96,-280.56 468.42,-266.87 437.5,-255.6"/>
<polygon fill="black" stroke="black" points="438.31,-252.17 427.72,-252.03 435.91,-258.75 438.31,-252.17"/>
</g>
<!-- configuration&#45;&gt;DocumentBagExplode
exploded -->
<g id="edge35" class="edge">
<title>configuration&#45;&gt;DocumentBagExplode
exploded</title>
<path fill="none" stroke="black" d="M573,-287.7C573,-279.98 573,-270.71 573,-262.11"/>
<polygon fill="black" stroke="black" points="576.5,-262.1 573,-252.1 569.5,-262.1 576.5,-262.1"/>
</g>
<!-- bag -->
<g id="node34" class="node">
<title>bag</title>
<ellipse fill="none" stroke="black" cx="923" cy="-594" rx="28" ry="18"/>
<text text-anchor="middle" x="923" y="-590.3" font-family="Times,serif" font-size="14.00">bag</text>
</g>
<!-- bag&#45;&gt;BagMapOperator
docs -->
<g id="edge38" class="edge">
<title>bag&#45;&gt;BagMapOperator
docs</title>
<path fill="none" stroke="black" d="M899.45,-584.28C872.1,-574.15 826.09,-557.11 789.52,-543.56"/>
<polygon fill="black" stroke="black" points="790.55,-540.21 779.96,-540.02 788.12,-546.77 790.55,-540.21"/>
</g>
<!-- BagFilterOperator
file_path_list -->
<g id="node35" class="node">
<title>BagFilterOperator
file_path_list</title>
<text text-anchor="middle" x="1064" y="-518.3" font-family="Times,serif" font-size="14.00">BagFilterOperator</text>
</g>
<!-- bag&#45;&gt;BagFilterOperator
file_path_list -->
<g id="edge39" class="edge">
<title>bag&#45;&gt;BagFilterOperator
file_path_list</title>
<path fill="none" stroke="black" d="M944.41,-582.37C964.59,-572.35 995.4,-557.06 1020.7,-544.5"/>
<polygon fill="black" stroke="black" points="1022.31,-547.61 1029.7,-540.01 1019.19,-541.34 1022.31,-547.61"/>
</g>
<!-- BagFilterOperator
dir_list -->
<g id="node36" class="node">
<title>BagFilterOperator
dir_list</title>
<text text-anchor="middle" x="897" y="-518.3" font-family="Times,serif" font-size="14.00">BagFilterOperator</text>
</g>
<!-- bag&#45;&gt;BagFilterOperator
dir_list -->
<g id="edge40" class="edge">
<title>bag&#45;&gt;BagFilterOperator
dir_list</title>
<path fill="none" stroke="black" d="M916.84,-576.41C913.91,-568.54 910.35,-558.93 907.04,-550.04"/>
<polygon fill="black" stroke="black" points="910.24,-548.61 903.48,-540.45 903.68,-551.04 910.24,-548.61"/>
</g>
<!-- file_path_list -->
<g id="node37" class="node">
<title>file_path_list</title>
<ellipse fill="none" stroke="black" cx="1064" cy="-450" rx="69.59" ry="18"/>
<text text-anchor="middle" x="1064" y="-446.3" font-family="Times,serif" font-size="14.00">file_path_list</text>
</g>
<!-- BagFilterOperator
file_path_list&#45;&gt;file_path_list -->
<g id="edge41" class="edge">
<title>BagFilterOperator
file_path_list&#45;&gt;file_path_list</title>
<path fill="none" stroke="black" d="M1064,-503.7C1064,-495.98 1064,-486.71 1064,-478.11"/>
<polygon fill="black" stroke="black" points="1067.5,-478.1 1064,-468.1 1060.5,-478.1 1067.5,-478.1"/>
</g>
<!-- dir_list -->
<g id="node38" class="node">
<title>dir_list</title>
<ellipse fill="none" stroke="black" cx="897" cy="-450" rx="43" ry="18"/>
<text text-anchor="middle" x="897" y="-446.3" font-family="Times,serif" font-size="14.00">dir_list</text>
</g>
<!-- BagFilterOperator
dir_list&#45;&gt;dir_list -->
<g id="edge42" class="edge">
<title>BagFilterOperator
dir_list&#45;&gt;dir_list</title>
<path fill="none" stroke="black" d="M897,-503.7C897,-495.98 897,-486.71 897,-478.11"/>
<polygon fill="black" stroke="black" points="900.5,-478.1 897,-468.1 893.5,-478.1 900.5,-478.1"/>
</g>
<!-- Alias
source -->
<g id="node39" class="node">
<title>Alias
source</title>
<text text-anchor="middle" x="1110" y="-662.3" font-family="Times,serif" font-size="14.00">Alias</text>
</g>
<!-- root_path -->
<g id="node40" class="node">
<title>root_path</title>
<ellipse fill="none" stroke="black" cx="1205" cy="-594" rx="55.49" ry="18"/>
<text text-anchor="middle" x="1205" y="-590.3" font-family="Times,serif" font-size="14.00">root_path</text>
</g>
<!-- Alias
source&#45;&gt;root_path -->
<g id="edge43" class="edge">
<title>Alias
source&#45;&gt;root_path</title>
<path fill="none" stroke="black" d="M1133.5,-647.7C1146.2,-638.31 1162.1,-626.62 1175.6,-616.63"/>
<polygon fill="black" stroke="black" points="1177.72,-619.42 1183.7,-610.67 1173.57,-613.78 1177.72,-619.42"/>
</g>
<!-- PathLoader
paths -->
<g id="node41" class="node">
<title>PathLoader
paths</title>
<text text-anchor="middle" x="1205" y="-518.3" font-family="Times,serif" font-size="14.00">PathLoader</text>
</g>
<!-- root_path&#45;&gt;PathLoader
paths -->
<g id="edge44" class="edge">
<title>root_path&#45;&gt;PathLoader
paths</title>
<path fill="none" stroke="black" d="M1205,-575.7C1205,-567.98 1205,-558.71 1205,-550.11"/>
<polygon fill="black" stroke="black" points="1208.5,-550.1 1205,-540.1 1201.5,-550.1 1208.5,-550.1"/>
</g>
<!-- paths -->
<g id="node42" class="node">
<title>paths</title>
<ellipse fill="none" stroke="black" cx="1205" cy="-450" rx="36.5" ry="18"/>
<text text-anchor="middle" x="1205" y="-446.3" font-family="Times,serif" font-size="14.00">paths</text>
</g>
<!-- PathLoader
paths&#45;&gt;paths -->
<g id="edge45" class="edge">
<title>PathLoader
paths&#45;&gt;paths</title>
<path fill="none" stroke="black" d="M1205,-503.7C1205,-495.98 1205,-486.71 1205,-478.11"/>
<polygon fill="black" stroke="black" points="1208.5,-478.1 1205,-468.1 1201.5,-478.1 1208.5,-478.1"/>
</g>
<!-- source -->
<g id="node43" class="node">
<title>source</title>
<ellipse fill="none" stroke="black" cx="1008" cy="-738" rx="41.69" ry="18"/>
<text text-anchor="middle" x="1008" y="-734.3" font-family="Times,serif" font-size="14.00">source</text>
</g>
<!-- source&#45;&gt;Alias
source -->
<g id="edge46" class="edge">
<title>source&#45;&gt;Alias
source</title>
<path fill="none" stroke="black" d="M1029.1,-722.5C1042.8,-713.1 1060.9,-700.67 1076.6,-689.95"/>
<polygon fill="black" stroke="black" points="1078.67,-692.77 1084.9,-684.2 1074.69,-687.02 1078.67,-692.77"/>
</g>
<!-- FunctionOperator
bag -->
<g id="node44" class="node">
<title>FunctionOperator
bag</title>
<text text-anchor="middle" x="950" y="-662.3" font-family="Times,serif" font-size="14.00">FunctionOperator</text>
</g>
<!-- source&#45;&gt;FunctionOperator
bag -->
<g id="edge47" class="edge">
<title>source&#45;&gt;FunctionOperator
bag</title>
<path fill="none" stroke="black" d="M994.55,-720.76C987.44,-712.18 978.55,-701.46 970.6,-691.86"/>
<polygon fill="black" stroke="black" points="973.26,-689.59 964.19,-684.12 967.87,-694.05 973.26,-689.59"/>
</g>
<!-- FunctionOperator
bag&#45;&gt;bag -->
<g id="edge48" class="edge">
<title>FunctionOperator
bag&#45;&gt;bag</title>
<path fill="none" stroke="black" d="M943.33,-647.7C940.24,-639.7 936.51,-630.02 933.09,-621.15"/>
<polygon fill="black" stroke="black" points="936.28,-619.69 929.41,-611.62 929.75,-622.21 936.28,-619.69"/>
</g>
<!-- _exclude -->
<g id="node45" class="node">
<title>_exclude</title>
<ellipse fill="none" stroke="black" cx="1081" cy="-594" rx="50.89" ry="18"/>
<text text-anchor="middle" x="1081" y="-590.3" font-family="Times,serif" font-size="14.00">_exclude</text>
</g>
<!-- _exclude&#45;&gt;PathLoader
paths -->
<g id="edge49" class="edge">
<title>_exclude&#45;&gt;PathLoader
paths</title>
<path fill="none" stroke="black" d="M1107,-578.33C1124,-568.7 1146.6,-555.95 1165.8,-545.11"/>
<polygon fill="black" stroke="black" points="1167.69,-548.06 1174.7,-540.12 1164.27,-541.96 1167.69,-548.06"/>
</g>
</g>
</svg>
