<?xml version="1.0" encoding="UTF-8" standalone="no"?>
<!DOCTYPE svg PUBLIC "-//W3C//DTD SVG 1.1//EN"
 "http://www.w3.org/Graphics/SVG/1.1/DTD/svg11.dtd">
<!-- Generated by graphviz version 2.43.0 (0)
 -->
<!-- Pages: 1 -->
<svg width="1248pt" height="764pt"
 viewBox="0.00 0.00 1247.75 764.00" xmlns="http://www.w3.org/2000/svg" xmlns:xlink="http://www.w3.org/1999/xlink">
<g id="graph0" class="graph" transform="scale(1 1) rotate(0) translate(4 760)">
<polygon fill="white" stroke="transparent" points="-4,4 -4,-760 1243.75,-760 1243.75,4 -4,4"/>
<!-- Configuration
doc_configuration -->
<g id="node1" class="node">
<title>Configuration
doc_configuration</title>
<polygon fill="none" stroke="black" points="569.83,-660.44 661.5,-648 753.17,-660.44 753.08,-680.56 569.92,-680.56 569.83,-660.44"/>
<text text-anchor="middle" x="661.5" y="-662.3" font-family="Times,serif" font-size="14.00">Configuration</text>
</g>
<!-- doc_configuration -->
<g id="node2" class="node">
<title>doc_configuration</title>
<ellipse fill="none" stroke="black" cx="661.5" cy="-594" rx="93" ry="18"/>
<text text-anchor="middle" x="661.5" y="-590.3" font-family="Times,serif" font-size="14.00">doc_configuration</text>
</g>
<!-- Configuration
doc_configuration&#45;&gt;doc_configuration -->
<g id="edge1" class="edge">
<title>Configuration
doc_configuration&#45;&gt;doc_configuration</title>
<path fill="none" stroke="black" d="M661.5,-647.7C661.5,-639.98 661.5,-630.71 661.5,-622.11"/>
<polygon fill="black" stroke="black" points="665,-622.1 661.5,-612.1 658,-622.1 665,-622.1"/>
</g>
<!-- FunctionOperator
Document -->
<g id="node3" class="node">
<title>FunctionOperator
Document</title>
<text text-anchor="middle" x="63.5" y="-518.3" font-family="Times,serif" font-size="14.00">FO:&lt;lambda&gt;</text>
</g>
<!-- doc_configuration&#45;&gt;FunctionOperator
Document -->
<g id="edge2" class="edge">
<title>doc_configuration&#45;&gt;FunctionOperator
Document</title>
<path fill="none" stroke="black" d="M573.47,-588.01C470.22,-581.29 293.86,-567.13 133.29,-539.99"/>
<polygon fill="black" stroke="black" points="133.68,-536.51 123.23,-538.27 132.5,-543.41 133.68,-536.51"/>
</g>
<!-- BagMapOperator
docs -->
<g id="node4" class="node">
<title>BagMapOperator
docs</title>
<text text-anchor="middle" x="713.5" y="-518.3" font-family="Times,serif" font-size="14.00">BagMapOperator</text>
</g>
<!-- doc_configuration&#45;&gt;BagMapOperator
docs -->
<g id="edge3" class="edge">
<title>doc_configuration&#45;&gt;BagMapOperator
docs</title>
<path fill="none" stroke="black" d="M674.09,-576.05C680.26,-567.75 687.81,-557.58 694.65,-548.38"/>
<polygon fill="black" stroke="black" points="697.51,-550.39 700.67,-540.28 691.9,-546.22 697.51,-550.39"/>
</g>
<!-- Document -->
<g id="node5" class="node">
<title>Document</title>
<ellipse fill="none" stroke="black" cx="62.5" cy="-450" rx="58" ry="18"/>
<text text-anchor="middle" x="62.5" y="-446.3" font-family="Times,serif" font-size="14.00">Document</text>
</g>
<!-- FunctionOperator
Document&#45;&gt;Document -->
<g id="edge4" class="edge">
<title>FunctionOperator
Document&#45;&gt;Document</title>
<path fill="none" stroke="black" d="M63.25,-503.7C63.14,-495.98 63.01,-486.71 62.89,-478.11"/>
<polygon fill="black" stroke="black" points="66.39,-478.05 62.74,-468.1 59.39,-478.15 66.39,-478.05"/>
</g>
<!-- docs -->
<g id="node6" class="node">
<title>docs</title>
<ellipse fill="none" stroke="black" cx="713.5" cy="-450" rx="32" ry="18"/>
<text text-anchor="middle" x="713.5" y="-446.3" font-family="Times,serif" font-size="14.00">docs</text>
</g>
<!-- BagMapOperator
docs&#45;&gt;docs -->
<g id="edge5" class="edge">
<title>BagMapOperator
docs&#45;&gt;docs</title>
<path fill="none" stroke="black" d="M713.5,-503.7C713.5,-495.98 713.5,-486.71 713.5,-478.11"/>
<polygon fill="black" stroke="black" points="717,-478.1 713.5,-468.1 710,-478.1 717,-478.1"/>
</g>
<!-- FunctionOperator
vectorizer -->
<g id="node7" class="node">
<title>FunctionOperator
vectorizer</title>
<text text-anchor="middle" x="59.5" y="-374.3" font-family="Times,serif" font-size="14.00">FO:&lt;lambda&gt;</text>
</g>
<!-- Document&#45;&gt;FunctionOperator
vectorizer -->
<g id="edge6" class="edge">
<title>Document&#45;&gt;FunctionOperator
vectorizer</title>
<path fill="none" stroke="black" d="M61.76,-431.7C61.43,-423.98 61.03,-414.71 60.66,-406.11"/>
<polygon fill="black" stroke="black" points="64.16,-405.94 60.23,-396.1 57.16,-406.24 64.16,-405.94"/>
</g>
<!-- BagPropertyExtractor
get_dicts -->
<g id="node8" class="node">
<title>BagPropertyExtractor
get_dicts</title>
<text text-anchor="middle" x="383.5" y="-374.3" font-family="Times,serif" font-size="14.00">BagPropertyExtractor</text>
</g>
<!-- docs&#45;&gt;BagPropertyExtractor
get_dicts -->
<g id="edge7" class="edge">
<title>docs&#45;&gt;BagPropertyExtractor
get_dicts</title>
<path fill="none" stroke="black" d="M684.21,-442.79C637.53,-432.89 544.35,-413.12 474.01,-398.2"/>
<polygon fill="black" stroke="black" points="474.32,-394.69 463.81,-396.04 472.87,-401.54 474.32,-394.69"/>
</g>
<!-- DocumentBagMap
bag_apply -->
<g id="node9" class="node">
<title>DocumentBagMap
bag_apply</title>
<text text-anchor="middle" x="563.5" y="-374.3" font-family="Times,serif" font-size="14.00">DocumentBagMap</text>
</g>
<!-- docs&#45;&gt;DocumentBagMap
bag_apply -->
<g id="edge8" class="edge">
<title>docs&#45;&gt;DocumentBagMap
bag_apply</title>
<path fill="none" stroke="black" d="M689.73,-437.91C668.15,-427.84 635.74,-412.71 609.16,-400.31"/>
<polygon fill="black" stroke="black" points="610.57,-397.11 600.03,-396.05 607.61,-403.45 610.57,-397.11"/>
</g>
<!-- FunctionOperator
take -->
<g id="node10" class="node">
<title>FunctionOperator
take</title>
<text text-anchor="middle" x="852.5" y="-374.3" font-family="Times,serif" font-size="14.00">FO:&lt;lambda&gt;</text>
</g>
<!-- docs&#45;&gt;FunctionOperator
take -->
<g id="edge9" class="edge">
<title>docs&#45;&gt;FunctionOperator
take</title>
<path fill="none" stroke="black" d="M736.45,-437.44C756.28,-427.46 785.47,-412.76 809.61,-400.6"/>
<polygon fill="black" stroke="black" points="811.22,-403.71 818.58,-396.08 808.07,-397.45 811.22,-403.71"/>
</g>
<!-- FunctionOperator
compute -->
<g id="node11" class="node">
<title>FunctionOperator
compute</title>
<text text-anchor="middle" x="989.5" y="-374.3" font-family="Times,serif" font-size="14.00">FO:&lt;lambda&gt;</text>
</g>
<!-- docs&#45;&gt;FunctionOperator
compute -->
<g id="edge10" class="edge">
<title>docs&#45;&gt;FunctionOperator
compute</title>
<path fill="none" stroke="black" d="M742,-441.77C783.66,-431.21 862.49,-411.21 920.02,-396.62"/>
<polygon fill="black" stroke="black" points="920.94,-400 929.78,-394.15 919.23,-393.21 920.94,-400"/>
</g>
<!-- vectorizer -->
<g id="node33" class="node">
<title>vectorizer</title>
<ellipse fill="none" stroke="black" cx="58.5" cy="-306" rx="58" ry="18"/>
<text text-anchor="middle" x="58.5" y="-302.3" font-family="Times,serif" font-size="14.00">vectorizer</text>
</g>
<!-- FunctionOperator
vectorizer&#45;&gt;vectorizer -->
<g id="edge37" class="edge">
<title>FunctionOperator
vectorizer&#45;&gt;vectorizer</title>
<path fill="none" stroke="black" d="M59.25,-359.7C59.14,-351.98 59.01,-342.71 58.89,-334.11"/>
<polygon fill="black" stroke="black" points="62.39,-334.05 58.74,-324.1 55.39,-334.15 62.39,-334.05"/>
</g>
<!-- get_dicts -->
<g id="node15" class="node">
<title>get_dicts</title>
<ellipse fill="none" stroke="black" cx="186.5" cy="-306" rx="52.79" ry="18"/>
<text text-anchor="middle" x="186.5" y="-302.3" font-family="Times,serif" font-size="14.00">get_dicts</text>
</g>
<!-- BagPropertyExtractor
get_dicts&#45;&gt;get_dicts -->
<g id="edge15" class="edge">
<title>BagPropertyExtractor
get_dicts&#45;&gt;get_dicts</title>
<path fill="none" stroke="black" d="M335.56,-359.97C303.8,-348.68 262.43,-333.98 231.33,-322.93"/>
<polygon fill="black" stroke="black" points="232.21,-319.53 221.62,-319.48 229.87,-326.13 232.21,-319.53"/>
</g>
<!-- bag_apply -->
<g id="node16" class="node">
<title>bag_apply</title>
<ellipse fill="none" stroke="black" cx="402.5" cy="-306" rx="58" ry="18"/>
<text text-anchor="middle" x="402.5" y="-302.3" font-family="Times,serif" font-size="14.00">bag_apply</text>
</g>
<!-- DocumentBagMap
bag_apply&#45;&gt;bag_apply -->
<g id="edge16" class="edge">
<title>DocumentBagMap
bag_apply&#45;&gt;bag_apply</title>
<path fill="none" stroke="black" d="M524.11,-359.88C499.87,-349.34 468.83,-335.84 444.17,-325.12"/>
<polygon fill="black" stroke="black" points="445.29,-321.79 434.72,-321.01 442.49,-328.21 445.29,-321.79"/>
</g>
<!-- take -->
<g id="node27" class="node">
<title>take</title>
<ellipse fill="none" stroke="black" cx="852.5" cy="-306" rx="30.59" ry="18"/>
<text text-anchor="middle" x="852.5" y="-302.3" font-family="Times,serif" font-size="14.00">take</text>
</g>
<!-- FunctionOperator
take&#45;&gt;take -->
<g id="edge30" class="edge">
<title>FunctionOperator
take&#45;&gt;take</title>
<path fill="none" stroke="black" d="M852.5,-359.7C852.5,-351.98 852.5,-342.71 852.5,-334.11"/>
<polygon fill="black" stroke="black" points="856,-334.1 852.5,-324.1 849,-334.1 856,-334.1"/>
</g>
<!-- compute -->
<g id="node28" class="node">
<title>compute</title>
<ellipse fill="none" stroke="black" cx="989.5" cy="-306" rx="50.89" ry="18"/>
<text text-anchor="middle" x="989.5" y="-302.3" font-family="Times,serif" font-size="14.00">compute</text>
</g>
<!-- FunctionOperator
compute&#45;&gt;compute -->
<g id="edge31" class="edge">
<title>FunctionOperator
compute&#45;&gt;compute</title>
<path fill="none" stroke="black" d="M989.5,-359.7C989.5,-351.98 989.5,-342.71 989.5,-334.11"/>
<polygon fill="black" stroke="black" points="993,-334.1 989.5,-324.1 986,-334.1 993,-334.1"/>
</g>
<!-- Configuration
forgiving_extracts -->
<g id="node12" class="node">
<title>Configuration
forgiving_extracts</title>
<polygon fill="none" stroke="black" points="141.83,-516.44 233.5,-504 325.17,-516.44 325.08,-536.56 141.92,-536.56 141.83,-516.44"/>
<text text-anchor="middle" x="233.5" y="-518.3" font-family="Times,serif" font-size="14.00">Configuration</text>
</g>
<!-- forgiving_extracts -->
<g id="node13" class="node">
<title>forgiving_extracts</title>
<ellipse fill="none" stroke="black" cx="267.5" cy="-450" rx="95" ry="18"/>
<text text-anchor="middle" x="267.5" y="-446.3" font-family="Times,serif" font-size="14.00">forgiving_extracts</text>
</g>
<!-- Configuration
forgiving_extracts&#45;&gt;forgiving_extracts -->
<g id="edge11" class="edge">
<title>Configuration
forgiving_extracts&#45;&gt;forgiving_extracts</title>
<path fill="none" stroke="black" d="M241.39,-504.76C245.35,-496.61 250.24,-486.53 254.72,-477.31"/>
<polygon fill="black" stroke="black" points="257.96,-478.64 259.18,-468.12 251.67,-475.59 257.96,-478.64"/>
</g>
<!-- forgiving_extracts&#45;&gt;BagPropertyExtractor
get_dicts -->
<g id="edge12" class="edge">
<title>forgiving_extracts&#45;&gt;BagPropertyExtractor
get_dicts</title>
<path fill="none" stroke="black" d="M294.7,-432.59C310.07,-423.31 329.5,-411.59 346.26,-401.47"/>
<polygon fill="black" stroke="black" points="348.51,-404.2 355.26,-396.04 344.89,-398.21 348.51,-404.2"/>
</g>
<!-- forgiving_extracts&#45;&gt;DocumentBagMap
bag_apply -->
<g id="edge13" class="edge">
<title>forgiving_extracts&#45;&gt;DocumentBagMap
bag_apply</title>
<path fill="none" stroke="black" d="M324.57,-435.5C369.14,-424.96 431.68,-410.17 481.59,-398.37"/>
<polygon fill="black" stroke="black" points="482.47,-401.76 491.4,-396.05 480.86,-394.95 482.47,-401.76"/>
</g>
<!-- DocumentBagCreator
apply -->
<g id="node14" class="node">
<title>DocumentBagCreator
apply</title>
<text text-anchor="middle" x="358.5" y="-230.3" font-family="Times,serif" font-size="14.00">DocumentBagCreator</text>
</g>
<!-- forgiving_extracts&#45;&gt;DocumentBagCreator
apply -->
<g id="edge14" class="edge">
<title>forgiving_extracts&#45;&gt;DocumentBagCreator
apply</title>
<path fill="none" stroke="black" d="M269.55,-431.82C272.09,-413.55 277.27,-384.04 286.5,-360 300.49,-323.56 324.13,-285.16 340.49,-260.69"/>
<polygon fill="black" stroke="black" points="343.44,-262.57 346.15,-252.33 337.65,-258.65 343.44,-262.57"/>
</g>
<!-- apply -->
<g id="node17" class="node">
<title>apply</title>
<ellipse fill="none" stroke="black" cx="358.5" cy="-162" rx="36.5" ry="18"/>
<text text-anchor="middle" x="358.5" y="-158.3" font-family="Times,serif" font-size="14.00">apply</text>
</g>
<!-- DocumentBagCreator
apply&#45;&gt;apply -->
<g id="edge17" class="edge">
<title>DocumentBagCreator
apply&#45;&gt;apply</title>
<path fill="none" stroke="black" d="M358.5,-215.7C358.5,-207.98 358.5,-198.71 358.5,-190.11"/>
<polygon fill="black" stroke="black" points="362,-190.1 358.5,-180.1 355,-190.1 362,-190.1"/>
</g>
<!-- Alias
get_dicts -->
<g id="node18" class="node">
<title>Alias
get_dicts</title>
<text text-anchor="middle" x="186.5" y="-230.3" font-family="Times,serif" font-size="14.00">Alias</text>
</g>
<!-- get_dicts&#45;&gt;Alias
get_dicts -->
<g id="edge18" class="edge">
<title>get_dicts&#45;&gt;Alias
get_dicts</title>
<path fill="none" stroke="black" d="M186.5,-287.7C186.5,-279.98 186.5,-270.71 186.5,-262.11"/>
<polygon fill="black" stroke="black" points="190,-262.1 186.5,-252.1 183,-262.1 190,-262.1"/>
</g>
<!-- bag_apply&#45;&gt;DocumentBagCreator
apply -->
<g id="edge19" class="edge">
<title>bag_apply&#45;&gt;DocumentBagCreator
apply</title>
<path fill="none" stroke="black" d="M391.85,-288.05C386.74,-279.92 380.5,-270 374.81,-260.94"/>
<polygon fill="black" stroke="black" points="377.65,-258.88 369.36,-252.28 371.72,-262.61 377.65,-258.88"/>
</g>
<!-- DocumentBagExplode
exploded -->
<g id="node19" class="node">
<title>DocumentBagExplode
exploded</title>
<text text-anchor="middle" x="550.5" y="-230.3" font-family="Times,serif" font-size="14.00">DocumentBagExplode</text>
</g>
<!-- bag_apply&#45;&gt;DocumentBagExplode
exploded -->
<g id="edge20" class="edge">
<title>bag_apply&#45;&gt;DocumentBagExplode
exploded</title>
<path fill="none" stroke="black" d="M432.81,-290.67C453.71,-280.78 481.86,-267.46 505.39,-256.33"/>
<polygon fill="black" stroke="black" points="506.94,-259.47 514.49,-252.03 503.95,-253.14 506.94,-259.47"/>
</g>
<!-- d -->
<g id="node26" class="node">
<title>d</title>
<ellipse fill="none" stroke="black" cx="186.5" cy="-162" rx="27" ry="18"/>
<text text-anchor="middle" x="186.5" y="-158.3" font-family="Times,serif" font-size="14.00">d</text>
</g>
<!-- Alias
get_dicts&#45;&gt;d -->
<g id="edge29" class="edge">
<title>Alias
get_dicts&#45;&gt;d</title>
<path fill="none" stroke="black" d="M186.5,-215.7C186.5,-207.98 186.5,-198.71 186.5,-190.11"/>
<polygon fill="black" stroke="black" points="190,-190.1 186.5,-180.1 183,-190.1 190,-190.1"/>
</g>
<!-- exploded -->
<g id="node29" class="node">
<title>exploded</title>
<ellipse fill="none" stroke="black" cx="550.5" cy="-162" rx="52.79" ry="18"/>
<text text-anchor="middle" x="550.5" y="-158.3" font-family="Times,serif" font-size="14.00">exploded</text>
</g>
<!-- DocumentBagExplode
exploded&#45;&gt;exploded -->
<g id="edge32" class="edge">
<title>DocumentBagExplode
exploded&#45;&gt;exploded</title>
<path fill="none" stroke="black" d="M550.5,-215.7C550.5,-207.98 550.5,-198.71 550.5,-190.11"/>
<polygon fill="black" stroke="black" points="554,-190.1 550.5,-180.1 547,-190.1 554,-190.1"/>
</g>
<!-- Constant
_stats -->
<g id="node20" class="node">
<title>Constant
_stats</title>
<text text-anchor="middle" x="584.5" y="-518.3" font-family="Times,serif" font-size="14.00">Constant</text>
</g>
<!-- _stats -->
<g id="node21" class="node">
<title>_stats</title>
<ellipse fill="none" stroke="black" cx="574.5" cy="-450" rx="38.5" ry="18"/>
<text text-anchor="middle" x="574.5" y="-446.3" font-family="Times,serif" font-size="14.00">_stats</text>
</g>
<!-- Constant
_stats&#45;&gt;_stats -->
<g id="edge21" class="edge">
<title>Constant
_stats&#45;&gt;_stats</title>
<path fill="none" stroke="black" d="M582.03,-503.7C580.93,-495.98 579.6,-486.71 578.37,-478.11"/>
<polygon fill="black" stroke="black" points="581.82,-477.5 576.94,-468.1 574.89,-478.49 581.82,-477.5"/>
</g>
<!-- _stats&#45;&gt;BagPropertyExtractor
get_dicts -->
<g id="edge22" class="edge">
<title>_stats&#45;&gt;BagPropertyExtractor
get_dicts</title>
<path fill="none" stroke="black" d="M545.07,-438.22C517.05,-427.94 474.13,-412.22 439.57,-399.55"/>
<polygon fill="black" stroke="black" points="440.66,-396.22 430.07,-396.07 438.26,-402.8 440.66,-396.22"/>
</g>
<!-- _stats&#45;&gt;DocumentBagMap
bag_apply -->
<g id="edge23" class="edge">
<title>_stats&#45;&gt;DocumentBagMap
bag_apply</title>
<path fill="none" stroke="black" d="M571.78,-431.7C570.57,-423.98 569.11,-414.71 567.76,-406.11"/>
<polygon fill="black" stroke="black" points="571.2,-405.44 566.19,-396.1 564.28,-406.52 571.2,-405.44"/>
</g>
<!-- FunctionOperator
stats -->
<g id="node22" class="node">
<title>FunctionOperator
stats</title>
<text text-anchor="middle" x="715.5" y="-374.3" font-family="Times,serif" font-size="14.00">FO:&lt;lambda&gt;</text>
</g>
<!-- _stats&#45;&gt;FunctionOperator
stats -->
<g id="edge24" class="edge">
<title>_stats&#45;&gt;FunctionOperator
stats</title>
<path fill="none" stroke="black" d="M600.03,-436.32C620.07,-426.38 648.43,-412.3 672.02,-400.59"/>
<polygon fill="black" stroke="black" points="673.74,-403.64 681.14,-396.06 670.63,-397.37 673.74,-403.64"/>
</g>
<!-- stats -->
<g id="node23" class="node">
<title>stats</title>
<ellipse fill="none" stroke="black" cx="715.5" cy="-306" rx="34" ry="18"/>
<text text-anchor="middle" x="715.5" y="-302.3" font-family="Times,serif" font-size="14.00">stats</text>
</g>
<!-- FunctionOperator
stats&#45;&gt;stats -->
<g id="edge25" class="edge">
<title>FunctionOperator
stats&#45;&gt;stats</title>
<path fill="none" stroke="black" d="M715.5,-359.7C715.5,-351.98 715.5,-342.71 715.5,-334.11"/>
<polygon fill="black" stroke="black" points="719,-334.1 715.5,-324.1 712,-334.1 719,-334.1"/>
</g>
<!-- Configuration
verbosity -->
<g id="node24" class="node">
<title>Configuration
verbosity</title>
<polygon fill="none" stroke="black" points="342.83,-516.44 434.5,-504 526.17,-516.44 526.08,-536.56 342.92,-536.56 342.83,-516.44"/>
<text text-anchor="middle" x="434.5" y="-518.3" font-family="Times,serif" font-size="14.00">Configuration</text>
</g>
<!-- verbosity -->
<g id="node25" class="node">
<title>verbosity</title>
<ellipse fill="none" stroke="black" cx="434.5" cy="-450" rx="54" ry="18"/>
<text text-anchor="middle" x="434.5" y="-446.3" font-family="Times,serif" font-size="14.00">verbosity</text>
</g>
<!-- Configuration
verbosity&#45;&gt;verbosity -->
<g id="edge26" class="edge">
<title>Configuration
verbosity&#45;&gt;verbosity</title>
<path fill="none" stroke="black" d="M434.5,-503.7C434.5,-495.98 434.5,-486.71 434.5,-478.11"/>
<polygon fill="black" stroke="black" points="438,-478.1 434.5,-468.1 431,-478.1 438,-478.1"/>
</g>
<!-- verbosity&#45;&gt;BagPropertyExtractor
get_dicts -->
<g id="edge27" class="edge">
<title>verbosity&#45;&gt;BagPropertyExtractor
get_dicts</title>
<path fill="none" stroke="black" d="M422.41,-432.41C416.37,-424.12 408.92,-413.89 402.16,-404.62"/>
<polygon fill="black" stroke="black" points="404.93,-402.47 396.21,-396.45 399.27,-406.59 404.93,-402.47"/>
</g>
<!-- verbosity&#45;&gt;DocumentBagMap
bag_apply -->
<g id="edge28" class="edge">
<title>verbosity&#45;&gt;DocumentBagMap
bag_apply</title>
<path fill="none" stroke="black" d="M461.54,-434.33C479.35,-424.66 503,-411.83 523.03,-400.96"/>
<polygon fill="black" stroke="black" points="524.83,-403.97 531.95,-396.12 521.49,-397.81 524.83,-403.97"/>
</g>
<!-- Alias
exploded -->
<g id="node30" class="node">
<title>Alias
exploded</title>
<text text-anchor="middle" x="550.5" y="-86.3" font-family="Times,serif" font-size="14.00">Alias</text>
</g>
<!-- exploded&#45;&gt;Alias
exploded -->
<g id="edge33" class="edge">
<title>exploded&#45;&gt;Alias
exploded</title>
<path fill="none" stroke="black" d="M550.5,-143.7C550.5,-135.98 550.5,-126.71 550.5,-118.11"/>
<polygon fill="black" stroke="black" points="554,-118.1 550.5,-108.1 547,-118.1 554,-118.1"/>
</g>
<!-- e -->
<g id="node32" class="node">
<title>e</title>
<ellipse fill="none" stroke="black" cx="550.5" cy="-18" rx="27" ry="18"/>
<text text-anchor="middle" x="550.5" y="-14.3" font-family="Times,serif" font-size="14.00">e</text>
</g>
<!-- Alias
exploded&#45;&gt;e -->
<g id="edge36" class="edge">
<title>Alias
exploded&#45;&gt;e</title>
<path fill="none" stroke="black" d="M550.5,-71.7C550.5,-63.98 550.5,-54.71 550.5,-46.11"/>
<polygon fill="black" stroke="black" points="554,-46.1 550.5,-36.1 547,-46.1 554,-46.1"/>
</g>
<!-- configuration -->
<g id="node31" class="node">
<title>configuration</title>
<ellipse fill="none" stroke="black" cx="550.5" cy="-306" rx="72.29" ry="18"/>
<text text-anchor="middle" x="550.5" y="-302.3" font-family="Times,serif" font-size="14.00">configuration</text>
</g>
<!-- configuration&#45;&gt;DocumentBagCreator
apply -->
<g id="edge34" class="edge">
<title>configuration&#45;&gt;DocumentBagCreator
apply</title>
<path fill="none" stroke="black" d="M511.18,-290.67C483.46,-280.56 445.92,-266.87 415,-255.6"/>
<polygon fill="black" stroke="black" points="415.81,-252.17 405.22,-252.03 413.41,-258.75 415.81,-252.17"/>
</g>
<!-- configuration&#45;&gt;DocumentBagExplode
exploded -->
<g id="edge35" class="edge">
<title>configuration&#45;&gt;DocumentBagExplode
exploded</title>
<path fill="none" stroke="black" d="M550.5,-287.7C550.5,-279.98 550.5,-270.71 550.5,-262.11"/>
<polygon fill="black" stroke="black" points="554,-262.1 550.5,-252.1 547,-262.1 554,-262.1"/>
</g>
<!-- bag -->
<g id="node34" class="node">
<title>bag</title>
<ellipse fill="none" stroke="black" cx="902.5" cy="-594" rx="28" ry="18"/>
<text text-anchor="middle" x="902.5" y="-590.3" font-family="Times,serif" font-size="14.00">bag</text>
</g>
<!-- bag&#45;&gt;BagMapOperator
docs -->
<g id="edge38" class="edge">
<title>bag&#45;&gt;BagMapOperator
docs</title>
<path fill="none" stroke="black" d="M878.95,-584.28C851.6,-574.15 805.59,-557.11 769.02,-543.56"/>
<polygon fill="black" stroke="black" points="770.05,-540.21 759.46,-540.02 767.62,-546.77 770.05,-540.21"/>
</g>
<!-- BagFilterOperator
file_path_list -->
<g id="node35" class="node">
<title>BagFilterOperator
file_path_list</title>
<text text-anchor="middle" x="1043.5" y="-518.3" font-family="Times,serif" font-size="14.00">BagFilterOperator</text>
</g>
<!-- bag&#45;&gt;BagFilterOperator
file_path_list -->
<g id="edge39" class="edge">
<title>bag&#45;&gt;BagFilterOperator
file_path_list</title>
<path fill="none" stroke="black" d="M923.91,-582.37C944.09,-572.35 974.9,-557.06 1000.2,-544.5"/>
<polygon fill="black" stroke="black" points="1001.81,-547.61 1009.2,-540.01 998.69,-541.34 1001.81,-547.61"/>
</g>
<!-- BagFilterOperator
dir_list -->
<g id="node36" class="node">
<title>BagFilterOperator
dir_list</title>
<text text-anchor="middle" x="876.5" y="-518.3" font-family="Times,serif" font-size="14.00">BagFilterOperator</text>
</g>
<!-- bag&#45;&gt;BagFilterOperator
dir_list -->
<g id="edge40" class="edge">
<title>bag&#45;&gt;BagFilterOperator
dir_list</title>
<path fill="none" stroke="black" d="M896.34,-576.41C893.41,-568.54 889.85,-558.93 886.54,-550.04"/>
<polygon fill="black" stroke="black" points="889.74,-548.61 882.98,-540.45 883.18,-551.04 889.74,-548.61"/>
</g>
<!-- file_path_list -->
<g id="node37" class="node">
<title>file_path_list</title>
<ellipse fill="none" stroke="black" cx="1043.5" cy="-450" rx="69.59" ry="18"/>
<text text-anchor="middle" x="1043.5" y="-446.3" font-family="Times,serif" font-size="14.00">file_path_list</text>
</g>
<!-- BagFilterOperator
file_path_list&#45;&gt;file_path_list -->
<g id="edge41" class="edge">
<title>BagFilterOperator
file_path_list&#45;&gt;file_path_list</title>
<path fill="none" stroke="black" d="M1043.5,-503.7C1043.5,-495.98 1043.5,-486.71 1043.5,-478.11"/>
<polygon fill="black" stroke="black" points="1047,-478.1 1043.5,-468.1 1040,-478.1 1047,-478.1"/>
</g>
<!-- dir_list -->
<g id="node38" class="node">
<title>dir_list</title>
<ellipse fill="none" stroke="black" cx="876.5" cy="-450" rx="43" ry="18"/>
<text text-anchor="middle" x="876.5" y="-446.3" font-family="Times,serif" font-size="14.00">dir_list</text>
</g>
<!-- BagFilterOperator
dir_list&#45;&gt;dir_list -->
<g id="edge42" class="edge">
<title>BagFilterOperator
dir_list&#45;&gt;dir_list</title>
<path fill="none" stroke="black" d="M876.5,-503.7C876.5,-495.98 876.5,-486.71 876.5,-478.11"/>
<polygon fill="black" stroke="black" points="880,-478.1 876.5,-468.1 873,-478.1 880,-478.1"/>
</g>
<!-- Alias
source -->
<g id="node39" class="node">
<title>Alias
source</title>
<text text-anchor="middle" x="1082.5" y="-662.3" font-family="Times,serif" font-size="14.00">Alias</text>
</g>
<!-- root_path -->
<g id="node40" class="node">
<title>root_path</title>
<ellipse fill="none" stroke="black" cx="1184.5" cy="-594" rx="55.49" ry="18"/>
<text text-anchor="middle" x="1184.5" y="-590.3" font-family="Times,serif" font-size="14.00">root_path</text>
</g>
<!-- Alias
source&#45;&gt;root_path -->
<g id="edge43" class="edge">
<title>Alias
source&#45;&gt;root_path</title>
<path fill="none" stroke="black" d="M1107.5,-647.88C1121.4,-638.33 1138.8,-626.37 1153.6,-616.24"/>
<polygon fill="black" stroke="black" points="1155.66,-619.07 1161.9,-610.51 1151.68,-613.31 1155.66,-619.07"/>
</g>
<!-- PathLoader
paths -->
<g id="node41" class="node">
<title>PathLoader
paths</title>
<text text-anchor="middle" x="1184.5" y="-518.3" font-family="Times,serif" font-size="14.00">PathLoader</text>
</g>
<!-- root_path&#45;&gt;PathLoader
paths -->
<g id="edge44" class="edge">
<title>root_path&#45;&gt;PathLoader
paths</title>
<path fill="none" stroke="black" d="M1184.5,-575.7C1184.5,-567.98 1184.5,-558.71 1184.5,-550.11"/>
<polygon fill="black" stroke="black" points="1188,-550.1 1184.5,-540.1 1181,-550.1 1188,-550.1"/>
</g>
<!-- paths -->
<g id="node42" class="node">
<title>paths</title>
<ellipse fill="none" stroke="black" cx="1184.5" cy="-450" rx="36.5" ry="18"/>
<text text-anchor="middle" x="1184.5" y="-446.3" font-family="Times,serif" font-size="14.00">paths</text>
</g>
<!-- PathLoader
paths&#45;&gt;paths -->
<g id="edge45" class="edge">
<title>PathLoader
paths&#45;&gt;paths</title>
<path fill="none" stroke="black" d="M1184.5,-503.7C1184.5,-495.98 1184.5,-486.71 1184.5,-478.11"/>
<polygon fill="black" stroke="black" points="1188,-478.1 1184.5,-468.1 1181,-478.1 1188,-478.1"/>
</g>
<!-- source -->
<g id="node43" class="node">
<title>source</title>
<ellipse fill="none" stroke="black" cx="980.5" cy="-738" rx="41.69" ry="18"/>
<text text-anchor="middle" x="980.5" y="-734.3" font-family="Times,serif" font-size="14.00">source</text>
</g>
<!-- source&#45;&gt;Alias
source -->
<g id="edge46" class="edge">
<title>source&#45;&gt;Alias
source</title>
<path fill="none" stroke="black" d="M1001.6,-722.5C1015.3,-713.1 1033.4,-700.67 1049.1,-689.95"/>
<polygon fill="black" stroke="black" points="1051.17,-692.77 1057.4,-684.2 1047.19,-687.02 1051.17,-692.77"/>
</g>
<!-- FunctionOperator
bag -->
<g id="node44" class="node">
<title>FunctionOperator
bag</title>
<text text-anchor="middle" x="928.5" y="-662.3" font-family="Times,serif" font-size="14.00">FO:&lt;lambda&gt;</text>
</g>
<!-- source&#45;&gt;FunctionOperator
bag -->
<g id="edge47" class="edge">
<title>source&#45;&gt;FunctionOperator
bag</title>
<path fill="none" stroke="black" d="M968.44,-720.76C962.19,-712.35 954.42,-701.89 947.39,-692.44"/>
<polygon fill="black" stroke="black" points="949.99,-690.07 941.22,-684.12 944.37,-694.24 949.99,-690.07"/>
</g>
<!-- FunctionOperator
bag&#45;&gt;bag -->
<g id="edge48" class="edge">
<title>FunctionOperator
bag&#45;&gt;bag</title>
<path fill="none" stroke="black" d="M922.07,-647.7C919.1,-639.7 915.51,-630.02 912.21,-621.15"/>
<polygon fill="black" stroke="black" points="915.43,-619.78 908.67,-611.62 908.87,-622.21 915.43,-619.78"/>
</g>
<!-- _exclude -->
<g id="node45" class="node">
<title>_exclude</title>
<ellipse fill="none" stroke="black" cx="1060.5" cy="-594" rx="50.89" ry="18"/>
<text text-anchor="middle" x="1060.5" y="-590.3" font-family="Times,serif" font-size="14.00">_exclude</text>
</g>
<!-- _exclude&#45;&gt;PathLoader
paths -->
<g id="edge49" class="edge">
<title>_exclude&#45;&gt;PathLoader
paths</title>
<path fill="none" stroke="black" d="M1086.5,-578.33C1103.5,-568.7 1126.1,-555.95 1145.3,-545.11"/>
<polygon fill="black" stroke="black" points="1147.19,-548.06 1154.2,-540.12 1143.77,-541.96 1147.19,-548.06"/>
</g>
</g>
</svg>
