<?xml version="1.0" encoding="UTF-8" standalone="no"?>
<!DOCTYPE svg PUBLIC "-//W3C//DTD SVG 1.1//EN"
 "http://www.w3.org/Graphics/SVG/1.1/DTD/svg11.dtd">
<!-- Generated by graphviz version 2.43.0 (0)
 -->
<!-- Pages: 1 -->
<svg width="1142pt" height="836pt"
 viewBox="0.00 0.00 1141.96 836.00" xmlns="http://www.w3.org/2000/svg" xmlns:xlink="http://www.w3.org/1999/xlink">
<g id="graph0" class="graph" transform="scale(1 1) rotate(0) translate(4 832)">
<polygon fill="white" stroke="transparent" points="-4,4 -4,-832 1137.96,-832 1137.96,4 -4,4"/>
<!-- Configuration
doc_configuration -->
<g id="node1" class="node">
<title>Configuration
doc_configuration</title>
<polygon fill="none" stroke="black" points="1.33,-804.44 93,-792 184.67,-804.44 184.58,-824.56 1.42,-824.56 1.33,-804.44"/>
<text text-anchor="middle" x="93" y="-806.3" font-family="Times,serif" font-size="14.00">Configuration</text>
</g>
<!-- doc_configuration -->
<g id="node2" class="node">
<title>doc_configuration</title>
<ellipse fill="none" stroke="black" cx="93" cy="-738" rx="93" ry="18"/>
<text text-anchor="middle" x="93" y="-734.3" font-family="Times,serif" font-size="14.00">doc_configuration</text>
</g>
<!-- Configuration
doc_configuration&#45;&gt;doc_configuration -->
<g id="edge1" class="edge">
<title>Configuration
doc_configuration&#45;&gt;doc_configuration</title>
<path fill="none" stroke="black" d="M93,-791.7C93,-783.98 93,-774.71 93,-766.11"/>
<polygon fill="black" stroke="black" points="96.5,-766.1 93,-756.1 89.5,-766.1 96.5,-766.1"/>
</g>
<!-- FunctionOperator
Document -->
<g id="node3" class="node">
<title>FunctionOperator
Document</title>
<text text-anchor="middle" x="93" y="-662.3" font-family="Times,serif" font-size="14.00">FunctionOperator</text>
</g>
<!-- doc_configuration&#45;&gt;FunctionOperator
Document -->
<g id="edge2" class="edge">
<title>doc_configuration&#45;&gt;FunctionOperator
Document</title>
<path fill="none" stroke="black" d="M93,-719.7C93,-711.98 93,-702.71 93,-694.11"/>
<polygon fill="black" stroke="black" points="96.5,-694.1 93,-684.1 89.5,-694.1 96.5,-694.1"/>
</g>
<!-- Document -->
<g id="node4" class="node">
<title>Document</title>
<ellipse fill="none" stroke="black" cx="93" cy="-594" rx="58" ry="18"/>
<text text-anchor="middle" x="93" y="-590.3" font-family="Times,serif" font-size="14.00">Document</text>
</g>
<!-- FunctionOperator
Document&#45;&gt;Document -->
<g id="edge3" class="edge">
<title>FunctionOperator
Document&#45;&gt;Document</title>
<path fill="none" stroke="black" d="M93,-647.7C93,-639.98 93,-630.71 93,-622.11"/>
<polygon fill="black" stroke="black" points="96.5,-622.1 93,-612.1 89.5,-622.1 96.5,-622.1"/>
</g>
<!-- FunctionOperator
vectorizer -->
<g id="node5" class="node">
<title>FunctionOperator
vectorizer</title>
<text text-anchor="middle" x="93" y="-518.3" font-family="Times,serif" font-size="14.00">FunctionOperator</text>
</g>
<!-- Document&#45;&gt;FunctionOperator
vectorizer -->
<g id="edge4" class="edge">
<title>Document&#45;&gt;FunctionOperator
vectorizer</title>
<path fill="none" stroke="black" d="M93,-575.7C93,-567.98 93,-558.71 93,-550.11"/>
<polygon fill="black" stroke="black" points="96.5,-550.1 93,-540.1 89.5,-550.1 96.5,-550.1"/>
</g>
<!-- vectorizer -->
<g id="node34" class="node">
<title>vectorizer</title>
<ellipse fill="none" stroke="black" cx="93" cy="-450" rx="58" ry="18"/>
<text text-anchor="middle" x="93" y="-446.3" font-family="Times,serif" font-size="14.00">vectorizer</text>
</g>
<!-- FunctionOperator
vectorizer&#45;&gt;vectorizer -->
<g id="edge37" class="edge">
<title>FunctionOperator
vectorizer&#45;&gt;vectorizer</title>
<path fill="none" stroke="black" d="M93,-503.7C93,-495.98 93,-486.71 93,-478.11"/>
<polygon fill="black" stroke="black" points="96.5,-478.1 93,-468.1 89.5,-478.1 96.5,-478.1"/>
</g>
<!-- Configuration
forgiving_extracts -->
<g id="node6" class="node">
<title>Configuration
forgiving_extracts</title>
<polygon fill="none" stroke="black" points="702.33,-516.44 794,-504 885.67,-516.44 885.58,-536.56 702.41,-536.56 702.33,-516.44"/>
<text text-anchor="middle" x="794" y="-518.3" font-family="Times,serif" font-size="14.00">Configuration</text>
</g>
<!-- forgiving_extracts -->
<g id="node7" class="node">
<title>forgiving_extracts</title>
<ellipse fill="none" stroke="black" cx="793" cy="-450" rx="95" ry="18"/>
<text text-anchor="middle" x="793" y="-446.3" font-family="Times,serif" font-size="14.00">forgiving_extracts</text>
</g>
<!-- Configuration
forgiving_extracts&#45;&gt;forgiving_extracts -->
<g id="edge5" class="edge">
<title>Configuration
forgiving_extracts&#45;&gt;forgiving_extracts</title>
<path fill="none" stroke="black" d="M793.75,-503.7C793.64,-495.98 793.51,-486.71 793.39,-478.11"/>
<polygon fill="black" stroke="black" points="796.89,-478.05 793.25,-468.1 789.89,-478.15 796.89,-478.05"/>
</g>
<!-- BagPropertyExtractor
get_dicts -->
<g id="node8" class="node">
<title>BagPropertyExtractor
get_dicts</title>
<text text-anchor="middle" x="613" y="-374.3" font-family="Times,serif" font-size="14.00">BagPropertyExtractor</text>
</g>
<!-- forgiving_extracts&#45;&gt;BagPropertyExtractor
get_dicts -->
<g id="edge6" class="edge">
<title>forgiving_extracts&#45;&gt;BagPropertyExtractor
get_dicts</title>
<path fill="none" stroke="black" d="M753.05,-433.46C727.58,-423.56 694.25,-410.6 666.5,-399.8"/>
<polygon fill="black" stroke="black" points="667.53,-396.45 656.94,-396.09 664.99,-402.97 667.53,-396.45"/>
</g>
<!-- DocumentBagMap
bag_apply -->
<g id="node9" class="node">
<title>DocumentBagMap
bag_apply</title>
<text text-anchor="middle" x="793" y="-374.3" font-family="Times,serif" font-size="14.00">DocumentBagMap</text>
</g>
<!-- forgiving_extracts&#45;&gt;DocumentBagMap
bag_apply -->
<g id="edge7" class="edge">
<title>forgiving_extracts&#45;&gt;DocumentBagMap
bag_apply</title>
<path fill="none" stroke="black" d="M793,-431.7C793,-423.98 793,-414.71 793,-406.11"/>
<polygon fill="black" stroke="black" points="796.5,-406.1 793,-396.1 789.5,-406.1 796.5,-406.1"/>
</g>
<!-- DocumentBagCreator
apply -->
<g id="node10" class="node">
<title>DocumentBagCreator
apply</title>
<text text-anchor="middle" x="907" y="-230.3" font-family="Times,serif" font-size="14.00">DocumentBagCreator</text>
</g>
<!-- forgiving_extracts&#45;&gt;DocumentBagCreator
apply -->
<g id="edge8" class="edge">
<title>forgiving_extracts&#45;&gt;DocumentBagCreator
apply</title>
<path fill="none" stroke="black" d="M827.68,-433.14C865.24,-413.66 922.54,-376.6 943,-324 948.8,-309.09 947.7,-303.29 943,-288 939.99,-278.22 934.49,-268.62 928.69,-260.33"/>
<polygon fill="black" stroke="black" points="931.41,-258.13 922.61,-252.23 925.81,-262.33 931.41,-258.13"/>
</g>
<!-- get_dicts -->
<g id="node11" class="node">
<title>get_dicts</title>
<ellipse fill="none" stroke="black" cx="584" cy="-306" rx="52.79" ry="18"/>
<text text-anchor="middle" x="584" y="-302.3" font-family="Times,serif" font-size="14.00">get_dicts</text>
</g>
<!-- BagPropertyExtractor
get_dicts&#45;&gt;get_dicts -->
<g id="edge9" class="edge">
<title>BagPropertyExtractor
get_dicts&#45;&gt;get_dicts</title>
<path fill="none" stroke="black" d="M605.83,-359.7C602.57,-351.81 598.63,-342.3 595,-333.55"/>
<polygon fill="black" stroke="black" points="598.15,-332 591.09,-324.1 591.68,-334.68 598.15,-332"/>
</g>
<!-- bag_apply -->
<g id="node12" class="node">
<title>bag_apply</title>
<ellipse fill="none" stroke="black" cx="714" cy="-306" rx="58" ry="18"/>
<text text-anchor="middle" x="714" y="-302.3" font-family="Times,serif" font-size="14.00">bag_apply</text>
</g>
<!-- DocumentBagMap
bag_apply&#45;&gt;bag_apply -->
<g id="edge10" class="edge">
<title>DocumentBagMap
bag_apply&#45;&gt;bag_apply</title>
<path fill="none" stroke="black" d="M773.47,-359.7C763.33,-350.7 750.79,-339.6 739.85,-329.9"/>
<polygon fill="black" stroke="black" points="742.02,-327.15 732.22,-323.14 737.38,-332.39 742.02,-327.15"/>
</g>
<!-- apply -->
<g id="node13" class="node">
<title>apply</title>
<ellipse fill="none" stroke="black" cx="907" cy="-162" rx="36.5" ry="18"/>
<text text-anchor="middle" x="907" y="-158.3" font-family="Times,serif" font-size="14.00">apply</text>
</g>
<!-- DocumentBagCreator
apply&#45;&gt;apply -->
<g id="edge11" class="edge">
<title>DocumentBagCreator
apply&#45;&gt;apply</title>
<path fill="none" stroke="black" d="M907,-215.7C907,-207.98 907,-198.71 907,-190.11"/>
<polygon fill="black" stroke="black" points="910.5,-190.1 907,-180.1 903.5,-190.1 910.5,-190.1"/>
</g>
<!-- Alias
get_dicts -->
<g id="node14" class="node">
<title>Alias
get_dicts</title>
<text text-anchor="middle" x="582" y="-230.3" font-family="Times,serif" font-size="14.00">Alias</text>
</g>
<!-- get_dicts&#45;&gt;Alias
get_dicts -->
<g id="edge12" class="edge">
<title>get_dicts&#45;&gt;Alias
get_dicts</title>
<path fill="none" stroke="black" d="M583.51,-287.7C583.29,-279.98 583.02,-270.71 582.78,-262.11"/>
<polygon fill="black" stroke="black" points="586.28,-261.99 582.49,-252.1 579.28,-262.2 586.28,-261.99"/>
</g>
<!-- bag_apply&#45;&gt;DocumentBagCreator
apply -->
<g id="edge13" class="edge">
<title>bag_apply&#45;&gt;DocumentBagCreator
apply</title>
<path fill="none" stroke="black" d="M750.3,-291.83C778.41,-281.64 817.85,-267.33 850.14,-255.62"/>
<polygon fill="black" stroke="black" points="851.69,-258.78 859.9,-252.08 849.3,-252.2 851.69,-258.78"/>
</g>
<!-- DocumentBagExplode
exploded -->
<g id="node15" class="node">
<title>DocumentBagExplode
exploded</title>
<text text-anchor="middle" x="715" y="-230.3" font-family="Times,serif" font-size="14.00">DocumentBagExplode</text>
</g>
<!-- bag_apply&#45;&gt;DocumentBagExplode
exploded -->
<g id="edge14" class="edge">
<title>bag_apply&#45;&gt;DocumentBagExplode
exploded</title>
<path fill="none" stroke="black" d="M714.25,-287.7C714.36,-279.98 714.49,-270.71 714.61,-262.11"/>
<polygon fill="black" stroke="black" points="718.11,-262.15 714.76,-252.1 711.11,-262.05 718.11,-262.15"/>
</g>
<!-- d -->
<g id="node22" class="node">
<title>d</title>
<ellipse fill="none" stroke="black" cx="582" cy="-162" rx="27" ry="18"/>
<text text-anchor="middle" x="582" y="-158.3" font-family="Times,serif" font-size="14.00">d</text>
</g>
<!-- Alias
get_dicts&#45;&gt;d -->
<g id="edge23" class="edge">
<title>Alias
get_dicts&#45;&gt;d</title>
<path fill="none" stroke="black" d="M582,-215.7C582,-207.98 582,-198.71 582,-190.11"/>
<polygon fill="black" stroke="black" points="585.5,-190.1 582,-180.1 578.5,-190.1 585.5,-190.1"/>
</g>
<!-- exploded -->
<g id="node30" class="node">
<title>exploded</title>
<ellipse fill="none" stroke="black" cx="715" cy="-162" rx="52.79" ry="18"/>
<text text-anchor="middle" x="715" y="-158.3" font-family="Times,serif" font-size="14.00">exploded</text>
</g>
<!-- DocumentBagExplode
exploded&#45;&gt;exploded -->
<g id="edge32" class="edge">
<title>DocumentBagExplode
exploded&#45;&gt;exploded</title>
<path fill="none" stroke="black" d="M715,-215.7C715,-207.98 715,-198.71 715,-190.11"/>
<polygon fill="black" stroke="black" points="718.5,-190.1 715,-180.1 711.5,-190.1 718.5,-190.1"/>
</g>
<!-- Constant
_stats -->
<g id="node16" class="node">
<title>Constant
_stats</title>
<text text-anchor="middle" x="944" y="-518.3" font-family="Times,serif" font-size="14.00">Constant</text>
</g>
<!-- _stats -->
<g id="node17" class="node">
<title>_stats</title>
<ellipse fill="none" stroke="black" cx="944" cy="-450" rx="38.5" ry="18"/>
<text text-anchor="middle" x="944" y="-446.3" font-family="Times,serif" font-size="14.00">_stats</text>
</g>
<!-- Constant
_stats&#45;&gt;_stats -->
<g id="edge15" class="edge">
<title>Constant
_stats&#45;&gt;_stats</title>
<path fill="none" stroke="black" d="M944,-503.7C944,-495.98 944,-486.71 944,-478.11"/>
<polygon fill="black" stroke="black" points="947.5,-478.1 944,-468.1 940.5,-478.1 947.5,-478.1"/>
</g>
<!-- _stats&#45;&gt;BagPropertyExtractor
get_dicts -->
<g id="edge16" class="edge">
<title>_stats&#45;&gt;BagPropertyExtractor
get_dicts</title>
<path fill="none" stroke="black" d="M915.41,-437.82C909.38,-435.7 903.03,-433.64 897,-432 879,-427.1 785.95,-409.99 711.2,-396.51"/>
<polygon fill="black" stroke="black" points="711.71,-393.05 701.25,-394.72 710.47,-399.94 711.71,-393.05"/>
</g>
<!-- _stats&#45;&gt;DocumentBagMap
bag_apply -->
<g id="edge17" class="edge">
<title>_stats&#45;&gt;DocumentBagMap
bag_apply</title>
<path fill="none" stroke="black" d="M917.7,-436.81C896.03,-426.76 864.77,-412.27 838.98,-400.31"/>
<polygon fill="black" stroke="black" points="840.29,-397.06 829.75,-396.03 837.35,-403.41 840.29,-397.06"/>
</g>
<!-- FunctionOperator
stats -->
<g id="node18" class="node">
<title>FunctionOperator
stats</title>
<text text-anchor="middle" x="1061.96" y="-374.3" font-family="Times,serif" font-size="14.00">FunctionOperator</text>
</g>
<!-- _stats&#45;&gt;FunctionOperator
stats -->
<g id="edge18" class="edge">
<title>_stats&#45;&gt;FunctionOperator
stats</title>
<path fill="none" stroke="black" d="M966.75,-435.5C983.06,-425.83 1005.36,-412.58 1024.36,-401.35"/>
<polygon fill="black" stroke="black" points="1026.25,-404.3 1033.06,-396.18 1022.67,-398.28 1026.25,-404.3"/>
</g>
<!-- stats -->
<g id="node19" class="node">
<title>stats</title>
<ellipse fill="none" stroke="black" cx="1061.96" cy="-306" rx="34" ry="18"/>
<text text-anchor="middle" x="1061.96" y="-302.3" font-family="Times,serif" font-size="14.00">stats</text>
</g>
<!-- FunctionOperator
stats&#45;&gt;stats -->
<g id="edge19" class="edge">
<title>FunctionOperator
stats&#45;&gt;stats</title>
<path fill="none" stroke="black" d="M1061.96,-359.7C1061.96,-351.98 1061.96,-342.71 1061.96,-334.11"/>
<polygon fill="black" stroke="black" points="1065.46,-334.1 1061.96,-324.1 1058.46,-334.1 1065.46,-334.1"/>
</g>
<!-- Configuration
verbosity -->
<g id="node20" class="node">
<title>Configuration
verbosity</title>
<polygon fill="none" stroke="black" points="501.33,-516.44 593,-504 684.67,-516.44 684.58,-536.56 501.41,-536.56 501.33,-516.44"/>
<text text-anchor="middle" x="593" y="-518.3" font-family="Times,serif" font-size="14.00">Configuration</text>
</g>
<!-- verbosity -->
<g id="node21" class="node">
<title>verbosity</title>
<ellipse fill="none" stroke="black" cx="613" cy="-450" rx="54" ry="18"/>
<text text-anchor="middle" x="613" y="-446.3" font-family="Times,serif" font-size="14.00">verbosity</text>
</g>
<!-- Configuration
verbosity&#45;&gt;verbosity -->
<g id="edge20" class="edge">
<title>Configuration
verbosity&#45;&gt;verbosity</title>
<path fill="none" stroke="black" d="M597.74,-504.41C600.02,-496.42 602.82,-486.64 605.39,-477.64"/>
<polygon fill="black" stroke="black" points="608.77,-478.54 608.16,-467.96 602.04,-476.61 608.77,-478.54"/>
</g>
<!-- verbosity&#45;&gt;BagPropertyExtractor
get_dicts -->
<g id="edge21" class="edge">
<title>verbosity&#45;&gt;BagPropertyExtractor
get_dicts</title>
<path fill="none" stroke="black" d="M613,-431.7C613,-423.98 613,-414.71 613,-406.11"/>
<polygon fill="black" stroke="black" points="616.5,-406.1 613,-396.1 609.5,-406.1 616.5,-406.1"/>
</g>
<!-- verbosity&#45;&gt;DocumentBagMap
bag_apply -->
<g id="edge22" class="edge">
<title>verbosity&#45;&gt;DocumentBagMap
bag_apply</title>
<path fill="none" stroke="black" d="M646.86,-435.83C672.96,-425.68 709.54,-411.46 739.58,-399.78"/>
<polygon fill="black" stroke="black" points="741.03,-402.97 749.08,-396.08 738.49,-396.45 741.03,-402.97"/>
</g>
<!-- docs -->
<g id="node23" class="node">
<title>docs</title>
<ellipse fill="none" stroke="black" cx="435" cy="-450" rx="32" ry="18"/>
<text text-anchor="middle" x="435" y="-446.3" font-family="Times,serif" font-size="14.00">docs</text>
</g>
<!-- docs&#45;&gt;BagPropertyExtractor
get_dicts -->
<g id="edge24" class="edge">
<title>docs&#45;&gt;BagPropertyExtractor
get_dicts</title>
<path fill="none" stroke="black" d="M460.5,-438.97C486.4,-428.79 527.27,-412.72 560.18,-399.77"/>
<polygon fill="black" stroke="black" points="561.64,-402.96 569.67,-396.04 559.08,-396.44 561.64,-402.96"/>
</g>
<!-- docs&#45;&gt;DocumentBagMap
bag_apply -->
<g id="edge25" class="edge">
<title>docs&#45;&gt;DocumentBagMap
bag_apply</title>
<path fill="none" stroke="black" d="M464.73,-443.39C513.47,-434.16 613.67,-415.09 708.33,-396.32"/>
<polygon fill="black" stroke="black" points="709.22,-399.71 718.35,-394.33 707.86,-392.85 709.22,-399.71"/>
</g>
<!-- ChromaIndexFromBag
add_to_chroma -->
<g id="node24" class="node">
<title>ChromaIndexFromBag
add_to_chroma</title>
<text text-anchor="middle" x="93" y="-374.3" font-family="Times,serif" font-size="14.00">ChromaIndexFromBag</text>
</g>
<!-- docs&#45;&gt;ChromaIndexFromBag
add_to_chroma -->
<g id="edge26" class="edge">
<title>docs&#45;&gt;ChromaIndexFromBag
add_to_chroma</title>
<path fill="none" stroke="black" d="M405.55,-442.97C357.42,-433.12 259.94,-413.17 186.58,-398.15"/>
<polygon fill="black" stroke="black" points="186.89,-394.64 176.39,-396.07 185.49,-401.5 186.89,-394.64"/>
</g>
<!-- FunctionOperator
take -->
<g id="node25" class="node">
<title>FunctionOperator
take</title>
<text text-anchor="middle" x="273" y="-374.3" font-family="Times,serif" font-size="14.00">FunctionOperator</text>
</g>
<!-- docs&#45;&gt;FunctionOperator
take -->
<g id="edge27" class="edge">
<title>docs&#45;&gt;FunctionOperator
take</title>
<path fill="none" stroke="black" d="M410.4,-438.37C386.92,-428.22 350.88,-412.65 321.61,-400"/>
<polygon fill="black" stroke="black" points="322.93,-396.76 312.36,-396.01 320.15,-403.18 322.93,-396.76"/>
</g>
<!-- FunctionOperator
compute -->
<g id="node26" class="node">
<title>FunctionOperator
compute</title>
<text text-anchor="middle" x="435" y="-374.3" font-family="Times,serif" font-size="14.00">FunctionOperator</text>
</g>
<!-- docs&#45;&gt;FunctionOperator
compute -->
<g id="edge28" class="edge">
<title>docs&#45;&gt;FunctionOperator
compute</title>
<path fill="none" stroke="black" d="M435,-431.7C435,-423.98 435,-414.71 435,-406.11"/>
<polygon fill="black" stroke="black" points="438.5,-406.1 435,-396.1 431.5,-406.1 438.5,-406.1"/>
</g>
<!-- add_to_chroma -->
<g id="node27" class="node">
<title>add_to_chroma</title>
<ellipse fill="none" stroke="black" cx="93" cy="-306" rx="80.69" ry="18"/>
<text text-anchor="middle" x="93" y="-302.3" font-family="Times,serif" font-size="14.00">add_to_chroma</text>
</g>
<!-- ChromaIndexFromBag
add_to_chroma&#45;&gt;add_to_chroma -->
<g id="edge29" class="edge">
<title>ChromaIndexFromBag
add_to_chroma&#45;&gt;add_to_chroma</title>
<path fill="none" stroke="black" d="M93,-359.7C93,-351.98 93,-342.71 93,-334.11"/>
<polygon fill="black" stroke="black" points="96.5,-334.1 93,-324.1 89.5,-334.1 96.5,-334.1"/>
</g>
<!-- take -->
<g id="node28" class="node">
<title>take</title>
<ellipse fill="none" stroke="black" cx="273" cy="-306" rx="30.59" ry="18"/>
<text text-anchor="middle" x="273" y="-302.3" font-family="Times,serif" font-size="14.00">take</text>
</g>
<!-- FunctionOperator
take&#45;&gt;take -->
<g id="edge30" class="edge">
<title>FunctionOperator
take&#45;&gt;take</title>
<path fill="none" stroke="black" d="M273,-359.7C273,-351.98 273,-342.71 273,-334.11"/>
<polygon fill="black" stroke="black" points="276.5,-334.1 273,-324.1 269.5,-334.1 276.5,-334.1"/>
</g>
<!-- compute -->
<g id="node29" class="node">
<title>compute</title>
<ellipse fill="none" stroke="black" cx="435" cy="-306" rx="50.89" ry="18"/>
<text text-anchor="middle" x="435" y="-302.3" font-family="Times,serif" font-size="14.00">compute</text>
</g>
<!-- FunctionOperator
compute&#45;&gt;compute -->
<g id="edge31" class="edge">
<title>FunctionOperator
compute&#45;&gt;compute</title>
<path fill="none" stroke="black" d="M435,-359.7C435,-351.98 435,-342.71 435,-334.11"/>
<polygon fill="black" stroke="black" points="438.5,-334.1 435,-324.1 431.5,-334.1 438.5,-334.1"/>
</g>
<!-- Alias
exploded -->
<g id="node31" class="node">
<title>Alias
exploded</title>
<text text-anchor="middle" x="715" y="-86.3" font-family="Times,serif" font-size="14.00">Alias</text>
</g>
<!-- exploded&#45;&gt;Alias
exploded -->
<g id="edge33" class="edge">
<title>exploded&#45;&gt;Alias
exploded</title>
<path fill="none" stroke="black" d="M715,-143.7C715,-135.98 715,-126.71 715,-118.11"/>
<polygon fill="black" stroke="black" points="718.5,-118.1 715,-108.1 711.5,-118.1 718.5,-118.1"/>
</g>
<!-- e -->
<g id="node33" class="node">
<title>e</title>
<ellipse fill="none" stroke="black" cx="715" cy="-18" rx="27" ry="18"/>
<text text-anchor="middle" x="715" y="-14.3" font-family="Times,serif" font-size="14.00">e</text>
</g>
<!-- Alias
exploded&#45;&gt;e -->
<g id="edge36" class="edge">
<title>Alias
exploded&#45;&gt;e</title>
<path fill="none" stroke="black" d="M715,-71.7C715,-63.98 715,-54.71 715,-46.11"/>
<polygon fill="black" stroke="black" points="718.5,-46.1 715,-36.1 711.5,-46.1 718.5,-46.1"/>
</g>
<!-- configuration -->
<g id="node32" class="node">
<title>configuration</title>
<ellipse fill="none" stroke="black" cx="862" cy="-306" rx="72.29" ry="18"/>
<text text-anchor="middle" x="862" y="-302.3" font-family="Times,serif" font-size="14.00">configuration</text>
</g>
<!-- configuration&#45;&gt;DocumentBagCreator
apply -->
<g id="edge34" class="edge">
<title>configuration&#45;&gt;DocumentBagCreator
apply</title>
<path fill="none" stroke="black" d="M872.89,-288.05C878.12,-279.92 884.5,-270 890.32,-260.94"/>
<polygon fill="black" stroke="black" points="893.42,-262.58 895.9,-252.28 887.54,-258.79 893.42,-262.58"/>
</g>
<!-- configuration&#45;&gt;DocumentBagExplode
exploded -->
<g id="edge35" class="edge">
<title>configuration&#45;&gt;DocumentBagExplode
exploded</title>
<path fill="none" stroke="black" d="M830.1,-289.81C809.55,-280.02 782.51,-267.15 759.81,-256.34"/>
<polygon fill="black" stroke="black" points="761.24,-253.15 750.71,-252 758.23,-259.46 761.24,-253.15"/>
</g>
<!-- vectorizer&#45;&gt;ChromaIndexFromBag
add_to_chroma -->
<g id="edge38" class="edge">
<title>vectorizer&#45;&gt;ChromaIndexFromBag
add_to_chroma</title>
<path fill="none" stroke="black" d="M93,-431.7C93,-423.98 93,-414.71 93,-406.11"/>
<polygon fill="black" stroke="black" points="96.5,-406.1 93,-396.1 89.5,-406.1 96.5,-406.1"/>
</g>
<!-- Alias
source -->
<g id="node35" class="node">
<title>Alias
source</title>
<text text-anchor="middle" x="435" y="-518.3" font-family="Times,serif" font-size="14.00">Alias</text>
</g>
<!-- Alias
source&#45;&gt;docs -->
<g id="edge39" class="edge">
<title>Alias
source&#45;&gt;docs</title>
<path fill="none" stroke="black" d="M435,-503.7C435,-495.98 435,-486.71 435,-478.11"/>
<polygon fill="black" stroke="black" points="438.5,-478.1 435,-468.1 431.5,-478.1 438.5,-478.1"/>
</g>
<!-- source -->
<g id="node36" class="node">
<title>source</title>
<ellipse fill="none" stroke="black" cx="435" cy="-594" rx="41.69" ry="18"/>
<text text-anchor="middle" x="435" y="-590.3" font-family="Times,serif" font-size="14.00">source</text>
</g>
<!-- source&#45;&gt;Alias
source -->
<g id="edge40" class="edge">
<title>source&#45;&gt;Alias
source</title>
<path fill="none" stroke="black" d="M435,-575.7C435,-567.98 435,-558.71 435,-550.11"/>
<polygon fill="black" stroke="black" points="438.5,-550.1 435,-540.1 431.5,-550.1 438.5,-550.1"/>
</g>
</g>
</svg>
