<?xml version="1.0" encoding="UTF-8" standalone="no"?>
<!DOCTYPE svg PUBLIC "-//W3C//DTD SVG 1.1//EN"
 "http://www.w3.org/Graphics/SVG/1.1/DTD/svg11.dtd">
<!-- Generated by graphviz version 2.43.0 (0)
 -->
<!-- Pages: 1 -->
<svg width="1107pt" height="1052pt"
 viewBox="0.00 0.00 1106.58 1052.00" xmlns="http://www.w3.org/2000/svg" xmlns:xlink="http://www.w3.org/1999/xlink">
<g id="graph0" class="graph" transform="scale(1 1) rotate(0) translate(4 1048)">
<polygon fill="white" stroke="transparent" points="-4,4 -4,-1048 1102.58,-1048 1102.58,4 -4,4"/>
<!-- Configuration
doc_configuration -->
<g id="node1" class="node">
<title>Configuration
doc_configuration</title>
<polygon fill="none" stroke="black" points="220.33,-660.44 312,-648 403.67,-660.44 403.58,-680.56 220.42,-680.56 220.33,-660.44"/>
<text text-anchor="middle" x="312" y="-662.3" font-family="Times,serif" font-size="14.00">Configuration</text>
</g>
<!-- doc_configuration -->
<g id="node2" class="node">
<title>doc_configuration</title>
<ellipse fill="none" stroke="black" cx="312" cy="-594" rx="93" ry="18"/>
<text text-anchor="middle" x="312" y="-590.3" font-family="Times,serif" font-size="14.00">doc_configuration</text>
</g>
<!-- Configuration
doc_configuration&#45;&gt;doc_configuration -->
<g id="edge1" class="edge">
<title>Configuration
doc_configuration&#45;&gt;doc_configuration</title>
<path fill="none" stroke="black" d="M312,-647.7C312,-639.98 312,-630.71 312,-622.11"/>
<polygon fill="black" stroke="black" points="315.5,-622.1 312,-612.1 308.5,-622.1 315.5,-622.1"/>
</g>
<!-- FunctionOperator
Document -->
<g id="node3" class="node">
<title>FunctionOperator
Document</title>
<text text-anchor="middle" x="72" y="-518.3" font-family="Times,serif" font-size="14.00">FunctionOperator</text>
</g>
<!-- doc_configuration&#45;&gt;FunctionOperator
Document -->
<g id="edge2" class="edge">
<title>doc_configuration&#45;&gt;FunctionOperator
Document</title>
<path fill="none" stroke="black" d="M262.85,-578.67C227.45,-568.34 179.24,-554.28 140.13,-542.87"/>
<polygon fill="black" stroke="black" points="140.97,-539.47 130.39,-540.03 139.01,-546.19 140.97,-539.47"/>
</g>
<!-- BagMapOperator
docs -->
<g id="node4" class="node">
<title>BagMapOperator
docs</title>
<text text-anchor="middle" x="734" y="-518.3" font-family="Times,serif" font-size="14.00">BagMapOperator</text>
</g>
<!-- doc_configuration&#45;&gt;BagMapOperator
docs -->
<g id="edge3" class="edge">
<title>doc_configuration&#45;&gt;BagMapOperator
docs</title>
<path fill="none" stroke="black" d="M385.25,-582.85C452.4,-573.27 554.8,-557.98 653.91,-539.96"/>
<polygon fill="black" stroke="black" points="654.59,-543.39 663.8,-538.15 653.33,-536.51 654.59,-543.39"/>
</g>
<!-- Document -->
<g id="node5" class="node">
<title>Document</title>
<ellipse fill="none" stroke="black" cx="72" cy="-450" rx="58" ry="18"/>
<text text-anchor="middle" x="72" y="-446.3" font-family="Times,serif" font-size="14.00">Document</text>
</g>
<!-- FunctionOperator
Document&#45;&gt;Document -->
<g id="edge4" class="edge">
<title>FunctionOperator
Document&#45;&gt;Document</title>
<path fill="none" stroke="black" d="M72,-503.7C72,-495.98 72,-486.71 72,-478.11"/>
<polygon fill="black" stroke="black" points="75.5,-478.1 72,-468.1 68.5,-478.1 75.5,-478.1"/>
</g>
<!-- docs -->
<g id="node6" class="node">
<title>docs</title>
<ellipse fill="none" stroke="black" cx="734" cy="-450" rx="32" ry="18"/>
<text text-anchor="middle" x="734" y="-446.3" font-family="Times,serif" font-size="14.00">docs</text>
</g>
<!-- BagMapOperator
docs&#45;&gt;docs -->
<g id="edge5" class="edge">
<title>BagMapOperator
docs&#45;&gt;docs</title>
<path fill="none" stroke="black" d="M734,-503.7C734,-495.98 734,-486.71 734,-478.11"/>
<polygon fill="black" stroke="black" points="737.5,-478.1 734,-468.1 730.5,-478.1 737.5,-478.1"/>
</g>
<!-- FunctionOperator
vectorizer -->
<g id="node7" class="node">
<title>FunctionOperator
vectorizer</title>
<text text-anchor="middle" x="72" y="-374.3" font-family="Times,serif" font-size="14.00">FunctionOperator</text>
</g>
<!-- Document&#45;&gt;FunctionOperator
vectorizer -->
<g id="edge6" class="edge">
<title>Document&#45;&gt;FunctionOperator
vectorizer</title>
<path fill="none" stroke="black" d="M72,-431.7C72,-423.98 72,-414.71 72,-406.11"/>
<polygon fill="black" stroke="black" points="75.5,-406.1 72,-396.1 68.5,-406.1 75.5,-406.1"/>
</g>
<!-- BagPropertyExtractor
get_dicts -->
<g id="node8" class="node">
<title>BagPropertyExtractor
get_dicts</title>
<text text-anchor="middle" x="495" y="-374.3" font-family="Times,serif" font-size="14.00">BagPropertyExtractor</text>
</g>
<!-- docs&#45;&gt;BagPropertyExtractor
get_dicts -->
<g id="edge7" class="edge">
<title>docs&#45;&gt;BagPropertyExtractor
get_dicts</title>
<path fill="none" stroke="black" d="M706.12,-440.83C671.21,-430.61 610.24,-412.75 562.77,-398.85"/>
<polygon fill="black" stroke="black" points="563.74,-395.49 553.16,-396.04 561.78,-402.21 563.74,-395.49"/>
</g>
<!-- DocumentBagMap
bag_apply -->
<g id="node9" class="node">
<title>DocumentBagMap
bag_apply</title>
<text text-anchor="middle" x="315" y="-374.3" font-family="Times,serif" font-size="14.00">DocumentBagMap</text>
</g>
<!-- docs&#45;&gt;DocumentBagMap
bag_apply -->
<g id="edge8" class="edge">
<title>docs&#45;&gt;DocumentBagMap
bag_apply</title>
<path fill="none" stroke="black" d="M703.67,-443.84C683.39,-440.42 656.11,-435.86 632,-432 531.25,-415.85 503.25,-414.62 399.56,-396.24"/>
<polygon fill="black" stroke="black" points="400.08,-392.78 389.62,-394.47 398.85,-399.67 400.08,-392.78"/>
</g>
<!-- FunctionOperator
take -->
<g id="node10" class="node">
<title>FunctionOperator
take</title>
<text text-anchor="middle" x="997" y="-374.3" font-family="Times,serif" font-size="14.00">FunctionOperator</text>
</g>
<!-- docs&#45;&gt;FunctionOperator
take -->
<g id="edge9" class="edge">
<title>docs&#45;&gt;FunctionOperator
take</title>
<path fill="none" stroke="black" d="M762.15,-441.51C800.26,-431.37 869.66,-412.89 923.17,-398.65"/>
<polygon fill="black" stroke="black" points="924.2,-402 932.96,-396.04 922.4,-395.23 924.2,-402"/>
</g>
<!-- FunctionOperator
compute -->
<g id="node11" class="node">
<title>FunctionOperator
compute</title>
<text text-anchor="middle" x="835" y="-374.3" font-family="Times,serif" font-size="14.00">FunctionOperator</text>
</g>
<!-- docs&#45;&gt;FunctionOperator
compute -->
<g id="edge10" class="edge">
<title>docs&#45;&gt;FunctionOperator
compute</title>
<path fill="none" stroke="black" d="M753.47,-435.5C767.11,-426.05 785.68,-413.18 801.65,-402.11"/>
<polygon fill="black" stroke="black" points="803.98,-404.75 810.21,-396.18 800,-399 803.98,-404.75"/>
</g>
<!-- vectorizer -->
<g id="node33" class="node">
<title>vectorizer</title>
<ellipse fill="none" stroke="black" cx="72" cy="-306" rx="58" ry="18"/>
<text text-anchor="middle" x="72" y="-302.3" font-family="Times,serif" font-size="14.00">vectorizer</text>
</g>
<!-- FunctionOperator
vectorizer&#45;&gt;vectorizer -->
<g id="edge37" class="edge">
<title>FunctionOperator
vectorizer&#45;&gt;vectorizer</title>
<path fill="none" stroke="black" d="M72,-359.7C72,-351.98 72,-342.71 72,-334.11"/>
<polygon fill="black" stroke="black" points="75.5,-334.1 72,-324.1 68.5,-334.1 75.5,-334.1"/>
</g>
<!-- get_dicts -->
<g id="node15" class="node">
<title>get_dicts</title>
<ellipse fill="none" stroke="black" cx="580" cy="-306" rx="52.79" ry="18"/>
<text text-anchor="middle" x="580" y="-302.3" font-family="Times,serif" font-size="14.00">get_dicts</text>
</g>
<!-- BagPropertyExtractor
get_dicts&#45;&gt;get_dicts -->
<g id="edge15" class="edge">
<title>BagPropertyExtractor
get_dicts&#45;&gt;get_dicts</title>
<path fill="none" stroke="black" d="M516.01,-359.7C527.12,-350.55 540.88,-339.22 552.79,-329.41"/>
<polygon fill="black" stroke="black" points="555.19,-331.97 560.68,-322.91 550.74,-326.57 555.19,-331.97"/>
</g>
<!-- bag_apply -->
<g id="node16" class="node">
<title>bag_apply</title>
<ellipse fill="none" stroke="black" cx="289" cy="-306" rx="58" ry="18"/>
<text text-anchor="middle" x="289" y="-302.3" font-family="Times,serif" font-size="14.00">bag_apply</text>
</g>
<!-- DocumentBagMap
bag_apply&#45;&gt;bag_apply -->
<g id="edge16" class="edge">
<title>DocumentBagMap
bag_apply&#45;&gt;bag_apply</title>
<path fill="none" stroke="black" d="M308.57,-359.7C305.64,-351.81 302.11,-342.3 298.86,-333.55"/>
<polygon fill="black" stroke="black" points="302.11,-332.26 295.35,-324.1 295.55,-334.69 302.11,-332.26"/>
</g>
<!-- take -->
<g id="node27" class="node">
<title>take</title>
<ellipse fill="none" stroke="black" cx="997" cy="-306" rx="30.59" ry="18"/>
<text text-anchor="middle" x="997" y="-302.3" font-family="Times,serif" font-size="14.00">take</text>
</g>
<!-- FunctionOperator
take&#45;&gt;take -->
<g id="edge30" class="edge">
<title>FunctionOperator
take&#45;&gt;take</title>
<path fill="none" stroke="black" d="M997,-359.7C997,-351.98 997,-342.71 997,-334.11"/>
<polygon fill="black" stroke="black" points="1000.5,-334.1 997,-324.1 993.5,-334.1 1000.5,-334.1"/>
</g>
<!-- compute -->
<g id="node28" class="node">
<title>compute</title>
<ellipse fill="none" stroke="black" cx="835" cy="-306" rx="50.89" ry="18"/>
<text text-anchor="middle" x="835" y="-302.3" font-family="Times,serif" font-size="14.00">compute</text>
</g>
<!-- FunctionOperator
compute&#45;&gt;compute -->
<g id="edge31" class="edge">
<title>FunctionOperator
compute&#45;&gt;compute</title>
<path fill="none" stroke="black" d="M835,-359.7C835,-351.98 835,-342.71 835,-334.11"/>
<polygon fill="black" stroke="black" points="838.5,-334.1 835,-324.1 831.5,-334.1 838.5,-334.1"/>
</g>
<!-- Configuration
forgiving_extracts -->
<g id="node12" class="node">
<title>Configuration
forgiving_extracts</title>
<polygon fill="none" stroke="black" points="162.33,-516.44 254,-504 345.67,-516.44 345.58,-536.56 162.42,-536.56 162.33,-516.44"/>
<text text-anchor="middle" x="254" y="-518.3" font-family="Times,serif" font-size="14.00">Configuration</text>
</g>
<!-- forgiving_extracts -->
<g id="node13" class="node">
<title>forgiving_extracts</title>
<ellipse fill="none" stroke="black" cx="271" cy="-450" rx="95" ry="18"/>
<text text-anchor="middle" x="271" y="-446.3" font-family="Times,serif" font-size="14.00">forgiving_extracts</text>
</g>
<!-- Configuration
forgiving_extracts&#45;&gt;forgiving_extracts -->
<g id="edge11" class="edge">
<title>Configuration
forgiving_extracts&#45;&gt;forgiving_extracts</title>
<path fill="none" stroke="black" d="M258.03,-504.41C259.92,-496.62 262.22,-487.14 264.36,-478.33"/>
<polygon fill="black" stroke="black" points="267.8,-478.99 266.76,-468.45 261,-477.34 267.8,-478.99"/>
</g>
<!-- forgiving_extracts&#45;&gt;BagPropertyExtractor
get_dicts -->
<g id="edge12" class="edge">
<title>forgiving_extracts&#45;&gt;BagPropertyExtractor
get_dicts</title>
<path fill="none" stroke="black" d="M317.96,-434.33C350.56,-424.14 394.41,-410.44 430.31,-399.22"/>
<polygon fill="black" stroke="black" points="431.71,-402.45 440.21,-396.12 429.62,-395.77 431.71,-402.45"/>
</g>
<!-- forgiving_extracts&#45;&gt;DocumentBagMap
bag_apply -->
<g id="edge13" class="edge">
<title>forgiving_extracts&#45;&gt;DocumentBagMap
bag_apply</title>
<path fill="none" stroke="black" d="M281.65,-432.05C286.76,-423.92 293,-414 298.69,-404.94"/>
<polygon fill="black" stroke="black" points="301.78,-406.61 304.14,-396.28 295.85,-402.88 301.78,-406.61"/>
</g>
<!-- DocumentBagCreator
apply -->
<g id="node14" class="node">
<title>DocumentBagCreator
apply</title>
<text text-anchor="middle" x="245" y="-230.3" font-family="Times,serif" font-size="14.00">DocumentBagCreator</text>
</g>
<!-- forgiving_extracts&#45;&gt;DocumentBagCreator
apply -->
<g id="edge14" class="edge">
<title>forgiving_extracts&#45;&gt;DocumentBagCreator
apply</title>
<path fill="none" stroke="black" d="M254.35,-431.82C245.93,-422.09 236.37,-409.25 231,-396 212.89,-351.37 212.21,-335.16 222,-288 223.88,-278.96 227.37,-269.58 231.09,-261.26"/>
<polygon fill="black" stroke="black" points="234.33,-262.6 235.46,-252.07 228,-259.6 234.33,-262.6"/>
</g>
<!-- apply -->
<g id="node17" class="node">
<title>apply</title>
<ellipse fill="none" stroke="black" cx="245" cy="-162" rx="36.5" ry="18"/>
<text text-anchor="middle" x="245" y="-158.3" font-family="Times,serif" font-size="14.00">apply</text>
</g>
<!-- DocumentBagCreator
apply&#45;&gt;apply -->
<g id="edge17" class="edge">
<title>DocumentBagCreator
apply&#45;&gt;apply</title>
<path fill="none" stroke="black" d="M245,-215.7C245,-207.98 245,-198.71 245,-190.11"/>
<polygon fill="black" stroke="black" points="248.5,-190.1 245,-180.1 241.5,-190.1 248.5,-190.1"/>
</g>
<!-- Alias
get_dicts -->
<g id="node18" class="node">
<title>Alias
get_dicts</title>
<text text-anchor="middle" x="580" y="-230.3" font-family="Times,serif" font-size="14.00">Alias</text>
</g>
<!-- get_dicts&#45;&gt;Alias
get_dicts -->
<g id="edge18" class="edge">
<title>get_dicts&#45;&gt;Alias
get_dicts</title>
<path fill="none" stroke="black" d="M580,-287.7C580,-279.98 580,-270.71 580,-262.11"/>
<polygon fill="black" stroke="black" points="583.5,-262.1 580,-252.1 576.5,-262.1 583.5,-262.1"/>
</g>
<!-- bag_apply&#45;&gt;DocumentBagCreator
apply -->
<g id="edge19" class="edge">
<title>bag_apply&#45;&gt;DocumentBagCreator
apply</title>
<path fill="none" stroke="black" d="M278.35,-288.05C273.24,-279.92 267,-270 261.31,-260.94"/>
<polygon fill="black" stroke="black" points="264.15,-258.88 255.86,-252.28 258.22,-262.61 264.15,-258.88"/>
</g>
<!-- DocumentBagExplode
exploded -->
<g id="node19" class="node">
<title>DocumentBagExplode
exploded</title>
<text text-anchor="middle" x="437" y="-230.3" font-family="Times,serif" font-size="14.00">DocumentBagExplode</text>
</g>
<!-- bag_apply&#45;&gt;DocumentBagExplode
exploded -->
<g id="edge20" class="edge">
<title>bag_apply&#45;&gt;DocumentBagExplode
exploded</title>
<path fill="none" stroke="black" d="M319.31,-290.67C340.21,-280.78 368.36,-267.46 391.89,-256.33"/>
<polygon fill="black" stroke="black" points="393.44,-259.47 400.99,-252.03 390.45,-253.14 393.44,-259.47"/>
</g>
<!-- d -->
<g id="node26" class="node">
<title>d</title>
<ellipse fill="none" stroke="black" cx="580" cy="-162" rx="27" ry="18"/>
<text text-anchor="middle" x="580" y="-158.3" font-family="Times,serif" font-size="14.00">d</text>
</g>
<!-- Alias
get_dicts&#45;&gt;d -->
<g id="edge29" class="edge">
<title>Alias
get_dicts&#45;&gt;d</title>
<path fill="none" stroke="black" d="M580,-215.7C580,-207.98 580,-198.71 580,-190.11"/>
<polygon fill="black" stroke="black" points="583.5,-190.1 580,-180.1 576.5,-190.1 583.5,-190.1"/>
</g>
<!-- exploded -->
<g id="node29" class="node">
<title>exploded</title>
<ellipse fill="none" stroke="black" cx="437" cy="-162" rx="52.79" ry="18"/>
<text text-anchor="middle" x="437" y="-158.3" font-family="Times,serif" font-size="14.00">exploded</text>
</g>
<!-- DocumentBagExplode
exploded&#45;&gt;exploded -->
<g id="edge32" class="edge">
<title>DocumentBagExplode
exploded&#45;&gt;exploded</title>
<path fill="none" stroke="black" d="M437,-215.7C437,-207.98 437,-198.71 437,-190.11"/>
<polygon fill="black" stroke="black" points="440.5,-190.1 437,-180.1 433.5,-190.1 440.5,-190.1"/>
</g>
<!-- Constant
_stats -->
<g id="node20" class="node">
<title>Constant
_stats</title>
<text text-anchor="middle" x="605" y="-518.3" font-family="Times,serif" font-size="14.00">Constant</text>
</g>
<!-- _stats -->
<g id="node21" class="node">
<title>_stats</title>
<ellipse fill="none" stroke="black" cx="585" cy="-450" rx="38.5" ry="18"/>
<text text-anchor="middle" x="585" y="-446.3" font-family="Times,serif" font-size="14.00">_stats</text>
</g>
<!-- Constant
_stats&#45;&gt;_stats -->
<g id="edge21" class="edge">
<title>Constant
_stats&#45;&gt;_stats</title>
<path fill="none" stroke="black" d="M600.06,-503.7C597.83,-495.9 595.15,-486.51 592.67,-477.83"/>
<polygon fill="black" stroke="black" points="596,-476.75 589.89,-468.1 589.27,-478.68 596,-476.75"/>
</g>
<!-- _stats&#45;&gt;BagPropertyExtractor
get_dicts -->
<g id="edge22" class="edge">
<title>_stats&#45;&gt;BagPropertyExtractor
get_dicts</title>
<path fill="none" stroke="black" d="M565.91,-434.15C554.03,-424.92 538.5,-412.83 525,-402.33"/>
<polygon fill="black" stroke="black" points="526.95,-399.41 516.91,-396.04 522.66,-404.94 526.95,-399.41"/>
</g>
<!-- _stats&#45;&gt;DocumentBagMap
bag_apply -->
<g id="edge23" class="edge">
<title>_stats&#45;&gt;DocumentBagMap
bag_apply</title>
<path fill="none" stroke="black" d="M552.16,-440.49C512.27,-430.14 443.73,-412.37 390.55,-398.59"/>
<polygon fill="black" stroke="black" points="391.37,-395.19 380.81,-396.06 389.61,-401.96 391.37,-395.19"/>
</g>
<!-- FunctionOperator
stats -->
<g id="node22" class="node">
<title>FunctionOperator
stats</title>
<text text-anchor="middle" x="673" y="-374.3" font-family="Times,serif" font-size="14.00">FunctionOperator</text>
</g>
<!-- _stats&#45;&gt;FunctionOperator
stats -->
<g id="edge24" class="edge">
<title>_stats&#45;&gt;FunctionOperator
stats</title>
<path fill="none" stroke="black" d="M603.66,-434.15C615.28,-424.92 630.47,-412.83 643.67,-402.33"/>
<polygon fill="black" stroke="black" points="645.93,-405 651.58,-396.04 641.57,-399.52 645.93,-405"/>
</g>
<!-- stats -->
<g id="node23" class="node">
<title>stats</title>
<ellipse fill="none" stroke="black" cx="684" cy="-306" rx="34" ry="18"/>
<text text-anchor="middle" x="684" y="-302.3" font-family="Times,serif" font-size="14.00">stats</text>
</g>
<!-- FunctionOperator
stats&#45;&gt;stats -->
<g id="edge25" class="edge">
<title>FunctionOperator
stats&#45;&gt;stats</title>
<path fill="none" stroke="black" d="M675.72,-359.7C676.93,-351.98 678.39,-342.71 679.74,-334.11"/>
<polygon fill="black" stroke="black" points="683.22,-334.52 681.31,-324.1 676.3,-333.44 683.22,-334.52"/>
</g>
<!-- Configuration
verbosity -->
<g id="node24" class="node">
<title>Configuration
verbosity</title>
<polygon fill="none" stroke="black" points="363.33,-516.44 455,-504 546.67,-516.44 546.58,-536.56 363.42,-536.56 363.33,-516.44"/>
<text text-anchor="middle" x="455" y="-518.3" font-family="Times,serif" font-size="14.00">Configuration</text>
</g>
<!-- verbosity -->
<g id="node25" class="node">
<title>verbosity</title>
<ellipse fill="none" stroke="black" cx="455" cy="-450" rx="54" ry="18"/>
<text text-anchor="middle" x="455" y="-446.3" font-family="Times,serif" font-size="14.00">verbosity</text>
</g>
<!-- Configuration
verbosity&#45;&gt;verbosity -->
<g id="edge26" class="edge">
<title>Configuration
verbosity&#45;&gt;verbosity</title>
<path fill="none" stroke="black" d="M455,-503.7C455,-495.98 455,-486.71 455,-478.11"/>
<polygon fill="black" stroke="black" points="458.5,-478.1 455,-468.1 451.5,-478.1 458.5,-478.1"/>
</g>
<!-- verbosity&#45;&gt;BagPropertyExtractor
get_dicts -->
<g id="edge27" class="edge">
<title>verbosity&#45;&gt;BagPropertyExtractor
get_dicts</title>
<path fill="none" stroke="black" d="M464.68,-432.05C469.28,-424.01 474.88,-414.2 480.01,-405.23"/>
<polygon fill="black" stroke="black" points="483.2,-406.7 485.13,-396.28 477.13,-403.22 483.2,-406.7"/>
</g>
<!-- verbosity&#45;&gt;DocumentBagMap
bag_apply -->
<g id="edge28" class="edge">
<title>verbosity&#45;&gt;DocumentBagMap
bag_apply</title>
<path fill="none" stroke="black" d="M426.33,-434.67C406.73,-424.87 380.4,-411.7 358.26,-400.63"/>
<polygon fill="black" stroke="black" points="359.57,-397.37 349.06,-396.03 356.44,-403.63 359.57,-397.37"/>
</g>
<!-- Alias
exploded -->
<g id="node30" class="node">
<title>Alias
exploded</title>
<text text-anchor="middle" x="437" y="-86.3" font-family="Times,serif" font-size="14.00">Alias</text>
</g>
<!-- exploded&#45;&gt;Alias
exploded -->
<g id="edge33" class="edge">
<title>exploded&#45;&gt;Alias
exploded</title>
<path fill="none" stroke="black" d="M437,-143.7C437,-135.98 437,-126.71 437,-118.11"/>
<polygon fill="black" stroke="black" points="440.5,-118.1 437,-108.1 433.5,-118.1 440.5,-118.1"/>
</g>
<!-- e -->
<g id="node32" class="node">
<title>e</title>
<ellipse fill="none" stroke="black" cx="437" cy="-18" rx="27" ry="18"/>
<text text-anchor="middle" x="437" y="-14.3" font-family="Times,serif" font-size="14.00">e</text>
</g>
<!-- Alias
exploded&#45;&gt;e -->
<g id="edge36" class="edge">
<title>Alias
exploded&#45;&gt;e</title>
<path fill="none" stroke="black" d="M437,-71.7C437,-63.98 437,-54.71 437,-46.11"/>
<polygon fill="black" stroke="black" points="440.5,-46.1 437,-36.1 433.5,-46.1 440.5,-46.1"/>
</g>
<!-- configuration -->
<g id="node31" class="node">
<title>configuration</title>
<ellipse fill="none" stroke="black" cx="437" cy="-306" rx="72.29" ry="18"/>
<text text-anchor="middle" x="437" y="-302.3" font-family="Times,serif" font-size="14.00">configuration</text>
</g>
<!-- configuration&#45;&gt;DocumentBagCreator
apply -->
<g id="edge34" class="edge">
<title>configuration&#45;&gt;DocumentBagCreator
apply</title>
<path fill="none" stroke="black" d="M397.68,-290.67C369.96,-280.56 332.42,-266.87 301.5,-255.6"/>
<polygon fill="black" stroke="black" points="302.31,-252.17 291.72,-252.03 299.91,-258.75 302.31,-252.17"/>
</g>
<!-- configuration&#45;&gt;DocumentBagExplode
exploded -->
<g id="edge35" class="edge">
<title>configuration&#45;&gt;DocumentBagExplode
exploded</title>
<path fill="none" stroke="black" d="M437,-287.7C437,-279.98 437,-270.71 437,-262.11"/>
<polygon fill="black" stroke="black" points="440.5,-262.1 437,-252.1 433.5,-262.1 440.5,-262.1"/>
</g>
<!-- bag -->
<g id="node34" class="node">
<title>bag</title>
<ellipse fill="none" stroke="black" cx="734" cy="-594" rx="28" ry="18"/>
<text text-anchor="middle" x="734" y="-590.3" font-family="Times,serif" font-size="14.00">bag</text>
</g>
<!-- bag&#45;&gt;BagMapOperator
docs -->
<g id="edge38" class="edge">
<title>bag&#45;&gt;BagMapOperator
docs</title>
<path fill="none" stroke="black" d="M734,-575.7C734,-567.98 734,-558.71 734,-550.11"/>
<polygon fill="black" stroke="black" points="737.5,-550.1 734,-540.1 730.5,-550.1 737.5,-550.1"/>
</g>
<!-- FunctionOperator
sql
connection_string
index_column -->
<g id="node35" class="node">
<title>FunctionOperator
sql
connection_string
index_column</title>
<text text-anchor="middle" x="642" y="-950.3" font-family="Times,serif" font-size="14.00">FunctionOperator</text>
</g>
<!-- sql -->
<g id="node36" class="node">
<title>sql</title>
<ellipse fill="none" stroke="black" cx="504" cy="-882" rx="27" ry="18"/>
<text text-anchor="middle" x="504" y="-878.3" font-family="Times,serif" font-size="14.00">sql</text>
</g>
<!-- FunctionOperator
sql
connection_string
index_column&#45;&gt;sql -->
<g id="edge39" class="edge">
<title>FunctionOperator
sql
connection_string
index_column&#45;&gt;sql</title>
<path fill="none" stroke="black" d="M608.24,-935.88C585.58,-924.38 555.99,-909.37 534.13,-898.28"/>
<polygon fill="black" stroke="black" points="535.48,-895.04 524.98,-893.64 532.32,-901.28 535.48,-895.04"/>
</g>
<!-- connection_string -->
<g id="node37" class="node">
<title>connection_string</title>
<ellipse fill="none" stroke="black" cx="642" cy="-882" rx="93" ry="18"/>
<text text-anchor="middle" x="642" y="-878.3" font-family="Times,serif" font-size="14.00">connection_string</text>
</g>
<!-- FunctionOperator
sql
connection_string
index_column&#45;&gt;connection_string -->
<g id="edge40" class="edge">
<title>FunctionOperator
sql
connection_string
index_column&#45;&gt;connection_string</title>
<path fill="none" stroke="black" d="M642,-935.7C642,-927.98 642,-918.71 642,-910.11"/>
<polygon fill="black" stroke="black" points="645.5,-910.1 642,-900.1 638.5,-910.1 645.5,-910.1"/>
</g>
<!-- index_column -->
<g id="node38" class="node">
<title>index_column</title>
<ellipse fill="none" stroke="black" cx="827" cy="-882" rx="74.19" ry="18"/>
<text text-anchor="middle" x="827" y="-878.3" font-family="Times,serif" font-size="14.00">index_column</text>
</g>
<!-- FunctionOperator
sql
connection_string
index_column&#45;&gt;index_column -->
<g id="edge41" class="edge">
<title>FunctionOperator
sql
connection_string
index_column&#45;&gt;index_column</title>
<path fill="none" stroke="black" d="M687.26,-935.88C715.1,-925.34 750.75,-911.85 779.08,-901.13"/>
<polygon fill="black" stroke="black" points="780.65,-904.28 788.77,-897.47 778.18,-897.73 780.65,-904.28"/>
</g>
<!-- SQLTableLoader
dataframe -->
<g id="node39" class="node">
<title>SQLTableLoader
dataframe</title>
<text text-anchor="middle" x="734" y="-806.3" font-family="Times,serif" font-size="14.00">SQLTableLoader</text>
</g>
<!-- sql&#45;&gt;SQLTableLoader
dataframe -->
<g id="edge42" class="edge">
<title>sql&#45;&gt;SQLTableLoader
dataframe</title>
<path fill="none" stroke="black" d="M525.06,-870.31C529.9,-868.06 535.07,-865.82 540,-864 577.72,-850.06 620.77,-837.94 656.71,-828.82"/>
<polygon fill="black" stroke="black" points="657.8,-832.16 666.65,-826.33 656.1,-825.36 657.8,-832.16"/>
</g>
<!-- connection_string&#45;&gt;SQLTableLoader
dataframe -->
<g id="edge43" class="edge">
<title>connection_string&#45;&gt;SQLTableLoader
dataframe</title>
<path fill="none" stroke="black" d="M663.8,-864.41C675.57,-855.46 690.29,-844.25 703.21,-834.42"/>
<polygon fill="black" stroke="black" points="705.55,-837.04 711.39,-828.2 701.31,-831.47 705.55,-837.04"/>
</g>
<!-- index_column&#45;&gt;SQLTableLoader
dataframe -->
<g id="edge44" class="edge">
<title>index_column&#45;&gt;SQLTableLoader
dataframe</title>
<path fill="none" stroke="black" d="M805.43,-864.76C793.34,-855.67 778.07,-844.17 764.75,-834.14"/>
<polygon fill="black" stroke="black" points="766.84,-831.34 756.75,-828.12 762.64,-836.93 766.84,-831.34"/>
</g>
<!-- dataframe -->
<g id="node40" class="node">
<title>dataframe</title>
<ellipse fill="none" stroke="black" cx="734" cy="-738" rx="58.5" ry="18"/>
<text text-anchor="middle" x="734" y="-734.3" font-family="Times,serif" font-size="14.00">dataframe</text>
</g>
<!-- SQLTableLoader
dataframe&#45;&gt;dataframe -->
<g id="edge45" class="edge">
<title>SQLTableLoader
dataframe&#45;&gt;dataframe</title>
<path fill="none" stroke="black" d="M734,-791.7C734,-783.98 734,-774.71 734,-766.11"/>
<polygon fill="black" stroke="black" points="737.5,-766.1 734,-756.1 730.5,-766.1 737.5,-766.1"/>
</g>
<!-- FunctionOperator
bag -->
<g id="node41" class="node">
<title>FunctionOperator
bag</title>
<text text-anchor="middle" x="734" y="-662.3" font-family="Times,serif" font-size="14.00">FunctionOperator</text>
</g>
<!-- dataframe&#45;&gt;FunctionOperator
bag -->
<g id="edge46" class="edge">
<title>dataframe&#45;&gt;FunctionOperator
bag</title>
<path fill="none" stroke="black" d="M734,-719.7C734,-711.98 734,-702.71 734,-694.11"/>
<polygon fill="black" stroke="black" points="737.5,-694.1 734,-684.1 730.5,-694.1 737.5,-694.1"/>
</g>
<!-- FunctionOperator
bag&#45;&gt;bag -->
<g id="edge50" class="edge">
<title>FunctionOperator
bag&#45;&gt;bag</title>
<path fill="none" stroke="black" d="M734,-647.7C734,-639.98 734,-630.71 734,-622.11"/>
<polygon fill="black" stroke="black" points="737.5,-622.1 734,-612.1 730.5,-622.1 737.5,-622.1"/>
</g>
<!-- source -->
<g id="node42" class="node">
<title>source</title>
<ellipse fill="none" stroke="black" cx="642" cy="-1026" rx="41.69" ry="18"/>
<text text-anchor="middle" x="642" y="-1022.3" font-family="Times,serif" font-size="14.00">source</text>
</g>
<!-- source&#45;&gt;FunctionOperator
sql
connection_string
index_column -->
<g id="edge47" class="edge">
<title>source&#45;&gt;FunctionOperator
sql
connection_string
index_column</title>
<path fill="none" stroke="black" d="M642,-1007.7C642,-999.98 642,-990.71 642,-982.11"/>
<polygon fill="black" stroke="black" points="645.5,-982.1 642,-972.1 638.5,-982.1 645.5,-982.1"/>
</g>
<!-- Configuration
bytes_per_chunk -->
<g id="node43" class="node">
<title>Configuration
bytes_per_chunk</title>
<polygon fill="none" stroke="black" points="915.33,-948.44 1007,-936 1098.67,-948.44 1098.58,-968.56 915.42,-968.56 915.33,-948.44"/>
<text text-anchor="middle" x="1007" y="-950.3" font-family="Times,serif" font-size="14.00">Configuration</text>
</g>
<!-- bytes_per_chunk -->
<g id="node44" class="node">
<title>bytes_per_chunk</title>
<ellipse fill="none" stroke="black" cx="1007" cy="-882" rx="88.5" ry="18"/>
<text text-anchor="middle" x="1007" y="-878.3" font-family="Times,serif" font-size="14.00">bytes_per_chunk</text>
</g>
<!-- Configuration
bytes_per_chunk&#45;&gt;bytes_per_chunk -->
<g id="edge48" class="edge">
<title>Configuration
bytes_per_chunk&#45;&gt;bytes_per_chunk</title>
<path fill="none" stroke="black" d="M1007,-935.7C1007,-927.98 1007,-918.71 1007,-910.11"/>
<polygon fill="black" stroke="black" points="1010.5,-910.1 1007,-900.1 1003.5,-910.1 1010.5,-910.1"/>
</g>
<!-- bytes_per_chunk&#45;&gt;SQLTableLoader
dataframe -->
<g id="edge49" class="edge">
<title>bytes_per_chunk&#45;&gt;SQLTableLoader
dataframe</title>
<path fill="none" stroke="black" d="M954.36,-867.5C913.51,-857.03 856.3,-842.36 810.41,-830.59"/>
<polygon fill="black" stroke="black" points="811.06,-827.14 800.5,-828.05 809.32,-833.92 811.06,-827.14"/>
</g>
</g>
</svg>
