<?xml version="1.0" encoding="UTF-8" standalone="no"?>
<!DOCTYPE svg PUBLIC "-//W3C//DTD SVG 1.1//EN"
 "http://www.w3.org/Graphics/SVG/1.1/DTD/svg11.dtd">
<!-- Generated by graphviz version 2.43.0 (0)
 -->
<!-- Pages: 1 -->
<svg width="901pt" height="620pt"
 viewBox="0.00 0.00 900.58 620.00" xmlns="http://www.w3.org/2000/svg" xmlns:xlink="http://www.w3.org/1999/xlink">
<g id="graph0" class="graph" transform="scale(1 1) rotate(0) translate(4 616)">
<polygon fill="white" stroke="transparent" points="-4,4 -4,-616 896.58,-616 896.58,4 -4,4"/>
<!-- Configuration
doc_configuration -->
<g id="node1" class="node">
<title>Configuration
doc_configuration</title>
<polygon fill="none" stroke="black" points="-0.08,-372.44 91.58,-360 183.25,-372.44 183.17,-392.56 0,-392.56 -0.08,-372.44"/>
<text text-anchor="middle" x="91.58" y="-374.3" font-family="Times,serif" font-size="14.00">Configuration</text>
</g>
<!-- doc_configuration -->
<g id="node2" class="node">
<title>doc_configuration</title>
<ellipse fill="none" stroke="black" cx="123.58" cy="-306" rx="93" ry="18"/>
<text text-anchor="middle" x="123.58" y="-302.3" font-family="Times,serif" font-size="14.00">doc_configuration</text>
</g>
<!-- Configuration
doc_configuration&#45;&gt;doc_configuration -->
<g id="edge1" class="edge">
<title>Configuration
doc_configuration&#45;&gt;doc_configuration</title>
<path fill="none" stroke="black" d="M99.01,-360.76C102.73,-352.61 107.34,-342.53 111.56,-333.31"/>
<polygon fill="black" stroke="black" points="114.79,-334.67 115.76,-324.12 108.42,-331.76 114.79,-334.67"/>
</g>
<!-- LambdaOperator
vectorizer -->
<g id="node3" class="node">
<title>LambdaOperator
vectorizer</title>
<text text-anchor="middle" x="342.58" y="-230.3" font-family="Times,serif" font-size="14.00">LambdaOperator</text>
</g>
<!-- doc_configuration&#45;&gt;LambdaOperator
vectorizer -->
<g id="edge2" class="edge">
<title>doc_configuration&#45;&gt;LambdaOperator
vectorizer</title>
<path fill="none" stroke="black" d="M169.49,-290.33C201.37,-280.14 244.24,-266.44 279.34,-255.22"/>
<polygon fill="black" stroke="black" points="280.56,-258.5 289.02,-252.12 278.43,-251.84 280.56,-258.5"/>
</g>
<!-- vectorizer -->
<g id="node4" class="node">
<title>vectorizer</title>
<ellipse fill="none" stroke="black" cx="358.58" cy="-162" rx="58" ry="18"/>
<text text-anchor="middle" x="358.58" y="-158.3" font-family="Times,serif" font-size="14.00">vectorizer</text>
</g>
<!-- LambdaOperator
vectorizer&#45;&gt;vectorizer -->
<g id="edge3" class="edge">
<title>LambdaOperator
vectorizer&#45;&gt;vectorizer</title>
<path fill="none" stroke="black" d="M346.54,-215.7C348.3,-207.98 350.42,-198.71 352.39,-190.11"/>
<polygon fill="black" stroke="black" points="355.86,-190.63 354.67,-180.1 349.04,-189.07 355.86,-190.63"/>
</g>
<!-- ChromaIndexFromBag
chroma_index
compute_index
query_chroma -->
<g id="node5" class="node">
<title>ChromaIndexFromBag
chroma_index
compute_index
query_chroma</title>
<text text-anchor="middle" x="419.58" y="-86.3" font-family="Times,serif" font-size="14.00">ChromaIndexFromBag</text>
</g>
<!-- vectorizer&#45;&gt;ChromaIndexFromBag
chroma_index
compute_index
query_chroma -->
<g id="edge4" class="edge">
<title>vectorizer&#45;&gt;ChromaIndexFromBag
chroma_index
compute_index
query_chroma</title>
<path fill="none" stroke="black" d="M373.04,-144.41C380.42,-135.95 389.54,-125.47 397.76,-116.05"/>
<polygon fill="black" stroke="black" points="400.45,-118.29 404.38,-108.45 395.17,-113.69 400.45,-118.29"/>
</g>
<!-- chroma_index -->
<g id="node20" class="node">
<title>chroma_index</title>
<ellipse fill="none" stroke="black" cx="245.58" cy="-18" rx="75.5" ry="18"/>
<text text-anchor="middle" x="245.58" y="-14.3" font-family="Times,serif" font-size="14.00">chroma_index</text>
</g>
<!-- ChromaIndexFromBag
chroma_index
compute_index
query_chroma&#45;&gt;chroma_index -->
<g id="edge19" class="edge">
<title>ChromaIndexFromBag
chroma_index
compute_index
query_chroma&#45;&gt;chroma_index</title>
<path fill="none" stroke="black" d="M377.02,-71.88C351.21,-61.49 318.28,-48.24 291.83,-37.6"/>
<polygon fill="black" stroke="black" points="292.99,-34.3 282.41,-33.81 290.38,-40.79 292.99,-34.3"/>
</g>
<!-- compute_index -->
<g id="node21" class="node">
<title>compute_index</title>
<ellipse fill="none" stroke="black" cx="419.58" cy="-18" rx="80.69" ry="18"/>
<text text-anchor="middle" x="419.58" y="-14.3" font-family="Times,serif" font-size="14.00">compute_index</text>
</g>
<!-- ChromaIndexFromBag
chroma_index
compute_index
query_chroma&#45;&gt;compute_index -->
<g id="edge20" class="edge">
<title>ChromaIndexFromBag
chroma_index
compute_index
query_chroma&#45;&gt;compute_index</title>
<path fill="none" stroke="black" d="M419.58,-71.7C419.58,-63.98 419.58,-54.71 419.58,-46.11"/>
<polygon fill="black" stroke="black" points="423.08,-46.1 419.58,-36.1 416.08,-46.1 423.08,-46.1"/>
</g>
<!-- query_chroma -->
<g id="node22" class="node">
<title>query_chroma</title>
<ellipse fill="none" stroke="black" cx="594.58" cy="-18" rx="76.89" ry="18"/>
<text text-anchor="middle" x="594.58" y="-14.3" font-family="Times,serif" font-size="14.00">query_chroma</text>
</g>
<!-- ChromaIndexFromBag
chroma_index
compute_index
query_chroma&#45;&gt;query_chroma -->
<g id="edge21" class="edge">
<title>ChromaIndexFromBag
chroma_index
compute_index
query_chroma&#45;&gt;query_chroma</title>
<path fill="none" stroke="black" d="M462.39,-71.88C488.35,-61.49 521.48,-48.24 548.07,-37.6"/>
<polygon fill="black" stroke="black" points="549.56,-40.78 557.55,-33.81 546.96,-34.28 549.56,-40.78"/>
</g>
<!-- Alias
source -->
<g id="node6" class="node">
<title>Alias
source</title>
<text text-anchor="middle" x="551.58" y="-518.3" font-family="Times,serif" font-size="14.00">Alias</text>
</g>
<!-- docs -->
<g id="node7" class="node">
<title>docs</title>
<ellipse fill="none" stroke="black" cx="551.58" cy="-450" rx="32" ry="18"/>
<text text-anchor="middle" x="551.58" y="-446.3" font-family="Times,serif" font-size="14.00">docs</text>
</g>
<!-- Alias
source&#45;&gt;docs -->
<g id="edge5" class="edge">
<title>Alias
source&#45;&gt;docs</title>
<path fill="none" stroke="black" d="M551.58,-503.7C551.58,-495.98 551.58,-486.71 551.58,-478.11"/>
<polygon fill="black" stroke="black" points="555.08,-478.1 551.58,-468.1 548.08,-478.1 555.08,-478.1"/>
</g>
<!-- LambdaOperator
take -->
<g id="node8" class="node">
<title>LambdaOperator
take</title>
<text text-anchor="middle" x="473.58" y="-374.3" font-family="Times,serif" font-size="14.00">LambdaOperator</text>
</g>
<!-- docs&#45;&gt;LambdaOperator
take -->
<g id="edge6" class="edge">
<title>docs&#45;&gt;LambdaOperator
take</title>
<path fill="none" stroke="black" d="M535.04,-434.15C524.94,-425.09 511.79,-413.29 500.25,-402.93"/>
<polygon fill="black" stroke="black" points="502.35,-400.11 492.57,-396.04 497.68,-405.32 502.35,-400.11"/>
</g>
<!-- LambdaOperator
compute -->
<g id="node9" class="node">
<title>LambdaOperator
compute</title>
<text text-anchor="middle" x="629.58" y="-374.3" font-family="Times,serif" font-size="14.00">LambdaOperator</text>
</g>
<!-- docs&#45;&gt;LambdaOperator
compute -->
<g id="edge7" class="edge">
<title>docs&#45;&gt;LambdaOperator
compute</title>
<path fill="none" stroke="black" d="M568.13,-434.15C578.23,-425.09 591.38,-413.29 602.92,-402.93"/>
<polygon fill="black" stroke="black" points="605.49,-405.32 610.6,-396.04 600.82,-400.11 605.49,-405.32"/>
</g>
<!-- BagPropertyExtractor
get_dicts -->
<g id="node10" class="node">
<title>BagPropertyExtractor
get_dicts</title>
<text text-anchor="middle" x="804.58" y="-374.3" font-family="Times,serif" font-size="14.00">BagPropertyExtractor</text>
</g>
<!-- docs&#45;&gt;BagPropertyExtractor
get_dicts -->
<g id="edge8" class="edge">
<title>docs&#45;&gt;BagPropertyExtractor
get_dicts</title>
<path fill="none" stroke="black" d="M579.63,-441.24C616.43,-431.06 682.33,-412.82 733.33,-398.72"/>
<polygon fill="black" stroke="black" points="734.29,-402.09 742.99,-396.04 732.42,-395.34 734.29,-402.09"/>
</g>
<!-- DocumentBagExtractor
e -->
<g id="node11" class="node">
<title>DocumentBagExtractor
e</title>
<text text-anchor="middle" x="293.58" y="-374.3" font-family="Times,serif" font-size="14.00">DocumentBagExtractor</text>
</g>
<!-- docs&#45;&gt;DocumentBagExtractor
e -->
<g id="edge9" class="edge">
<title>docs&#45;&gt;DocumentBagExtractor
e</title>
<path fill="none" stroke="black" d="M523.48,-441.38C486.06,-431.22 418.52,-412.9 366.3,-398.73"/>
<polygon fill="black" stroke="black" points="366.97,-395.28 356.4,-396.04 365.13,-402.04 366.97,-395.28"/>
</g>
<!-- take -->
<g id="node12" class="node">
<title>take</title>
<ellipse fill="none" stroke="black" cx="473.58" cy="-306" rx="30.59" ry="18"/>
<text text-anchor="middle" x="473.58" y="-302.3" font-family="Times,serif" font-size="14.00">take</text>
</g>
<!-- LambdaOperator
take&#45;&gt;take -->
<g id="edge10" class="edge">
<title>LambdaOperator
take&#45;&gt;take</title>
<path fill="none" stroke="black" d="M473.58,-359.7C473.58,-351.98 473.58,-342.71 473.58,-334.11"/>
<polygon fill="black" stroke="black" points="477.08,-334.1 473.58,-324.1 470.08,-334.1 477.08,-334.1"/>
</g>
<!-- compute -->
<g id="node13" class="node">
<title>compute</title>
<ellipse fill="none" stroke="black" cx="629.58" cy="-306" rx="50.89" ry="18"/>
<text text-anchor="middle" x="629.58" y="-302.3" font-family="Times,serif" font-size="14.00">compute</text>
</g>
<!-- LambdaOperator
compute&#45;&gt;compute -->
<g id="edge11" class="edge">
<title>LambdaOperator
compute&#45;&gt;compute</title>
<path fill="none" stroke="black" d="M629.58,-359.7C629.58,-351.98 629.58,-342.71 629.58,-334.11"/>
<polygon fill="black" stroke="black" points="633.08,-334.1 629.58,-324.1 626.08,-334.1 633.08,-334.1"/>
</g>
<!-- get_dicts -->
<g id="node14" class="node">
<title>get_dicts</title>
<ellipse fill="none" stroke="black" cx="777.58" cy="-306" rx="52.79" ry="18"/>
<text text-anchor="middle" x="777.58" y="-302.3" font-family="Times,serif" font-size="14.00">get_dicts</text>
</g>
<!-- BagPropertyExtractor
get_dicts&#45;&gt;get_dicts -->
<g id="edge12" class="edge">
<title>BagPropertyExtractor
get_dicts&#45;&gt;get_dicts</title>
<path fill="none" stroke="black" d="M797.91,-359.7C794.87,-351.81 791.2,-342.3 787.82,-333.55"/>
<polygon fill="black" stroke="black" points="791.04,-332.17 784.18,-324.1 784.51,-334.69 791.04,-332.17"/>
</g>
<!-- e -->
<g id="node15" class="node">
<title>e</title>
<ellipse fill="none" stroke="black" cx="293.58" cy="-306" rx="27" ry="18"/>
<text text-anchor="middle" x="293.58" y="-302.3" font-family="Times,serif" font-size="14.00">e</text>
</g>
<!-- DocumentBagExtractor
e&#45;&gt;e -->
<g id="edge13" class="edge">
<title>DocumentBagExtractor
e&#45;&gt;e</title>
<path fill="none" stroke="black" d="M293.58,-359.7C293.58,-351.98 293.58,-342.71 293.58,-334.11"/>
<polygon fill="black" stroke="black" points="297.08,-334.1 293.58,-324.1 290.08,-334.1 297.08,-334.1"/>
</g>
<!-- LambdaOperator
idx_dict -->
<g id="node16" class="node">
<title>LambdaOperator
idx_dict</title>
<text text-anchor="middle" x="637.58" y="-230.3" font-family="Times,serif" font-size="14.00">LambdaOperator</text>
</g>
<!-- get_dicts&#45;&gt;LambdaOperator
idx_dict -->
<g id="edge14" class="edge">
<title>get_dicts&#45;&gt;LambdaOperator
idx_dict</title>
<path fill="none" stroke="black" d="M748.92,-290.67C729.32,-280.87 702.98,-267.7 680.85,-256.63"/>
<polygon fill="black" stroke="black" points="682.16,-253.37 671.65,-252.03 679.03,-259.63 682.16,-253.37"/>
</g>
<!-- idx_dict -->
<g id="node18" class="node">
<title>idx_dict</title>
<ellipse fill="none" stroke="black" cx="559.58" cy="-162" rx="47" ry="18"/>
<text text-anchor="middle" x="559.58" y="-158.3" font-family="Times,serif" font-size="14.00">idx_dict</text>
</g>
<!-- LambdaOperator
idx_dict&#45;&gt;idx_dict -->
<g id="edge16" class="edge">
<title>LambdaOperator
idx_dict&#45;&gt;idx_dict</title>
<path fill="none" stroke="black" d="M618.3,-215.7C608.21,-206.64 595.73,-195.44 584.87,-185.69"/>
<polygon fill="black" stroke="black" points="587.09,-182.98 577.31,-178.91 582.42,-188.19 587.09,-182.98"/>
</g>
<!-- source -->
<g id="node17" class="node">
<title>source</title>
<ellipse fill="none" stroke="black" cx="551.58" cy="-594" rx="41.69" ry="18"/>
<text text-anchor="middle" x="551.58" y="-590.3" font-family="Times,serif" font-size="14.00">source</text>
</g>
<!-- source&#45;&gt;Alias
source -->
<g id="edge15" class="edge">
<title>source&#45;&gt;Alias
source</title>
<path fill="none" stroke="black" d="M551.58,-575.7C551.58,-567.98 551.58,-558.71 551.58,-550.11"/>
<polygon fill="black" stroke="black" points="555.08,-550.1 551.58,-540.1 548.08,-550.1 555.08,-550.1"/>
</g>
<!-- idx_dict&#45;&gt;ChromaIndexFromBag
chroma_index
compute_index
query_chroma -->
<g id="edge17" class="edge">
<title>idx_dict&#45;&gt;ChromaIndexFromBag
chroma_index
compute_index
query_chroma</title>
<path fill="none" stroke="black" d="M532.26,-147.34C512.54,-137.48 485.5,-123.96 462.86,-112.64"/>
<polygon fill="black" stroke="black" points="464.29,-109.44 453.78,-108.1 461.16,-115.7 464.29,-109.44"/>
</g>
<!-- configuration -->
<g id="node19" class="node">
<title>configuration</title>
<ellipse fill="none" stroke="black" cx="293.58" cy="-450" rx="72.29" ry="18"/>
<text text-anchor="middle" x="293.58" y="-446.3" font-family="Times,serif" font-size="14.00">configuration</text>
</g>
<!-- configuration&#45;&gt;DocumentBagExtractor
e -->
<g id="edge18" class="edge">
<title>configuration&#45;&gt;DocumentBagExtractor
e</title>
<path fill="none" stroke="black" d="M293.58,-431.7C293.58,-423.98 293.58,-414.71 293.58,-406.11"/>
<polygon fill="black" stroke="black" points="297.08,-406.1 293.58,-396.1 290.08,-406.1 297.08,-406.1"/>
</g>
</g>
</svg>
