<?xml version="1.0" encoding="UTF-8" standalone="no"?>
<!DOCTYPE svg PUBLIC "-//W3C//DTD SVG 1.1//EN"
 "http://www.w3.org/Graphics/SVG/1.1/DTD/svg11.dtd">
<!-- Generated by graphviz version 2.43.0 (0)
 -->
<!-- Pages: 1 -->
<svg width="817pt" height="1052pt"
 viewBox="0.00 0.00 817.50 1052.00" xmlns="http://www.w3.org/2000/svg" xmlns:xlink="http://www.w3.org/1999/xlink">
<g id="graph0" class="graph" transform="scale(1 1) rotate(0) translate(4 1048)">
<polygon fill="white" stroke="transparent" points="-4,4 -4,-1048 813.5,-1048 813.5,4 -4,4"/>
<!-- Configuration
doc_configuration -->
<g id="node1" class="node">
<title>Configuration
doc_configuration</title>
<polygon fill="none" stroke="black" points="103.83,-660.44 195.5,-648 287.17,-660.44 287.08,-680.56 103.91,-680.56 103.83,-660.44"/>
<text text-anchor="middle" x="195.5" y="-662.3" font-family="Times,serif" font-size="14.00">Configuration</text>
</g>
<!-- doc_configuration -->
<g id="node2" class="node">
<title>doc_configuration</title>
<ellipse fill="none" stroke="black" cx="195.5" cy="-594" rx="93" ry="18"/>
<text text-anchor="middle" x="195.5" y="-590.3" font-family="Times,serif" font-size="14.00">doc_configuration</text>
</g>
<!-- Configuration
doc_configuration&#45;&gt;doc_configuration -->
<g id="edge1" class="edge">
<title>Configuration
doc_configuration&#45;&gt;doc_configuration</title>
<path fill="none" stroke="black" d="M195.5,-647.7C195.5,-639.98 195.5,-630.71 195.5,-622.11"/>
<polygon fill="black" stroke="black" points="199,-622.1 195.5,-612.1 192,-622.1 199,-622.1"/>
</g>
<!-- BagMapOperator
docs -->
<g id="node3" class="node">
<title>BagMapOperator
docs</title>
<text text-anchor="middle" x="391.5" y="-518.3" font-family="Times,serif" font-size="14.00">BagMapOperator</text>
</g>
<!-- doc_configuration&#45;&gt;BagMapOperator
docs -->
<g id="edge2" class="edge">
<title>doc_configuration&#45;&gt;BagMapOperator
docs</title>
<path fill="none" stroke="black" d="M238.03,-577.81C266.17,-567.76 303.41,-554.46 334.16,-543.48"/>
<polygon fill="black" stroke="black" points="335.66,-546.66 343.9,-540 333.3,-540.07 335.66,-546.66"/>
</g>
<!-- LambdaOperator
vectorizer -->
<g id="node4" class="node">
<title>LambdaOperator
vectorizer</title>
<text text-anchor="middle" x="160.5" y="-518.3" font-family="Times,serif" font-size="14.00">LambdaOperator</text>
</g>
<!-- doc_configuration&#45;&gt;LambdaOperator
vectorizer -->
<g id="edge3" class="edge">
<title>doc_configuration&#45;&gt;LambdaOperator
vectorizer</title>
<path fill="none" stroke="black" d="M187.03,-576.05C183.01,-568.01 178.11,-558.2 173.62,-549.23"/>
<polygon fill="black" stroke="black" points="176.74,-547.66 169.14,-540.28 170.48,-550.79 176.74,-547.66"/>
</g>
<!-- docs -->
<g id="node5" class="node">
<title>docs</title>
<ellipse fill="none" stroke="black" cx="409.5" cy="-450" rx="32" ry="18"/>
<text text-anchor="middle" x="409.5" y="-446.3" font-family="Times,serif" font-size="14.00">docs</text>
</g>
<!-- BagMapOperator
docs&#45;&gt;docs -->
<g id="edge4" class="edge">
<title>BagMapOperator
docs&#45;&gt;docs</title>
<path fill="none" stroke="black" d="M395.95,-503.7C397.96,-495.9 400.37,-486.51 402.6,-477.83"/>
<polygon fill="black" stroke="black" points="406,-478.66 405.11,-468.1 399.22,-476.91 406,-478.66"/>
</g>
<!-- vectorizer -->
<g id="node6" class="node">
<title>vectorizer</title>
<ellipse fill="none" stroke="black" cx="177.5" cy="-234" rx="58" ry="18"/>
<text text-anchor="middle" x="177.5" y="-230.3" font-family="Times,serif" font-size="14.00">vectorizer</text>
</g>
<!-- LambdaOperator
vectorizer&#45;&gt;vectorizer -->
<g id="edge5" class="edge">
<title>LambdaOperator
vectorizer&#45;&gt;vectorizer</title>
<path fill="none" stroke="black" d="M148.44,-503.8C129.43,-474.55 95.98,-413.14 109.5,-360 119.05,-322.47 142.4,-284.04 159.07,-259.87"/>
<polygon fill="black" stroke="black" points="161.96,-261.84 164.87,-251.65 156.24,-257.8 161.96,-261.84"/>
</g>
<!-- LambdaOperator
take -->
<g id="node7" class="node">
<title>LambdaOperator
take</title>
<text text-anchor="middle" x="584.5" y="-374.3" font-family="Times,serif" font-size="14.00">LambdaOperator</text>
</g>
<!-- docs&#45;&gt;LambdaOperator
take -->
<g id="edge6" class="edge">
<title>docs&#45;&gt;LambdaOperator
take</title>
<path fill="none" stroke="black" d="M434.95,-438.82C460.29,-428.68 499.95,-412.82 532.05,-399.98"/>
<polygon fill="black" stroke="black" points="533.76,-403.06 541.75,-396.1 531.16,-396.56 533.76,-403.06"/>
</g>
<!-- LambdaOperator
compute -->
<g id="node8" class="node">
<title>LambdaOperator
compute</title>
<text text-anchor="middle" x="740.5" y="-374.3" font-family="Times,serif" font-size="14.00">LambdaOperator</text>
</g>
<!-- docs&#45;&gt;LambdaOperator
compute -->
<g id="edge7" class="edge">
<title>docs&#45;&gt;LambdaOperator
compute</title>
<path fill="none" stroke="black" d="M439.12,-442.88C484.63,-433.45 574.74,-414.72 661.21,-396.27"/>
<polygon fill="black" stroke="black" points="662.14,-399.65 671.19,-394.14 660.68,-392.8 662.14,-399.65"/>
</g>
<!-- BagPropertyExtractor
get_dicts -->
<g id="node9" class="node">
<title>BagPropertyExtractor
get_dicts</title>
<text text-anchor="middle" x="409.5" y="-374.3" font-family="Times,serif" font-size="14.00">BagPropertyExtractor</text>
</g>
<!-- docs&#45;&gt;BagPropertyExtractor
get_dicts -->
<g id="edge8" class="edge">
<title>docs&#45;&gt;BagPropertyExtractor
get_dicts</title>
<path fill="none" stroke="black" d="M409.5,-431.7C409.5,-423.98 409.5,-414.71 409.5,-406.11"/>
<polygon fill="black" stroke="black" points="413,-406.1 409.5,-396.1 406,-406.1 413,-406.1"/>
</g>
<!-- DocumentBagExtractor
e -->
<g id="node10" class="node">
<title>DocumentBagExtractor
e</title>
<text text-anchor="middle" x="211.5" y="-374.3" font-family="Times,serif" font-size="14.00">DocumentBagExtractor</text>
</g>
<!-- docs&#45;&gt;DocumentBagExtractor
e -->
<g id="edge9" class="edge">
<title>docs&#45;&gt;DocumentBagExtractor
e</title>
<path fill="none" stroke="black" d="M383.21,-439.7C354.34,-429.5 307.08,-412.79 269.44,-399.48"/>
<polygon fill="black" stroke="black" points="270.19,-396.03 259.6,-396 267.86,-402.63 270.19,-396.03"/>
</g>
<!-- ChromaIndexFromBag
chroma_index
compute_index
query_chroma -->
<g id="node11" class="node">
<title>ChromaIndexFromBag
chroma_index
compute_index
query_chroma</title>
<text text-anchor="middle" x="249.5" y="-86.3" font-family="Times,serif" font-size="14.00">ChromaIndexFromBag</text>
</g>
<!-- vectorizer&#45;&gt;ChromaIndexFromBag
chroma_index
compute_index
query_chroma -->
<g id="edge10" class="edge">
<title>vectorizer&#45;&gt;ChromaIndexFromBag
chroma_index
compute_index
query_chroma</title>
<path fill="none" stroke="black" d="M186.05,-216.15C198.43,-191.73 221.48,-146.26 236.13,-117.38"/>
<polygon fill="black" stroke="black" points="239.35,-118.77 240.75,-108.27 233.1,-115.61 239.35,-118.77"/>
</g>
<!-- take -->
<g id="node12" class="node">
<title>take</title>
<ellipse fill="none" stroke="black" cx="584.5" cy="-306" rx="30.59" ry="18"/>
<text text-anchor="middle" x="584.5" y="-302.3" font-family="Times,serif" font-size="14.00">take</text>
</g>
<!-- LambdaOperator
take&#45;&gt;take -->
<g id="edge11" class="edge">
<title>LambdaOperator
take&#45;&gt;take</title>
<path fill="none" stroke="black" d="M584.5,-359.7C584.5,-351.98 584.5,-342.71 584.5,-334.11"/>
<polygon fill="black" stroke="black" points="588,-334.1 584.5,-324.1 581,-334.1 588,-334.1"/>
</g>
<!-- compute -->
<g id="node13" class="node">
<title>compute</title>
<ellipse fill="none" stroke="black" cx="740.5" cy="-306" rx="50.89" ry="18"/>
<text text-anchor="middle" x="740.5" y="-302.3" font-family="Times,serif" font-size="14.00">compute</text>
</g>
<!-- LambdaOperator
compute&#45;&gt;compute -->
<g id="edge12" class="edge">
<title>LambdaOperator
compute&#45;&gt;compute</title>
<path fill="none" stroke="black" d="M740.5,-359.7C740.5,-351.98 740.5,-342.71 740.5,-334.11"/>
<polygon fill="black" stroke="black" points="744,-334.1 740.5,-324.1 737,-334.1 744,-334.1"/>
</g>
<!-- get_dicts -->
<g id="node14" class="node">
<title>get_dicts</title>
<ellipse fill="none" stroke="black" cx="387.5" cy="-306" rx="52.79" ry="18"/>
<text text-anchor="middle" x="387.5" y="-302.3" font-family="Times,serif" font-size="14.00">get_dicts</text>
</g>
<!-- BagPropertyExtractor
get_dicts&#45;&gt;get_dicts -->
<g id="edge13" class="edge">
<title>BagPropertyExtractor
get_dicts&#45;&gt;get_dicts</title>
<path fill="none" stroke="black" d="M404.07,-359.7C401.61,-351.9 398.66,-342.51 395.94,-333.83"/>
<polygon fill="black" stroke="black" points="399.22,-332.59 392.88,-324.1 392.54,-334.69 399.22,-332.59"/>
</g>
<!-- e -->
<g id="node15" class="node">
<title>e</title>
<ellipse fill="none" stroke="black" cx="211.5" cy="-306" rx="27" ry="18"/>
<text text-anchor="middle" x="211.5" y="-302.3" font-family="Times,serif" font-size="14.00">e</text>
</g>
<!-- DocumentBagExtractor
e&#45;&gt;e -->
<g id="edge14" class="edge">
<title>DocumentBagExtractor
e&#45;&gt;e</title>
<path fill="none" stroke="black" d="M211.5,-359.7C211.5,-351.98 211.5,-342.71 211.5,-334.11"/>
<polygon fill="black" stroke="black" points="215,-334.1 211.5,-324.1 208,-334.1 215,-334.1"/>
</g>
<!-- chroma_index -->
<g id="node20" class="node">
<title>chroma_index</title>
<ellipse fill="none" stroke="black" cx="75.5" cy="-18" rx="75.5" ry="18"/>
<text text-anchor="middle" x="75.5" y="-14.3" font-family="Times,serif" font-size="14.00">chroma_index</text>
</g>
<!-- ChromaIndexFromBag
chroma_index
compute_index
query_chroma&#45;&gt;chroma_index -->
<g id="edge20" class="edge">
<title>ChromaIndexFromBag
chroma_index
compute_index
query_chroma&#45;&gt;chroma_index</title>
<path fill="none" stroke="black" d="M206.94,-71.88C181.13,-61.49 148.19,-48.24 121.75,-37.6"/>
<polygon fill="black" stroke="black" points="122.9,-34.3 112.32,-33.81 120.29,-40.79 122.9,-34.3"/>
</g>
<!-- compute_index -->
<g id="node21" class="node">
<title>compute_index</title>
<ellipse fill="none" stroke="black" cx="249.5" cy="-18" rx="80.69" ry="18"/>
<text text-anchor="middle" x="249.5" y="-14.3" font-family="Times,serif" font-size="14.00">compute_index</text>
</g>
<!-- ChromaIndexFromBag
chroma_index
compute_index
query_chroma&#45;&gt;compute_index -->
<g id="edge21" class="edge">
<title>ChromaIndexFromBag
chroma_index
compute_index
query_chroma&#45;&gt;compute_index</title>
<path fill="none" stroke="black" d="M249.5,-71.7C249.5,-63.98 249.5,-54.71 249.5,-46.11"/>
<polygon fill="black" stroke="black" points="253,-46.1 249.5,-36.1 246,-46.1 253,-46.1"/>
</g>
<!-- query_chroma -->
<g id="node22" class="node">
<title>query_chroma</title>
<ellipse fill="none" stroke="black" cx="424.5" cy="-18" rx="76.89" ry="18"/>
<text text-anchor="middle" x="424.5" y="-14.3" font-family="Times,serif" font-size="14.00">query_chroma</text>
</g>
<!-- ChromaIndexFromBag
chroma_index
compute_index
query_chroma&#45;&gt;query_chroma -->
<g id="edge22" class="edge">
<title>ChromaIndexFromBag
chroma_index
compute_index
query_chroma&#45;&gt;query_chroma</title>
<path fill="none" stroke="black" d="M292.31,-71.88C318.27,-61.49 351.39,-48.24 377.99,-37.6"/>
<polygon fill="black" stroke="black" points="379.48,-40.78 387.47,-33.81 376.88,-34.28 379.48,-40.78"/>
</g>
<!-- LambdaOperator
idx_dict -->
<g id="node16" class="node">
<title>LambdaOperator
idx_dict</title>
<text text-anchor="middle" x="365.5" y="-230.3" font-family="Times,serif" font-size="14.00">LambdaOperator</text>
</g>
<!-- get_dicts&#45;&gt;LambdaOperator
idx_dict -->
<g id="edge15" class="edge">
<title>get_dicts&#45;&gt;LambdaOperator
idx_dict</title>
<path fill="none" stroke="black" d="M382.18,-288.05C379.73,-280.26 376.76,-270.82 374.01,-262.08"/>
<polygon fill="black" stroke="black" points="377.26,-260.77 370.93,-252.28 370.59,-262.87 377.26,-260.77"/>
</g>
<!-- idx_dict -->
<g id="node18" class="node">
<title>idx_dict</title>
<ellipse fill="none" stroke="black" cx="304.5" cy="-162" rx="47" ry="18"/>
<text text-anchor="middle" x="304.5" y="-158.3" font-family="Times,serif" font-size="14.00">idx_dict</text>
</g>
<!-- LambdaOperator
idx_dict&#45;&gt;idx_dict -->
<g id="edge17" class="edge">
<title>LambdaOperator
idx_dict&#45;&gt;idx_dict</title>
<path fill="none" stroke="black" d="M350.42,-215.7C342.93,-207.09 333.74,-196.55 325.56,-187.17"/>
<polygon fill="black" stroke="black" points="328.19,-184.87 318.99,-179.62 322.91,-189.46 328.19,-184.87"/>
</g>
<!-- bag -->
<g id="node17" class="node">
<title>bag</title>
<ellipse fill="none" stroke="black" cx="391.5" cy="-594" rx="28" ry="18"/>
<text text-anchor="middle" x="391.5" y="-590.3" font-family="Times,serif" font-size="14.00">bag</text>
</g>
<!-- bag&#45;&gt;BagMapOperator
docs -->
<g id="edge16" class="edge">
<title>bag&#45;&gt;BagMapOperator
docs</title>
<path fill="none" stroke="black" d="M391.5,-575.7C391.5,-567.98 391.5,-558.71 391.5,-550.11"/>
<polygon fill="black" stroke="black" points="395,-550.1 391.5,-540.1 388,-550.1 395,-550.1"/>
</g>
<!-- idx_dict&#45;&gt;ChromaIndexFromBag
chroma_index
compute_index
query_chroma -->
<g id="edge18" class="edge">
<title>idx_dict&#45;&gt;ChromaIndexFromBag
chroma_index
compute_index
query_chroma</title>
<path fill="none" stroke="black" d="M291.47,-144.41C284.88,-136.03 276.75,-125.68 269.41,-116.33"/>
<polygon fill="black" stroke="black" points="272.14,-114.14 263.21,-108.45 266.64,-118.47 272.14,-114.14"/>
</g>
<!-- configuration -->
<g id="node19" class="node">
<title>configuration</title>
<ellipse fill="none" stroke="black" cx="211.5" cy="-450" rx="72.29" ry="18"/>
<text text-anchor="middle" x="211.5" y="-446.3" font-family="Times,serif" font-size="14.00">configuration</text>
</g>
<!-- configuration&#45;&gt;DocumentBagExtractor
e -->
<g id="edge19" class="edge">
<title>configuration&#45;&gt;DocumentBagExtractor
e</title>
<path fill="none" stroke="black" d="M211.5,-431.7C211.5,-423.98 211.5,-414.71 211.5,-406.11"/>
<polygon fill="black" stroke="black" points="215,-406.1 211.5,-396.1 208,-406.1 215,-406.1"/>
</g>
<!-- LambdaOperator
sql
connection_string
index_column -->
<g id="node23" class="node">
<title>LambdaOperator
sql
connection_string
index_column</title>
<text text-anchor="middle" x="332.5" y="-950.3" font-family="Times,serif" font-size="14.00">LambdaOperator</text>
</g>
<!-- sql -->
<g id="node24" class="node">
<title>sql</title>
<ellipse fill="none" stroke="black" cx="451.5" cy="-882" rx="27" ry="18"/>
<text text-anchor="middle" x="451.5" y="-878.3" font-family="Times,serif" font-size="14.00">sql</text>
</g>
<!-- LambdaOperator
sql
connection_string
index_column&#45;&gt;sql -->
<g id="edge23" class="edge">
<title>LambdaOperator
sql
connection_string
index_column&#45;&gt;sql</title>
<path fill="none" stroke="black" d="M361.61,-935.88C380.42,-924.81 404.76,-910.5 423.37,-899.55"/>
<polygon fill="black" stroke="black" points="425.14,-902.57 431.99,-894.48 421.59,-896.53 425.14,-902.57"/>
</g>
<!-- connection_string -->
<g id="node25" class="node">
<title>connection_string</title>
<ellipse fill="none" stroke="black" cx="147.5" cy="-882" rx="93" ry="18"/>
<text text-anchor="middle" x="147.5" y="-878.3" font-family="Times,serif" font-size="14.00">connection_string</text>
</g>
<!-- LambdaOperator
sql
connection_string
index_column&#45;&gt;connection_string -->
<g id="edge24" class="edge">
<title>LambdaOperator
sql
connection_string
index_column&#45;&gt;connection_string</title>
<path fill="none" stroke="black" d="M287.25,-935.88C260.07,-925.59 225.46,-912.5 197.48,-901.91"/>
<polygon fill="black" stroke="black" points="198.47,-898.54 187.88,-898.28 195.99,-905.09 198.47,-898.54"/>
</g>
<!-- index_column -->
<g id="node26" class="node">
<title>index_column</title>
<ellipse fill="none" stroke="black" cx="332.5" cy="-882" rx="74.19" ry="18"/>
<text text-anchor="middle" x="332.5" y="-878.3" font-family="Times,serif" font-size="14.00">index_column</text>
</g>
<!-- LambdaOperator
sql
connection_string
index_column&#45;&gt;index_column -->
<g id="edge25" class="edge">
<title>LambdaOperator
sql
connection_string
index_column&#45;&gt;index_column</title>
<path fill="none" stroke="black" d="M332.5,-935.7C332.5,-927.98 332.5,-918.71 332.5,-910.11"/>
<polygon fill="black" stroke="black" points="336,-910.1 332.5,-900.1 329,-910.1 336,-910.1"/>
</g>
<!-- SQLTableLoader
dataframe -->
<g id="node27" class="node">
<title>SQLTableLoader
dataframe</title>
<text text-anchor="middle" x="391.5" y="-806.3" font-family="Times,serif" font-size="14.00">SQLTableLoader</text>
</g>
<!-- sql&#45;&gt;SQLTableLoader
dataframe -->
<g id="edge26" class="edge">
<title>sql&#45;&gt;SQLTableLoader
dataframe</title>
<path fill="none" stroke="black" d="M438.48,-865.81C430.98,-857.05 421.36,-845.83 412.78,-835.82"/>
<polygon fill="black" stroke="black" points="415.35,-833.44 406.18,-828.13 410.03,-838 415.35,-833.44"/>
</g>
<!-- connection_string&#45;&gt;SQLTableLoader
dataframe -->
<g id="edge27" class="edge">
<title>connection_string&#45;&gt;SQLTableLoader
dataframe</title>
<path fill="none" stroke="black" d="M197.17,-866.75C233.22,-856.41 282.44,-842.29 322.33,-830.84"/>
<polygon fill="black" stroke="black" points="323.34,-834.19 331.99,-828.07 321.41,-827.46 323.34,-834.19"/>
</g>
<!-- index_column&#45;&gt;SQLTableLoader
dataframe -->
<g id="edge28" class="edge">
<title>index_column&#45;&gt;SQLTableLoader
dataframe</title>
<path fill="none" stroke="black" d="M346.79,-864.05C353.85,-855.67 362.53,-845.38 370.35,-836.1"/>
<polygon fill="black" stroke="black" points="373.17,-838.18 376.94,-828.28 367.82,-833.67 373.17,-838.18"/>
</g>
<!-- dataframe -->
<g id="node28" class="node">
<title>dataframe</title>
<ellipse fill="none" stroke="black" cx="391.5" cy="-738" rx="58.5" ry="18"/>
<text text-anchor="middle" x="391.5" y="-734.3" font-family="Times,serif" font-size="14.00">dataframe</text>
</g>
<!-- SQLTableLoader
dataframe&#45;&gt;dataframe -->
<g id="edge29" class="edge">
<title>SQLTableLoader
dataframe&#45;&gt;dataframe</title>
<path fill="none" stroke="black" d="M391.5,-791.7C391.5,-783.98 391.5,-774.71 391.5,-766.11"/>
<polygon fill="black" stroke="black" points="395,-766.1 391.5,-756.1 388,-766.1 395,-766.1"/>
</g>
<!-- LambdaOperator
bag -->
<g id="node29" class="node">
<title>LambdaOperator
bag</title>
<text text-anchor="middle" x="391.5" y="-662.3" font-family="Times,serif" font-size="14.00">LambdaOperator</text>
</g>
<!-- dataframe&#45;&gt;LambdaOperator
bag -->
<g id="edge30" class="edge">
<title>dataframe&#45;&gt;LambdaOperator
bag</title>
<path fill="none" stroke="black" d="M391.5,-719.7C391.5,-711.98 391.5,-702.71 391.5,-694.11"/>
<polygon fill="black" stroke="black" points="395,-694.1 391.5,-684.1 388,-694.1 395,-694.1"/>
</g>
<!-- LambdaOperator
bag&#45;&gt;bag -->
<g id="edge34" class="edge">
<title>LambdaOperator
bag&#45;&gt;bag</title>
<path fill="none" stroke="black" d="M391.5,-647.7C391.5,-639.98 391.5,-630.71 391.5,-622.11"/>
<polygon fill="black" stroke="black" points="395,-622.1 391.5,-612.1 388,-622.1 395,-622.1"/>
</g>
<!-- source -->
<g id="node30" class="node">
<title>source</title>
<ellipse fill="none" stroke="black" cx="332.5" cy="-1026" rx="41.69" ry="18"/>
<text text-anchor="middle" x="332.5" y="-1022.3" font-family="Times,serif" font-size="14.00">source</text>
</g>
<!-- source&#45;&gt;LambdaOperator
sql
connection_string
index_column -->
<g id="edge31" class="edge">
<title>source&#45;&gt;LambdaOperator
sql
connection_string
index_column</title>
<path fill="none" stroke="black" d="M332.5,-1007.7C332.5,-999.98 332.5,-990.71 332.5,-982.11"/>
<polygon fill="black" stroke="black" points="336,-982.1 332.5,-972.1 329,-982.1 336,-982.1"/>
</g>
<!-- Configuration
bytes_per_chunk -->
<g id="node31" class="node">
<title>Configuration
bytes_per_chunk</title>
<polygon fill="none" stroke="black" points="492.83,-948.44 584.5,-936 676.17,-948.44 676.08,-968.56 492.91,-968.56 492.83,-948.44"/>
<text text-anchor="middle" x="584.5" y="-950.3" font-family="Times,serif" font-size="14.00">Configuration</text>
</g>
<!-- bytes_per_chunk -->
<g id="node32" class="node">
<title>bytes_per_chunk</title>
<ellipse fill="none" stroke="black" cx="584.5" cy="-882" rx="88.5" ry="18"/>
<text text-anchor="middle" x="584.5" y="-878.3" font-family="Times,serif" font-size="14.00">bytes_per_chunk</text>
</g>
<!-- Configuration
bytes_per_chunk&#45;&gt;bytes_per_chunk -->
<g id="edge32" class="edge">
<title>Configuration
bytes_per_chunk&#45;&gt;bytes_per_chunk</title>
<path fill="none" stroke="black" d="M584.5,-935.7C584.5,-927.98 584.5,-918.71 584.5,-910.11"/>
<polygon fill="black" stroke="black" points="588,-910.1 584.5,-900.1 581,-910.1 588,-910.1"/>
</g>
<!-- bytes_per_chunk&#45;&gt;SQLTableLoader
dataframe -->
<g id="edge33" class="edge">
<title>bytes_per_chunk&#45;&gt;SQLTableLoader
dataframe</title>
<path fill="none" stroke="black" d="M543.1,-865.98C515.42,-855.94 478.63,-842.6 448.23,-831.58"/>
<polygon fill="black" stroke="black" points="449.2,-828.21 438.61,-828.08 446.81,-834.79 449.2,-828.21"/>
</g>
</g>
</svg>
