<?xml version="1.0" encoding="UTF-8" standalone="no"?>
<!DOCTYPE svg PUBLIC "-//W3C//DTD SVG 1.1//EN"
 "http://www.w3.org/Graphics/SVG/1.1/DTD/svg11.dtd">
<!-- Generated by graphviz version 2.43.0 (0)
 -->
<!-- Pages: 1 -->
<svg width="1351pt" height="836pt"
 viewBox="0.00 0.00 1351.20 836.00" xmlns="http://www.w3.org/2000/svg" xmlns:xlink="http://www.w3.org/1999/xlink">
<g id="graph0" class="graph" transform="scale(1 1) rotate(0) translate(4 832)">
<polygon fill="white" stroke="transparent" points="-4,4 -4,-832 1347.2,-832 1347.2,4 -4,4"/>
<!-- Configuration
doc_configuration -->
<g id="node1" class="node">
<title>Configuration
doc_configuration</title>
<polygon fill="none" stroke="black" points="125.83,-804.44 217.5,-792 309.17,-804.44 309.08,-824.56 125.92,-824.56 125.83,-804.44"/>
<text text-anchor="middle" x="217.5" y="-806.3" font-family="Times,serif" font-size="14.00">Configuration</text>
</g>
<!-- doc_configuration -->
<g id="node2" class="node">
<title>doc_configuration</title>
<ellipse fill="none" stroke="black" cx="217.5" cy="-738" rx="93" ry="18"/>
<text text-anchor="middle" x="217.5" y="-734.3" font-family="Times,serif" font-size="14.00">doc_configuration</text>
</g>
<!-- Configuration
doc_configuration&#45;&gt;doc_configuration -->
<g id="edge1" class="edge">
<title>Configuration
doc_configuration&#45;&gt;doc_configuration</title>
<path fill="none" stroke="black" d="M217.5,-791.7C217.5,-783.98 217.5,-774.71 217.5,-766.11"/>
<polygon fill="black" stroke="black" points="221,-766.1 217.5,-756.1 214,-766.1 221,-766.1"/>
</g>
<!-- FunctionOperator
Document -->
<g id="node3" class="node">
<title>FunctionOperator
Document</title>
<text text-anchor="middle" x="161.5" y="-662.3" font-family="Times,serif" font-size="14.00">FunctionOperator</text>
</g>
<!-- doc_configuration&#45;&gt;FunctionOperator
Document -->
<g id="edge2" class="edge">
<title>doc_configuration&#45;&gt;FunctionOperator
Document</title>
<path fill="none" stroke="black" d="M203.94,-720.05C197.23,-711.67 189,-701.38 181.58,-692.1"/>
<polygon fill="black" stroke="black" points="184.3,-689.9 175.32,-684.28 178.84,-694.27 184.3,-689.9"/>
</g>
<!-- BagMapOperator
docs -->
<g id="node4" class="node">
<title>BagMapOperator
docs</title>
<text text-anchor="middle" x="320.5" y="-518.3" font-family="Times,serif" font-size="14.00">BagMapOperator</text>
</g>
<!-- doc_configuration&#45;&gt;BagMapOperator
docs -->
<g id="edge3" class="edge">
<title>doc_configuration&#45;&gt;BagMapOperator
docs</title>
<path fill="none" stroke="black" d="M225.75,-719.85C243.72,-682.52 286.47,-593.69 307.86,-549.26"/>
<polygon fill="black" stroke="black" points="311.02,-550.76 312.21,-540.23 304.72,-547.72 311.02,-550.76"/>
</g>
<!-- Document -->
<g id="node5" class="node">
<title>Document</title>
<ellipse fill="none" stroke="black" cx="138.5" cy="-594" rx="58" ry="18"/>
<text text-anchor="middle" x="138.5" y="-590.3" font-family="Times,serif" font-size="14.00">Document</text>
</g>
<!-- FunctionOperator
Document&#45;&gt;Document -->
<g id="edge4" class="edge">
<title>FunctionOperator
Document&#45;&gt;Document</title>
<path fill="none" stroke="black" d="M155.81,-647.7C153.25,-639.9 150.17,-630.51 147.32,-621.83"/>
<polygon fill="black" stroke="black" points="150.57,-620.51 144.12,-612.1 143.92,-622.69 150.57,-620.51"/>
</g>
<!-- docs -->
<g id="node6" class="node">
<title>docs</title>
<ellipse fill="none" stroke="black" cx="354.5" cy="-450" rx="32" ry="18"/>
<text text-anchor="middle" x="354.5" y="-446.3" font-family="Times,serif" font-size="14.00">docs</text>
</g>
<!-- BagMapOperator
docs&#45;&gt;docs -->
<g id="edge5" class="edge">
<title>BagMapOperator
docs&#45;&gt;docs</title>
<path fill="none" stroke="black" d="M328.9,-503.7C332.83,-495.61 337.59,-485.81 341.94,-476.87"/>
<polygon fill="black" stroke="black" points="345.21,-478.14 346.43,-467.62 338.91,-475.09 345.21,-478.14"/>
</g>
<!-- FunctionOperator
vectorizer -->
<g id="node7" class="node">
<title>FunctionOperator
vectorizer</title>
<text text-anchor="middle" x="126.5" y="-518.3" font-family="Times,serif" font-size="14.00">FunctionOperator</text>
</g>
<!-- Document&#45;&gt;FunctionOperator
vectorizer -->
<g id="edge6" class="edge">
<title>Document&#45;&gt;FunctionOperator
vectorizer</title>
<path fill="none" stroke="black" d="M135.53,-575.7C134.21,-567.98 132.62,-558.71 131.15,-550.11"/>
<polygon fill="black" stroke="black" points="134.57,-549.36 129.43,-540.1 127.67,-550.55 134.57,-549.36"/>
</g>
<!-- BagPropertyExtractor
get_dicts -->
<g id="node8" class="node">
<title>BagPropertyExtractor
get_dicts</title>
<text text-anchor="middle" x="813.5" y="-374.3" font-family="Times,serif" font-size="14.00">BagPropertyExtractor</text>
</g>
<!-- docs&#45;&gt;BagPropertyExtractor
get_dicts -->
<g id="edge7" class="edge">
<title>docs&#45;&gt;BagPropertyExtractor
get_dicts</title>
<path fill="none" stroke="black" d="M383.18,-441.7C396.84,-438.4 413.44,-434.66 428.5,-432 552.3,-410.1 587.17,-414.87 715.05,-396.17"/>
<polygon fill="black" stroke="black" points="715.86,-399.59 725.24,-394.66 714.83,-392.66 715.86,-399.59"/>
</g>
<!-- DocumentBagMap
bag_apply -->
<g id="node9" class="node">
<title>DocumentBagMap
bag_apply</title>
<text text-anchor="middle" x="633.5" y="-374.3" font-family="Times,serif" font-size="14.00">DocumentBagMap</text>
</g>
<!-- docs&#45;&gt;DocumentBagMap
bag_apply -->
<g id="edge8" class="edge">
<title>docs&#45;&gt;DocumentBagMap
bag_apply</title>
<path fill="none" stroke="black" d="M383.05,-441.84C423.35,-431.73 498.43,-412.89 555.92,-398.47"/>
<polygon fill="black" stroke="black" points="556.86,-401.84 565.71,-396.01 555.16,-395.05 556.86,-401.84"/>
</g>
<!-- ChromaIndexFromBag
add_to_chroma -->
<g id="node10" class="node">
<title>ChromaIndexFromBag
add_to_chroma</title>
<text text-anchor="middle" x="89.5" y="-374.3" font-family="Times,serif" font-size="14.00">ChromaIndexFromBag</text>
</g>
<!-- docs&#45;&gt;ChromaIndexFromBag
add_to_chroma -->
<g id="edge9" class="edge">
<title>docs&#45;&gt;ChromaIndexFromBag
add_to_chroma</title>
<path fill="none" stroke="black" d="M326.14,-441.51C287.74,-431.37 217.81,-412.89 163.89,-398.65"/>
<polygon fill="black" stroke="black" points="164.58,-395.21 154.02,-396.04 162.79,-401.98 164.58,-395.21"/>
</g>
<!-- FunctionOperator
take -->
<g id="node11" class="node">
<title>FunctionOperator
take</title>
<text text-anchor="middle" x="269.5" y="-374.3" font-family="Times,serif" font-size="14.00">FunctionOperator</text>
</g>
<!-- docs&#45;&gt;FunctionOperator
take -->
<g id="edge10" class="edge">
<title>docs&#45;&gt;FunctionOperator
take</title>
<path fill="none" stroke="black" d="M337.3,-434.83C326.05,-425.57 311.09,-413.25 298.08,-402.53"/>
<polygon fill="black" stroke="black" points="300.23,-399.76 290.28,-396.11 295.78,-405.17 300.23,-399.76"/>
</g>
<!-- FunctionOperator
compute -->
<g id="node12" class="node">
<title>FunctionOperator
compute</title>
<text text-anchor="middle" x="431.5" y="-374.3" font-family="Times,serif" font-size="14.00">FunctionOperator</text>
</g>
<!-- docs&#45;&gt;FunctionOperator
compute -->
<g id="edge11" class="edge">
<title>docs&#45;&gt;FunctionOperator
compute</title>
<path fill="none" stroke="black" d="M370.83,-434.15C380.8,-425.09 393.78,-413.29 405.18,-402.93"/>
<polygon fill="black" stroke="black" points="407.71,-405.36 412.76,-396.04 403.01,-400.18 407.71,-405.36"/>
</g>
<!-- vectorizer -->
<g id="node35" class="node">
<title>vectorizer</title>
<ellipse fill="none" stroke="black" cx="109.5" cy="-450" rx="58" ry="18"/>
<text text-anchor="middle" x="109.5" y="-446.3" font-family="Times,serif" font-size="14.00">vectorizer</text>
</g>
<!-- FunctionOperator
vectorizer&#45;&gt;vectorizer -->
<g id="edge39" class="edge">
<title>FunctionOperator
vectorizer&#45;&gt;vectorizer</title>
<path fill="none" stroke="black" d="M122.3,-503.7C120.4,-495.9 118.12,-486.51 116.02,-477.83"/>
<polygon fill="black" stroke="black" points="119.42,-476.99 113.65,-468.1 112.62,-478.64 119.42,-476.99"/>
</g>
<!-- get_dicts -->
<g id="node16" class="node">
<title>get_dicts</title>
<ellipse fill="none" stroke="black" cx="908.5" cy="-306" rx="52.79" ry="18"/>
<text text-anchor="middle" x="908.5" y="-302.3" font-family="Times,serif" font-size="14.00">get_dicts</text>
</g>
<!-- BagPropertyExtractor
get_dicts&#45;&gt;get_dicts -->
<g id="edge16" class="edge">
<title>BagPropertyExtractor
get_dicts&#45;&gt;get_dicts</title>
<path fill="none" stroke="black" d="M836.98,-359.7C849.72,-350.31 865.59,-338.62 879.14,-328.63"/>
<polygon fill="black" stroke="black" points="881.25,-331.42 887.23,-322.67 877.1,-325.78 881.25,-331.42"/>
</g>
<!-- bag_apply -->
<g id="node17" class="node">
<title>bag_apply</title>
<ellipse fill="none" stroke="black" cx="617.5" cy="-306" rx="58" ry="18"/>
<text text-anchor="middle" x="617.5" y="-302.3" font-family="Times,serif" font-size="14.00">bag_apply</text>
</g>
<!-- DocumentBagMap
bag_apply&#45;&gt;bag_apply -->
<g id="edge17" class="edge">
<title>DocumentBagMap
bag_apply&#45;&gt;bag_apply</title>
<path fill="none" stroke="black" d="M629.54,-359.7C627.78,-351.98 625.66,-342.71 623.7,-334.11"/>
<polygon fill="black" stroke="black" points="627.05,-333.07 621.41,-324.1 620.23,-334.63 627.05,-333.07"/>
</g>
<!-- add_to_chroma -->
<g id="node28" class="node">
<title>add_to_chroma</title>
<ellipse fill="none" stroke="black" cx="89.5" cy="-306" rx="80.69" ry="18"/>
<text text-anchor="middle" x="89.5" y="-302.3" font-family="Times,serif" font-size="14.00">add_to_chroma</text>
</g>
<!-- ChromaIndexFromBag
add_to_chroma&#45;&gt;add_to_chroma -->
<g id="edge31" class="edge">
<title>ChromaIndexFromBag
add_to_chroma&#45;&gt;add_to_chroma</title>
<path fill="none" stroke="black" d="M89.5,-359.7C89.5,-351.98 89.5,-342.71 89.5,-334.11"/>
<polygon fill="black" stroke="black" points="93,-334.1 89.5,-324.1 86,-334.1 93,-334.1"/>
</g>
<!-- take -->
<g id="node29" class="node">
<title>take</title>
<ellipse fill="none" stroke="black" cx="269.5" cy="-306" rx="30.59" ry="18"/>
<text text-anchor="middle" x="269.5" y="-302.3" font-family="Times,serif" font-size="14.00">take</text>
</g>
<!-- FunctionOperator
take&#45;&gt;take -->
<g id="edge32" class="edge">
<title>FunctionOperator
take&#45;&gt;take</title>
<path fill="none" stroke="black" d="M269.5,-359.7C269.5,-351.98 269.5,-342.71 269.5,-334.11"/>
<polygon fill="black" stroke="black" points="273,-334.1 269.5,-324.1 266,-334.1 273,-334.1"/>
</g>
<!-- compute -->
<g id="node30" class="node">
<title>compute</title>
<ellipse fill="none" stroke="black" cx="431.5" cy="-306" rx="50.89" ry="18"/>
<text text-anchor="middle" x="431.5" y="-302.3" font-family="Times,serif" font-size="14.00">compute</text>
</g>
<!-- FunctionOperator
compute&#45;&gt;compute -->
<g id="edge33" class="edge">
<title>FunctionOperator
compute&#45;&gt;compute</title>
<path fill="none" stroke="black" d="M431.5,-359.7C431.5,-351.98 431.5,-342.71 431.5,-334.11"/>
<polygon fill="black" stroke="black" points="435,-334.1 431.5,-324.1 428,-334.1 435,-334.1"/>
</g>
<!-- Configuration
forgiving_extracts -->
<g id="node13" class="node">
<title>Configuration
forgiving_extracts</title>
<polygon fill="none" stroke="black" points="408.83,-516.44 500.5,-504 592.17,-516.44 592.08,-536.56 408.92,-536.56 408.83,-516.44"/>
<text text-anchor="middle" x="500.5" y="-518.3" font-family="Times,serif" font-size="14.00">Configuration</text>
</g>
<!-- forgiving_extracts -->
<g id="node14" class="node">
<title>forgiving_extracts</title>
<ellipse fill="none" stroke="black" cx="532.5" cy="-450" rx="95" ry="18"/>
<text text-anchor="middle" x="532.5" y="-446.3" font-family="Times,serif" font-size="14.00">forgiving_extracts</text>
</g>
<!-- Configuration
forgiving_extracts&#45;&gt;forgiving_extracts -->
<g id="edge12" class="edge">
<title>Configuration
forgiving_extracts&#45;&gt;forgiving_extracts</title>
<path fill="none" stroke="black" d="M507.92,-504.76C511.65,-496.61 516.26,-486.53 520.47,-477.31"/>
<polygon fill="black" stroke="black" points="523.7,-478.67 524.67,-468.12 517.33,-475.76 523.7,-478.67"/>
</g>
<!-- forgiving_extracts&#45;&gt;BagPropertyExtractor
get_dicts -->
<g id="edge13" class="edge">
<title>forgiving_extracts&#45;&gt;BagPropertyExtractor
get_dicts</title>
<path fill="none" stroke="black" d="M587.68,-435.25C629.76,-424.77 688.27,-410.2 735.19,-398.51"/>
<polygon fill="black" stroke="black" points="736.16,-401.87 745.02,-396.06 734.47,-395.08 736.16,-401.87"/>
</g>
<!-- forgiving_extracts&#45;&gt;DocumentBagMap
bag_apply -->
<g id="edge14" class="edge">
<title>forgiving_extracts&#45;&gt;DocumentBagMap
bag_apply</title>
<path fill="none" stroke="black" d="M556.44,-432.41C569.48,-423.37 585.83,-412.04 600.11,-402.14"/>
<polygon fill="black" stroke="black" points="602.45,-404.77 608.68,-396.2 598.47,-399.02 602.45,-404.77"/>
</g>
<!-- DocumentBagCreator
apply -->
<g id="node15" class="node">
<title>DocumentBagCreator
apply</title>
<text text-anchor="middle" x="573.5" y="-230.3" font-family="Times,serif" font-size="14.00">DocumentBagCreator</text>
</g>
<!-- forgiving_extracts&#45;&gt;DocumentBagCreator
apply -->
<g id="edge15" class="edge">
<title>forgiving_extracts&#45;&gt;DocumentBagCreator
apply</title>
<path fill="none" stroke="black" d="M532.75,-431.77C533.56,-401.97 536.89,-339.09 550.5,-288 552.88,-279.08 556.51,-269.73 560.2,-261.41"/>
<polygon fill="black" stroke="black" points="563.44,-262.74 564.48,-252.2 557.09,-259.79 563.44,-262.74"/>
</g>
<!-- apply -->
<g id="node18" class="node">
<title>apply</title>
<ellipse fill="none" stroke="black" cx="573.5" cy="-162" rx="36.5" ry="18"/>
<text text-anchor="middle" x="573.5" y="-158.3" font-family="Times,serif" font-size="14.00">apply</text>
</g>
<!-- DocumentBagCreator
apply&#45;&gt;apply -->
<g id="edge18" class="edge">
<title>DocumentBagCreator
apply&#45;&gt;apply</title>
<path fill="none" stroke="black" d="M573.5,-215.7C573.5,-207.98 573.5,-198.71 573.5,-190.11"/>
<polygon fill="black" stroke="black" points="577,-190.1 573.5,-180.1 570,-190.1 577,-190.1"/>
</g>
<!-- Alias
get_dicts -->
<g id="node19" class="node">
<title>Alias
get_dicts</title>
<text text-anchor="middle" x="908.5" y="-230.3" font-family="Times,serif" font-size="14.00">Alias</text>
</g>
<!-- get_dicts&#45;&gt;Alias
get_dicts -->
<g id="edge19" class="edge">
<title>get_dicts&#45;&gt;Alias
get_dicts</title>
<path fill="none" stroke="black" d="M908.5,-287.7C908.5,-279.98 908.5,-270.71 908.5,-262.11"/>
<polygon fill="black" stroke="black" points="912,-262.1 908.5,-252.1 905,-262.1 912,-262.1"/>
</g>
<!-- bag_apply&#45;&gt;DocumentBagCreator
apply -->
<g id="edge20" class="edge">
<title>bag_apply&#45;&gt;DocumentBagCreator
apply</title>
<path fill="none" stroke="black" d="M606.85,-288.05C601.74,-279.92 595.5,-270 589.81,-260.94"/>
<polygon fill="black" stroke="black" points="592.65,-258.88 584.36,-252.28 586.72,-262.61 592.65,-258.88"/>
</g>
<!-- DocumentBagExplode
exploded -->
<g id="node20" class="node">
<title>DocumentBagExplode
exploded</title>
<text text-anchor="middle" x="765.5" y="-230.3" font-family="Times,serif" font-size="14.00">DocumentBagExplode</text>
</g>
<!-- bag_apply&#45;&gt;DocumentBagExplode
exploded -->
<g id="edge21" class="edge">
<title>bag_apply&#45;&gt;DocumentBagExplode
exploded</title>
<path fill="none" stroke="black" d="M647.81,-290.67C668.71,-280.78 696.86,-267.46 720.39,-256.33"/>
<polygon fill="black" stroke="black" points="721.94,-259.47 729.49,-252.03 718.95,-253.14 721.94,-259.47"/>
</g>
<!-- d -->
<g id="node27" class="node">
<title>d</title>
<ellipse fill="none" stroke="black" cx="908.5" cy="-162" rx="27" ry="18"/>
<text text-anchor="middle" x="908.5" y="-158.3" font-family="Times,serif" font-size="14.00">d</text>
</g>
<!-- Alias
get_dicts&#45;&gt;d -->
<g id="edge30" class="edge">
<title>Alias
get_dicts&#45;&gt;d</title>
<path fill="none" stroke="black" d="M908.5,-215.7C908.5,-207.98 908.5,-198.71 908.5,-190.11"/>
<polygon fill="black" stroke="black" points="912,-190.1 908.5,-180.1 905,-190.1 912,-190.1"/>
</g>
<!-- exploded -->
<g id="node31" class="node">
<title>exploded</title>
<ellipse fill="none" stroke="black" cx="765.5" cy="-162" rx="52.79" ry="18"/>
<text text-anchor="middle" x="765.5" y="-158.3" font-family="Times,serif" font-size="14.00">exploded</text>
</g>
<!-- DocumentBagExplode
exploded&#45;&gt;exploded -->
<g id="edge34" class="edge">
<title>DocumentBagExplode
exploded&#45;&gt;exploded</title>
<path fill="none" stroke="black" d="M765.5,-215.7C765.5,-207.98 765.5,-198.71 765.5,-190.11"/>
<polygon fill="black" stroke="black" points="769,-190.1 765.5,-180.1 762,-190.1 769,-190.1"/>
</g>
<!-- Constant
_stats -->
<g id="node21" class="node">
<title>Constant
_stats</title>
<text text-anchor="middle" x="851.5" y="-518.3" font-family="Times,serif" font-size="14.00">Constant</text>
</g>
<!-- _stats -->
<g id="node22" class="node">
<title>_stats</title>
<ellipse fill="none" stroke="black" cx="832.5" cy="-450" rx="38.5" ry="18"/>
<text text-anchor="middle" x="832.5" y="-446.3" font-family="Times,serif" font-size="14.00">_stats</text>
</g>
<!-- Constant
_stats&#45;&gt;_stats -->
<g id="edge22" class="edge">
<title>Constant
_stats&#45;&gt;_stats</title>
<path fill="none" stroke="black" d="M846.8,-503.7C844.69,-495.9 842.14,-486.51 839.78,-477.83"/>
<polygon fill="black" stroke="black" points="843.14,-476.83 837.14,-468.1 836.38,-478.67 843.14,-476.83"/>
</g>
<!-- _stats&#45;&gt;BagPropertyExtractor
get_dicts -->
<g id="edge23" class="edge">
<title>_stats&#45;&gt;BagPropertyExtractor
get_dicts</title>
<path fill="none" stroke="black" d="M827.9,-432.05C825.79,-424.26 823.22,-414.82 820.85,-406.08"/>
<polygon fill="black" stroke="black" points="824.19,-405.01 818.19,-396.28 817.43,-406.85 824.19,-405.01"/>
</g>
<!-- _stats&#45;&gt;DocumentBagMap
bag_apply -->
<g id="edge24" class="edge">
<title>_stats&#45;&gt;DocumentBagMap
bag_apply</title>
<path fill="none" stroke="black" d="M802.71,-438.52C773.45,-428.23 728.02,-412.25 691.6,-399.44"/>
<polygon fill="black" stroke="black" points="692.66,-396.1 682.07,-396.08 690.34,-402.71 692.66,-396.1"/>
</g>
<!-- FunctionOperator
stats -->
<g id="node23" class="node">
<title>FunctionOperator
stats</title>
<text text-anchor="middle" x="1002.5" y="-374.3" font-family="Times,serif" font-size="14.00">FunctionOperator</text>
</g>
<!-- _stats&#45;&gt;FunctionOperator
stats -->
<g id="edge25" class="edge">
<title>_stats&#45;&gt;FunctionOperator
stats</title>
<path fill="none" stroke="black" d="M860.57,-437.44C885.25,-427.28 921.78,-412.24 951.59,-399.96"/>
<polygon fill="black" stroke="black" points="953.1,-403.12 961.02,-396.08 950.44,-396.65 953.1,-403.12"/>
</g>
<!-- stats -->
<g id="node24" class="node">
<title>stats</title>
<ellipse fill="none" stroke="black" cx="1012.5" cy="-306" rx="34" ry="18"/>
<text text-anchor="middle" x="1012.5" y="-302.3" font-family="Times,serif" font-size="14.00">stats</text>
</g>
<!-- FunctionOperator
stats&#45;&gt;stats -->
<g id="edge26" class="edge">
<title>FunctionOperator
stats&#45;&gt;stats</title>
<path fill="none" stroke="black" d="M1005,-359.7C1006.1,-351.98 1007.4,-342.71 1008.6,-334.11"/>
<polygon fill="black" stroke="black" points="1012.08,-334.51 1010.1,-324.1 1005.16,-333.47 1012.08,-334.51"/>
</g>
<!-- Configuration
verbosity -->
<g id="node25" class="node">
<title>Configuration
verbosity</title>
<polygon fill="none" stroke="black" points="609.83,-516.44 701.5,-504 793.17,-516.44 793.08,-536.56 609.92,-536.56 609.83,-516.44"/>
<text text-anchor="middle" x="701.5" y="-518.3" font-family="Times,serif" font-size="14.00">Configuration</text>
</g>
<!-- verbosity -->
<g id="node26" class="node">
<title>verbosity</title>
<ellipse fill="none" stroke="black" cx="701.5" cy="-450" rx="54" ry="18"/>
<text text-anchor="middle" x="701.5" y="-446.3" font-family="Times,serif" font-size="14.00">verbosity</text>
</g>
<!-- Configuration
verbosity&#45;&gt;verbosity -->
<g id="edge27" class="edge">
<title>Configuration
verbosity&#45;&gt;verbosity</title>
<path fill="none" stroke="black" d="M701.5,-503.7C701.5,-495.98 701.5,-486.71 701.5,-478.11"/>
<polygon fill="black" stroke="black" points="705,-478.1 701.5,-468.1 698,-478.1 705,-478.1"/>
</g>
<!-- verbosity&#45;&gt;BagPropertyExtractor
get_dicts -->
<g id="edge28" class="edge">
<title>verbosity&#45;&gt;BagPropertyExtractor
get_dicts</title>
<path fill="none" stroke="black" d="M725.8,-433.81C740.92,-424.36 760.64,-412.04 777.55,-401.47"/>
<polygon fill="black" stroke="black" points="779.47,-404.4 786.1,-396.13 775.76,-398.46 779.47,-404.4"/>
</g>
<!-- verbosity&#45;&gt;DocumentBagMap
bag_apply -->
<g id="edge29" class="edge">
<title>verbosity&#45;&gt;DocumentBagMap
bag_apply</title>
<path fill="none" stroke="black" d="M685.73,-432.76C677.31,-424.1 666.77,-413.25 657.37,-403.57"/>
<polygon fill="black" stroke="black" points="659.61,-400.85 650.13,-396.12 654.59,-405.73 659.61,-400.85"/>
</g>
<!-- Alias
exploded -->
<g id="node32" class="node">
<title>Alias
exploded</title>
<text text-anchor="middle" x="765.5" y="-86.3" font-family="Times,serif" font-size="14.00">Alias</text>
</g>
<!-- exploded&#45;&gt;Alias
exploded -->
<g id="edge35" class="edge">
<title>exploded&#45;&gt;Alias
exploded</title>
<path fill="none" stroke="black" d="M765.5,-143.7C765.5,-135.98 765.5,-126.71 765.5,-118.11"/>
<polygon fill="black" stroke="black" points="769,-118.1 765.5,-108.1 762,-118.1 769,-118.1"/>
</g>
<!-- e -->
<g id="node34" class="node">
<title>e</title>
<ellipse fill="none" stroke="black" cx="765.5" cy="-18" rx="27" ry="18"/>
<text text-anchor="middle" x="765.5" y="-14.3" font-family="Times,serif" font-size="14.00">e</text>
</g>
<!-- Alias
exploded&#45;&gt;e -->
<g id="edge38" class="edge">
<title>Alias
exploded&#45;&gt;e</title>
<path fill="none" stroke="black" d="M765.5,-71.7C765.5,-63.98 765.5,-54.71 765.5,-46.11"/>
<polygon fill="black" stroke="black" points="769,-46.1 765.5,-36.1 762,-46.1 769,-46.1"/>
</g>
<!-- configuration -->
<g id="node33" class="node">
<title>configuration</title>
<ellipse fill="none" stroke="black" cx="765.5" cy="-306" rx="72.29" ry="18"/>
<text text-anchor="middle" x="765.5" y="-302.3" font-family="Times,serif" font-size="14.00">configuration</text>
</g>
<!-- configuration&#45;&gt;DocumentBagCreator
apply -->
<g id="edge36" class="edge">
<title>configuration&#45;&gt;DocumentBagCreator
apply</title>
<path fill="none" stroke="black" d="M726.18,-290.67C698.46,-280.56 660.92,-266.87 630,-255.6"/>
<polygon fill="black" stroke="black" points="630.81,-252.17 620.22,-252.03 628.41,-258.75 630.81,-252.17"/>
</g>
<!-- configuration&#45;&gt;DocumentBagExplode
exploded -->
<g id="edge37" class="edge">
<title>configuration&#45;&gt;DocumentBagExplode
exploded</title>
<path fill="none" stroke="black" d="M765.5,-287.7C765.5,-279.98 765.5,-270.71 765.5,-262.11"/>
<polygon fill="black" stroke="black" points="769,-262.1 765.5,-252.1 762,-262.1 769,-262.1"/>
</g>
<!-- vectorizer&#45;&gt;ChromaIndexFromBag
add_to_chroma -->
<g id="edge40" class="edge">
<title>vectorizer&#45;&gt;ChromaIndexFromBag
add_to_chroma</title>
<path fill="none" stroke="black" d="M104.66,-432.05C102.43,-424.26 99.73,-414.82 97.24,-406.08"/>
<polygon fill="black" stroke="black" points="100.55,-404.93 94.44,-396.28 93.82,-406.86 100.55,-404.93"/>
</g>
<!-- bag -->
<g id="node36" class="node">
<title>bag</title>
<ellipse fill="none" stroke="black" cx="992.5" cy="-594" rx="28" ry="18"/>
<text text-anchor="middle" x="992.5" y="-590.3" font-family="Times,serif" font-size="14.00">bag</text>
</g>
<!-- bag&#45;&gt;BagMapOperator
docs -->
<g id="edge41" class="edge">
<title>bag&#45;&gt;BagMapOperator
docs</title>
<path fill="none" stroke="black" d="M964.57,-591.72C880.65,-587.64 623.33,-573.22 400.54,-540.05"/>
<polygon fill="black" stroke="black" points="401.04,-536.59 390.63,-538.56 400,-543.51 401.04,-536.59"/>
</g>
<!-- BagFilterOperator
file_path_list -->
<g id="node37" class="node">
<title>BagFilterOperator
file_path_list</title>
<text text-anchor="middle" x="984.5" y="-518.3" font-family="Times,serif" font-size="14.00">BagFilterOperator</text>
</g>
<!-- bag&#45;&gt;BagFilterOperator
file_path_list -->
<g id="edge42" class="edge">
<title>bag&#45;&gt;BagFilterOperator
file_path_list</title>
<path fill="none" stroke="black" d="M990.52,-575.7C989.64,-567.98 988.58,-558.71 987.6,-550.11"/>
<polygon fill="black" stroke="black" points="991.07,-549.64 986.45,-540.1 984.11,-550.43 991.07,-549.64"/>
</g>
<!-- BagFilterOperator
dir_list -->
<g id="node38" class="node">
<title>BagFilterOperator
dir_list</title>
<text text-anchor="middle" x="1151.5" y="-518.3" font-family="Times,serif" font-size="14.00">BagFilterOperator</text>
</g>
<!-- bag&#45;&gt;BagFilterOperator
dir_list -->
<g id="edge43" class="edge">
<title>bag&#45;&gt;BagFilterOperator
dir_list</title>
<path fill="none" stroke="black" d="M1014.9,-583.12C1037.8,-573.05 1074,-557.13 1103.4,-544.2"/>
<polygon fill="black" stroke="black" points="1104.88,-547.37 1112.6,-540.12 1102.04,-540.97 1104.88,-547.37"/>
</g>
<!-- file_path_list -->
<g id="node39" class="node">
<title>file_path_list</title>
<ellipse fill="none" stroke="black" cx="984.5" cy="-450" rx="69.59" ry="18"/>
<text text-anchor="middle" x="984.5" y="-446.3" font-family="Times,serif" font-size="14.00">file_path_list</text>
</g>
<!-- BagFilterOperator
file_path_list&#45;&gt;file_path_list -->
<g id="edge44" class="edge">
<title>BagFilterOperator
file_path_list&#45;&gt;file_path_list</title>
<path fill="none" stroke="black" d="M984.5,-503.7C984.5,-495.98 984.5,-486.71 984.5,-478.11"/>
<polygon fill="black" stroke="black" points="988,-478.1 984.5,-468.1 981,-478.1 988,-478.1"/>
</g>
<!-- dir_list -->
<g id="node40" class="node">
<title>dir_list</title>
<ellipse fill="none" stroke="black" cx="1151.5" cy="-450" rx="43" ry="18"/>
<text text-anchor="middle" x="1151.5" y="-446.3" font-family="Times,serif" font-size="14.00">dir_list</text>
</g>
<!-- BagFilterOperator
dir_list&#45;&gt;dir_list -->
<g id="edge45" class="edge">
<title>BagFilterOperator
dir_list&#45;&gt;dir_list</title>
<path fill="none" stroke="black" d="M1151.5,-503.7C1151.5,-495.98 1151.5,-486.71 1151.5,-478.11"/>
<polygon fill="black" stroke="black" points="1155,-478.1 1151.5,-468.1 1148,-478.1 1155,-478.1"/>
</g>
<!-- Alias
source -->
<g id="node41" class="node">
<title>Alias
source</title>
<text text-anchor="middle" x="1147.5" y="-662.3" font-family="Times,serif" font-size="14.00">Alias</text>
</g>
<!-- root_path -->
<g id="node42" class="node">
<title>root_path</title>
<ellipse fill="none" stroke="black" cx="1151.5" cy="-594" rx="55.49" ry="18"/>
<text text-anchor="middle" x="1151.5" y="-590.3" font-family="Times,serif" font-size="14.00">root_path</text>
</g>
<!-- Alias
source&#45;&gt;root_path -->
<g id="edge46" class="edge">
<title>Alias
source&#45;&gt;root_path</title>
<path fill="none" stroke="black" d="M1148.5,-647.7C1148.9,-639.98 1149.5,-630.71 1150,-622.11"/>
<polygon fill="black" stroke="black" points="1153.5,-622.26 1150.5,-612.1 1146.51,-621.91 1153.5,-622.26"/>
</g>
<!-- PathLoader
paths -->
<g id="node43" class="node">
<title>PathLoader
paths</title>
<text text-anchor="middle" x="1292.5" y="-518.3" font-family="Times,serif" font-size="14.00">PathLoader</text>
</g>
<!-- root_path&#45;&gt;PathLoader
paths -->
<g id="edge47" class="edge">
<title>root_path&#45;&gt;PathLoader
paths</title>
<path fill="none" stroke="black" d="M1180.7,-578.5C1200.4,-568.72 1226.7,-555.65 1248.9,-544.65"/>
<polygon fill="black" stroke="black" points="1250.7,-547.66 1258.1,-540.08 1247.59,-541.39 1250.7,-547.66"/>
</g>
<!-- paths -->
<g id="node44" class="node">
<title>paths</title>
<ellipse fill="none" stroke="black" cx="1292.5" cy="-450" rx="36.5" ry="18"/>
<text text-anchor="middle" x="1292.5" y="-446.3" font-family="Times,serif" font-size="14.00">paths</text>
</g>
<!-- PathLoader
paths&#45;&gt;paths -->
<g id="edge48" class="edge">
<title>PathLoader
paths&#45;&gt;paths</title>
<path fill="none" stroke="black" d="M1292.5,-503.7C1292.5,-495.98 1292.5,-486.71 1292.5,-478.11"/>
<polygon fill="black" stroke="black" points="1296,-478.1 1292.5,-468.1 1289,-478.1 1296,-478.1"/>
</g>
<!-- source -->
<g id="node45" class="node">
<title>source</title>
<ellipse fill="none" stroke="black" cx="1072.5" cy="-738" rx="41.69" ry="18"/>
<text text-anchor="middle" x="1072.5" y="-734.3" font-family="Times,serif" font-size="14.00">source</text>
</g>
<!-- source&#45;&gt;Alias
source -->
<g id="edge49" class="edge">
<title>source&#45;&gt;Alias
source</title>
<path fill="none" stroke="black" d="M1089.1,-721.46C1098.7,-712.58 1110.8,-701.25 1121.5,-691.23"/>
<polygon fill="black" stroke="black" points="1124.13,-693.57 1129.1,-684.21 1119.38,-688.42 1124.13,-693.57"/>
</g>
<!-- FunctionOperator
bag -->
<g id="node46" class="node">
<title>FunctionOperator
bag</title>
<text text-anchor="middle" x="997.5" y="-662.3" font-family="Times,serif" font-size="14.00">FunctionOperator</text>
</g>
<!-- source&#45;&gt;FunctionOperator
bag -->
<g id="edge50" class="edge">
<title>source&#45;&gt;FunctionOperator
bag</title>
<path fill="none" stroke="black" d="M1055.9,-721.46C1046.3,-712.58 1034.2,-701.25 1023.5,-691.23"/>
<polygon fill="black" stroke="black" points="1025.62,-688.42 1015.9,-684.21 1020.87,-693.57 1025.62,-688.42"/>
</g>
<!-- FunctionOperator
bag&#45;&gt;bag -->
<g id="edge51" class="edge">
<title>FunctionOperator
bag&#45;&gt;bag</title>
<path fill="none" stroke="black" d="M996.26,-647.7C995.71,-639.98 995.05,-630.71 994.44,-622.11"/>
<polygon fill="black" stroke="black" points="997.93,-621.82 993.72,-612.1 990.95,-622.33 997.93,-621.82"/>
</g>
<!-- _exclude -->
<g id="node47" class="node">
<title>_exclude</title>
<ellipse fill="none" stroke="black" cx="1292.5" cy="-594" rx="50.89" ry="18"/>
<text text-anchor="middle" x="1292.5" y="-590.3" font-family="Times,serif" font-size="14.00">_exclude</text>
</g>
<!-- _exclude&#45;&gt;PathLoader
paths -->
<g id="edge52" class="edge">
<title>_exclude&#45;&gt;PathLoader
paths</title>
<path fill="none" stroke="black" d="M1292.5,-575.7C1292.5,-567.98 1292.5,-558.71 1292.5,-550.11"/>
<polygon fill="black" stroke="black" points="1296,-550.1 1292.5,-540.1 1289,-550.1 1296,-550.1"/>
</g>
</g>
</svg>
