<?xml version="1.0" encoding="UTF-8" standalone="no"?>
<!DOCTYPE svg PUBLIC "-//W3C//DTD SVG 1.1//EN"
 "http://www.w3.org/Graphics/SVG/1.1/DTD/svg11.dtd">
<!-- Generated by graphviz version 2.43.0 (0)
 -->
<!-- Pages: 1 -->
<svg width="777pt" height="764pt"
 viewBox="0.00 0.00 777.00 764.00" xmlns="http://www.w3.org/2000/svg" xmlns:xlink="http://www.w3.org/1999/xlink">
<g id="graph0" class="graph" transform="scale(1 1) rotate(0) translate(4 760)">
<polygon fill="white" stroke="transparent" points="-4,4 -4,-760 773,-760 773,4 -4,4"/>
<!-- Aliassource -->
<g id="node1" class="node">
<title>Aliassource</title>
<text text-anchor="middle" x="528" y="-662.3" font-family="Times,serif" font-size="14.00">Aliassource</text>
</g>
<!-- root_path -->
<g id="node2" class="node">
<title>root_path</title>
<ellipse fill="none" stroke="black" cx="528" cy="-594" rx="55.49" ry="18"/>
<text text-anchor="middle" x="528" y="-590.3" font-family="Times,serif" font-size="14.00">root_path</text>
</g>
<!-- Aliassource&#45;&gt;root_path -->
<g id="edge1" class="edge">
<title>Aliassource&#45;&gt;root_path</title>
<path fill="none" stroke="black" d="M528,-647.7C528,-639.98 528,-630.71 528,-622.11"/>
<polygon fill="black" stroke="black" points="531.5,-622.1 528,-612.1 524.5,-622.1 531.5,-622.1"/>
</g>
<!-- PathLoaderfile_path_list -->
<g id="node3" class="node">
<title>PathLoaderfile_path_list</title>
<text text-anchor="middle" x="373" y="-518.3" font-family="Times,serif" font-size="14.00">PathLoaderfile_path_list</text>
</g>
<!-- root_path&#45;&gt;PathLoaderfile_path_list -->
<g id="edge2" class="edge">
<title>root_path&#45;&gt;PathLoaderfile_path_list</title>
<path fill="none" stroke="black" d="M497.01,-579C474.99,-569.06 445.04,-555.53 420.08,-544.26"/>
<polygon fill="black" stroke="black" points="421.34,-540.99 410.79,-540.07 418.47,-547.37 421.34,-540.99"/>
</g>
<!-- PathLoaderdir_list -->
<g id="node4" class="node">
<title>PathLoaderdir_list</title>
<text text-anchor="middle" x="559" y="-518.3" font-family="Times,serif" font-size="14.00">PathLoaderdir_list</text>
</g>
<!-- root_path&#45;&gt;PathLoaderdir_list -->
<g id="edge3" class="edge">
<title>root_path&#45;&gt;PathLoaderdir_list</title>
<path fill="none" stroke="black" d="M535.5,-576.05C539.03,-568.09 543.32,-558.41 547.26,-549.51"/>
<polygon fill="black" stroke="black" points="550.5,-550.84 551.35,-540.28 544.1,-548 550.5,-550.84"/>
</g>
<!-- file_path_list -->
<g id="node5" class="node">
<title>file_path_list</title>
<ellipse fill="none" stroke="black" cx="373" cy="-450" rx="69.59" ry="18"/>
<text text-anchor="middle" x="373" y="-446.3" font-family="Times,serif" font-size="14.00">file_path_list</text>
</g>
<!-- PathLoaderfile_path_list&#45;&gt;file_path_list -->
<g id="edge4" class="edge">
<title>PathLoaderfile_path_list&#45;&gt;file_path_list</title>
<path fill="none" stroke="black" d="M373,-503.7C373,-495.98 373,-486.71 373,-478.11"/>
<polygon fill="black" stroke="black" points="376.5,-478.1 373,-468.1 369.5,-478.1 376.5,-478.1"/>
</g>
<!-- dir_list -->
<g id="node6" class="node">
<title>dir_list</title>
<ellipse fill="none" stroke="black" cx="559" cy="-450" rx="43" ry="18"/>
<text text-anchor="middle" x="559" y="-446.3" font-family="Times,serif" font-size="14.00">dir_list</text>
</g>
<!-- PathLoaderdir_list&#45;&gt;dir_list -->
<g id="edge5" class="edge">
<title>PathLoaderdir_list&#45;&gt;dir_list</title>
<path fill="none" stroke="black" d="M559,-503.7C559,-495.98 559,-486.71 559,-478.11"/>
<polygon fill="black" stroke="black" points="562.5,-478.1 559,-468.1 555.5,-478.1 562.5,-478.1"/>
</g>
<!-- LambdaOperatordocs -->
<g id="node7" class="node">
<title>LambdaOperatordocs</title>
<text text-anchor="middle" x="373" y="-374.3" font-family="Times,serif" font-size="14.00">LambdaOperatordocs</text>
</g>
<!-- file_path_list&#45;&gt;LambdaOperatordocs -->
<g id="edge6" class="edge">
<title>file_path_list&#45;&gt;LambdaOperatordocs</title>
<path fill="none" stroke="black" d="M373,-431.7C373,-423.98 373,-414.71 373,-406.11"/>
<polygon fill="black" stroke="black" points="376.5,-406.1 373,-396.1 369.5,-406.1 376.5,-406.1"/>
</g>
<!-- docs -->
<g id="node9" class="node">
<title>docs</title>
<ellipse fill="none" stroke="black" cx="373" cy="-306" rx="32" ry="18"/>
<text text-anchor="middle" x="373" y="-302.3" font-family="Times,serif" font-size="14.00">docs</text>
</g>
<!-- LambdaOperatordocs&#45;&gt;docs -->
<g id="edge8" class="edge">
<title>LambdaOperatordocs&#45;&gt;docs</title>
<path fill="none" stroke="black" d="M373,-359.7C373,-351.98 373,-342.71 373,-334.11"/>
<polygon fill="black" stroke="black" points="376.5,-334.1 373,-324.1 369.5,-334.1 376.5,-334.1"/>
</g>
<!-- source -->
<g id="node8" class="node">
<title>source</title>
<ellipse fill="none" stroke="black" cx="528" cy="-738" rx="41.69" ry="18"/>
<text text-anchor="middle" x="528" y="-734.3" font-family="Times,serif" font-size="14.00">source</text>
</g>
<!-- source&#45;&gt;Aliassource -->
<g id="edge7" class="edge">
<title>source&#45;&gt;Aliassource</title>
<path fill="none" stroke="black" d="M528,-719.7C528,-711.98 528,-702.71 528,-694.11"/>
<polygon fill="black" stroke="black" points="531.5,-694.1 528,-684.1 524.5,-694.1 531.5,-694.1"/>
</g>
<!-- ForgivingExtractIteratorprops_iterator -->
<g id="node10" class="node">
<title>ForgivingExtractIteratorprops_iterator</title>
<text text-anchor="middle" x="373" y="-230.3" font-family="Times,serif" font-size="14.00">ForgivingExtractIteratorprops_iterator</text>
</g>
<!-- docs&#45;&gt;ForgivingExtractIteratorprops_iterator -->
<g id="edge9" class="edge">
<title>docs&#45;&gt;ForgivingExtractIteratorprops_iterator</title>
<path fill="none" stroke="black" d="M373,-287.7C373,-279.98 373,-270.71 373,-262.11"/>
<polygon fill="black" stroke="black" points="376.5,-262.1 373,-252.1 369.5,-262.1 376.5,-262.1"/>
</g>
<!-- props_iterator -->
<g id="node12" class="node">
<title>props_iterator</title>
<ellipse fill="none" stroke="black" cx="373" cy="-162" rx="77.5" ry="18"/>
<text text-anchor="middle" x="373" y="-158.3" font-family="Times,serif" font-size="14.00">props_iterator</text>
</g>
<!-- ForgivingExtractIteratorprops_iterator&#45;&gt;props_iterator -->
<g id="edge11" class="edge">
<title>ForgivingExtractIteratorprops_iterator&#45;&gt;props_iterator</title>
<path fill="none" stroke="black" d="M373,-215.7C373,-207.98 373,-198.71 373,-190.11"/>
<polygon fill="black" stroke="black" points="376.5,-190.1 373,-180.1 369.5,-190.1 376.5,-190.1"/>
</g>
<!-- _exclude -->
<g id="node11" class="node">
<title>_exclude</title>
<ellipse fill="none" stroke="black" cx="373" cy="-594" rx="50.89" ry="18"/>
<text text-anchor="middle" x="373" y="-590.3" font-family="Times,serif" font-size="14.00">_exclude</text>
</g>
<!-- _exclude&#45;&gt;PathLoaderfile_path_list -->
<g id="edge10" class="edge">
<title>_exclude&#45;&gt;PathLoaderfile_path_list</title>
<path fill="none" stroke="black" d="M373,-575.7C373,-567.98 373,-558.71 373,-550.11"/>
<polygon fill="black" stroke="black" points="376.5,-550.1 373,-540.1 369.5,-550.1 376.5,-550.1"/>
</g>
<!-- Iterator2Dataframeprops_df -->
<g id="node13" class="node">
<title>Iterator2Dataframeprops_df</title>
<text text-anchor="middle" x="109" y="-86.3" font-family="Times,serif" font-size="14.00">Iterator2Dataframeprops_df</text>
</g>
<!-- props_iterator&#45;&gt;Iterator2Dataframeprops_df -->
<g id="edge12" class="edge">
<title>props_iterator&#45;&gt;Iterator2Dataframeprops_df</title>
<path fill="none" stroke="black" d="M323.96,-148C284.37,-137.5 228.03,-122.56 182.96,-110.61"/>
<polygon fill="black" stroke="black" points="183.79,-107.21 173.23,-108.03 182,-113.98 183.79,-107.21"/>
</g>
<!-- LambdaOperatormeta_data_iterator -->
<g id="node14" class="node">
<title>LambdaOperatormeta_data_iterator</title>
<text text-anchor="middle" x="373" y="-86.3" font-family="Times,serif" font-size="14.00">LambdaOperatormeta_data_iterator</text>
</g>
<!-- props_iterator&#45;&gt;LambdaOperatormeta_data_iterator -->
<g id="edge13" class="edge">
<title>props_iterator&#45;&gt;LambdaOperatormeta_data_iterator</title>
<path fill="none" stroke="black" d="M373,-143.7C373,-135.98 373,-126.71 373,-118.11"/>
<polygon fill="black" stroke="black" points="376.5,-118.1 373,-108.1 369.5,-118.1 376.5,-118.1"/>
</g>
<!-- LambdaOperatorfile_stats -->
<g id="node15" class="node">
<title>LambdaOperatorfile_stats</title>
<text text-anchor="middle" x="629" y="-86.3" font-family="Times,serif" font-size="14.00">LambdaOperatorfile_stats</text>
</g>
<!-- props_iterator&#45;&gt;LambdaOperatorfile_stats -->
<g id="edge14" class="edge">
<title>props_iterator&#45;&gt;LambdaOperatorfile_stats</title>
<path fill="none" stroke="black" d="M421.15,-147.83C459.39,-137.38 513.47,-122.59 556.87,-110.72"/>
<polygon fill="black" stroke="black" points="557.81,-114.09 566.53,-108.08 555.96,-107.34 557.81,-114.09"/>
</g>
<!-- props_df -->
<g id="node16" class="node">
<title>props_df</title>
<ellipse fill="none" stroke="black" cx="109" cy="-18" rx="50.89" ry="18"/>
<text text-anchor="middle" x="109" y="-14.3" font-family="Times,serif" font-size="14.00">props_df</text>
</g>
<!-- Iterator2Dataframeprops_df&#45;&gt;props_df -->
<g id="edge15" class="edge">
<title>Iterator2Dataframeprops_df&#45;&gt;props_df</title>
<path fill="none" stroke="black" d="M109,-71.7C109,-63.98 109,-54.71 109,-46.11"/>
<polygon fill="black" stroke="black" points="112.5,-46.1 109,-36.1 105.5,-46.1 112.5,-46.1"/>
</g>
<!-- meta_data_iterator -->
<g id="node17" class="node">
<title>meta_data_iterator</title>
<ellipse fill="none" stroke="black" cx="373" cy="-18" rx="99" ry="18"/>
<text text-anchor="middle" x="373" y="-14.3" font-family="Times,serif" font-size="14.00">meta_data_iterator</text>
</g>
<!-- LambdaOperatormeta_data_iterator&#45;&gt;meta_data_iterator -->
<g id="edge16" class="edge">
<title>LambdaOperatormeta_data_iterator&#45;&gt;meta_data_iterator</title>
<path fill="none" stroke="black" d="M373,-71.7C373,-63.98 373,-54.71 373,-46.11"/>
<polygon fill="black" stroke="black" points="376.5,-46.1 373,-36.1 369.5,-46.1 376.5,-46.1"/>
</g>
<!-- file_stats -->
<g id="node18" class="node">
<title>file_stats</title>
<ellipse fill="none" stroke="black" cx="629" cy="-18" rx="52" ry="18"/>
<text text-anchor="middle" x="629" y="-14.3" font-family="Times,serif" font-size="14.00">file_stats</text>
</g>
<!-- LambdaOperatorfile_stats&#45;&gt;file_stats -->
<g id="edge17" class="edge">
<title>LambdaOperatorfile_stats&#45;&gt;file_stats</title>
<path fill="none" stroke="black" d="M629,-71.7C629,-63.98 629,-54.71 629,-46.11"/>
<polygon fill="black" stroke="black" points="632.5,-46.1 629,-36.1 625.5,-46.1 632.5,-46.1"/>
</g>
<!-- DataMergerjoint_data -->
<g id="node19" class="node">
<title>DataMergerjoint_data</title>
<text text-anchor="middle" x="682" y="-662.3" font-family="Times,serif" font-size="14.00">DataMergerjoint_data</text>
</g>
<!-- meta_data -->
<g id="node20" class="node">
<title>meta_data</title>
<ellipse fill="none" stroke="black" cx="682" cy="-594" rx="59.29" ry="18"/>
<text text-anchor="middle" x="682" y="-590.3" font-family="Times,serif" font-size="14.00">meta_data</text>
</g>
<!-- DataMergerjoint_data&#45;&gt;meta_data -->
<g id="edge18" class="edge">
<title>DataMergerjoint_data&#45;&gt;meta_data</title>
<path fill="none" stroke="black" d="M682,-647.7C682,-639.98 682,-630.71 682,-622.11"/>
<polygon fill="black" stroke="black" points="685.5,-622.1 682,-612.1 678.5,-622.1 685.5,-622.1"/>
</g>
<!-- _source -->
<g id="node21" class="node">
<title>_source</title>
<ellipse fill="none" stroke="black" cx="682" cy="-738" rx="46.29" ry="18"/>
<text text-anchor="middle" x="682" y="-734.3" font-family="Times,serif" font-size="14.00">_source</text>
</g>
<!-- _source&#45;&gt;DataMergerjoint_data -->
<g id="edge19" class="edge">
<title>_source&#45;&gt;DataMergerjoint_data</title>
<path fill="none" stroke="black" d="M682,-719.7C682,-711.98 682,-702.71 682,-694.11"/>
<polygon fill="black" stroke="black" points="685.5,-694.1 682,-684.1 678.5,-694.1 685.5,-694.1"/>
</g>
</g>
</svg>
