<?xml version="1.0" encoding="UTF-8" standalone="no"?>
<!DOCTYPE svg PUBLIC "-//W3C//DTD SVG 1.1//EN"
 "http://www.w3.org/Graphics/SVG/1.1/DTD/svg11.dtd">
<!-- Generated by graphviz version 2.43.0 (0)
 -->
<!-- Pages: 1 -->
<svg width="855pt" height="548pt"
 viewBox="0.00 0.00 855.00 548.00" xmlns="http://www.w3.org/2000/svg" xmlns:xlink="http://www.w3.org/1999/xlink">
<g id="graph0" class="graph" transform="scale(1 1) rotate(0) translate(4 544)">
<polygon fill="white" stroke="transparent" points="-4,4 -4,-544 851,-544 851,4 -4,4"/>
<!-- Configuration
doc_configuration -->
<g id="node1" class="node">
<title>Configuration
doc_configuration</title>
<polygon fill="none" stroke="black" points="1.33,-516.44 93,-504 184.67,-516.44 184.58,-536.56 1.42,-536.56 1.33,-516.44"/>
<text text-anchor="middle" x="93" y="-518.3" font-family="Times,serif" font-size="14.00">Configuration</text>
</g>
<!-- doc_configuration -->
<g id="node2" class="node">
<title>doc_configuration</title>
<ellipse fill="none" stroke="black" cx="93" cy="-450" rx="93" ry="18"/>
<text text-anchor="middle" x="93" y="-446.3" font-family="Times,serif" font-size="14.00">doc_configuration</text>
</g>
<!-- Configuration
doc_configuration&#45;&gt;doc_configuration -->
<g id="edge1" class="edge">
<title>Configuration
doc_configuration&#45;&gt;doc_configuration</title>
<path fill="none" stroke="black" d="M93,-503.7C93,-495.98 93,-486.71 93,-478.11"/>
<polygon fill="black" stroke="black" points="96.5,-478.1 93,-468.1 89.5,-478.1 96.5,-478.1"/>
</g>
<!-- FunctionOperator
Document -->
<g id="node3" class="node">
<title>FunctionOperator
Document</title>
<text text-anchor="middle" x="93" y="-374.3" font-family="Times,serif" font-size="14.00">FunctionOperator</text>
</g>
<!-- doc_configuration&#45;&gt;FunctionOperator
Document -->
<g id="edge2" class="edge">
<title>doc_configuration&#45;&gt;FunctionOperator
Document</title>
<path fill="none" stroke="black" d="M93,-431.7C93,-423.98 93,-414.71 93,-406.11"/>
<polygon fill="black" stroke="black" points="96.5,-406.1 93,-396.1 89.5,-406.1 96.5,-406.1"/>
</g>
<!-- Document -->
<g id="node4" class="node">
<title>Document</title>
<ellipse fill="none" stroke="black" cx="93" cy="-306" rx="58" ry="18"/>
<text text-anchor="middle" x="93" y="-302.3" font-family="Times,serif" font-size="14.00">Document</text>
</g>
<!-- FunctionOperator
Document&#45;&gt;Document -->
<g id="edge3" class="edge">
<title>FunctionOperator
Document&#45;&gt;Document</title>
<path fill="none" stroke="black" d="M93,-359.7C93,-351.98 93,-342.71 93,-334.11"/>
<polygon fill="black" stroke="black" points="96.5,-334.1 93,-324.1 89.5,-334.1 96.5,-334.1"/>
</g>
<!-- FunctionOperator
vectorizer -->
<g id="node5" class="node">
<title>FunctionOperator
vectorizer</title>
<text text-anchor="middle" x="93" y="-230.3" font-family="Times,serif" font-size="14.00">FunctionOperator</text>
</g>
<!-- Document&#45;&gt;FunctionOperator
vectorizer -->
<g id="edge4" class="edge">
<title>Document&#45;&gt;FunctionOperator
vectorizer</title>
<path fill="none" stroke="black" d="M93,-287.7C93,-279.98 93,-270.71 93,-262.11"/>
<polygon fill="black" stroke="black" points="96.5,-262.1 93,-252.1 89.5,-262.1 96.5,-262.1"/>
</g>
<!-- vectorizer -->
<g id="node28" class="node">
<title>vectorizer</title>
<ellipse fill="none" stroke="black" cx="93" cy="-162" rx="58" ry="18"/>
<text text-anchor="middle" x="93" y="-158.3" font-family="Times,serif" font-size="14.00">vectorizer</text>
</g>
<!-- FunctionOperator
vectorizer&#45;&gt;vectorizer -->
<g id="edge31" class="edge">
<title>FunctionOperator
vectorizer&#45;&gt;vectorizer</title>
<path fill="none" stroke="black" d="M93,-215.7C93,-207.98 93,-198.71 93,-190.11"/>
<polygon fill="black" stroke="black" points="96.5,-190.1 93,-180.1 89.5,-190.1 96.5,-190.1"/>
</g>
<!-- Configuration
forgiving_extracts -->
<g id="node6" class="node">
<title>Configuration
forgiving_extracts</title>
<polygon fill="none" stroke="black" points="205.33,-516.44 297,-504 388.67,-516.44 388.58,-536.56 205.41,-536.56 205.33,-516.44"/>
<text text-anchor="middle" x="297" y="-518.3" font-family="Times,serif" font-size="14.00">Configuration</text>
</g>
<!-- forgiving_extracts -->
<g id="node7" class="node">
<title>forgiving_extracts</title>
<ellipse fill="none" stroke="black" cx="299" cy="-450" rx="95" ry="18"/>
<text text-anchor="middle" x="299" y="-446.3" font-family="Times,serif" font-size="14.00">forgiving_extracts</text>
</g>
<!-- Configuration
forgiving_extracts&#45;&gt;forgiving_extracts -->
<g id="edge5" class="edge">
<title>Configuration
forgiving_extracts&#45;&gt;forgiving_extracts</title>
<path fill="none" stroke="black" d="M297.49,-504.05C297.71,-496.35 297.97,-487.03 298.22,-478.36"/>
<polygon fill="black" stroke="black" points="301.72,-478.38 298.51,-468.28 294.72,-478.18 301.72,-478.38"/>
</g>
<!-- BagPropertyExtractor
get_dicts -->
<g id="node8" class="node">
<title>BagPropertyExtractor
get_dicts</title>
<text text-anchor="middle" x="408" y="-374.3" font-family="Times,serif" font-size="14.00">BagPropertyExtractor</text>
</g>
<!-- forgiving_extracts&#45;&gt;BagPropertyExtractor
get_dicts -->
<g id="edge6" class="edge">
<title>forgiving_extracts&#45;&gt;BagPropertyExtractor
get_dicts</title>
<path fill="none" stroke="black" d="M324.56,-432.59C339,-423.31 357.26,-411.59 373.01,-401.47"/>
<polygon fill="black" stroke="black" points="374.94,-404.39 381.47,-396.04 371.16,-398.5 374.94,-404.39"/>
</g>
<!-- DocumentBagMap
bag_apply -->
<g id="node9" class="node">
<title>DocumentBagMap
bag_apply</title>
<text text-anchor="middle" x="588" y="-374.3" font-family="Times,serif" font-size="14.00">DocumentBagMap</text>
</g>
<!-- forgiving_extracts&#45;&gt;DocumentBagMap
bag_apply -->
<g id="edge7" class="edge">
<title>forgiving_extracts&#45;&gt;DocumentBagMap
bag_apply</title>
<path fill="none" stroke="black" d="M355.07,-435.42C398.53,-424.89 459.33,-410.17 507.91,-398.4"/>
<polygon fill="black" stroke="black" points="508.87,-401.77 517.77,-396.01 507.22,-394.96 508.87,-401.77"/>
</g>
<!-- DocumentBagCreator
apply -->
<g id="node10" class="node">
<title>DocumentBagCreator
apply</title>
<text text-anchor="middle" x="509" y="-230.3" font-family="Times,serif" font-size="14.00">DocumentBagCreator</text>
</g>
<!-- forgiving_extracts&#45;&gt;DocumentBagCreator
apply -->
<g id="edge8" class="edge">
<title>forgiving_extracts&#45;&gt;DocumentBagCreator
apply</title>
<path fill="none" stroke="black" d="M296.55,-431.77C292.95,-399.08 290.28,-327.77 328,-288 340.57,-274.75 376.54,-262.99 413.14,-253.93"/>
<polygon fill="black" stroke="black" points="414.05,-257.31 422.95,-251.56 412.41,-250.51 414.05,-257.31"/>
</g>
<!-- get_dicts -->
<g id="node11" class="node">
<title>get_dicts</title>
<ellipse fill="none" stroke="black" cx="390" cy="-306" rx="52.79" ry="18"/>
<text text-anchor="middle" x="390" y="-302.3" font-family="Times,serif" font-size="14.00">get_dicts</text>
</g>
<!-- BagPropertyExtractor
get_dicts&#45;&gt;get_dicts -->
<g id="edge9" class="edge">
<title>BagPropertyExtractor
get_dicts&#45;&gt;get_dicts</title>
<path fill="none" stroke="black" d="M403.55,-359.7C401.55,-351.9 399.13,-342.51 396.9,-333.83"/>
<polygon fill="black" stroke="black" points="400.28,-332.91 394.4,-324.1 393.5,-334.66 400.28,-332.91"/>
</g>
<!-- bag_apply -->
<g id="node12" class="node">
<title>bag_apply</title>
<ellipse fill="none" stroke="black" cx="541" cy="-306" rx="58" ry="18"/>
<text text-anchor="middle" x="541" y="-302.3" font-family="Times,serif" font-size="14.00">bag_apply</text>
</g>
<!-- DocumentBagMap
bag_apply&#45;&gt;bag_apply -->
<g id="edge10" class="edge">
<title>DocumentBagMap
bag_apply&#45;&gt;bag_apply</title>
<path fill="none" stroke="black" d="M576.38,-359.7C570.86,-351.47 564.15,-341.48 558.07,-332.42"/>
<polygon fill="black" stroke="black" points="560.96,-330.46 552.49,-324.1 555.15,-334.35 560.96,-330.46"/>
</g>
<!-- apply -->
<g id="node13" class="node">
<title>apply</title>
<ellipse fill="none" stroke="black" cx="509" cy="-162" rx="36.5" ry="18"/>
<text text-anchor="middle" x="509" y="-158.3" font-family="Times,serif" font-size="14.00">apply</text>
</g>
<!-- DocumentBagCreator
apply&#45;&gt;apply -->
<g id="edge11" class="edge">
<title>DocumentBagCreator
apply&#45;&gt;apply</title>
<path fill="none" stroke="black" d="M509,-215.7C509,-207.98 509,-198.71 509,-190.11"/>
<polygon fill="black" stroke="black" points="512.5,-190.1 509,-180.1 505.5,-190.1 512.5,-190.1"/>
</g>
<!-- Alias
get_dicts -->
<g id="node14" class="node">
<title>Alias
get_dicts</title>
<text text-anchor="middle" x="378" y="-230.3" font-family="Times,serif" font-size="14.00">Alias</text>
</g>
<!-- get_dicts&#45;&gt;Alias
get_dicts -->
<g id="edge12" class="edge">
<title>get_dicts&#45;&gt;Alias
get_dicts</title>
<path fill="none" stroke="black" d="M387.04,-287.7C385.71,-279.98 384.12,-270.71 382.65,-262.11"/>
<polygon fill="black" stroke="black" points="386.07,-261.36 380.93,-252.1 379.17,-262.55 386.07,-261.36"/>
</g>
<!-- bag_apply&#45;&gt;DocumentBagCreator
apply -->
<g id="edge13" class="edge">
<title>bag_apply&#45;&gt;DocumentBagCreator
apply</title>
<path fill="none" stroke="black" d="M533.26,-288.05C529.61,-280.09 525.19,-270.41 521.12,-261.51"/>
<polygon fill="black" stroke="black" points="524.24,-259.92 516.9,-252.28 517.87,-262.83 524.24,-259.92"/>
</g>
<!-- DocumentBagExplode
exploded -->
<g id="node15" class="node">
<title>DocumentBagExplode
exploded</title>
<text text-anchor="middle" x="701" y="-230.3" font-family="Times,serif" font-size="14.00">DocumentBagExplode</text>
</g>
<!-- bag_apply&#45;&gt;DocumentBagExplode
exploded -->
<g id="edge14" class="edge">
<title>bag_apply&#45;&gt;DocumentBagExplode
exploded</title>
<path fill="none" stroke="black" d="M573,-291C595.82,-281.02 626.91,-267.41 652.74,-256.11"/>
<polygon fill="black" stroke="black" points="654.22,-259.28 661.99,-252.07 651.42,-252.87 654.22,-259.28"/>
</g>
<!-- d -->
<g id="node22" class="node">
<title>d</title>
<ellipse fill="none" stroke="black" cx="378" cy="-162" rx="27" ry="18"/>
<text text-anchor="middle" x="378" y="-158.3" font-family="Times,serif" font-size="14.00">d</text>
</g>
<!-- Alias
get_dicts&#45;&gt;d -->
<g id="edge23" class="edge">
<title>Alias
get_dicts&#45;&gt;d</title>
<path fill="none" stroke="black" d="M378,-215.7C378,-207.98 378,-198.71 378,-190.11"/>
<polygon fill="black" stroke="black" points="381.5,-190.1 378,-180.1 374.5,-190.1 381.5,-190.1"/>
</g>
<!-- exploded -->
<g id="node24" class="node">
<title>exploded</title>
<ellipse fill="none" stroke="black" cx="701" cy="-162" rx="52.79" ry="18"/>
<text text-anchor="middle" x="701" y="-158.3" font-family="Times,serif" font-size="14.00">exploded</text>
</g>
<!-- DocumentBagExplode
exploded&#45;&gt;exploded -->
<g id="edge26" class="edge">
<title>DocumentBagExplode
exploded&#45;&gt;exploded</title>
<path fill="none" stroke="black" d="M701,-215.7C701,-207.98 701,-198.71 701,-190.11"/>
<polygon fill="black" stroke="black" points="704.5,-190.1 701,-180.1 697.5,-190.1 704.5,-190.1"/>
</g>
<!-- Constant
_stats -->
<g id="node16" class="node">
<title>Constant
_stats</title>
<text text-anchor="middle" x="670" y="-518.3" font-family="Times,serif" font-size="14.00">Constant</text>
</g>
<!-- _stats -->
<g id="node17" class="node">
<title>_stats</title>
<ellipse fill="none" stroke="black" cx="670" cy="-450" rx="38.5" ry="18"/>
<text text-anchor="middle" x="670" y="-446.3" font-family="Times,serif" font-size="14.00">_stats</text>
</g>
<!-- Constant
_stats&#45;&gt;_stats -->
<g id="edge15" class="edge">
<title>Constant
_stats&#45;&gt;_stats</title>
<path fill="none" stroke="black" d="M670,-503.7C670,-495.98 670,-486.71 670,-478.11"/>
<polygon fill="black" stroke="black" points="673.5,-478.1 670,-468.1 666.5,-478.1 673.5,-478.1"/>
</g>
<!-- _stats&#45;&gt;BagPropertyExtractor
get_dicts -->
<g id="edge16" class="edge">
<title>_stats&#45;&gt;BagPropertyExtractor
get_dicts</title>
<path fill="none" stroke="black" d="M641.08,-438C635.14,-435.89 628.9,-433.79 623,-432 581.37,-419.38 534.53,-407.56 495.23,-398.3"/>
<polygon fill="black" stroke="black" points="495.94,-394.87 485.41,-396 494.35,-401.69 495.94,-394.87"/>
</g>
<!-- _stats&#45;&gt;DocumentBagMap
bag_apply -->
<g id="edge17" class="edge">
<title>_stats&#45;&gt;DocumentBagMap
bag_apply</title>
<path fill="none" stroke="black" d="M652.21,-433.81C641.54,-424.71 627.76,-412.94 615.69,-402.64"/>
<polygon fill="black" stroke="black" points="617.94,-399.96 608.06,-396.13 613.39,-405.28 617.94,-399.96"/>
</g>
<!-- FunctionOperator
stats -->
<g id="node18" class="node">
<title>FunctionOperator
stats</title>
<text text-anchor="middle" x="763" y="-374.3" font-family="Times,serif" font-size="14.00">FunctionOperator</text>
</g>
<!-- _stats&#45;&gt;FunctionOperator
stats -->
<g id="edge18" class="edge">
<title>_stats&#45;&gt;FunctionOperator
stats</title>
<path fill="none" stroke="black" d="M689.72,-434.15C702,-424.92 718.05,-412.83 732,-402.33"/>
<polygon fill="black" stroke="black" points="734.47,-404.85 740.36,-396.04 730.26,-399.26 734.47,-404.85"/>
</g>
<!-- stats -->
<g id="node19" class="node">
<title>stats</title>
<ellipse fill="none" stroke="black" cx="813" cy="-306" rx="34" ry="18"/>
<text text-anchor="middle" x="813" y="-302.3" font-family="Times,serif" font-size="14.00">stats</text>
</g>
<!-- FunctionOperator
stats&#45;&gt;stats -->
<g id="edge19" class="edge">
<title>FunctionOperator
stats&#45;&gt;stats</title>
<path fill="none" stroke="black" d="M775.36,-359.7C781.47,-351.14 788.95,-340.67 795.63,-331.33"/>
<polygon fill="black" stroke="black" points="798.51,-333.31 801.47,-323.14 792.81,-329.25 798.51,-333.31"/>
</g>
<!-- Configuration
verbosity -->
<g id="node20" class="node">
<title>Configuration
verbosity</title>
<polygon fill="none" stroke="black" points="406.33,-516.44 498,-504 589.67,-516.44 589.58,-536.56 406.41,-536.56 406.33,-516.44"/>
<text text-anchor="middle" x="498" y="-518.3" font-family="Times,serif" font-size="14.00">Configuration</text>
</g>
<!-- verbosity -->
<g id="node21" class="node">
<title>verbosity</title>
<ellipse fill="none" stroke="black" cx="478" cy="-450" rx="54" ry="18"/>
<text text-anchor="middle" x="478" y="-446.3" font-family="Times,serif" font-size="14.00">verbosity</text>
</g>
<!-- Configuration
verbosity&#45;&gt;verbosity -->
<g id="edge20" class="edge">
<title>Configuration
verbosity&#45;&gt;verbosity</title>
<path fill="none" stroke="black" d="M493.26,-504.41C490.98,-496.42 488.19,-486.64 485.61,-477.64"/>
<polygon fill="black" stroke="black" points="488.96,-476.62 482.85,-467.96 482.22,-478.54 488.96,-476.62"/>
</g>
<!-- verbosity&#45;&gt;BagPropertyExtractor
get_dicts -->
<g id="edge21" class="edge">
<title>verbosity&#45;&gt;BagPropertyExtractor
get_dicts</title>
<path fill="none" stroke="black" d="M461.77,-432.76C453.01,-424.01 442.03,-413.03 432.28,-403.28"/>
<polygon fill="black" stroke="black" points="434.67,-400.72 425.13,-396.12 429.72,-405.67 434.67,-400.72"/>
</g>
<!-- verbosity&#45;&gt;DocumentBagMap
bag_apply -->
<g id="edge22" class="edge">
<title>verbosity&#45;&gt;DocumentBagMap
bag_apply</title>
<path fill="none" stroke="black" d="M501.87,-433.81C516.58,-424.45 535.73,-412.26 552.24,-401.76"/>
<polygon fill="black" stroke="black" points="554.53,-404.45 561.09,-396.13 550.77,-398.54 554.53,-404.45"/>
</g>
<!-- docs -->
<g id="node23" class="node">
<title>docs</title>
<ellipse fill="none" stroke="black" cx="582" cy="-450" rx="32" ry="18"/>
<text text-anchor="middle" x="582" y="-446.3" font-family="Times,serif" font-size="14.00">docs</text>
</g>
<!-- docs&#45;&gt;BagPropertyExtractor
get_dicts -->
<g id="edge24" class="edge">
<title>docs&#45;&gt;BagPropertyExtractor
get_dicts</title>
<path fill="none" stroke="black" d="M556.87,-438.52C551.63,-436.35 546.14,-434.09 541,-432 514.58,-421.26 485.11,-409.49 460.65,-399.79"/>
<polygon fill="black" stroke="black" points="461.77,-396.47 451.19,-396.03 459.19,-402.98 461.77,-396.47"/>
</g>
<!-- docs&#45;&gt;DocumentBagMap
bag_apply -->
<g id="edge25" class="edge">
<title>docs&#45;&gt;DocumentBagMap
bag_apply</title>
<path fill="none" stroke="black" d="M583.48,-431.7C584.15,-423.98 584.94,-414.71 585.68,-406.11"/>
<polygon fill="black" stroke="black" points="589.17,-406.36 586.54,-396.1 582.19,-405.76 589.17,-406.36"/>
</g>
<!-- Alias
exploded -->
<g id="node25" class="node">
<title>Alias
exploded</title>
<text text-anchor="middle" x="701" y="-86.3" font-family="Times,serif" font-size="14.00">Alias</text>
</g>
<!-- exploded&#45;&gt;Alias
exploded -->
<g id="edge27" class="edge">
<title>exploded&#45;&gt;Alias
exploded</title>
<path fill="none" stroke="black" d="M701,-143.7C701,-135.98 701,-126.71 701,-118.11"/>
<polygon fill="black" stroke="black" points="704.5,-118.1 701,-108.1 697.5,-118.1 704.5,-118.1"/>
</g>
<!-- e -->
<g id="node27" class="node">
<title>e</title>
<ellipse fill="none" stroke="black" cx="701" cy="-18" rx="27" ry="18"/>
<text text-anchor="middle" x="701" y="-14.3" font-family="Times,serif" font-size="14.00">e</text>
</g>
<!-- Alias
exploded&#45;&gt;e -->
<g id="edge30" class="edge">
<title>Alias
exploded&#45;&gt;e</title>
<path fill="none" stroke="black" d="M701,-71.7C701,-63.98 701,-54.71 701,-46.11"/>
<polygon fill="black" stroke="black" points="704.5,-46.1 701,-36.1 697.5,-46.1 704.5,-46.1"/>
</g>
<!-- configuration -->
<g id="node26" class="node">
<title>configuration</title>
<ellipse fill="none" stroke="black" cx="689" cy="-306" rx="72.29" ry="18"/>
<text text-anchor="middle" x="689" y="-302.3" font-family="Times,serif" font-size="14.00">configuration</text>
</g>
<!-- configuration&#45;&gt;DocumentBagCreator
apply -->
<g id="edge28" class="edge">
<title>configuration&#45;&gt;DocumentBagCreator
apply</title>
<path fill="none" stroke="black" d="M651.71,-290.5C625.89,-280.46 591.15,-266.95 562.41,-255.77"/>
<polygon fill="black" stroke="black" points="563.5,-252.44 552.91,-252.08 560.96,-258.96 563.5,-252.44"/>
</g>
<!-- configuration&#45;&gt;DocumentBagExplode
exploded -->
<g id="edge29" class="edge">
<title>configuration&#45;&gt;DocumentBagExplode
exploded</title>
<path fill="none" stroke="black" d="M691.97,-287.7C693.29,-279.98 694.88,-270.71 696.35,-262.11"/>
<polygon fill="black" stroke="black" points="699.82,-262.55 698.07,-252.1 692.93,-261.36 699.82,-262.55"/>
</g>
</g>
</svg>
