<?xml version="1.0" encoding="UTF-8" standalone="no"?>
<!DOCTYPE svg PUBLIC "-//W3C//DTD SVG 1.1//EN"
 "http://www.w3.org/Graphics/SVG/1.1/DTD/svg11.dtd">
<!-- Generated by graphviz version 2.43.0 (0)
 -->
<!-- Pages: 1 -->
<svg width="967pt" height="620pt"
 viewBox="0.00 0.00 967.14 620.00" xmlns="http://www.w3.org/2000/svg" xmlns:xlink="http://www.w3.org/1999/xlink">
<g id="graph0" class="graph" transform="scale(1 1) rotate(0) translate(4 616)">
<polygon fill="white" stroke="transparent" points="-4,4 -4,-616 963.14,-616 963.14,4 -4,4"/>
<!-- Configurationdoc_configuration -->
<g id="node1" class="node">
<title>Configurationdoc_configuration</title>
<polygon fill="none" stroke="black" points="16.14,-588.44 209.14,-576 402.14,-588.44 401.96,-608.56 16.32,-608.56 16.14,-588.44"/>
<text text-anchor="middle" x="209.14" y="-590.3" font-family="Times,serif" font-size="14.00">Configurationdoc_configuration</text>
</g>
<!-- doc_configuration -->
<g id="node2" class="node">
<title>doc_configuration</title>
<ellipse fill="none" stroke="black" cx="209.14" cy="-522" rx="93" ry="18"/>
<text text-anchor="middle" x="209.14" y="-518.3" font-family="Times,serif" font-size="14.00">doc_configuration</text>
</g>
<!-- Configurationdoc_configuration&#45;&gt;doc_configuration -->
<g id="edge1" class="edge">
<title>Configurationdoc_configuration&#45;&gt;doc_configuration</title>
<path fill="none" stroke="black" d="M209.14,-575.7C209.14,-567.98 209.14,-558.71 209.14,-550.11"/>
<polygon fill="black" stroke="black" points="212.64,-550.1 209.14,-540.1 205.64,-550.1 212.64,-550.1"/>
</g>
<!-- Aliassource -->
<g id="node3" class="node">
<title>Aliassource</title>
<text text-anchor="middle" x="461.14" y="-518.3" font-family="Times,serif" font-size="14.00">Aliassource</text>
</g>
<!-- docs -->
<g id="node4" class="node">
<title>docs</title>
<ellipse fill="none" stroke="black" cx="461.14" cy="-450" rx="32" ry="18"/>
<text text-anchor="middle" x="461.14" y="-446.3" font-family="Times,serif" font-size="14.00">docs</text>
</g>
<!-- Aliassource&#45;&gt;docs -->
<g id="edge2" class="edge">
<title>Aliassource&#45;&gt;docs</title>
<path fill="none" stroke="black" d="M461.14,-503.7C461.14,-495.98 461.14,-486.71 461.14,-478.11"/>
<polygon fill="black" stroke="black" points="464.64,-478.1 461.14,-468.1 457.64,-478.1 464.64,-478.1"/>
</g>
<!-- LambdaOperatortake -->
<g id="node5" class="node">
<title>LambdaOperatortake</title>
<text text-anchor="middle" x="141.14" y="-374.3" font-family="Times,serif" font-size="14.00">LambdaOperatortake</text>
</g>
<!-- docs&#45;&gt;LambdaOperatortake -->
<g id="edge3" class="edge">
<title>docs&#45;&gt;LambdaOperatortake</title>
<path fill="none" stroke="black" d="M431.9,-442.6C386.31,-432.63 296.51,-412.99 228.71,-398.15"/>
<polygon fill="black" stroke="black" points="229.39,-394.72 218.87,-396 227.89,-401.55 229.39,-394.72"/>
</g>
<!-- LambdaOperatorcompute -->
<g id="node6" class="node">
<title>LambdaOperatorcompute</title>
<text text-anchor="middle" x="344.14" y="-374.3" font-family="Times,serif" font-size="14.00">LambdaOperatorcompute</text>
</g>
<!-- docs&#45;&gt;LambdaOperatorcompute -->
<g id="edge4" class="edge">
<title>docs&#45;&gt;LambdaOperatorcompute</title>
<path fill="none" stroke="black" d="M439.96,-436.32C423.62,-426.55 400.63,-412.8 381.26,-401.21"/>
<polygon fill="black" stroke="black" points="383.04,-398.19 372.66,-396.06 379.44,-404.2 383.04,-398.19"/>
</g>
<!-- BagPropertyExtractorget_dicts -->
<g id="node7" class="node">
<title>BagPropertyExtractorget_dicts</title>
<text text-anchor="middle" x="832.14" y="-374.3" font-family="Times,serif" font-size="14.00">BagPropertyExtractorget_dicts</text>
</g>
<!-- docs&#45;&gt;BagPropertyExtractorget_dicts -->
<g id="edge5" class="edge">
<title>docs&#45;&gt;BagPropertyExtractorget_dicts</title>
<path fill="none" stroke="black" d="M490.88,-443.39C542.49,-433.65 650.88,-413.2 731.73,-397.95"/>
<polygon fill="black" stroke="black" points="732.77,-401.31 741.95,-396.02 731.47,-394.44 732.77,-401.31"/>
</g>
<!-- LambdaOperatorget_datadocs -->
<g id="node8" class="node">
<title>LambdaOperatorget_datadocs</title>
<text text-anchor="middle" x="578.14" y="-374.3" font-family="Times,serif" font-size="14.00">LambdaOperatorget_datadocs</text>
</g>
<!-- docs&#45;&gt;LambdaOperatorget_datadocs -->
<g id="edge6" class="edge">
<title>docs&#45;&gt;LambdaOperatorget_datadocs</title>
<path fill="none" stroke="black" d="M482.33,-436.32C498.66,-426.55 521.66,-412.8 541.02,-401.21"/>
<polygon fill="black" stroke="black" points="542.84,-404.2 549.63,-396.06 539.25,-398.19 542.84,-404.2"/>
</g>
<!-- take -->
<g id="node9" class="node">
<title>take</title>
<ellipse fill="none" stroke="black" cx="193.14" cy="-306" rx="30.59" ry="18"/>
<text text-anchor="middle" x="193.14" y="-302.3" font-family="Times,serif" font-size="14.00">take</text>
</g>
<!-- LambdaOperatortake&#45;&gt;take -->
<g id="edge7" class="edge">
<title>LambdaOperatortake&#45;&gt;take</title>
<path fill="none" stroke="black" d="M154,-359.7C160.44,-351.02 168.36,-340.37 175.37,-330.92"/>
<polygon fill="black" stroke="black" points="178.34,-332.78 181.5,-322.67 172.73,-328.61 178.34,-332.78"/>
</g>
<!-- compute -->
<g id="node10" class="node">
<title>compute</title>
<ellipse fill="none" stroke="black" cx="344.14" cy="-306" rx="50.89" ry="18"/>
<text text-anchor="middle" x="344.14" y="-302.3" font-family="Times,serif" font-size="14.00">compute</text>
</g>
<!-- LambdaOperatorcompute&#45;&gt;compute -->
<g id="edge8" class="edge">
<title>LambdaOperatorcompute&#45;&gt;compute</title>
<path fill="none" stroke="black" d="M344.14,-359.7C344.14,-351.98 344.14,-342.71 344.14,-334.11"/>
<polygon fill="black" stroke="black" points="347.64,-334.1 344.14,-324.1 340.64,-334.1 347.64,-334.1"/>
</g>
<!-- get_dicts -->
<g id="node11" class="node">
<title>get_dicts</title>
<ellipse fill="none" stroke="black" cx="832.14" cy="-306" rx="52.79" ry="18"/>
<text text-anchor="middle" x="832.14" y="-302.3" font-family="Times,serif" font-size="14.00">get_dicts</text>
</g>
<!-- BagPropertyExtractorget_dicts&#45;&gt;get_dicts -->
<g id="edge9" class="edge">
<title>BagPropertyExtractorget_dicts&#45;&gt;get_dicts</title>
<path fill="none" stroke="black" d="M832.14,-359.7C832.14,-351.98 832.14,-342.71 832.14,-334.11"/>
<polygon fill="black" stroke="black" points="835.64,-334.1 832.14,-324.1 828.64,-334.1 835.64,-334.1"/>
</g>
<!-- get_datadocs -->
<g id="node12" class="node">
<title>get_datadocs</title>
<ellipse fill="none" stroke="black" cx="531.14" cy="-306" rx="71.5" ry="18"/>
<text text-anchor="middle" x="531.14" y="-302.3" font-family="Times,serif" font-size="14.00">get_datadocs</text>
</g>
<!-- LambdaOperatorget_datadocs&#45;&gt;get_datadocs -->
<g id="edge10" class="edge">
<title>LambdaOperatorget_datadocs&#45;&gt;get_datadocs</title>
<path fill="none" stroke="black" d="M566.53,-359.7C561,-351.47 554.3,-341.48 548.21,-332.42"/>
<polygon fill="black" stroke="black" points="551.11,-330.46 542.63,-324.1 545.29,-334.35 551.11,-330.46"/>
</g>
<!-- LambdaOperatoridx_dict -->
<g id="node13" class="node">
<title>LambdaOperatoridx_dict</title>
<text text-anchor="middle" x="832.14" y="-230.3" font-family="Times,serif" font-size="14.00">LambdaOperatoridx_dict</text>
</g>
<!-- get_dicts&#45;&gt;LambdaOperatoridx_dict -->
<g id="edge11" class="edge">
<title>get_dicts&#45;&gt;LambdaOperatoridx_dict</title>
<path fill="none" stroke="black" d="M832.14,-287.7C832.14,-279.98 832.14,-270.71 832.14,-262.11"/>
<polygon fill="black" stroke="black" points="835.64,-262.1 832.14,-252.1 828.64,-262.1 835.64,-262.1"/>
</g>
<!-- LambdaOperatorget_data_docbag -->
<g id="node14" class="node">
<title>LambdaOperatorget_data_docbag</title>
<text text-anchor="middle" x="302.14" y="-230.3" font-family="Times,serif" font-size="14.00">LambdaOperatorget_data_docbag</text>
</g>
<!-- get_datadocs&#45;&gt;LambdaOperatorget_data_docbag -->
<g id="edge12" class="edge">
<title>get_datadocs&#45;&gt;LambdaOperatorget_data_docbag</title>
<path fill="none" stroke="black" d="M487.53,-291.67C453.56,-281.28 405.85,-266.7 367.34,-254.93"/>
<polygon fill="black" stroke="black" points="368.36,-251.58 357.77,-252 366.31,-258.27 368.36,-251.58"/>
</g>
<!-- idx_dict -->
<g id="node16" class="node">
<title>idx_dict</title>
<ellipse fill="none" stroke="black" cx="832.14" cy="-162" rx="47" ry="18"/>
<text text-anchor="middle" x="832.14" y="-158.3" font-family="Times,serif" font-size="14.00">idx_dict</text>
</g>
<!-- LambdaOperatoridx_dict&#45;&gt;idx_dict -->
<g id="edge14" class="edge">
<title>LambdaOperatoridx_dict&#45;&gt;idx_dict</title>
<path fill="none" stroke="black" d="M832.14,-215.7C832.14,-207.98 832.14,-198.71 832.14,-190.11"/>
<polygon fill="black" stroke="black" points="835.64,-190.1 832.14,-180.1 828.64,-190.1 835.64,-190.1"/>
</g>
<!-- get_data_docbag -->
<g id="node18" class="node">
<title>get_data_docbag</title>
<ellipse fill="none" stroke="black" cx="302.14" cy="-162" rx="88.5" ry="18"/>
<text text-anchor="middle" x="302.14" y="-158.3" font-family="Times,serif" font-size="14.00">get_data_docbag</text>
</g>
<!-- LambdaOperatorget_data_docbag&#45;&gt;get_data_docbag -->
<g id="edge16" class="edge">
<title>LambdaOperatorget_data_docbag&#45;&gt;get_data_docbag</title>
<path fill="none" stroke="black" d="M302.14,-215.7C302.14,-207.98 302.14,-198.71 302.14,-190.11"/>
<polygon fill="black" stroke="black" points="305.64,-190.1 302.14,-180.1 298.64,-190.1 305.64,-190.1"/>
</g>
<!-- source -->
<g id="node15" class="node">
<title>source</title>
<ellipse fill="none" stroke="black" cx="461.14" cy="-594" rx="41.69" ry="18"/>
<text text-anchor="middle" x="461.14" y="-590.3" font-family="Times,serif" font-size="14.00">source</text>
</g>
<!-- source&#45;&gt;Aliassource -->
<g id="edge13" class="edge">
<title>source&#45;&gt;Aliassource</title>
<path fill="none" stroke="black" d="M461.14,-575.7C461.14,-567.98 461.14,-558.71 461.14,-550.11"/>
<polygon fill="black" stroke="black" points="464.64,-550.1 461.14,-540.1 457.64,-550.1 464.64,-550.1"/>
</g>
<!-- ChromaIndexFromBagchromaidx -->
<g id="node17" class="node">
<title>ChromaIndexFromBagchromaidx</title>
<text text-anchor="middle" x="832.14" y="-86.3" font-family="Times,serif" font-size="14.00">ChromaIndexFromBagchromaidx</text>
</g>
<!-- idx_dict&#45;&gt;ChromaIndexFromBagchromaidx -->
<g id="edge15" class="edge">
<title>idx_dict&#45;&gt;ChromaIndexFromBagchromaidx</title>
<path fill="none" stroke="black" d="M832.14,-143.7C832.14,-135.98 832.14,-126.71 832.14,-118.11"/>
<polygon fill="black" stroke="black" points="835.64,-118.1 832.14,-108.1 828.64,-118.1 835.64,-118.1"/>
</g>
<!-- chromaidx -->
<g id="node20" class="node">
<title>chromaidx</title>
<ellipse fill="none" stroke="black" cx="832.14" cy="-18" rx="60" ry="18"/>
<text text-anchor="middle" x="832.14" y="-14.3" font-family="Times,serif" font-size="14.00">chromaidx</text>
</g>
<!-- ChromaIndexFromBagchromaidx&#45;&gt;chromaidx -->
<g id="edge18" class="edge">
<title>ChromaIndexFromBagchromaidx&#45;&gt;chromaidx</title>
<path fill="none" stroke="black" d="M832.14,-71.7C832.14,-63.98 832.14,-54.71 832.14,-46.11"/>
<polygon fill="black" stroke="black" points="835.64,-46.1 832.14,-36.1 828.64,-46.1 835.64,-46.1"/>
</g>
<!-- configuration -->
<g id="node19" class="node">
<title>configuration</title>
<ellipse fill="none" stroke="black" cx="72.14" cy="-306" rx="72.29" ry="18"/>
<text text-anchor="middle" x="72.14" y="-302.3" font-family="Times,serif" font-size="14.00">configuration</text>
</g>
<!-- configuration&#45;&gt;LambdaOperatorget_data_docbag -->
<g id="edge17" class="edge">
<title>configuration&#45;&gt;LambdaOperatorget_data_docbag</title>
<path fill="none" stroke="black" d="M115.95,-291.67C150.07,-281.28 197.98,-266.7 236.66,-254.93"/>
<polygon fill="black" stroke="black" points="237.73,-258.26 246.28,-252 235.69,-251.57 237.73,-258.26"/>
</g>
</g>
</svg>
