<?xml version="1.0" encoding="UTF-8" standalone="no"?>
<!DOCTYPE svg PUBLIC "-//W3C//DTD SVG 1.1//EN"
 "http://www.w3.org/Graphics/SVG/1.1/DTD/svg11.dtd">
<!-- Generated by graphviz version 2.43.0 (0)
 -->
<!-- Pages: 1 -->
<svg width="1129pt" height="1052pt"
 viewBox="0.00 0.00 1128.50 1052.00" xmlns="http://www.w3.org/2000/svg" xmlns:xlink="http://www.w3.org/1999/xlink">
<g id="graph0" class="graph" transform="scale(1 1) rotate(0) translate(4 1048)">
<polygon fill="white" stroke="transparent" points="-4,4 -4,-1048 1124.5,-1048 1124.5,4 -4,4"/>
<!-- Configuration
doc_configuration -->
<g id="node1" class="node">
<title>Configuration
doc_configuration</title>
<polygon fill="none" stroke="black" points="127.83,-804.44 219.5,-792 311.17,-804.44 311.08,-824.56 127.92,-824.56 127.83,-804.44"/>
<text text-anchor="middle" x="219.5" y="-806.3" font-family="Times,serif" font-size="14.00">Configuration</text>
</g>
<!-- doc_configuration -->
<g id="node2" class="node">
<title>doc_configuration</title>
<ellipse fill="none" stroke="black" cx="219.5" cy="-738" rx="93" ry="18"/>
<text text-anchor="middle" x="219.5" y="-734.3" font-family="Times,serif" font-size="14.00">doc_configuration</text>
</g>
<!-- Configuration
doc_configuration&#45;&gt;doc_configuration -->
<g id="edge1" class="edge">
<title>Configuration
doc_configuration&#45;&gt;doc_configuration</title>
<path fill="none" stroke="black" d="M219.5,-791.7C219.5,-783.98 219.5,-774.71 219.5,-766.11"/>
<polygon fill="black" stroke="black" points="223,-766.1 219.5,-756.1 216,-766.1 223,-766.1"/>
</g>
<!-- FunctionOperator
Document -->
<g id="node3" class="node">
<title>FunctionOperator
Document</title>
<text text-anchor="middle" x="196.5" y="-662.3" font-family="Times,serif" font-size="14.00">FunctionOperator</text>
</g>
<!-- doc_configuration&#45;&gt;FunctionOperator
Document -->
<g id="edge2" class="edge">
<title>doc_configuration&#45;&gt;FunctionOperator
Document</title>
<path fill="none" stroke="black" d="M213.81,-719.7C211.25,-711.9 208.17,-702.51 205.32,-693.83"/>
<polygon fill="black" stroke="black" points="208.57,-692.51 202.12,-684.1 201.92,-694.69 208.57,-692.51"/>
</g>
<!-- BagMapOperator
docs -->
<g id="node4" class="node">
<title>BagMapOperator
docs</title>
<text text-anchor="middle" x="407.5" y="-518.3" font-family="Times,serif" font-size="14.00">BagMapOperator</text>
</g>
<!-- doc_configuration&#45;&gt;BagMapOperator
docs -->
<g id="edge3" class="edge">
<title>doc_configuration&#45;&gt;BagMapOperator
docs</title>
<path fill="none" stroke="black" d="M239.26,-720.27C250.81,-710.17 265.44,-696.82 277.5,-684 320.21,-638.6 364.74,-580.79 389,-548.24"/>
<polygon fill="black" stroke="black" points="391.86,-550.26 395.01,-540.15 386.24,-546.09 391.86,-550.26"/>
</g>
<!-- Document -->
<g id="node5" class="node">
<title>Document</title>
<ellipse fill="none" stroke="black" cx="181.5" cy="-594" rx="58" ry="18"/>
<text text-anchor="middle" x="181.5" y="-590.3" font-family="Times,serif" font-size="14.00">Document</text>
</g>
<!-- FunctionOperator
Document&#45;&gt;Document -->
<g id="edge4" class="edge">
<title>FunctionOperator
Document&#45;&gt;Document</title>
<path fill="none" stroke="black" d="M192.79,-647.7C191.14,-639.98 189.15,-630.71 187.31,-622.11"/>
<polygon fill="black" stroke="black" points="190.68,-621.15 185.17,-612.1 183.84,-622.61 190.68,-621.15"/>
</g>
<!-- docs -->
<g id="node6" class="node">
<title>docs</title>
<ellipse fill="none" stroke="black" cx="419.5" cy="-450" rx="32" ry="18"/>
<text text-anchor="middle" x="419.5" y="-446.3" font-family="Times,serif" font-size="14.00">docs</text>
</g>
<!-- BagMapOperator
docs&#45;&gt;docs -->
<g id="edge5" class="edge">
<title>BagMapOperator
docs&#45;&gt;docs</title>
<path fill="none" stroke="black" d="M410.47,-503.7C411.79,-495.98 413.38,-486.71 414.85,-478.11"/>
<polygon fill="black" stroke="black" points="418.33,-478.55 416.57,-468.1 411.43,-477.36 418.33,-478.55"/>
</g>
<!-- FunctionOperator
vectorizer -->
<g id="node7" class="node">
<title>FunctionOperator
vectorizer</title>
<text text-anchor="middle" x="151.5" y="-518.3" font-family="Times,serif" font-size="14.00">FunctionOperator</text>
</g>
<!-- Document&#45;&gt;FunctionOperator
vectorizer -->
<g id="edge6" class="edge">
<title>Document&#45;&gt;FunctionOperator
vectorizer</title>
<path fill="none" stroke="black" d="M174.24,-576.05C170.82,-568.09 166.68,-558.41 162.86,-549.51"/>
<polygon fill="black" stroke="black" points="166.06,-548.09 158.9,-540.28 159.63,-550.85 166.06,-548.09"/>
</g>
<!-- BagPropertyExtractor
get_dicts -->
<g id="node8" class="node">
<title>BagPropertyExtractor
get_dicts</title>
<text text-anchor="middle" x="609.5" y="-374.3" font-family="Times,serif" font-size="14.00">BagPropertyExtractor</text>
</g>
<!-- docs&#45;&gt;BagPropertyExtractor
get_dicts -->
<g id="edge7" class="edge">
<title>docs&#45;&gt;BagPropertyExtractor
get_dicts</title>
<path fill="none" stroke="black" d="M445.52,-439.41C473.11,-429.25 517.54,-412.88 553.2,-399.74"/>
<polygon fill="black" stroke="black" points="554.83,-402.87 563.01,-396.13 552.42,-396.3 554.83,-402.87"/>
</g>
<!-- DocumentBagMap
bag_apply -->
<g id="node9" class="node">
<title>DocumentBagMap
bag_apply</title>
<text text-anchor="middle" x="789.5" y="-374.3" font-family="Times,serif" font-size="14.00">DocumentBagMap</text>
</g>
<!-- docs&#45;&gt;DocumentBagMap
bag_apply -->
<g id="edge8" class="edge">
<title>docs&#45;&gt;DocumentBagMap
bag_apply</title>
<path fill="none" stroke="black" d="M449.7,-443.62C500.36,-434.56 605.91,-415.49 704.98,-396.28"/>
<polygon fill="black" stroke="black" points="705.71,-399.7 714.86,-394.36 704.38,-392.83 705.71,-399.7"/>
</g>
<!-- ChromaIndexFromBag
add_to_chroma -->
<g id="node10" class="node">
<title>ChromaIndexFromBag
add_to_chroma</title>
<text text-anchor="middle" x="89.5" y="-374.3" font-family="Times,serif" font-size="14.00">ChromaIndexFromBag</text>
</g>
<!-- docs&#45;&gt;ChromaIndexFromBag
add_to_chroma -->
<g id="edge9" class="edge">
<title>docs&#45;&gt;ChromaIndexFromBag
add_to_chroma</title>
<path fill="none" stroke="black" d="M390.21,-442.79C343.53,-432.89 250.35,-413.12 180.01,-398.2"/>
<polygon fill="black" stroke="black" points="180.32,-394.69 169.81,-396.04 178.87,-401.54 180.32,-394.69"/>
</g>
<!-- FunctionOperator
take -->
<g id="node11" class="node">
<title>FunctionOperator
take</title>
<text text-anchor="middle" x="431.5" y="-374.3" font-family="Times,serif" font-size="14.00">FunctionOperator</text>
</g>
<!-- docs&#45;&gt;FunctionOperator
take -->
<g id="edge10" class="edge">
<title>docs&#45;&gt;FunctionOperator
take</title>
<path fill="none" stroke="black" d="M422.4,-432.05C423.73,-424.35 425.32,-415.03 426.81,-406.36"/>
<polygon fill="black" stroke="black" points="430.3,-406.73 428.54,-396.28 423.4,-405.54 430.3,-406.73"/>
</g>
<!-- FunctionOperator
compute -->
<g id="node12" class="node">
<title>FunctionOperator
compute</title>
<text text-anchor="middle" x="269.5" y="-374.3" font-family="Times,serif" font-size="14.00">FunctionOperator</text>
</g>
<!-- docs&#45;&gt;FunctionOperator
compute -->
<g id="edge11" class="edge">
<title>docs&#45;&gt;FunctionOperator
compute</title>
<path fill="none" stroke="black" d="M395.73,-437.91C374.15,-427.84 341.74,-412.71 315.16,-400.31"/>
<polygon fill="black" stroke="black" points="316.57,-397.11 306.03,-396.05 313.61,-403.45 316.57,-397.11"/>
</g>
<!-- vectorizer -->
<g id="node35" class="node">
<title>vectorizer</title>
<ellipse fill="none" stroke="black" cx="91.5" cy="-450" rx="58" ry="18"/>
<text text-anchor="middle" x="91.5" y="-446.3" font-family="Times,serif" font-size="14.00">vectorizer</text>
</g>
<!-- FunctionOperator
vectorizer&#45;&gt;vectorizer -->
<g id="edge39" class="edge">
<title>FunctionOperator
vectorizer&#45;&gt;vectorizer</title>
<path fill="none" stroke="black" d="M136.67,-503.7C129.37,-495.18 120.44,-484.76 112.46,-475.45"/>
<polygon fill="black" stroke="black" points="114.91,-472.94 105.75,-467.62 109.6,-477.49 114.91,-472.94"/>
</g>
<!-- get_dicts -->
<g id="node16" class="node">
<title>get_dicts</title>
<ellipse fill="none" stroke="black" cx="570.5" cy="-306" rx="52.79" ry="18"/>
<text text-anchor="middle" x="570.5" y="-302.3" font-family="Times,serif" font-size="14.00">get_dicts</text>
</g>
<!-- BagPropertyExtractor
get_dicts&#45;&gt;get_dicts -->
<g id="edge16" class="edge">
<title>BagPropertyExtractor
get_dicts&#45;&gt;get_dicts</title>
<path fill="none" stroke="black" d="M599.86,-359.7C595.37,-351.64 589.94,-341.89 584.98,-332.98"/>
<polygon fill="black" stroke="black" points="587.96,-331.13 580.03,-324.1 581.84,-334.54 587.96,-331.13"/>
</g>
<!-- bag_apply -->
<g id="node17" class="node">
<title>bag_apply</title>
<ellipse fill="none" stroke="black" cx="700.5" cy="-306" rx="58" ry="18"/>
<text text-anchor="middle" x="700.5" y="-302.3" font-family="Times,serif" font-size="14.00">bag_apply</text>
</g>
<!-- DocumentBagMap
bag_apply&#45;&gt;bag_apply -->
<g id="edge17" class="edge">
<title>DocumentBagMap
bag_apply&#45;&gt;bag_apply</title>
<path fill="none" stroke="black" d="M767.5,-359.7C755.76,-350.46 741.19,-339 728.63,-329.13"/>
<polygon fill="black" stroke="black" points="730.75,-326.35 720.73,-322.91 726.42,-331.85 730.75,-326.35"/>
</g>
<!-- add_to_chroma -->
<g id="node28" class="node">
<title>add_to_chroma</title>
<ellipse fill="none" stroke="black" cx="89.5" cy="-306" rx="80.69" ry="18"/>
<text text-anchor="middle" x="89.5" y="-302.3" font-family="Times,serif" font-size="14.00">add_to_chroma</text>
</g>
<!-- ChromaIndexFromBag
add_to_chroma&#45;&gt;add_to_chroma -->
<g id="edge31" class="edge">
<title>ChromaIndexFromBag
add_to_chroma&#45;&gt;add_to_chroma</title>
<path fill="none" stroke="black" d="M89.5,-359.7C89.5,-351.98 89.5,-342.71 89.5,-334.11"/>
<polygon fill="black" stroke="black" points="93,-334.1 89.5,-324.1 86,-334.1 93,-334.1"/>
</g>
<!-- take -->
<g id="node29" class="node">
<title>take</title>
<ellipse fill="none" stroke="black" cx="431.5" cy="-306" rx="30.59" ry="18"/>
<text text-anchor="middle" x="431.5" y="-302.3" font-family="Times,serif" font-size="14.00">take</text>
</g>
<!-- FunctionOperator
take&#45;&gt;take -->
<g id="edge32" class="edge">
<title>FunctionOperator
take&#45;&gt;take</title>
<path fill="none" stroke="black" d="M431.5,-359.7C431.5,-351.98 431.5,-342.71 431.5,-334.11"/>
<polygon fill="black" stroke="black" points="435,-334.1 431.5,-324.1 428,-334.1 435,-334.1"/>
</g>
<!-- compute -->
<g id="node30" class="node">
<title>compute</title>
<ellipse fill="none" stroke="black" cx="269.5" cy="-306" rx="50.89" ry="18"/>
<text text-anchor="middle" x="269.5" y="-302.3" font-family="Times,serif" font-size="14.00">compute</text>
</g>
<!-- FunctionOperator
compute&#45;&gt;compute -->
<g id="edge33" class="edge">
<title>FunctionOperator
compute&#45;&gt;compute</title>
<path fill="none" stroke="black" d="M269.5,-359.7C269.5,-351.98 269.5,-342.71 269.5,-334.11"/>
<polygon fill="black" stroke="black" points="273,-334.1 269.5,-324.1 266,-334.1 273,-334.1"/>
</g>
<!-- Configuration
forgiving_extracts -->
<g id="node13" class="node">
<title>Configuration
forgiving_extracts</title>
<polygon fill="none" stroke="black" points="698.83,-516.44 790.5,-504 882.17,-516.44 882.08,-536.56 698.92,-536.56 698.83,-516.44"/>
<text text-anchor="middle" x="790.5" y="-518.3" font-family="Times,serif" font-size="14.00">Configuration</text>
</g>
<!-- forgiving_extracts -->
<g id="node14" class="node">
<title>forgiving_extracts</title>
<ellipse fill="none" stroke="black" cx="789.5" cy="-450" rx="95" ry="18"/>
<text text-anchor="middle" x="789.5" y="-446.3" font-family="Times,serif" font-size="14.00">forgiving_extracts</text>
</g>
<!-- Configuration
forgiving_extracts&#45;&gt;forgiving_extracts -->
<g id="edge12" class="edge">
<title>Configuration
forgiving_extracts&#45;&gt;forgiving_extracts</title>
<path fill="none" stroke="black" d="M790.25,-503.7C790.14,-495.98 790.01,-486.71 789.89,-478.11"/>
<polygon fill="black" stroke="black" points="793.39,-478.05 789.74,-468.1 786.39,-478.15 793.39,-478.05"/>
</g>
<!-- forgiving_extracts&#45;&gt;BagPropertyExtractor
get_dicts -->
<g id="edge13" class="edge">
<title>forgiving_extracts&#45;&gt;BagPropertyExtractor
get_dicts</title>
<path fill="none" stroke="black" d="M749.55,-433.46C724.07,-423.56 690.75,-410.6 663,-399.8"/>
<polygon fill="black" stroke="black" points="664.03,-396.45 653.44,-396.09 661.5,-402.97 664.03,-396.45"/>
</g>
<!-- forgiving_extracts&#45;&gt;DocumentBagMap
bag_apply -->
<g id="edge14" class="edge">
<title>forgiving_extracts&#45;&gt;DocumentBagMap
bag_apply</title>
<path fill="none" stroke="black" d="M789.5,-431.7C789.5,-423.98 789.5,-414.71 789.5,-406.11"/>
<polygon fill="black" stroke="black" points="793,-406.1 789.5,-396.1 786,-406.1 793,-406.1"/>
</g>
<!-- DocumentBagCreator
apply -->
<g id="node15" class="node">
<title>DocumentBagCreator
apply</title>
<text text-anchor="middle" x="893.5" y="-230.3" font-family="Times,serif" font-size="14.00">DocumentBagCreator</text>
</g>
<!-- forgiving_extracts&#45;&gt;DocumentBagCreator
apply -->
<g id="edge15" class="edge">
<title>forgiving_extracts&#45;&gt;DocumentBagCreator
apply</title>
<path fill="none" stroke="black" d="M821.78,-433.02C857.32,-413.21 911.79,-375.62 929.5,-324 934.69,-308.87 934.2,-303.29 929.5,-288 926.49,-278.22 920.99,-268.62 915.18,-260.33"/>
<polygon fill="black" stroke="black" points="917.91,-258.13 909.11,-252.23 912.31,-262.33 917.91,-258.13"/>
</g>
<!-- apply -->
<g id="node18" class="node">
<title>apply</title>
<ellipse fill="none" stroke="black" cx="893.5" cy="-162" rx="36.5" ry="18"/>
<text text-anchor="middle" x="893.5" y="-158.3" font-family="Times,serif" font-size="14.00">apply</text>
</g>
<!-- DocumentBagCreator
apply&#45;&gt;apply -->
<g id="edge18" class="edge">
<title>DocumentBagCreator
apply&#45;&gt;apply</title>
<path fill="none" stroke="black" d="M893.5,-215.7C893.5,-207.98 893.5,-198.71 893.5,-190.11"/>
<polygon fill="black" stroke="black" points="897,-190.1 893.5,-180.1 890,-190.1 897,-190.1"/>
</g>
<!-- Alias
get_dicts -->
<g id="node19" class="node">
<title>Alias
get_dicts</title>
<text text-anchor="middle" x="568.5" y="-230.3" font-family="Times,serif" font-size="14.00">Alias</text>
</g>
<!-- get_dicts&#45;&gt;Alias
get_dicts -->
<g id="edge19" class="edge">
<title>get_dicts&#45;&gt;Alias
get_dicts</title>
<path fill="none" stroke="black" d="M570.01,-287.7C569.79,-279.98 569.52,-270.71 569.27,-262.11"/>
<polygon fill="black" stroke="black" points="572.77,-262 568.99,-252.1 565.77,-262.19 572.77,-262"/>
</g>
<!-- bag_apply&#45;&gt;DocumentBagCreator
apply -->
<g id="edge20" class="edge">
<title>bag_apply&#45;&gt;DocumentBagCreator
apply</title>
<path fill="none" stroke="black" d="M736.8,-291.83C764.91,-281.64 804.35,-267.33 836.63,-255.62"/>
<polygon fill="black" stroke="black" points="838.19,-258.78 846.4,-252.08 835.81,-252.2 838.19,-258.78"/>
</g>
<!-- DocumentBagExplode
exploded -->
<g id="node20" class="node">
<title>DocumentBagExplode
exploded</title>
<text text-anchor="middle" x="701.5" y="-230.3" font-family="Times,serif" font-size="14.00">DocumentBagExplode</text>
</g>
<!-- bag_apply&#45;&gt;DocumentBagExplode
exploded -->
<g id="edge21" class="edge">
<title>bag_apply&#45;&gt;DocumentBagExplode
exploded</title>
<path fill="none" stroke="black" d="M700.75,-287.7C700.86,-279.98 700.99,-270.71 701.11,-262.11"/>
<polygon fill="black" stroke="black" points="704.61,-262.15 701.26,-252.1 697.61,-262.05 704.61,-262.15"/>
</g>
<!-- d -->
<g id="node27" class="node">
<title>d</title>
<ellipse fill="none" stroke="black" cx="568.5" cy="-162" rx="27" ry="18"/>
<text text-anchor="middle" x="568.5" y="-158.3" font-family="Times,serif" font-size="14.00">d</text>
</g>
<!-- Alias
get_dicts&#45;&gt;d -->
<g id="edge30" class="edge">
<title>Alias
get_dicts&#45;&gt;d</title>
<path fill="none" stroke="black" d="M568.5,-215.7C568.5,-207.98 568.5,-198.71 568.5,-190.11"/>
<polygon fill="black" stroke="black" points="572,-190.1 568.5,-180.1 565,-190.1 572,-190.1"/>
</g>
<!-- exploded -->
<g id="node31" class="node">
<title>exploded</title>
<ellipse fill="none" stroke="black" cx="701.5" cy="-162" rx="52.79" ry="18"/>
<text text-anchor="middle" x="701.5" y="-158.3" font-family="Times,serif" font-size="14.00">exploded</text>
</g>
<!-- DocumentBagExplode
exploded&#45;&gt;exploded -->
<g id="edge34" class="edge">
<title>DocumentBagExplode
exploded&#45;&gt;exploded</title>
<path fill="none" stroke="black" d="M701.5,-215.7C701.5,-207.98 701.5,-198.71 701.5,-190.11"/>
<polygon fill="black" stroke="black" points="705,-190.1 701.5,-180.1 698,-190.1 705,-190.1"/>
</g>
<!-- Constant
_stats -->
<g id="node21" class="node">
<title>Constant
_stats</title>
<text text-anchor="middle" x="940.5" y="-518.3" font-family="Times,serif" font-size="14.00">Constant</text>
</g>
<!-- _stats -->
<g id="node22" class="node">
<title>_stats</title>
<ellipse fill="none" stroke="black" cx="940.5" cy="-450" rx="38.5" ry="18"/>
<text text-anchor="middle" x="940.5" y="-446.3" font-family="Times,serif" font-size="14.00">_stats</text>
</g>
<!-- Constant
_stats&#45;&gt;_stats -->
<g id="edge22" class="edge">
<title>Constant
_stats&#45;&gt;_stats</title>
<path fill="none" stroke="black" d="M940.5,-503.7C940.5,-495.98 940.5,-486.71 940.5,-478.11"/>
<polygon fill="black" stroke="black" points="944,-478.1 940.5,-468.1 937,-478.1 944,-478.1"/>
</g>
<!-- _stats&#45;&gt;BagPropertyExtractor
get_dicts -->
<g id="edge23" class="edge">
<title>_stats&#45;&gt;BagPropertyExtractor
get_dicts</title>
<path fill="none" stroke="black" d="M911.9,-437.82C905.88,-435.7 899.53,-433.64 893.5,-432 875.49,-427.1 782.45,-409.99 707.69,-396.51"/>
<polygon fill="black" stroke="black" points="708.2,-393.05 697.74,-394.72 706.96,-399.94 708.2,-393.05"/>
</g>
<!-- _stats&#45;&gt;DocumentBagMap
bag_apply -->
<g id="edge24" class="edge">
<title>_stats&#45;&gt;DocumentBagMap
bag_apply</title>
<path fill="none" stroke="black" d="M914.2,-436.81C892.52,-426.76 861.27,-412.27 835.47,-400.31"/>
<polygon fill="black" stroke="black" points="836.79,-397.07 826.25,-396.03 833.85,-403.42 836.79,-397.07"/>
</g>
<!-- FunctionOperator
stats -->
<g id="node23" class="node">
<title>FunctionOperator
stats</title>
<text text-anchor="middle" x="1048.5" y="-374.3" font-family="Times,serif" font-size="14.00">FunctionOperator</text>
</g>
<!-- _stats&#45;&gt;FunctionOperator
stats -->
<g id="edge25" class="edge">
<title>_stats&#45;&gt;FunctionOperator
stats</title>
<path fill="none" stroke="black" d="M962.1,-435C976.77,-425.49 996.52,-412.69 1013.4,-401.73"/>
<polygon fill="black" stroke="black" points="1015.49,-404.55 1022,-396.19 1011.7,-398.66 1015.49,-404.55"/>
</g>
<!-- stats -->
<g id="node24" class="node">
<title>stats</title>
<ellipse fill="none" stroke="black" cx="1048.5" cy="-306" rx="34" ry="18"/>
<text text-anchor="middle" x="1048.5" y="-302.3" font-family="Times,serif" font-size="14.00">stats</text>
</g>
<!-- FunctionOperator
stats&#45;&gt;stats -->
<g id="edge26" class="edge">
<title>FunctionOperator
stats&#45;&gt;stats</title>
<path fill="none" stroke="black" d="M1048.5,-359.7C1048.5,-351.98 1048.5,-342.71 1048.5,-334.11"/>
<polygon fill="black" stroke="black" points="1052,-334.1 1048.5,-324.1 1045,-334.1 1052,-334.1"/>
</g>
<!-- Configuration
verbosity -->
<g id="node25" class="node">
<title>Configuration
verbosity</title>
<polygon fill="none" stroke="black" points="497.83,-516.44 589.5,-504 681.17,-516.44 681.08,-536.56 497.92,-536.56 497.83,-516.44"/>
<text text-anchor="middle" x="589.5" y="-518.3" font-family="Times,serif" font-size="14.00">Configuration</text>
</g>
<!-- verbosity -->
<g id="node26" class="node">
<title>verbosity</title>
<ellipse fill="none" stroke="black" cx="609.5" cy="-450" rx="54" ry="18"/>
<text text-anchor="middle" x="609.5" y="-446.3" font-family="Times,serif" font-size="14.00">verbosity</text>
</g>
<!-- Configuration
verbosity&#45;&gt;verbosity -->
<g id="edge27" class="edge">
<title>Configuration
verbosity&#45;&gt;verbosity</title>
<path fill="none" stroke="black" d="M594.24,-504.41C596.52,-496.42 599.32,-486.64 601.89,-477.64"/>
<polygon fill="black" stroke="black" points="605.27,-478.54 604.66,-467.96 598.54,-476.61 605.27,-478.54"/>
</g>
<!-- verbosity&#45;&gt;BagPropertyExtractor
get_dicts -->
<g id="edge28" class="edge">
<title>verbosity&#45;&gt;BagPropertyExtractor
get_dicts</title>
<path fill="none" stroke="black" d="M609.5,-431.7C609.5,-423.98 609.5,-414.71 609.5,-406.11"/>
<polygon fill="black" stroke="black" points="613,-406.1 609.5,-396.1 606,-406.1 613,-406.1"/>
</g>
<!-- verbosity&#45;&gt;DocumentBagMap
bag_apply -->
<g id="edge29" class="edge">
<title>verbosity&#45;&gt;DocumentBagMap
bag_apply</title>
<path fill="none" stroke="black" d="M643.36,-435.83C669.45,-425.68 706.04,-411.46 736.07,-399.78"/>
<polygon fill="black" stroke="black" points="737.52,-402.97 745.57,-396.08 734.98,-396.45 737.52,-402.97"/>
</g>
<!-- Alias
exploded -->
<g id="node32" class="node">
<title>Alias
exploded</title>
<text text-anchor="middle" x="701.5" y="-86.3" font-family="Times,serif" font-size="14.00">Alias</text>
</g>
<!-- exploded&#45;&gt;Alias
exploded -->
<g id="edge35" class="edge">
<title>exploded&#45;&gt;Alias
exploded</title>
<path fill="none" stroke="black" d="M701.5,-143.7C701.5,-135.98 701.5,-126.71 701.5,-118.11"/>
<polygon fill="black" stroke="black" points="705,-118.1 701.5,-108.1 698,-118.1 705,-118.1"/>
</g>
<!-- e -->
<g id="node34" class="node">
<title>e</title>
<ellipse fill="none" stroke="black" cx="701.5" cy="-18" rx="27" ry="18"/>
<text text-anchor="middle" x="701.5" y="-14.3" font-family="Times,serif" font-size="14.00">e</text>
</g>
<!-- Alias
exploded&#45;&gt;e -->
<g id="edge38" class="edge">
<title>Alias
exploded&#45;&gt;e</title>
<path fill="none" stroke="black" d="M701.5,-71.7C701.5,-63.98 701.5,-54.71 701.5,-46.11"/>
<polygon fill="black" stroke="black" points="705,-46.1 701.5,-36.1 698,-46.1 705,-46.1"/>
</g>
<!-- configuration -->
<g id="node33" class="node">
<title>configuration</title>
<ellipse fill="none" stroke="black" cx="848.5" cy="-306" rx="72.29" ry="18"/>
<text text-anchor="middle" x="848.5" y="-302.3" font-family="Times,serif" font-size="14.00">configuration</text>
</g>
<!-- configuration&#45;&gt;DocumentBagCreator
apply -->
<g id="edge36" class="edge">
<title>configuration&#45;&gt;DocumentBagCreator
apply</title>
<path fill="none" stroke="black" d="M859.39,-288.05C864.62,-279.92 871,-270 876.82,-260.94"/>
<polygon fill="black" stroke="black" points="879.92,-262.58 882.39,-252.28 874.04,-258.8 879.92,-262.58"/>
</g>
<!-- configuration&#45;&gt;DocumentBagExplode
exploded -->
<g id="edge37" class="edge">
<title>configuration&#45;&gt;DocumentBagExplode
exploded</title>
<path fill="none" stroke="black" d="M816.6,-289.81C796.05,-280.02 769.01,-267.15 746.31,-256.34"/>
<polygon fill="black" stroke="black" points="747.73,-253.14 737.2,-252 744.72,-259.46 747.73,-253.14"/>
</g>
<!-- vectorizer&#45;&gt;ChromaIndexFromBag
add_to_chroma -->
<g id="edge40" class="edge">
<title>vectorizer&#45;&gt;ChromaIndexFromBag
add_to_chroma</title>
<path fill="none" stroke="black" d="M91.01,-431.7C90.78,-423.98 90.52,-414.71 90.28,-406.11"/>
<polygon fill="black" stroke="black" points="93.77,-406 89.99,-396.1 86.78,-406.2 93.77,-406"/>
</g>
<!-- bag -->
<g id="node36" class="node">
<title>bag</title>
<ellipse fill="none" stroke="black" cx="407.5" cy="-594" rx="28" ry="18"/>
<text text-anchor="middle" x="407.5" y="-590.3" font-family="Times,serif" font-size="14.00">bag</text>
</g>
<!-- bag&#45;&gt;BagMapOperator
docs -->
<g id="edge41" class="edge">
<title>bag&#45;&gt;BagMapOperator
docs</title>
<path fill="none" stroke="black" d="M407.5,-575.7C407.5,-567.98 407.5,-558.71 407.5,-550.11"/>
<polygon fill="black" stroke="black" points="411,-550.1 407.5,-540.1 404,-550.1 411,-550.1"/>
</g>
<!-- FunctionOperator
sql
connection_string
index_column -->
<g id="node37" class="node">
<title>FunctionOperator
sql
connection_string
index_column</title>
<text text-anchor="middle" x="315.5" y="-950.3" font-family="Times,serif" font-size="14.00">FunctionOperator</text>
</g>
<!-- sql -->
<g id="node38" class="node">
<title>sql</title>
<ellipse fill="none" stroke="black" cx="177.5" cy="-882" rx="27" ry="18"/>
<text text-anchor="middle" x="177.5" y="-878.3" font-family="Times,serif" font-size="14.00">sql</text>
</g>
<!-- FunctionOperator
sql
connection_string
index_column&#45;&gt;sql -->
<g id="edge42" class="edge">
<title>FunctionOperator
sql
connection_string
index_column&#45;&gt;sql</title>
<path fill="none" stroke="black" d="M281.74,-935.88C259.08,-924.38 229.49,-909.37 207.63,-898.28"/>
<polygon fill="black" stroke="black" points="208.98,-895.04 198.48,-893.64 205.82,-901.28 208.98,-895.04"/>
</g>
<!-- connection_string -->
<g id="node39" class="node">
<title>connection_string</title>
<ellipse fill="none" stroke="black" cx="315.5" cy="-882" rx="93" ry="18"/>
<text text-anchor="middle" x="315.5" y="-878.3" font-family="Times,serif" font-size="14.00">connection_string</text>
</g>
<!-- FunctionOperator
sql
connection_string
index_column&#45;&gt;connection_string -->
<g id="edge43" class="edge">
<title>FunctionOperator
sql
connection_string
index_column&#45;&gt;connection_string</title>
<path fill="none" stroke="black" d="M315.5,-935.7C315.5,-927.98 315.5,-918.71 315.5,-910.11"/>
<polygon fill="black" stroke="black" points="319,-910.1 315.5,-900.1 312,-910.1 319,-910.1"/>
</g>
<!-- index_column -->
<g id="node40" class="node">
<title>index_column</title>
<ellipse fill="none" stroke="black" cx="500.5" cy="-882" rx="74.19" ry="18"/>
<text text-anchor="middle" x="500.5" y="-878.3" font-family="Times,serif" font-size="14.00">index_column</text>
</g>
<!-- FunctionOperator
sql
connection_string
index_column&#45;&gt;index_column -->
<g id="edge44" class="edge">
<title>FunctionOperator
sql
connection_string
index_column&#45;&gt;index_column</title>
<path fill="none" stroke="black" d="M360.76,-935.88C388.6,-925.34 424.25,-911.85 452.58,-901.13"/>
<polygon fill="black" stroke="black" points="454.15,-904.28 462.27,-897.47 451.68,-897.73 454.15,-904.28"/>
</g>
<!-- SQLTableLoader
dataframe -->
<g id="node41" class="node">
<title>SQLTableLoader
dataframe</title>
<text text-anchor="middle" x="407.5" y="-806.3" font-family="Times,serif" font-size="14.00">SQLTableLoader</text>
</g>
<!-- sql&#45;&gt;SQLTableLoader
dataframe -->
<g id="edge45" class="edge">
<title>sql&#45;&gt;SQLTableLoader
dataframe</title>
<path fill="none" stroke="black" d="M198.56,-870.31C203.4,-868.06 208.57,-865.82 213.5,-864 251.22,-850.06 294.27,-837.94 330.21,-828.82"/>
<polygon fill="black" stroke="black" points="331.3,-832.16 340.15,-826.33 329.6,-825.36 331.3,-832.16"/>
</g>
<!-- connection_string&#45;&gt;SQLTableLoader
dataframe -->
<g id="edge46" class="edge">
<title>connection_string&#45;&gt;SQLTableLoader
dataframe</title>
<path fill="none" stroke="black" d="M337.3,-864.41C349.07,-855.46 363.79,-844.25 376.71,-834.42"/>
<polygon fill="black" stroke="black" points="379.05,-837.04 384.89,-828.2 374.81,-831.47 379.05,-837.04"/>
</g>
<!-- index_column&#45;&gt;SQLTableLoader
dataframe -->
<g id="edge47" class="edge">
<title>index_column&#45;&gt;SQLTableLoader
dataframe</title>
<path fill="none" stroke="black" d="M478.93,-864.76C466.84,-855.67 451.57,-844.17 438.25,-834.14"/>
<polygon fill="black" stroke="black" points="440.34,-831.34 430.25,-828.12 436.14,-836.93 440.34,-831.34"/>
</g>
<!-- dataframe -->
<g id="node42" class="node">
<title>dataframe</title>
<ellipse fill="none" stroke="black" cx="407.5" cy="-738" rx="58.5" ry="18"/>
<text text-anchor="middle" x="407.5" y="-734.3" font-family="Times,serif" font-size="14.00">dataframe</text>
</g>
<!-- SQLTableLoader
dataframe&#45;&gt;dataframe -->
<g id="edge48" class="edge">
<title>SQLTableLoader
dataframe&#45;&gt;dataframe</title>
<path fill="none" stroke="black" d="M407.5,-791.7C407.5,-783.98 407.5,-774.71 407.5,-766.11"/>
<polygon fill="black" stroke="black" points="411,-766.1 407.5,-756.1 404,-766.1 411,-766.1"/>
</g>
<!-- FunctionOperator
bag -->
<g id="node43" class="node">
<title>FunctionOperator
bag</title>
<text text-anchor="middle" x="407.5" y="-662.3" font-family="Times,serif" font-size="14.00">FunctionOperator</text>
</g>
<!-- dataframe&#45;&gt;FunctionOperator
bag -->
<g id="edge49" class="edge">
<title>dataframe&#45;&gt;FunctionOperator
bag</title>
<path fill="none" stroke="black" d="M407.5,-719.7C407.5,-711.98 407.5,-702.71 407.5,-694.11"/>
<polygon fill="black" stroke="black" points="411,-694.1 407.5,-684.1 404,-694.1 411,-694.1"/>
</g>
<!-- FunctionOperator
bag&#45;&gt;bag -->
<g id="edge53" class="edge">
<title>FunctionOperator
bag&#45;&gt;bag</title>
<path fill="none" stroke="black" d="M407.5,-647.7C407.5,-639.98 407.5,-630.71 407.5,-622.11"/>
<polygon fill="black" stroke="black" points="411,-622.1 407.5,-612.1 404,-622.1 411,-622.1"/>
</g>
<!-- source -->
<g id="node44" class="node">
<title>source</title>
<ellipse fill="none" stroke="black" cx="315.5" cy="-1026" rx="41.69" ry="18"/>
<text text-anchor="middle" x="315.5" y="-1022.3" font-family="Times,serif" font-size="14.00">source</text>
</g>
<!-- source&#45;&gt;FunctionOperator
sql
connection_string
index_column -->
<g id="edge50" class="edge">
<title>source&#45;&gt;FunctionOperator
sql
connection_string
index_column</title>
<path fill="none" stroke="black" d="M315.5,-1007.7C315.5,-999.98 315.5,-990.71 315.5,-982.11"/>
<polygon fill="black" stroke="black" points="319,-982.1 315.5,-972.1 312,-982.1 319,-982.1"/>
</g>
<!-- Configuration
bytes_per_chunk -->
<g id="node45" class="node">
<title>Configuration
bytes_per_chunk</title>
<polygon fill="none" stroke="black" points="588.83,-948.44 680.5,-936 772.17,-948.44 772.08,-968.56 588.92,-968.56 588.83,-948.44"/>
<text text-anchor="middle" x="680.5" y="-950.3" font-family="Times,serif" font-size="14.00">Configuration</text>
</g>
<!-- bytes_per_chunk -->
<g id="node46" class="node">
<title>bytes_per_chunk</title>
<ellipse fill="none" stroke="black" cx="680.5" cy="-882" rx="88.5" ry="18"/>
<text text-anchor="middle" x="680.5" y="-878.3" font-family="Times,serif" font-size="14.00">bytes_per_chunk</text>
</g>
<!-- Configuration
bytes_per_chunk&#45;&gt;bytes_per_chunk -->
<g id="edge51" class="edge">
<title>Configuration
bytes_per_chunk&#45;&gt;bytes_per_chunk</title>
<path fill="none" stroke="black" d="M680.5,-935.7C680.5,-927.98 680.5,-918.71 680.5,-910.11"/>
<polygon fill="black" stroke="black" points="684,-910.1 680.5,-900.1 677,-910.1 684,-910.1"/>
</g>
<!-- bytes_per_chunk&#45;&gt;SQLTableLoader
dataframe -->
<g id="edge52" class="edge">
<title>bytes_per_chunk&#45;&gt;SQLTableLoader
dataframe</title>
<path fill="none" stroke="black" d="M627.86,-867.5C587.01,-857.03 529.8,-842.36 483.91,-830.59"/>
<polygon fill="black" stroke="black" points="484.56,-827.14 474,-828.05 482.82,-833.92 484.56,-827.14"/>
</g>
</g>
</svg>
