<?xml version="1.0" encoding="UTF-8" standalone="no"?>
<!DOCTYPE svg PUBLIC "-//W3C//DTD SVG 1.1//EN"
 "http://www.w3.org/Graphics/SVG/1.1/DTD/svg11.dtd">
<!-- Generated by graphviz version 2.43.0 (0)
 -->
<!-- Pages: 1 -->
<svg width="723pt" height="692pt"
 viewBox="0.00 0.00 723.00 692.00" xmlns="http://www.w3.org/2000/svg" xmlns:xlink="http://www.w3.org/1999/xlink">
<g id="graph0" class="graph" transform="scale(1 1) rotate(0) translate(4 688)">
<polygon fill="white" stroke="transparent" points="-4,4 -4,-688 719,-688 719,4 -4,4"/>
<!-- Configuration
doc_configuration -->
<g id="node1" class="node">
<title>Configuration
doc_configuration</title>
<polygon fill="none" stroke="black" points="1.33,-660.44 93,-648 184.67,-660.44 184.58,-680.56 1.42,-680.56 1.33,-660.44"/>
<text text-anchor="middle" x="93" y="-662.3" font-family="Times,serif" font-size="14.00">Configuration</text>
</g>
<!-- doc_configuration -->
<g id="node2" class="node">
<title>doc_configuration</title>
<ellipse fill="none" stroke="black" cx="93" cy="-594" rx="93" ry="18"/>
<text text-anchor="middle" x="93" y="-590.3" font-family="Times,serif" font-size="14.00">doc_configuration</text>
</g>
<!-- Configuration
doc_configuration&#45;&gt;doc_configuration -->
<g id="edge1" class="edge">
<title>Configuration
doc_configuration&#45;&gt;doc_configuration</title>
<path fill="none" stroke="black" d="M93,-647.7C93,-639.98 93,-630.71 93,-622.11"/>
<polygon fill="black" stroke="black" points="96.5,-622.1 93,-612.1 89.5,-622.1 96.5,-622.1"/>
</g>
<!-- FunctionOperator
vectorizer -->
<g id="node3" class="node">
<title>FunctionOperator
vectorizer</title>
<text text-anchor="middle" x="93" y="-518.3" font-family="Times,serif" font-size="14.00">FunctionOperator</text>
</g>
<!-- doc_configuration&#45;&gt;FunctionOperator
vectorizer -->
<g id="edge2" class="edge">
<title>doc_configuration&#45;&gt;FunctionOperator
vectorizer</title>
<path fill="none" stroke="black" d="M93,-575.7C93,-567.98 93,-558.71 93,-550.11"/>
<polygon fill="black" stroke="black" points="96.5,-550.1 93,-540.1 89.5,-550.1 96.5,-550.1"/>
</g>
<!-- vectorizer -->
<g id="node4" class="node">
<title>vectorizer</title>
<ellipse fill="none" stroke="black" cx="93" cy="-450" rx="58" ry="18"/>
<text text-anchor="middle" x="93" y="-446.3" font-family="Times,serif" font-size="14.00">vectorizer</text>
</g>
<!-- FunctionOperator
vectorizer&#45;&gt;vectorizer -->
<g id="edge3" class="edge">
<title>FunctionOperator
vectorizer&#45;&gt;vectorizer</title>
<path fill="none" stroke="black" d="M93,-503.7C93,-495.98 93,-486.71 93,-478.11"/>
<polygon fill="black" stroke="black" points="96.5,-478.1 93,-468.1 89.5,-478.1 96.5,-478.1"/>
</g>
<!-- ChromaIndexFromBag
add_to_chroma -->
<g id="node5" class="node">
<title>ChromaIndexFromBag
add_to_chroma</title>
<text text-anchor="middle" x="93" y="-374.3" font-family="Times,serif" font-size="14.00">ChromaIndexFromBag</text>
</g>
<!-- vectorizer&#45;&gt;ChromaIndexFromBag
add_to_chroma -->
<g id="edge4" class="edge">
<title>vectorizer&#45;&gt;ChromaIndexFromBag
add_to_chroma</title>
<path fill="none" stroke="black" d="M93,-431.7C93,-423.98 93,-414.71 93,-406.11"/>
<polygon fill="black" stroke="black" points="96.5,-406.1 93,-396.1 89.5,-406.1 96.5,-406.1"/>
</g>
<!-- add_to_chroma -->
<g id="node23" class="node">
<title>add_to_chroma</title>
<ellipse fill="none" stroke="black" cx="92" cy="-306" rx="80.69" ry="18"/>
<text text-anchor="middle" x="92" y="-302.3" font-family="Times,serif" font-size="14.00">add_to_chroma</text>
</g>
<!-- ChromaIndexFromBag
add_to_chroma&#45;&gt;add_to_chroma -->
<g id="edge25" class="edge">
<title>ChromaIndexFromBag
add_to_chroma&#45;&gt;add_to_chroma</title>
<path fill="none" stroke="black" d="M92.75,-359.7C92.64,-351.98 92.51,-342.71 92.39,-334.11"/>
<polygon fill="black" stroke="black" points="95.89,-334.05 92.24,-324.1 88.89,-334.15 95.89,-334.05"/>
</g>
<!-- Configuration
forgiving_extracts -->
<g id="node6" class="node">
<title>Configuration
forgiving_extracts</title>
<polygon fill="none" stroke="black" points="386.33,-516.44 478,-504 569.67,-516.44 569.58,-536.56 386.41,-536.56 386.33,-516.44"/>
<text text-anchor="middle" x="478" y="-518.3" font-family="Times,serif" font-size="14.00">Configuration</text>
</g>
<!-- forgiving_extracts -->
<g id="node7" class="node">
<title>forgiving_extracts</title>
<ellipse fill="none" stroke="black" cx="477" cy="-450" rx="95" ry="18"/>
<text text-anchor="middle" x="477" y="-446.3" font-family="Times,serif" font-size="14.00">forgiving_extracts</text>
</g>
<!-- Configuration
forgiving_extracts&#45;&gt;forgiving_extracts -->
<g id="edge5" class="edge">
<title>Configuration
forgiving_extracts&#45;&gt;forgiving_extracts</title>
<path fill="none" stroke="black" d="M477.75,-503.7C477.64,-495.98 477.51,-486.71 477.39,-478.11"/>
<polygon fill="black" stroke="black" points="480.89,-478.05 477.25,-468.1 473.89,-478.15 480.89,-478.05"/>
</g>
<!-- BagPropertyExtractor
get_dicts -->
<g id="node8" class="node">
<title>BagPropertyExtractor
get_dicts</title>
<text text-anchor="middle" x="297" y="-374.3" font-family="Times,serif" font-size="14.00">BagPropertyExtractor</text>
</g>
<!-- forgiving_extracts&#45;&gt;BagPropertyExtractor
get_dicts -->
<g id="edge6" class="edge">
<title>forgiving_extracts&#45;&gt;BagPropertyExtractor
get_dicts</title>
<path fill="none" stroke="black" d="M437.05,-433.46C411.58,-423.56 378.25,-410.6 350.5,-399.8"/>
<polygon fill="black" stroke="black" points="351.53,-396.45 340.94,-396.09 348.99,-402.97 351.53,-396.45"/>
</g>
<!-- DocumentBagMap
bag_apply -->
<g id="node9" class="node">
<title>DocumentBagMap
bag_apply</title>
<text text-anchor="middle" x="477" y="-374.3" font-family="Times,serif" font-size="14.00">DocumentBagMap</text>
</g>
<!-- forgiving_extracts&#45;&gt;DocumentBagMap
bag_apply -->
<g id="edge7" class="edge">
<title>forgiving_extracts&#45;&gt;DocumentBagMap
bag_apply</title>
<path fill="none" stroke="black" d="M477,-431.7C477,-423.98 477,-414.71 477,-406.11"/>
<polygon fill="black" stroke="black" points="480.5,-406.1 477,-396.1 473.5,-406.1 480.5,-406.1"/>
</g>
<!-- get_dicts -->
<g id="node10" class="node">
<title>get_dicts</title>
<ellipse fill="none" stroke="black" cx="243" cy="-306" rx="52.79" ry="18"/>
<text text-anchor="middle" x="243" y="-302.3" font-family="Times,serif" font-size="14.00">get_dicts</text>
</g>
<!-- BagPropertyExtractor
get_dicts&#45;&gt;get_dicts -->
<g id="edge8" class="edge">
<title>BagPropertyExtractor
get_dicts&#45;&gt;get_dicts</title>
<path fill="none" stroke="black" d="M283.65,-359.7C277.15,-351.27 269.21,-340.97 262.08,-331.73"/>
<polygon fill="black" stroke="black" points="264.7,-329.4 255.82,-323.62 259.16,-333.67 264.7,-329.4"/>
</g>
<!-- bag_apply -->
<g id="node11" class="node">
<title>bag_apply</title>
<ellipse fill="none" stroke="black" cx="534" cy="-306" rx="58" ry="18"/>
<text text-anchor="middle" x="534" y="-302.3" font-family="Times,serif" font-size="14.00">bag_apply</text>
</g>
<!-- DocumentBagMap
bag_apply&#45;&gt;bag_apply -->
<g id="edge9" class="edge">
<title>DocumentBagMap
bag_apply&#45;&gt;bag_apply</title>
<path fill="none" stroke="black" d="M491.09,-359.7C498.03,-351.18 506.51,-340.76 514.09,-331.45"/>
<polygon fill="black" stroke="black" points="516.86,-333.58 520.47,-323.62 511.44,-329.16 516.86,-333.58"/>
</g>
<!-- Alias
get_dicts -->
<g id="node12" class="node">
<title>Alias
get_dicts</title>
<text text-anchor="middle" x="243" y="-230.3" font-family="Times,serif" font-size="14.00">Alias</text>
</g>
<!-- get_dicts&#45;&gt;Alias
get_dicts -->
<g id="edge10" class="edge">
<title>get_dicts&#45;&gt;Alias
get_dicts</title>
<path fill="none" stroke="black" d="M243,-287.7C243,-279.98 243,-270.71 243,-262.11"/>
<polygon fill="black" stroke="black" points="246.5,-262.1 243,-252.1 239.5,-262.1 246.5,-262.1"/>
</g>
<!-- DocumentBagCreator
apply -->
<g id="node13" class="node">
<title>DocumentBagCreator
apply</title>
<text text-anchor="middle" x="573" y="-230.3" font-family="Times,serif" font-size="14.00">DocumentBagCreator</text>
</g>
<!-- bag_apply&#45;&gt;DocumentBagCreator
apply -->
<g id="edge11" class="edge">
<title>bag_apply&#45;&gt;DocumentBagCreator
apply</title>
<path fill="none" stroke="black" d="M543.44,-288.05C547.93,-280.01 553.39,-270.2 558.39,-261.23"/>
<polygon fill="black" stroke="black" points="561.57,-262.72 563.38,-252.28 555.45,-259.31 561.57,-262.72"/>
</g>
<!-- DocumentBagExplode
exploded -->
<g id="node14" class="node">
<title>DocumentBagExplode
exploded</title>
<text text-anchor="middle" x="381" y="-230.3" font-family="Times,serif" font-size="14.00">DocumentBagExplode</text>
</g>
<!-- bag_apply&#45;&gt;DocumentBagExplode
exploded -->
<g id="edge12" class="edge">
<title>bag_apply&#45;&gt;DocumentBagExplode
exploded</title>
<path fill="none" stroke="black" d="M502.67,-290.67C481.06,-280.78 451.96,-267.46 427.63,-256.33"/>
<polygon fill="black" stroke="black" points="428.78,-253.01 418.23,-252.03 425.87,-259.37 428.78,-253.01"/>
</g>
<!-- d -->
<g id="node21" class="node">
<title>d</title>
<ellipse fill="none" stroke="black" cx="243" cy="-162" rx="27" ry="18"/>
<text text-anchor="middle" x="243" y="-158.3" font-family="Times,serif" font-size="14.00">d</text>
</g>
<!-- Alias
get_dicts&#45;&gt;d -->
<g id="edge21" class="edge">
<title>Alias
get_dicts&#45;&gt;d</title>
<path fill="none" stroke="black" d="M243,-215.7C243,-207.98 243,-198.71 243,-190.11"/>
<polygon fill="black" stroke="black" points="246.5,-190.1 243,-180.1 239.5,-190.1 246.5,-190.1"/>
</g>
<!-- apply -->
<g id="node24" class="node">
<title>apply</title>
<ellipse fill="none" stroke="black" cx="573" cy="-162" rx="36.5" ry="18"/>
<text text-anchor="middle" x="573" y="-158.3" font-family="Times,serif" font-size="14.00">apply</text>
</g>
<!-- DocumentBagCreator
apply&#45;&gt;apply -->
<g id="edge26" class="edge">
<title>DocumentBagCreator
apply&#45;&gt;apply</title>
<path fill="none" stroke="black" d="M573,-215.7C573,-207.98 573,-198.71 573,-190.11"/>
<polygon fill="black" stroke="black" points="576.5,-190.1 573,-180.1 569.5,-190.1 576.5,-190.1"/>
</g>
<!-- exploded -->
<g id="node25" class="node">
<title>exploded</title>
<ellipse fill="none" stroke="black" cx="381" cy="-162" rx="52.79" ry="18"/>
<text text-anchor="middle" x="381" y="-158.3" font-family="Times,serif" font-size="14.00">exploded</text>
</g>
<!-- DocumentBagExplode
exploded&#45;&gt;exploded -->
<g id="edge27" class="edge">
<title>DocumentBagExplode
exploded&#45;&gt;exploded</title>
<path fill="none" stroke="black" d="M381,-215.7C381,-207.98 381,-198.71 381,-190.11"/>
<polygon fill="black" stroke="black" points="384.5,-190.1 381,-180.1 377.5,-190.1 384.5,-190.1"/>
</g>
<!-- Constant
_stats -->
<g id="node15" class="node">
<title>Constant
_stats</title>
<text text-anchor="middle" x="628" y="-518.3" font-family="Times,serif" font-size="14.00">Constant</text>
</g>
<!-- _stats -->
<g id="node16" class="node">
<title>_stats</title>
<ellipse fill="none" stroke="black" cx="628" cy="-450" rx="38.5" ry="18"/>
<text text-anchor="middle" x="628" y="-446.3" font-family="Times,serif" font-size="14.00">_stats</text>
</g>
<!-- Constant
_stats&#45;&gt;_stats -->
<g id="edge13" class="edge">
<title>Constant
_stats&#45;&gt;_stats</title>
<path fill="none" stroke="black" d="M628,-503.7C628,-495.98 628,-486.71 628,-478.11"/>
<polygon fill="black" stroke="black" points="631.5,-478.1 628,-468.1 624.5,-478.1 631.5,-478.1"/>
</g>
<!-- _stats&#45;&gt;BagPropertyExtractor
get_dicts -->
<g id="edge14" class="edge">
<title>_stats&#45;&gt;BagPropertyExtractor
get_dicts</title>
<path fill="none" stroke="black" d="M599.41,-437.82C593.38,-435.7 587.03,-433.64 581,-432 563,-427.1 469.95,-409.99 395.2,-396.51"/>
<polygon fill="black" stroke="black" points="395.71,-393.05 385.25,-394.72 394.47,-399.94 395.71,-393.05"/>
</g>
<!-- _stats&#45;&gt;DocumentBagMap
bag_apply -->
<g id="edge15" class="edge">
<title>_stats&#45;&gt;DocumentBagMap
bag_apply</title>
<path fill="none" stroke="black" d="M601.7,-436.81C580.03,-426.76 548.77,-412.27 522.98,-400.31"/>
<polygon fill="black" stroke="black" points="524.29,-397.06 513.75,-396.03 521.35,-403.41 524.29,-397.06"/>
</g>
<!-- FunctionOperator
stats -->
<g id="node17" class="node">
<title>FunctionOperator
stats</title>
<text text-anchor="middle" x="643" y="-374.3" font-family="Times,serif" font-size="14.00">FunctionOperator</text>
</g>
<!-- _stats&#45;&gt;FunctionOperator
stats -->
<g id="edge16" class="edge">
<title>_stats&#45;&gt;FunctionOperator
stats</title>
<path fill="none" stroke="black" d="M631.63,-432.05C633.3,-424.26 635.33,-414.82 637.2,-406.08"/>
<polygon fill="black" stroke="black" points="640.62,-406.79 639.3,-396.28 633.78,-405.32 640.62,-406.79"/>
</g>
<!-- stats -->
<g id="node18" class="node">
<title>stats</title>
<ellipse fill="none" stroke="black" cx="644" cy="-306" rx="34" ry="18"/>
<text text-anchor="middle" x="644" y="-302.3" font-family="Times,serif" font-size="14.00">stats</text>
</g>
<!-- FunctionOperator
stats&#45;&gt;stats -->
<g id="edge17" class="edge">
<title>FunctionOperator
stats&#45;&gt;stats</title>
<path fill="none" stroke="black" d="M643.25,-359.7C643.36,-351.98 643.49,-342.71 643.61,-334.11"/>
<polygon fill="black" stroke="black" points="647.11,-334.15 643.76,-324.1 640.11,-334.05 647.11,-334.15"/>
</g>
<!-- Configuration
verbosity -->
<g id="node19" class="node">
<title>Configuration
verbosity</title>
<polygon fill="none" stroke="black" points="185.33,-516.44 277,-504 368.67,-516.44 368.58,-536.56 185.41,-536.56 185.33,-516.44"/>
<text text-anchor="middle" x="277" y="-518.3" font-family="Times,serif" font-size="14.00">Configuration</text>
</g>
<!-- verbosity -->
<g id="node20" class="node">
<title>verbosity</title>
<ellipse fill="none" stroke="black" cx="308" cy="-450" rx="54" ry="18"/>
<text text-anchor="middle" x="308" y="-446.3" font-family="Times,serif" font-size="14.00">verbosity</text>
</g>
<!-- Configuration
verbosity&#45;&gt;verbosity -->
<g id="edge18" class="edge">
<title>Configuration
verbosity&#45;&gt;verbosity</title>
<path fill="none" stroke="black" d="M284.19,-504.76C287.8,-496.61 292.27,-486.53 296.35,-477.31"/>
<polygon fill="black" stroke="black" points="299.57,-478.68 300.42,-468.12 293.17,-475.85 299.57,-478.68"/>
</g>
<!-- verbosity&#45;&gt;BagPropertyExtractor
get_dicts -->
<g id="edge19" class="edge">
<title>verbosity&#45;&gt;BagPropertyExtractor
get_dicts</title>
<path fill="none" stroke="black" d="M305.28,-431.7C304.07,-423.98 302.61,-414.71 301.26,-406.11"/>
<polygon fill="black" stroke="black" points="304.7,-405.44 299.69,-396.1 297.78,-406.52 304.7,-405.44"/>
</g>
<!-- verbosity&#45;&gt;DocumentBagMap
bag_apply -->
<g id="edge20" class="edge">
<title>verbosity&#45;&gt;DocumentBagMap
bag_apply</title>
<path fill="none" stroke="black" d="M340.59,-435.5C364.87,-425.45 398.49,-411.52 426.27,-400.01"/>
<polygon fill="black" stroke="black" points="427.94,-403.11 435.84,-396.05 425.26,-396.64 427.94,-403.11"/>
</g>
<!-- docs -->
<g id="node22" class="node">
<title>docs</title>
<ellipse fill="none" stroke="black" cx="204" cy="-450" rx="32" ry="18"/>
<text text-anchor="middle" x="204" y="-446.3" font-family="Times,serif" font-size="14.00">docs</text>
</g>
<!-- docs&#45;&gt;ChromaIndexFromBag
add_to_chroma -->
<g id="edge24" class="edge">
<title>docs&#45;&gt;ChromaIndexFromBag
add_to_chroma</title>
<path fill="none" stroke="black" d="M183.38,-436C168.08,-426.35 146.83,-412.95 128.78,-401.56"/>
<polygon fill="black" stroke="black" points="130.54,-398.54 120.22,-396.16 126.81,-404.46 130.54,-398.54"/>
</g>
<!-- docs&#45;&gt;BagPropertyExtractor
get_dicts -->
<g id="edge22" class="edge">
<title>docs&#45;&gt;BagPropertyExtractor
get_dicts</title>
<path fill="none" stroke="black" d="M222.38,-435.17C234.85,-425.78 251.66,-413.13 266.17,-402.21"/>
<polygon fill="black" stroke="black" points="268.51,-404.83 274.39,-396.02 264.29,-399.24 268.51,-404.83"/>
</g>
<!-- docs&#45;&gt;DocumentBagMap
bag_apply -->
<g id="edge23" class="edge">
<title>docs&#45;&gt;DocumentBagMap
bag_apply</title>
<path fill="none" stroke="black" d="M228.47,-438.07C233.85,-435.88 239.57,-433.73 245,-432 272.24,-423.31 337.82,-408.53 392.34,-396.78"/>
<polygon fill="black" stroke="black" points="393.33,-400.15 402.37,-394.62 391.86,-393.3 393.33,-400.15"/>
</g>
<!-- Alias
exploded -->
<g id="node26" class="node">
<title>Alias
exploded</title>
<text text-anchor="middle" x="381" y="-86.3" font-family="Times,serif" font-size="14.00">Alias</text>
</g>
<!-- exploded&#45;&gt;Alias
exploded -->
<g id="edge28" class="edge">
<title>exploded&#45;&gt;Alias
exploded</title>
<path fill="none" stroke="black" d="M381,-143.7C381,-135.98 381,-126.71 381,-118.11"/>
<polygon fill="black" stroke="black" points="384.5,-118.1 381,-108.1 377.5,-118.1 384.5,-118.1"/>
</g>
<!-- e -->
<g id="node28" class="node">
<title>e</title>
<ellipse fill="none" stroke="black" cx="381" cy="-18" rx="27" ry="18"/>
<text text-anchor="middle" x="381" y="-14.3" font-family="Times,serif" font-size="14.00">e</text>
</g>
<!-- Alias
exploded&#45;&gt;e -->
<g id="edge31" class="edge">
<title>Alias
exploded&#45;&gt;e</title>
<path fill="none" stroke="black" d="M381,-71.7C381,-63.98 381,-54.71 381,-46.11"/>
<polygon fill="black" stroke="black" points="384.5,-46.1 381,-36.1 377.5,-46.1 384.5,-46.1"/>
</g>
<!-- configuration -->
<g id="node27" class="node">
<title>configuration</title>
<ellipse fill="none" stroke="black" cx="386" cy="-306" rx="72.29" ry="18"/>
<text text-anchor="middle" x="386" y="-302.3" font-family="Times,serif" font-size="14.00">configuration</text>
</g>
<!-- configuration&#45;&gt;DocumentBagCreator
apply -->
<g id="edge29" class="edge">
<title>configuration&#45;&gt;DocumentBagCreator
apply</title>
<path fill="none" stroke="black" d="M424.3,-290.67C451.29,-280.56 487.86,-266.87 517.97,-255.6"/>
<polygon fill="black" stroke="black" points="519.36,-258.82 527.5,-252.03 516.91,-252.26 519.36,-258.82"/>
</g>
<!-- configuration&#45;&gt;DocumentBagExplode
exploded -->
<g id="edge30" class="edge">
<title>configuration&#45;&gt;DocumentBagExplode
exploded</title>
<path fill="none" stroke="black" d="M384.77,-287.7C384.21,-279.98 383.55,-270.71 382.94,-262.11"/>
<polygon fill="black" stroke="black" points="386.43,-261.82 382.22,-252.1 379.44,-262.33 386.43,-261.82"/>
</g>
</g>
</svg>
