<?xml version="1.0" encoding="UTF-8" standalone="no"?>
<!DOCTYPE svg PUBLIC "-//W3C//DTD SVG 1.1//EN"
 "http://www.w3.org/Graphics/SVG/1.1/DTD/svg11.dtd">
<!-- Generated by graphviz version 2.43.0 (0)
 -->
<!-- Pages: 1 -->
<svg width="829pt" height="836pt"
 viewBox="0.00 0.00 829.00 836.00" xmlns="http://www.w3.org/2000/svg" xmlns:xlink="http://www.w3.org/1999/xlink">
<g id="graph0" class="graph" transform="scale(1 1) rotate(0) translate(4 832)">
<polygon fill="white" stroke="transparent" points="-4,4 -4,-832 825,-832 825,4 -4,4"/>
<!-- Configuration
doc_configuration -->
<g id="node1" class="node">
<title>Configuration
doc_configuration</title>
<polygon fill="none" stroke="black" points="1.33,-804.44 93,-792 184.67,-804.44 184.58,-824.56 1.42,-824.56 1.33,-804.44"/>
<text text-anchor="middle" x="93" y="-806.3" font-family="Times,serif" font-size="14.00">Configuration</text>
</g>
<!-- doc_configuration -->
<g id="node2" class="node">
<title>doc_configuration</title>
<ellipse fill="none" stroke="black" cx="93" cy="-738" rx="93" ry="18"/>
<text text-anchor="middle" x="93" y="-734.3" font-family="Times,serif" font-size="14.00">doc_configuration</text>
</g>
<!-- Configuration
doc_configuration&#45;&gt;doc_configuration -->
<g id="edge1" class="edge">
<title>Configuration
doc_configuration&#45;&gt;doc_configuration</title>
<path fill="none" stroke="black" d="M93,-791.7C93,-783.98 93,-774.71 93,-766.11"/>
<polygon fill="black" stroke="black" points="96.5,-766.1 93,-756.1 89.5,-766.1 96.5,-766.1"/>
</g>
<!-- FunctionOperator
Document -->
<g id="node3" class="node">
<title>FunctionOperator
Document</title>
<text text-anchor="middle" x="93" y="-662.3" font-family="Times,serif" font-size="14.00">FunctionOperator</text>
</g>
<!-- doc_configuration&#45;&gt;FunctionOperator
Document -->
<g id="edge2" class="edge">
<title>doc_configuration&#45;&gt;FunctionOperator
Document</title>
<path fill="none" stroke="black" d="M93,-719.7C93,-711.98 93,-702.71 93,-694.11"/>
<polygon fill="black" stroke="black" points="96.5,-694.1 93,-684.1 89.5,-694.1 96.5,-694.1"/>
</g>
<!-- Document -->
<g id="node4" class="node">
<title>Document</title>
<ellipse fill="none" stroke="black" cx="93" cy="-594" rx="58" ry="18"/>
<text text-anchor="middle" x="93" y="-590.3" font-family="Times,serif" font-size="14.00">Document</text>
</g>
<!-- FunctionOperator
Document&#45;&gt;Document -->
<g id="edge3" class="edge">
<title>FunctionOperator
Document&#45;&gt;Document</title>
<path fill="none" stroke="black" d="M93,-647.7C93,-639.98 93,-630.71 93,-622.11"/>
<polygon fill="black" stroke="black" points="96.5,-622.1 93,-612.1 89.5,-622.1 96.5,-622.1"/>
</g>
<!-- FunctionOperator
vectorizer -->
<g id="node5" class="node">
<title>FunctionOperator
vectorizer</title>
<text text-anchor="middle" x="93" y="-518.3" font-family="Times,serif" font-size="14.00">FunctionOperator</text>
</g>
<!-- Document&#45;&gt;FunctionOperator
vectorizer -->
<g id="edge4" class="edge">
<title>Document&#45;&gt;FunctionOperator
vectorizer</title>
<path fill="none" stroke="black" d="M93,-575.7C93,-567.98 93,-558.71 93,-550.11"/>
<polygon fill="black" stroke="black" points="96.5,-550.1 93,-540.1 89.5,-550.1 96.5,-550.1"/>
</g>
<!-- vectorizer -->
<g id="node30" class="node">
<title>vectorizer</title>
<ellipse fill="none" stroke="black" cx="94" cy="-450" rx="58" ry="18"/>
<text text-anchor="middle" x="94" y="-446.3" font-family="Times,serif" font-size="14.00">vectorizer</text>
</g>
<!-- FunctionOperator
vectorizer&#45;&gt;vectorizer -->
<g id="edge33" class="edge">
<title>FunctionOperator
vectorizer&#45;&gt;vectorizer</title>
<path fill="none" stroke="black" d="M93.25,-503.7C93.36,-495.98 93.49,-486.71 93.61,-478.11"/>
<polygon fill="black" stroke="black" points="97.11,-478.15 93.75,-468.1 90.11,-478.05 97.11,-478.15"/>
</g>
<!-- Configuration
forgiving_extracts -->
<g id="node6" class="node">
<title>Configuration
forgiving_extracts</title>
<polygon fill="none" stroke="black" points="384.33,-516.44 476,-504 567.67,-516.44 567.58,-536.56 384.41,-536.56 384.33,-516.44"/>
<text text-anchor="middle" x="476" y="-518.3" font-family="Times,serif" font-size="14.00">Configuration</text>
</g>
<!-- forgiving_extracts -->
<g id="node7" class="node">
<title>forgiving_extracts</title>
<ellipse fill="none" stroke="black" cx="474" cy="-450" rx="95" ry="18"/>
<text text-anchor="middle" x="474" y="-446.3" font-family="Times,serif" font-size="14.00">forgiving_extracts</text>
</g>
<!-- Configuration
forgiving_extracts&#45;&gt;forgiving_extracts -->
<g id="edge5" class="edge">
<title>Configuration
forgiving_extracts&#45;&gt;forgiving_extracts</title>
<path fill="none" stroke="black" d="M475.52,-504.05C475.3,-496.35 475.03,-487.03 474.78,-478.36"/>
<polygon fill="black" stroke="black" points="478.27,-478.18 474.5,-468.28 471.28,-478.37 478.27,-478.18"/>
</g>
<!-- BagPropertyExtractor
get_dicts -->
<g id="node8" class="node">
<title>BagPropertyExtractor
get_dicts</title>
<text text-anchor="middle" x="294" y="-374.3" font-family="Times,serif" font-size="14.00">BagPropertyExtractor</text>
</g>
<!-- forgiving_extracts&#45;&gt;BagPropertyExtractor
get_dicts -->
<g id="edge6" class="edge">
<title>forgiving_extracts&#45;&gt;BagPropertyExtractor
get_dicts</title>
<path fill="none" stroke="black" d="M434.05,-433.46C408.58,-423.56 375.25,-410.6 347.5,-399.8"/>
<polygon fill="black" stroke="black" points="348.53,-396.45 337.94,-396.09 345.99,-402.97 348.53,-396.45"/>
</g>
<!-- DocumentBagMap
bag_apply -->
<g id="node9" class="node">
<title>DocumentBagMap
bag_apply</title>
<text text-anchor="middle" x="474" y="-374.3" font-family="Times,serif" font-size="14.00">DocumentBagMap</text>
</g>
<!-- forgiving_extracts&#45;&gt;DocumentBagMap
bag_apply -->
<g id="edge7" class="edge">
<title>forgiving_extracts&#45;&gt;DocumentBagMap
bag_apply</title>
<path fill="none" stroke="black" d="M474,-431.7C474,-423.98 474,-414.71 474,-406.11"/>
<polygon fill="black" stroke="black" points="477.5,-406.1 474,-396.1 470.5,-406.1 477.5,-406.1"/>
</g>
<!-- DocumentBagCreator
apply -->
<g id="node10" class="node">
<title>DocumentBagCreator
apply</title>
<text text-anchor="middle" x="595" y="-230.3" font-family="Times,serif" font-size="14.00">DocumentBagCreator</text>
</g>
<!-- forgiving_extracts&#45;&gt;DocumentBagCreator
apply -->
<g id="edge8" class="edge">
<title>forgiving_extracts&#45;&gt;DocumentBagCreator
apply</title>
<path fill="none" stroke="black" d="M510.11,-433.25C548.91,-413.98 607.96,-377.23 630,-324 636.12,-309.22 634.6,-303.32 630,-288 627.08,-278.28 621.74,-268.7 616.09,-260.41"/>
<polygon fill="black" stroke="black" points="618.9,-258.32 610.18,-252.3 613.24,-262.44 618.9,-258.32"/>
</g>
<!-- get_dicts -->
<g id="node11" class="node">
<title>get_dicts</title>
<ellipse fill="none" stroke="black" cx="271" cy="-306" rx="52.79" ry="18"/>
<text text-anchor="middle" x="271" y="-302.3" font-family="Times,serif" font-size="14.00">get_dicts</text>
</g>
<!-- BagPropertyExtractor
get_dicts&#45;&gt;get_dicts -->
<g id="edge9" class="edge">
<title>BagPropertyExtractor
get_dicts&#45;&gt;get_dicts</title>
<path fill="none" stroke="black" d="M288.32,-359.7C285.75,-351.9 282.67,-342.51 279.82,-333.83"/>
<polygon fill="black" stroke="black" points="283.07,-332.51 276.62,-324.1 276.42,-334.69 283.07,-332.51"/>
</g>
<!-- bag_apply -->
<g id="node12" class="node">
<title>bag_apply</title>
<ellipse fill="none" stroke="black" cx="401" cy="-306" rx="58" ry="18"/>
<text text-anchor="middle" x="401" y="-302.3" font-family="Times,serif" font-size="14.00">bag_apply</text>
</g>
<!-- DocumentBagMap
bag_apply&#45;&gt;bag_apply -->
<g id="edge10" class="edge">
<title>DocumentBagMap
bag_apply&#45;&gt;bag_apply</title>
<path fill="none" stroke="black" d="M455.96,-359.7C446.81,-350.92 435.55,-340.13 425.62,-330.61"/>
<polygon fill="black" stroke="black" points="427.98,-328.02 418.34,-323.62 423.13,-333.07 427.98,-328.02"/>
</g>
<!-- apply -->
<g id="node13" class="node">
<title>apply</title>
<ellipse fill="none" stroke="black" cx="595" cy="-162" rx="36.5" ry="18"/>
<text text-anchor="middle" x="595" y="-158.3" font-family="Times,serif" font-size="14.00">apply</text>
</g>
<!-- DocumentBagCreator
apply&#45;&gt;apply -->
<g id="edge11" class="edge">
<title>DocumentBagCreator
apply&#45;&gt;apply</title>
<path fill="none" stroke="black" d="M595,-215.7C595,-207.98 595,-198.71 595,-190.11"/>
<polygon fill="black" stroke="black" points="598.5,-190.1 595,-180.1 591.5,-190.1 598.5,-190.1"/>
</g>
<!-- Alias
get_dicts -->
<g id="node14" class="node">
<title>Alias
get_dicts</title>
<text text-anchor="middle" x="270" y="-230.3" font-family="Times,serif" font-size="14.00">Alias</text>
</g>
<!-- get_dicts&#45;&gt;Alias
get_dicts -->
<g id="edge12" class="edge">
<title>get_dicts&#45;&gt;Alias
get_dicts</title>
<path fill="none" stroke="black" d="M270.75,-287.7C270.64,-279.98 270.51,-270.71 270.39,-262.11"/>
<polygon fill="black" stroke="black" points="273.89,-262.05 270.25,-252.1 266.89,-262.15 273.89,-262.05"/>
</g>
<!-- bag_apply&#45;&gt;DocumentBagCreator
apply -->
<g id="edge13" class="edge">
<title>bag_apply&#45;&gt;DocumentBagCreator
apply</title>
<path fill="none" stroke="black" d="M437.49,-291.83C465.74,-281.64 505.39,-267.33 537.84,-255.62"/>
<polygon fill="black" stroke="black" points="539.44,-258.76 547.66,-252.08 537.06,-252.18 539.44,-258.76"/>
</g>
<!-- DocumentBagExplode
exploded -->
<g id="node15" class="node">
<title>DocumentBagExplode
exploded</title>
<text text-anchor="middle" x="403" y="-230.3" font-family="Times,serif" font-size="14.00">DocumentBagExplode</text>
</g>
<!-- bag_apply&#45;&gt;DocumentBagExplode
exploded -->
<g id="edge14" class="edge">
<title>bag_apply&#45;&gt;DocumentBagExplode
exploded</title>
<path fill="none" stroke="black" d="M401.5,-287.7C401.72,-279.98 401.98,-270.71 402.23,-262.11"/>
<polygon fill="black" stroke="black" points="405.73,-262.19 402.51,-252.1 398.73,-262 405.73,-262.19"/>
</g>
<!-- d -->
<g id="node22" class="node">
<title>d</title>
<ellipse fill="none" stroke="black" cx="270" cy="-162" rx="27" ry="18"/>
<text text-anchor="middle" x="270" y="-158.3" font-family="Times,serif" font-size="14.00">d</text>
</g>
<!-- Alias
get_dicts&#45;&gt;d -->
<g id="edge23" class="edge">
<title>Alias
get_dicts&#45;&gt;d</title>
<path fill="none" stroke="black" d="M270,-215.7C270,-207.98 270,-198.71 270,-190.11"/>
<polygon fill="black" stroke="black" points="273.5,-190.1 270,-180.1 266.5,-190.1 273.5,-190.1"/>
</g>
<!-- exploded -->
<g id="node26" class="node">
<title>exploded</title>
<ellipse fill="none" stroke="black" cx="403" cy="-162" rx="52.79" ry="18"/>
<text text-anchor="middle" x="403" y="-158.3" font-family="Times,serif" font-size="14.00">exploded</text>
</g>
<!-- DocumentBagExplode
exploded&#45;&gt;exploded -->
<g id="edge28" class="edge">
<title>DocumentBagExplode
exploded&#45;&gt;exploded</title>
<path fill="none" stroke="black" d="M403,-215.7C403,-207.98 403,-198.71 403,-190.11"/>
<polygon fill="black" stroke="black" points="406.5,-190.1 403,-180.1 399.5,-190.1 406.5,-190.1"/>
</g>
<!-- Constant
_stats -->
<g id="node16" class="node">
<title>Constant
_stats</title>
<text text-anchor="middle" x="626" y="-518.3" font-family="Times,serif" font-size="14.00">Constant</text>
</g>
<!-- _stats -->
<g id="node17" class="node">
<title>_stats</title>
<ellipse fill="none" stroke="black" cx="625" cy="-450" rx="38.5" ry="18"/>
<text text-anchor="middle" x="625" y="-446.3" font-family="Times,serif" font-size="14.00">_stats</text>
</g>
<!-- Constant
_stats&#45;&gt;_stats -->
<g id="edge15" class="edge">
<title>Constant
_stats&#45;&gt;_stats</title>
<path fill="none" stroke="black" d="M625.75,-503.7C625.64,-495.98 625.51,-486.71 625.39,-478.11"/>
<polygon fill="black" stroke="black" points="628.89,-478.05 625.25,-468.1 621.89,-478.15 628.89,-478.05"/>
</g>
<!-- _stats&#45;&gt;BagPropertyExtractor
get_dicts -->
<g id="edge16" class="edge">
<title>_stats&#45;&gt;BagPropertyExtractor
get_dicts</title>
<path fill="none" stroke="black" d="M596.41,-437.82C590.38,-435.7 584.03,-433.64 578,-432 560,-427.1 466.95,-409.99 392.2,-396.51"/>
<polygon fill="black" stroke="black" points="392.71,-393.05 382.25,-394.72 391.47,-399.94 392.71,-393.05"/>
</g>
<!-- _stats&#45;&gt;DocumentBagMap
bag_apply -->
<g id="edge17" class="edge">
<title>_stats&#45;&gt;DocumentBagMap
bag_apply</title>
<path fill="none" stroke="black" d="M598.7,-436.81C577.03,-426.76 545.77,-412.27 519.98,-400.31"/>
<polygon fill="black" stroke="black" points="521.29,-397.06 510.75,-396.03 518.35,-403.41 521.29,-397.06"/>
</g>
<!-- FunctionOperator
stats -->
<g id="node18" class="node">
<title>FunctionOperator
stats</title>
<text text-anchor="middle" x="749" y="-374.3" font-family="Times,serif" font-size="14.00">FunctionOperator</text>
</g>
<!-- _stats&#45;&gt;FunctionOperator
stats -->
<g id="edge18" class="edge">
<title>_stats&#45;&gt;FunctionOperator
stats</title>
<path fill="none" stroke="black" d="M648.62,-435.67C665.92,-425.9 689.81,-412.42 709.94,-401.05"/>
<polygon fill="black" stroke="black" points="711.89,-403.97 718.88,-396 708.45,-397.87 711.89,-403.97"/>
</g>
<!-- stats -->
<g id="node19" class="node">
<title>stats</title>
<ellipse fill="none" stroke="black" cx="749" cy="-306" rx="34" ry="18"/>
<text text-anchor="middle" x="749" y="-302.3" font-family="Times,serif" font-size="14.00">stats</text>
</g>
<!-- FunctionOperator
stats&#45;&gt;stats -->
<g id="edge19" class="edge">
<title>FunctionOperator
stats&#45;&gt;stats</title>
<path fill="none" stroke="black" d="M749,-359.7C749,-351.98 749,-342.71 749,-334.11"/>
<polygon fill="black" stroke="black" points="752.5,-334.1 749,-324.1 745.5,-334.1 752.5,-334.1"/>
</g>
<!-- Configuration
verbosity -->
<g id="node20" class="node">
<title>Configuration
verbosity</title>
<polygon fill="none" stroke="black" points="183.33,-516.44 275,-504 366.67,-516.44 366.58,-536.56 183.41,-536.56 183.33,-516.44"/>
<text text-anchor="middle" x="275" y="-518.3" font-family="Times,serif" font-size="14.00">Configuration</text>
</g>
<!-- verbosity -->
<g id="node21" class="node">
<title>verbosity</title>
<ellipse fill="none" stroke="black" cx="307" cy="-450" rx="54" ry="18"/>
<text text-anchor="middle" x="307" y="-446.3" font-family="Times,serif" font-size="14.00">verbosity</text>
</g>
<!-- Configuration
verbosity&#45;&gt;verbosity -->
<g id="edge20" class="edge">
<title>Configuration
verbosity&#45;&gt;verbosity</title>
<path fill="none" stroke="black" d="M282.42,-504.76C286.15,-496.61 290.76,-486.53 294.98,-477.31"/>
<polygon fill="black" stroke="black" points="298.2,-478.67 299.17,-468.12 291.83,-475.77 298.2,-478.67"/>
</g>
<!-- verbosity&#45;&gt;BagPropertyExtractor
get_dicts -->
<g id="edge21" class="edge">
<title>verbosity&#45;&gt;BagPropertyExtractor
get_dicts</title>
<path fill="none" stroke="black" d="M303.79,-431.7C302.36,-423.98 300.63,-414.71 299.04,-406.11"/>
<polygon fill="black" stroke="black" points="302.45,-405.29 297.18,-396.1 295.56,-406.57 302.45,-405.29"/>
</g>
<!-- verbosity&#45;&gt;DocumentBagMap
bag_apply -->
<g id="edge22" class="edge">
<title>verbosity&#45;&gt;DocumentBagMap
bag_apply</title>
<path fill="none" stroke="black" d="M339.2,-435.5C363.2,-425.45 396.42,-411.52 423.88,-400.01"/>
<polygon fill="black" stroke="black" points="425.45,-403.15 433.32,-396.05 422.74,-396.69 425.45,-403.15"/>
</g>
<!-- docs -->
<g id="node23" class="node">
<title>docs</title>
<ellipse fill="none" stroke="black" cx="203" cy="-450" rx="32" ry="18"/>
<text text-anchor="middle" x="203" y="-446.3" font-family="Times,serif" font-size="14.00">docs</text>
</g>
<!-- docs&#45;&gt;BagPropertyExtractor
get_dicts -->
<g id="edge24" class="edge">
<title>docs&#45;&gt;BagPropertyExtractor
get_dicts</title>
<path fill="none" stroke="black" d="M221.42,-434.83C233.57,-425.48 249.78,-413.01 263.8,-402.23"/>
<polygon fill="black" stroke="black" points="265.96,-404.98 271.76,-396.11 261.7,-399.43 265.96,-404.98"/>
</g>
<!-- docs&#45;&gt;DocumentBagMap
bag_apply -->
<g id="edge25" class="edge">
<title>docs&#45;&gt;DocumentBagMap
bag_apply</title>
<path fill="none" stroke="black" d="M227.47,-438.08C232.85,-435.89 238.57,-433.74 244,-432 270.91,-423.39 335.58,-408.67 389.52,-396.93"/>
<polygon fill="black" stroke="black" points="390.42,-400.32 399.45,-394.77 388.93,-393.48 390.42,-400.32"/>
</g>
<!-- ChromaIndexFromBag
add_to_chroma -->
<g id="node24" class="node">
<title>ChromaIndexFromBag
add_to_chroma</title>
<text text-anchor="middle" x="97" y="-374.3" font-family="Times,serif" font-size="14.00">ChromaIndexFromBag</text>
</g>
<!-- docs&#45;&gt;ChromaIndexFromBag
add_to_chroma -->
<g id="edge26" class="edge">
<title>docs&#45;&gt;ChromaIndexFromBag
add_to_chroma</title>
<path fill="none" stroke="black" d="M183.06,-435.83C168.56,-426.26 148.56,-413.05 131.48,-401.77"/>
<polygon fill="black" stroke="black" points="133.14,-398.67 122.87,-396.08 129.28,-404.51 133.14,-398.67"/>
</g>
<!-- add_to_chroma -->
<g id="node25" class="node">
<title>add_to_chroma</title>
<ellipse fill="none" stroke="black" cx="97" cy="-306" rx="80.69" ry="18"/>
<text text-anchor="middle" x="97" y="-302.3" font-family="Times,serif" font-size="14.00">add_to_chroma</text>
</g>
<!-- ChromaIndexFromBag
add_to_chroma&#45;&gt;add_to_chroma -->
<g id="edge27" class="edge">
<title>ChromaIndexFromBag
add_to_chroma&#45;&gt;add_to_chroma</title>
<path fill="none" stroke="black" d="M97,-359.7C97,-351.98 97,-342.71 97,-334.11"/>
<polygon fill="black" stroke="black" points="100.5,-334.1 97,-324.1 93.5,-334.1 100.5,-334.1"/>
</g>
<!-- Alias
exploded -->
<g id="node27" class="node">
<title>Alias
exploded</title>
<text text-anchor="middle" x="403" y="-86.3" font-family="Times,serif" font-size="14.00">Alias</text>
</g>
<!-- exploded&#45;&gt;Alias
exploded -->
<g id="edge29" class="edge">
<title>exploded&#45;&gt;Alias
exploded</title>
<path fill="none" stroke="black" d="M403,-143.7C403,-135.98 403,-126.71 403,-118.11"/>
<polygon fill="black" stroke="black" points="406.5,-118.1 403,-108.1 399.5,-118.1 406.5,-118.1"/>
</g>
<!-- e -->
<g id="node29" class="node">
<title>e</title>
<ellipse fill="none" stroke="black" cx="403" cy="-18" rx="27" ry="18"/>
<text text-anchor="middle" x="403" y="-14.3" font-family="Times,serif" font-size="14.00">e</text>
</g>
<!-- Alias
exploded&#45;&gt;e -->
<g id="edge32" class="edge">
<title>Alias
exploded&#45;&gt;e</title>
<path fill="none" stroke="black" d="M403,-71.7C403,-63.98 403,-54.71 403,-46.11"/>
<polygon fill="black" stroke="black" points="406.5,-46.1 403,-36.1 399.5,-46.1 406.5,-46.1"/>
</g>
<!-- configuration -->
<g id="node28" class="node">
<title>configuration</title>
<ellipse fill="none" stroke="black" cx="549" cy="-306" rx="72.29" ry="18"/>
<text text-anchor="middle" x="549" y="-302.3" font-family="Times,serif" font-size="14.00">configuration</text>
</g>
<!-- configuration&#45;&gt;DocumentBagCreator
apply -->
<g id="edge30" class="edge">
<title>configuration&#45;&gt;DocumentBagCreator
apply</title>
<path fill="none" stroke="black" d="M560.14,-288.05C565.54,-279.84 572.14,-269.79 578.14,-260.66"/>
<polygon fill="black" stroke="black" points="581.08,-262.56 583.65,-252.28 575.23,-258.71 581.08,-262.56"/>
</g>
<!-- configuration&#45;&gt;DocumentBagExplode
exploded -->
<g id="edge31" class="edge">
<title>configuration&#45;&gt;DocumentBagExplode
exploded</title>
<path fill="none" stroke="black" d="M517.32,-289.81C496.9,-280.02 470.06,-267.15 447.51,-256.34"/>
<polygon fill="black" stroke="black" points="448.99,-253.17 438.46,-252 445.96,-259.48 448.99,-253.17"/>
</g>
<!-- vectorizer&#45;&gt;ChromaIndexFromBag
add_to_chroma -->
<g id="edge34" class="edge">
<title>vectorizer&#45;&gt;ChromaIndexFromBag
add_to_chroma</title>
<path fill="none" stroke="black" d="M94.74,-431.7C95.07,-423.98 95.47,-414.71 95.84,-406.11"/>
<polygon fill="black" stroke="black" points="99.34,-406.24 96.27,-396.1 92.34,-405.94 99.34,-406.24"/>
</g>
</g>
</svg>
