<?xml version="1.0" encoding="UTF-8" standalone="no"?>
<!DOCTYPE svg PUBLIC "-//W3C//DTD SVG 1.1//EN"
 "http://www.w3.org/Graphics/SVG/1.1/DTD/svg11.dtd">
<!-- Generated by graphviz version 2.43.0 (0)
 -->
<!-- Pages: 1 -->
<svg width="1205pt" height="620pt"
 viewBox="0.00 0.00 1204.96 620.00" xmlns="http://www.w3.org/2000/svg" xmlns:xlink="http://www.w3.org/1999/xlink">
<g id="graph0" class="graph" transform="scale(1 1) rotate(0) translate(4 616)">
<polygon fill="white" stroke="transparent" points="-4,4 -4,-616 1200.96,-616 1200.96,4 -4,4"/>
<!-- Configuration
doc_configuration -->
<g id="node1" class="node">
<title>Configuration
doc_configuration</title>
<polygon fill="none" stroke="black" points="1.33,-588.44 93,-576 184.67,-588.44 184.58,-608.56 1.42,-608.56 1.33,-588.44"/>
<text text-anchor="middle" x="93" y="-590.3" font-family="Times,serif" font-size="14.00">Configuration</text>
</g>
<!-- doc_configuration -->
<g id="node2" class="node">
<title>doc_configuration</title>
<ellipse fill="none" stroke="black" cx="93" cy="-522" rx="93" ry="18"/>
<text text-anchor="middle" x="93" y="-518.3" font-family="Times,serif" font-size="14.00">doc_configuration</text>
</g>
<!-- Configuration
doc_configuration&#45;&gt;doc_configuration -->
<g id="edge1" class="edge">
<title>Configuration
doc_configuration&#45;&gt;doc_configuration</title>
<path fill="none" stroke="black" d="M93,-575.7C93,-567.98 93,-558.71 93,-550.11"/>
<polygon fill="black" stroke="black" points="96.5,-550.1 93,-540.1 89.5,-550.1 96.5,-550.1"/>
</g>
<!-- FunctionOperator
Document -->
<g id="node3" class="node">
<title>FunctionOperator
Document</title>
<text text-anchor="middle" x="93" y="-446.3" font-family="Times,serif" font-size="14.00">FunctionOperator</text>
</g>
<!-- doc_configuration&#45;&gt;FunctionOperator
Document -->
<g id="edge2" class="edge">
<title>doc_configuration&#45;&gt;FunctionOperator
Document</title>
<path fill="none" stroke="black" d="M93,-503.7C93,-495.98 93,-486.71 93,-478.11"/>
<polygon fill="black" stroke="black" points="96.5,-478.1 93,-468.1 89.5,-478.1 96.5,-478.1"/>
</g>
<!-- Document -->
<g id="node4" class="node">
<title>Document</title>
<ellipse fill="none" stroke="black" cx="93" cy="-378" rx="58" ry="18"/>
<text text-anchor="middle" x="93" y="-374.3" font-family="Times,serif" font-size="14.00">Document</text>
</g>
<!-- FunctionOperator
Document&#45;&gt;Document -->
<g id="edge3" class="edge">
<title>FunctionOperator
Document&#45;&gt;Document</title>
<path fill="none" stroke="black" d="M93,-431.7C93,-423.98 93,-414.71 93,-406.11"/>
<polygon fill="black" stroke="black" points="96.5,-406.1 93,-396.1 89.5,-406.1 96.5,-406.1"/>
</g>
<!-- FunctionOperator
vectorizer -->
<g id="node5" class="node">
<title>FunctionOperator
vectorizer</title>
<text text-anchor="middle" x="93" y="-302.3" font-family="Times,serif" font-size="14.00">FunctionOperator</text>
</g>
<!-- Document&#45;&gt;FunctionOperator
vectorizer -->
<g id="edge4" class="edge">
<title>Document&#45;&gt;FunctionOperator
vectorizer</title>
<path fill="none" stroke="black" d="M93,-359.7C93,-351.98 93,-342.71 93,-334.11"/>
<polygon fill="black" stroke="black" points="96.5,-334.1 93,-324.1 89.5,-334.1 96.5,-334.1"/>
</g>
<!-- vectorizer -->
<g id="node32" class="node">
<title>vectorizer</title>
<ellipse fill="none" stroke="black" cx="93" cy="-234" rx="58" ry="18"/>
<text text-anchor="middle" x="93" y="-230.3" font-family="Times,serif" font-size="14.00">vectorizer</text>
</g>
<!-- FunctionOperator
vectorizer&#45;&gt;vectorizer -->
<g id="edge35" class="edge">
<title>FunctionOperator
vectorizer&#45;&gt;vectorizer</title>
<path fill="none" stroke="black" d="M93,-287.7C93,-279.98 93,-270.71 93,-262.11"/>
<polygon fill="black" stroke="black" points="96.5,-262.1 93,-252.1 89.5,-262.1 96.5,-262.1"/>
</g>
<!-- Configuration
forgiving_extracts -->
<g id="node6" class="node">
<title>Configuration
forgiving_extracts</title>
<polygon fill="none" stroke="black" points="255.33,-516.44 347,-504 438.67,-516.44 438.58,-536.56 255.41,-536.56 255.33,-516.44"/>
<text text-anchor="middle" x="347" y="-518.3" font-family="Times,serif" font-size="14.00">Configuration</text>
</g>
<!-- forgiving_extracts -->
<g id="node7" class="node">
<title>forgiving_extracts</title>
<ellipse fill="none" stroke="black" cx="364" cy="-450" rx="95" ry="18"/>
<text text-anchor="middle" x="364" y="-446.3" font-family="Times,serif" font-size="14.00">forgiving_extracts</text>
</g>
<!-- Configuration
forgiving_extracts&#45;&gt;forgiving_extracts -->
<g id="edge5" class="edge">
<title>Configuration
forgiving_extracts&#45;&gt;forgiving_extracts</title>
<path fill="none" stroke="black" d="M351.03,-504.41C352.92,-496.62 355.23,-487.14 357.36,-478.33"/>
<polygon fill="black" stroke="black" points="360.8,-478.99 359.76,-468.45 354,-477.34 360.8,-478.99"/>
</g>
<!-- BagPropertyExtractor
get_dicts -->
<g id="node8" class="node">
<title>BagPropertyExtractor
get_dicts</title>
<text text-anchor="middle" x="456" y="-374.3" font-family="Times,serif" font-size="14.00">BagPropertyExtractor</text>
</g>
<!-- forgiving_extracts&#45;&gt;BagPropertyExtractor
get_dicts -->
<g id="edge6" class="edge">
<title>forgiving_extracts&#45;&gt;BagPropertyExtractor
get_dicts</title>
<path fill="none" stroke="black" d="M385.8,-432.41C397.57,-423.46 412.3,-412.25 425.21,-402.42"/>
<polygon fill="black" stroke="black" points="427.55,-405.04 433.39,-396.2 423.31,-399.47 427.55,-405.04"/>
</g>
<!-- DocumentBagMap
bag_apply -->
<g id="node9" class="node">
<title>DocumentBagMap
bag_apply</title>
<text text-anchor="middle" x="636" y="-374.3" font-family="Times,serif" font-size="14.00">DocumentBagMap</text>
</g>
<!-- forgiving_extracts&#45;&gt;DocumentBagMap
bag_apply -->
<g id="edge7" class="edge">
<title>forgiving_extracts&#45;&gt;DocumentBagMap
bag_apply</title>
<path fill="none" stroke="black" d="M418.07,-435.09C458.62,-424.65 514.68,-410.22 559.79,-398.61"/>
<polygon fill="black" stroke="black" points="560.71,-401.99 569.53,-396.11 558.97,-395.21 560.71,-401.99"/>
</g>
<!-- DocumentBagCreator
apply -->
<g id="node10" class="node">
<title>DocumentBagCreator
apply</title>
<text text-anchor="middle" x="437" y="-230.3" font-family="Times,serif" font-size="14.00">DocumentBagCreator</text>
</g>
<!-- forgiving_extracts&#45;&gt;DocumentBagCreator
apply -->
<g id="edge8" class="edge">
<title>forgiving_extracts&#45;&gt;DocumentBagCreator
apply</title>
<path fill="none" stroke="black" d="M359.75,-431.9C355.98,-413.7 352.06,-384.25 359,-360 369.96,-321.72 396.43,-283.78 415.49,-259.92"/>
<polygon fill="black" stroke="black" points="418.27,-262.05 421.89,-252.09 412.85,-257.62 418.27,-262.05"/>
</g>
<!-- get_dicts -->
<g id="node11" class="node">
<title>get_dicts</title>
<ellipse fill="none" stroke="black" cx="259" cy="-306" rx="52.79" ry="18"/>
<text text-anchor="middle" x="259" y="-302.3" font-family="Times,serif" font-size="14.00">get_dicts</text>
</g>
<!-- BagPropertyExtractor
get_dicts&#45;&gt;get_dicts -->
<g id="edge9" class="edge">
<title>BagPropertyExtractor
get_dicts&#45;&gt;get_dicts</title>
<path fill="none" stroke="black" d="M408.06,-359.97C376.31,-348.68 334.93,-333.98 303.83,-322.93"/>
<polygon fill="black" stroke="black" points="304.71,-319.53 294.12,-319.48 302.37,-326.13 304.71,-319.53"/>
</g>
<!-- bag_apply -->
<g id="node12" class="node">
<title>bag_apply</title>
<ellipse fill="none" stroke="black" cx="481" cy="-306" rx="58" ry="18"/>
<text text-anchor="middle" x="481" y="-302.3" font-family="Times,serif" font-size="14.00">bag_apply</text>
</g>
<!-- DocumentBagMap
bag_apply&#45;&gt;bag_apply -->
<g id="edge10" class="edge">
<title>DocumentBagMap
bag_apply&#45;&gt;bag_apply</title>
<path fill="none" stroke="black" d="M598.08,-359.88C575,-349.45 545.52,-336.14 521.92,-325.48"/>
<polygon fill="black" stroke="black" points="523.08,-322.17 512.53,-321.24 520.2,-328.55 523.08,-322.17"/>
</g>
<!-- apply -->
<g id="node13" class="node">
<title>apply</title>
<ellipse fill="none" stroke="black" cx="437" cy="-162" rx="36.5" ry="18"/>
<text text-anchor="middle" x="437" y="-158.3" font-family="Times,serif" font-size="14.00">apply</text>
</g>
<!-- DocumentBagCreator
apply&#45;&gt;apply -->
<g id="edge11" class="edge">
<title>DocumentBagCreator
apply&#45;&gt;apply</title>
<path fill="none" stroke="black" d="M437,-215.7C437,-207.98 437,-198.71 437,-190.11"/>
<polygon fill="black" stroke="black" points="440.5,-190.1 437,-180.1 433.5,-190.1 440.5,-190.1"/>
</g>
<!-- Alias
get_dicts -->
<g id="node14" class="node">
<title>Alias
get_dicts</title>
<text text-anchor="middle" x="259" y="-230.3" font-family="Times,serif" font-size="14.00">Alias</text>
</g>
<!-- get_dicts&#45;&gt;Alias
get_dicts -->
<g id="edge12" class="edge">
<title>get_dicts&#45;&gt;Alias
get_dicts</title>
<path fill="none" stroke="black" d="M259,-287.7C259,-279.98 259,-270.71 259,-262.11"/>
<polygon fill="black" stroke="black" points="262.5,-262.1 259,-252.1 255.5,-262.1 262.5,-262.1"/>
</g>
<!-- bag_apply&#45;&gt;DocumentBagCreator
apply -->
<g id="edge13" class="edge">
<title>bag_apply&#45;&gt;DocumentBagCreator
apply</title>
<path fill="none" stroke="black" d="M470.35,-288.05C465.24,-279.92 459,-270 453.31,-260.94"/>
<polygon fill="black" stroke="black" points="456.15,-258.88 447.86,-252.28 450.22,-262.61 456.15,-258.88"/>
</g>
<!-- DocumentBagExplode
exploded -->
<g id="node15" class="node">
<title>DocumentBagExplode
exploded</title>
<text text-anchor="middle" x="629" y="-230.3" font-family="Times,serif" font-size="14.00">DocumentBagExplode</text>
</g>
<!-- bag_apply&#45;&gt;DocumentBagExplode
exploded -->
<g id="edge14" class="edge">
<title>bag_apply&#45;&gt;DocumentBagExplode
exploded</title>
<path fill="none" stroke="black" d="M511.31,-290.67C532.21,-280.78 560.37,-267.46 583.89,-256.33"/>
<polygon fill="black" stroke="black" points="585.44,-259.47 592.99,-252.03 582.45,-253.14 585.44,-259.47"/>
</g>
<!-- d -->
<g id="node22" class="node">
<title>d</title>
<ellipse fill="none" stroke="black" cx="259" cy="-162" rx="27" ry="18"/>
<text text-anchor="middle" x="259" y="-158.3" font-family="Times,serif" font-size="14.00">d</text>
</g>
<!-- Alias
get_dicts&#45;&gt;d -->
<g id="edge23" class="edge">
<title>Alias
get_dicts&#45;&gt;d</title>
<path fill="none" stroke="black" d="M259,-215.7C259,-207.98 259,-198.71 259,-190.11"/>
<polygon fill="black" stroke="black" points="262.5,-190.1 259,-180.1 255.5,-190.1 262.5,-190.1"/>
</g>
<!-- exploded -->
<g id="node28" class="node">
<title>exploded</title>
<ellipse fill="none" stroke="black" cx="629" cy="-162" rx="52.79" ry="18"/>
<text text-anchor="middle" x="629" y="-158.3" font-family="Times,serif" font-size="14.00">exploded</text>
</g>
<!-- DocumentBagExplode
exploded&#45;&gt;exploded -->
<g id="edge30" class="edge">
<title>DocumentBagExplode
exploded&#45;&gt;exploded</title>
<path fill="none" stroke="black" d="M629,-215.7C629,-207.98 629,-198.71 629,-190.11"/>
<polygon fill="black" stroke="black" points="632.5,-190.1 629,-180.1 625.5,-190.1 632.5,-190.1"/>
</g>
<!-- Constant
_stats -->
<g id="node16" class="node">
<title>Constant
_stats</title>
<text text-anchor="middle" x="698" y="-518.3" font-family="Times,serif" font-size="14.00">Constant</text>
</g>
<!-- _stats -->
<g id="node17" class="node">
<title>_stats</title>
<ellipse fill="none" stroke="black" cx="678" cy="-450" rx="38.5" ry="18"/>
<text text-anchor="middle" x="678" y="-446.3" font-family="Times,serif" font-size="14.00">_stats</text>
</g>
<!-- Constant
_stats&#45;&gt;_stats -->
<g id="edge15" class="edge">
<title>Constant
_stats&#45;&gt;_stats</title>
<path fill="none" stroke="black" d="M693.06,-503.7C690.83,-495.9 688.15,-486.51 685.67,-477.83"/>
<polygon fill="black" stroke="black" points="689,-476.75 682.89,-468.1 682.27,-478.68 689,-476.75"/>
</g>
<!-- _stats&#45;&gt;BagPropertyExtractor
get_dicts -->
<g id="edge16" class="edge">
<title>_stats&#45;&gt;BagPropertyExtractor
get_dicts</title>
<path fill="none" stroke="black" d="M647.13,-439.27C614.31,-428.92 561.46,-412.25 519.64,-399.07"/>
<polygon fill="black" stroke="black" points="520.68,-395.73 510.09,-396.05 518.57,-402.4 520.68,-395.73"/>
</g>
<!-- _stats&#45;&gt;DocumentBagMap
bag_apply -->
<g id="edge17" class="edge">
<title>_stats&#45;&gt;DocumentBagMap
bag_apply</title>
<path fill="none" stroke="black" d="M668.05,-432.41C663.17,-424.28 657.19,-414.31 651.71,-405.18"/>
<polygon fill="black" stroke="black" points="654.62,-403.22 646.47,-396.45 648.61,-406.83 654.62,-403.22"/>
</g>
<!-- FunctionOperator
stats -->
<g id="node18" class="node">
<title>FunctionOperator
stats</title>
<text text-anchor="middle" x="801" y="-374.3" font-family="Times,serif" font-size="14.00">FunctionOperator</text>
</g>
<!-- _stats&#45;&gt;FunctionOperator
stats -->
<g id="edge18" class="edge">
<title>_stats&#45;&gt;FunctionOperator
stats</title>
<path fill="none" stroke="black" d="M701.43,-435.67C718.59,-425.9 742.28,-412.42 762.25,-401.05"/>
<polygon fill="black" stroke="black" points="764.17,-403.99 771.13,-396 760.71,-397.9 764.17,-403.99"/>
</g>
<!-- stats -->
<g id="node19" class="node">
<title>stats</title>
<ellipse fill="none" stroke="black" cx="801" cy="-306" rx="34" ry="18"/>
<text text-anchor="middle" x="801" y="-302.3" font-family="Times,serif" font-size="14.00">stats</text>
</g>
<!-- FunctionOperator
stats&#45;&gt;stats -->
<g id="edge19" class="edge">
<title>FunctionOperator
stats&#45;&gt;stats</title>
<path fill="none" stroke="black" d="M801,-359.7C801,-351.98 801,-342.71 801,-334.11"/>
<polygon fill="black" stroke="black" points="804.5,-334.1 801,-324.1 797.5,-334.1 804.5,-334.1"/>
</g>
<!-- Configuration
verbosity -->
<g id="node20" class="node">
<title>Configuration
verbosity</title>
<polygon fill="none" stroke="black" points="456.33,-516.44 548,-504 639.67,-516.44 639.58,-536.56 456.41,-536.56 456.33,-516.44"/>
<text text-anchor="middle" x="548" y="-518.3" font-family="Times,serif" font-size="14.00">Configuration</text>
</g>
<!-- verbosity -->
<g id="node21" class="node">
<title>verbosity</title>
<ellipse fill="none" stroke="black" cx="548" cy="-450" rx="54" ry="18"/>
<text text-anchor="middle" x="548" y="-446.3" font-family="Times,serif" font-size="14.00">verbosity</text>
</g>
<!-- Configuration
verbosity&#45;&gt;verbosity -->
<g id="edge20" class="edge">
<title>Configuration
verbosity&#45;&gt;verbosity</title>
<path fill="none" stroke="black" d="M548,-503.7C548,-495.98 548,-486.71 548,-478.11"/>
<polygon fill="black" stroke="black" points="551.5,-478.1 548,-468.1 544.5,-478.1 551.5,-478.1"/>
</g>
<!-- verbosity&#45;&gt;BagPropertyExtractor
get_dicts -->
<g id="edge21" class="edge">
<title>verbosity&#45;&gt;BagPropertyExtractor
get_dicts</title>
<path fill="none" stroke="black" d="M527.13,-433.12C515.1,-423.96 499.76,-412.29 486.41,-402.14"/>
<polygon fill="black" stroke="black" points="488.47,-399.31 478.4,-396.04 484.23,-404.88 488.47,-399.31"/>
</g>
<!-- verbosity&#45;&gt;DocumentBagMap
bag_apply -->
<g id="edge22" class="edge">
<title>verbosity&#45;&gt;DocumentBagMap
bag_apply</title>
<path fill="none" stroke="black" d="M567.97,-433.12C579.37,-424.05 593.87,-412.51 606.55,-402.42"/>
<polygon fill="black" stroke="black" points="608.92,-405 614.57,-396.04 604.56,-399.53 608.92,-405"/>
</g>
<!-- docs -->
<g id="node23" class="node">
<title>docs</title>
<ellipse fill="none" stroke="black" cx="785" cy="-450" rx="32" ry="18"/>
<text text-anchor="middle" x="785" y="-446.3" font-family="Times,serif" font-size="14.00">docs</text>
</g>
<!-- docs&#45;&gt;BagPropertyExtractor
get_dicts -->
<g id="edge24" class="edge">
<title>docs&#45;&gt;BagPropertyExtractor
get_dicts</title>
<path fill="none" stroke="black" d="M757.65,-440.74C747.45,-437.8 735.74,-434.57 725,-432 693.04,-424.34 617.27,-409.52 554.26,-397.49"/>
<polygon fill="black" stroke="black" points="554.75,-394.02 544.27,-395.59 553.44,-400.9 554.75,-394.02"/>
</g>
<!-- docs&#45;&gt;DocumentBagMap
bag_apply -->
<g id="edge25" class="edge">
<title>docs&#45;&gt;DocumentBagMap
bag_apply</title>
<path fill="none" stroke="black" d="M761.39,-437.91C739.96,-427.84 707.76,-412.71 681.36,-400.31"/>
<polygon fill="black" stroke="black" points="682.83,-397.13 672.29,-396.05 679.85,-403.47 682.83,-397.13"/>
</g>
<!-- FunctionOperator
take -->
<g id="node24" class="node">
<title>FunctionOperator
take</title>
<text text-anchor="middle" x="963" y="-374.3" font-family="Times,serif" font-size="14.00">FunctionOperator</text>
</g>
<!-- docs&#45;&gt;FunctionOperator
take -->
<g id="edge26" class="edge">
<title>docs&#45;&gt;FunctionOperator
take</title>
<path fill="none" stroke="black" d="M810.5,-438.97C836.4,-428.79 877.27,-412.72 910.18,-399.77"/>
<polygon fill="black" stroke="black" points="911.64,-402.96 919.67,-396.04 909.08,-396.44 911.64,-402.96"/>
</g>
<!-- FunctionOperator
compute -->
<g id="node25" class="node">
<title>FunctionOperator
compute</title>
<text text-anchor="middle" x="1124.96" y="-374.3" font-family="Times,serif" font-size="14.00">FunctionOperator</text>
</g>
<!-- docs&#45;&gt;FunctionOperator
compute -->
<g id="edge27" class="edge">
<title>docs&#45;&gt;FunctionOperator
compute</title>
<path fill="none" stroke="black" d="M814.53,-443.01C860.89,-433.59 953.83,-414.66 1042.66,-396.28"/>
<polygon fill="black" stroke="black" points="1043.48,-399.68 1052.56,-394.22 1042.05,-392.83 1043.48,-399.68"/>
</g>
<!-- take -->
<g id="node26" class="node">
<title>take</title>
<ellipse fill="none" stroke="black" cx="963" cy="-306" rx="30.59" ry="18"/>
<text text-anchor="middle" x="963" y="-302.3" font-family="Times,serif" font-size="14.00">take</text>
</g>
<!-- FunctionOperator
take&#45;&gt;take -->
<g id="edge28" class="edge">
<title>FunctionOperator
take&#45;&gt;take</title>
<path fill="none" stroke="black" d="M963,-359.7C963,-351.98 963,-342.71 963,-334.11"/>
<polygon fill="black" stroke="black" points="966.5,-334.1 963,-324.1 959.5,-334.1 966.5,-334.1"/>
</g>
<!-- compute -->
<g id="node27" class="node">
<title>compute</title>
<ellipse fill="none" stroke="black" cx="1124.96" cy="-306" rx="50.89" ry="18"/>
<text text-anchor="middle" x="1124.96" y="-302.3" font-family="Times,serif" font-size="14.00">compute</text>
</g>
<!-- FunctionOperator
compute&#45;&gt;compute -->
<g id="edge29" class="edge">
<title>FunctionOperator
compute&#45;&gt;compute</title>
<path fill="none" stroke="black" d="M1124.96,-359.7C1124.96,-351.98 1124.96,-342.71 1124.96,-334.11"/>
<polygon fill="black" stroke="black" points="1128.46,-334.1 1124.96,-324.1 1121.46,-334.1 1128.46,-334.1"/>
</g>
<!-- Alias
exploded -->
<g id="node29" class="node">
<title>Alias
exploded</title>
<text text-anchor="middle" x="629" y="-86.3" font-family="Times,serif" font-size="14.00">Alias</text>
</g>
<!-- exploded&#45;&gt;Alias
exploded -->
<g id="edge31" class="edge">
<title>exploded&#45;&gt;Alias
exploded</title>
<path fill="none" stroke="black" d="M629,-143.7C629,-135.98 629,-126.71 629,-118.11"/>
<polygon fill="black" stroke="black" points="632.5,-118.1 629,-108.1 625.5,-118.1 632.5,-118.1"/>
</g>
<!-- e -->
<g id="node31" class="node">
<title>e</title>
<ellipse fill="none" stroke="black" cx="629" cy="-18" rx="27" ry="18"/>
<text text-anchor="middle" x="629" y="-14.3" font-family="Times,serif" font-size="14.00">e</text>
</g>
<!-- Alias
exploded&#45;&gt;e -->
<g id="edge34" class="edge">
<title>Alias
exploded&#45;&gt;e</title>
<path fill="none" stroke="black" d="M629,-71.7C629,-63.98 629,-54.71 629,-46.11"/>
<polygon fill="black" stroke="black" points="632.5,-46.1 629,-36.1 625.5,-46.1 632.5,-46.1"/>
</g>
<!-- configuration -->
<g id="node30" class="node">
<title>configuration</title>
<ellipse fill="none" stroke="black" cx="629" cy="-306" rx="72.29" ry="18"/>
<text text-anchor="middle" x="629" y="-302.3" font-family="Times,serif" font-size="14.00">configuration</text>
</g>
<!-- configuration&#45;&gt;DocumentBagCreator
apply -->
<g id="edge32" class="edge">
<title>configuration&#45;&gt;DocumentBagCreator
apply</title>
<path fill="none" stroke="black" d="M589.68,-290.67C561.97,-280.56 524.42,-266.87 493.5,-255.6"/>
<polygon fill="black" stroke="black" points="494.31,-252.17 483.72,-252.03 491.91,-258.75 494.31,-252.17"/>
</g>
<!-- configuration&#45;&gt;DocumentBagExplode
exploded -->
<g id="edge33" class="edge">
<title>configuration&#45;&gt;DocumentBagExplode
exploded</title>
<path fill="none" stroke="black" d="M629,-287.7C629,-279.98 629,-270.71 629,-262.11"/>
<polygon fill="black" stroke="black" points="632.5,-262.1 629,-252.1 625.5,-262.1 632.5,-262.1"/>
</g>
<!-- Alias
source -->
<g id="node33" class="node">
<title>Alias
source</title>
<text text-anchor="middle" x="785" y="-518.3" font-family="Times,serif" font-size="14.00">Alias</text>
</g>
<!-- Alias
source&#45;&gt;docs -->
<g id="edge36" class="edge">
<title>Alias
source&#45;&gt;docs</title>
<path fill="none" stroke="black" d="M785,-503.7C785,-495.98 785,-486.71 785,-478.11"/>
<polygon fill="black" stroke="black" points="788.5,-478.1 785,-468.1 781.5,-478.1 788.5,-478.1"/>
</g>
<!-- source -->
<g id="node34" class="node">
<title>source</title>
<ellipse fill="none" stroke="black" cx="785" cy="-594" rx="41.69" ry="18"/>
<text text-anchor="middle" x="785" y="-590.3" font-family="Times,serif" font-size="14.00">source</text>
</g>
<!-- source&#45;&gt;Alias
source -->
<g id="edge37" class="edge">
<title>source&#45;&gt;Alias
source</title>
<path fill="none" stroke="black" d="M785,-575.7C785,-567.98 785,-558.71 785,-550.11"/>
<polygon fill="black" stroke="black" points="788.5,-550.1 785,-540.1 781.5,-550.1 788.5,-550.1"/>
</g>
</g>
</svg>
