<?xml version="1.0" encoding="UTF-8" standalone="no"?>
<!DOCTYPE svg PUBLIC "-//W3C//DTD SVG 1.1//EN"
 "http://www.w3.org/Graphics/SVG/1.1/DTD/svg11.dtd">
<!-- Generated by graphviz version 2.43.0 (0)
 -->
<!-- Pages: 1 -->
<svg width="1035pt" height="1052pt"
 viewBox="0.00 0.00 1034.50 1052.00" xmlns="http://www.w3.org/2000/svg" xmlns:xlink="http://www.w3.org/1999/xlink">
<g id="graph0" class="graph" transform="scale(1 1) rotate(0) translate(4 1048)">
<polygon fill="white" stroke="transparent" points="-4,4 -4,-1048 1030.5,-1048 1030.5,4 -4,4"/>
<!-- Configuration
doc_configuration -->
<g id="node1" class="node">
<title>Configuration
doc_configuration</title>
<polygon fill="none" stroke="black" points="62.83,-660.44 154.5,-648 246.17,-660.44 246.08,-680.56 62.92,-680.56 62.83,-660.44"/>
<text text-anchor="middle" x="154.5" y="-662.3" font-family="Times,serif" font-size="14.00">Configuration</text>
</g>
<!-- doc_configuration -->
<g id="node2" class="node">
<title>doc_configuration</title>
<ellipse fill="none" stroke="black" cx="154.5" cy="-594" rx="93" ry="18"/>
<text text-anchor="middle" x="154.5" y="-590.3" font-family="Times,serif" font-size="14.00">doc_configuration</text>
</g>
<!-- Configuration
doc_configuration&#45;&gt;doc_configuration -->
<g id="edge1" class="edge">
<title>Configuration
doc_configuration&#45;&gt;doc_configuration</title>
<path fill="none" stroke="black" d="M154.5,-647.7C154.5,-639.98 154.5,-630.71 154.5,-622.11"/>
<polygon fill="black" stroke="black" points="158,-622.1 154.5,-612.1 151,-622.1 158,-622.1"/>
</g>
<!-- FunctionOperator
vectorizer -->
<g id="node3" class="node">
<title>FunctionOperator
vectorizer</title>
<text text-anchor="middle" x="134.5" y="-518.3" font-family="Times,serif" font-size="14.00">FunctionOperator</text>
</g>
<!-- doc_configuration&#45;&gt;FunctionOperator
vectorizer -->
<g id="edge2" class="edge">
<title>doc_configuration&#45;&gt;FunctionOperator
vectorizer</title>
<path fill="none" stroke="black" d="M149.56,-575.7C147.33,-567.9 144.65,-558.51 142.17,-549.83"/>
<polygon fill="black" stroke="black" points="145.5,-548.75 139.39,-540.1 138.77,-550.68 145.5,-548.75"/>
</g>
<!-- BagMapOperator
docs -->
<g id="node4" class="node">
<title>BagMapOperator
docs</title>
<text text-anchor="middle" x="346.5" y="-518.3" font-family="Times,serif" font-size="14.00">BagMapOperator</text>
</g>
<!-- doc_configuration&#45;&gt;BagMapOperator
docs -->
<g id="edge3" class="edge">
<title>doc_configuration&#45;&gt;BagMapOperator
docs</title>
<path fill="none" stroke="black" d="M196.16,-577.81C223.73,-567.76 260.21,-554.46 290.33,-543.48"/>
<polygon fill="black" stroke="black" points="291.67,-546.72 299.87,-540 289.28,-540.14 291.67,-546.72"/>
</g>
<!-- vectorizer -->
<g id="node5" class="node">
<title>vectorizer</title>
<ellipse fill="none" stroke="black" cx="94.5" cy="-450" rx="58" ry="18"/>
<text text-anchor="middle" x="94.5" y="-446.3" font-family="Times,serif" font-size="14.00">vectorizer</text>
</g>
<!-- FunctionOperator
vectorizer&#45;&gt;vectorizer -->
<g id="edge4" class="edge">
<title>FunctionOperator
vectorizer&#45;&gt;vectorizer</title>
<path fill="none" stroke="black" d="M124.61,-503.7C120.01,-495.64 114.44,-485.89 109.35,-476.98"/>
<polygon fill="black" stroke="black" points="112.27,-475.04 104.27,-468.1 106.2,-478.52 112.27,-475.04"/>
</g>
<!-- docs -->
<g id="node6" class="node">
<title>docs</title>
<ellipse fill="none" stroke="black" cx="426.5" cy="-450" rx="32" ry="18"/>
<text text-anchor="middle" x="426.5" y="-446.3" font-family="Times,serif" font-size="14.00">docs</text>
</g>
<!-- BagMapOperator
docs&#45;&gt;docs -->
<g id="edge5" class="edge">
<title>BagMapOperator
docs&#45;&gt;docs</title>
<path fill="none" stroke="black" d="M366.28,-503.7C377.18,-494.16 390.8,-482.24 402.33,-472.15"/>
<polygon fill="black" stroke="black" points="404.7,-474.73 409.92,-465.51 400.09,-469.46 404.7,-474.73"/>
</g>
<!-- ChromaIndexFromBag
add_to_chroma -->
<g id="node7" class="node">
<title>ChromaIndexFromBag
add_to_chroma</title>
<text text-anchor="middle" x="89.5" y="-374.3" font-family="Times,serif" font-size="14.00">ChromaIndexFromBag</text>
</g>
<!-- vectorizer&#45;&gt;ChromaIndexFromBag
add_to_chroma -->
<g id="edge6" class="edge">
<title>vectorizer&#45;&gt;ChromaIndexFromBag
add_to_chroma</title>
<path fill="none" stroke="black" d="M93.26,-431.7C92.71,-423.98 92.05,-414.71 91.44,-406.11"/>
<polygon fill="black" stroke="black" points="94.93,-405.83 90.72,-396.1 87.94,-406.32 94.93,-405.83"/>
</g>
<!-- docs&#45;&gt;ChromaIndexFromBag
add_to_chroma -->
<g id="edge9" class="edge">
<title>docs&#45;&gt;ChromaIndexFromBag
add_to_chroma</title>
<path fill="none" stroke="black" d="M397.18,-442.91C349.62,-433.03 253.69,-413.1 181.52,-398.11"/>
<polygon fill="black" stroke="black" points="182,-394.64 171.5,-396.03 180.58,-401.49 182,-394.64"/>
</g>
<!-- BagPropertyExtractor
get_dicts -->
<g id="node8" class="node">
<title>BagPropertyExtractor
get_dicts</title>
<text text-anchor="middle" x="609.5" y="-374.3" font-family="Times,serif" font-size="14.00">BagPropertyExtractor</text>
</g>
<!-- docs&#45;&gt;BagPropertyExtractor
get_dicts -->
<g id="edge7" class="edge">
<title>docs&#45;&gt;BagPropertyExtractor
get_dicts</title>
<path fill="none" stroke="black" d="M452.33,-439.12C478.99,-428.92 521.36,-412.71 555.4,-399.7"/>
<polygon fill="black" stroke="black" points="556.67,-402.96 564.76,-396.12 554.17,-396.42 556.67,-402.96"/>
</g>
<!-- DocumentBagMap
bag_apply -->
<g id="node9" class="node">
<title>DocumentBagMap
bag_apply</title>
<text text-anchor="middle" x="789.5" y="-374.3" font-family="Times,serif" font-size="14.00">DocumentBagMap</text>
</g>
<!-- docs&#45;&gt;DocumentBagMap
bag_apply -->
<g id="edge8" class="edge">
<title>docs&#45;&gt;DocumentBagMap
bag_apply</title>
<path fill="none" stroke="black" d="M455.71,-442.46C470.59,-439.19 488.98,-435.26 505.5,-432 591.41,-415.07 615.68,-413.22 704.85,-396.29"/>
<polygon fill="black" stroke="black" points="705.69,-399.69 714.86,-394.38 704.38,-392.82 705.69,-399.69"/>
</g>
<!-- FunctionOperator
take -->
<g id="node10" class="node">
<title>FunctionOperator
take</title>
<text text-anchor="middle" x="269.5" y="-374.3" font-family="Times,serif" font-size="14.00">FunctionOperator</text>
</g>
<!-- docs&#45;&gt;FunctionOperator
take -->
<g id="edge10" class="edge">
<title>docs&#45;&gt;FunctionOperator
take</title>
<path fill="none" stroke="black" d="M402.31,-438.22C379.67,-428.12 345.2,-412.75 317.05,-400.2"/>
<polygon fill="black" stroke="black" points="318.34,-396.94 307.78,-396.07 315.49,-403.34 318.34,-396.94"/>
</g>
<!-- FunctionOperator
compute -->
<g id="node11" class="node">
<title>FunctionOperator
compute</title>
<text text-anchor="middle" x="431.5" y="-374.3" font-family="Times,serif" font-size="14.00">FunctionOperator</text>
</g>
<!-- docs&#45;&gt;FunctionOperator
compute -->
<g id="edge11" class="edge">
<title>docs&#45;&gt;FunctionOperator
compute</title>
<path fill="none" stroke="black" d="M427.74,-431.7C428.29,-423.98 428.95,-414.71 429.56,-406.11"/>
<polygon fill="black" stroke="black" points="433.05,-406.33 430.28,-396.1 426.07,-405.82 433.05,-406.33"/>
</g>
<!-- add_to_chroma -->
<g id="node26" class="node">
<title>add_to_chroma</title>
<ellipse fill="none" stroke="black" cx="89.5" cy="-306" rx="80.69" ry="18"/>
<text text-anchor="middle" x="89.5" y="-302.3" font-family="Times,serif" font-size="14.00">add_to_chroma</text>
</g>
<!-- ChromaIndexFromBag
add_to_chroma&#45;&gt;add_to_chroma -->
<g id="edge29" class="edge">
<title>ChromaIndexFromBag
add_to_chroma&#45;&gt;add_to_chroma</title>
<path fill="none" stroke="black" d="M89.5,-359.7C89.5,-351.98 89.5,-342.71 89.5,-334.11"/>
<polygon fill="black" stroke="black" points="93,-334.1 89.5,-324.1 86,-334.1 93,-334.1"/>
</g>
<!-- get_dicts -->
<g id="node14" class="node">
<title>get_dicts</title>
<ellipse fill="none" stroke="black" cx="553.5" cy="-306" rx="52.79" ry="18"/>
<text text-anchor="middle" x="553.5" y="-302.3" font-family="Times,serif" font-size="14.00">get_dicts</text>
</g>
<!-- BagPropertyExtractor
get_dicts&#45;&gt;get_dicts -->
<g id="edge15" class="edge">
<title>BagPropertyExtractor
get_dicts&#45;&gt;get_dicts</title>
<path fill="none" stroke="black" d="M595.66,-359.7C588.84,-351.18 580.51,-340.76 573.06,-331.45"/>
<polygon fill="black" stroke="black" points="575.78,-329.25 566.8,-323.62 570.31,-333.62 575.78,-329.25"/>
</g>
<!-- bag_apply -->
<g id="node15" class="node">
<title>bag_apply</title>
<ellipse fill="none" stroke="black" cx="844.5" cy="-306" rx="58" ry="18"/>
<text text-anchor="middle" x="844.5" y="-302.3" font-family="Times,serif" font-size="14.00">bag_apply</text>
</g>
<!-- DocumentBagMap
bag_apply&#45;&gt;bag_apply -->
<g id="edge16" class="edge">
<title>DocumentBagMap
bag_apply&#45;&gt;bag_apply</title>
<path fill="none" stroke="black" d="M803.1,-359.7C809.72,-351.27 817.81,-340.97 825.07,-331.73"/>
<polygon fill="black" stroke="black" points="828.02,-333.65 831.44,-323.62 822.51,-329.32 828.02,-333.65"/>
</g>
<!-- take -->
<g id="node27" class="node">
<title>take</title>
<ellipse fill="none" stroke="black" cx="269.5" cy="-306" rx="30.59" ry="18"/>
<text text-anchor="middle" x="269.5" y="-302.3" font-family="Times,serif" font-size="14.00">take</text>
</g>
<!-- FunctionOperator
take&#45;&gt;take -->
<g id="edge30" class="edge">
<title>FunctionOperator
take&#45;&gt;take</title>
<path fill="none" stroke="black" d="M269.5,-359.7C269.5,-351.98 269.5,-342.71 269.5,-334.11"/>
<polygon fill="black" stroke="black" points="273,-334.1 269.5,-324.1 266,-334.1 273,-334.1"/>
</g>
<!-- compute -->
<g id="node28" class="node">
<title>compute</title>
<ellipse fill="none" stroke="black" cx="431.5" cy="-306" rx="50.89" ry="18"/>
<text text-anchor="middle" x="431.5" y="-302.3" font-family="Times,serif" font-size="14.00">compute</text>
</g>
<!-- FunctionOperator
compute&#45;&gt;compute -->
<g id="edge31" class="edge">
<title>FunctionOperator
compute&#45;&gt;compute</title>
<path fill="none" stroke="black" d="M431.5,-359.7C431.5,-351.98 431.5,-342.71 431.5,-334.11"/>
<polygon fill="black" stroke="black" points="435,-334.1 431.5,-324.1 428,-334.1 435,-334.1"/>
</g>
<!-- Configuration
forgiving_extracts -->
<g id="node12" class="node">
<title>Configuration
forgiving_extracts</title>
<polygon fill="none" stroke="black" points="489.83,-516.44 581.5,-504 673.17,-516.44 673.08,-536.56 489.92,-536.56 489.83,-516.44"/>
<text text-anchor="middle" x="581.5" y="-518.3" font-family="Times,serif" font-size="14.00">Configuration</text>
</g>
<!-- forgiving_extracts -->
<g id="node13" class="node">
<title>forgiving_extracts</title>
<ellipse fill="none" stroke="black" cx="609.5" cy="-450" rx="95" ry="18"/>
<text text-anchor="middle" x="609.5" y="-446.3" font-family="Times,serif" font-size="14.00">forgiving_extracts</text>
</g>
<!-- Configuration
forgiving_extracts&#45;&gt;forgiving_extracts -->
<g id="edge12" class="edge">
<title>Configuration
forgiving_extracts&#45;&gt;forgiving_extracts</title>
<path fill="none" stroke="black" d="M587.99,-504.76C591.22,-496.7 595.2,-486.74 598.86,-477.6"/>
<polygon fill="black" stroke="black" points="602.19,-478.7 602.65,-468.12 595.69,-476.11 602.19,-478.7"/>
</g>
<!-- forgiving_extracts&#45;&gt;BagPropertyExtractor
get_dicts -->
<g id="edge13" class="edge">
<title>forgiving_extracts&#45;&gt;BagPropertyExtractor
get_dicts</title>
<path fill="none" stroke="black" d="M609.5,-431.7C609.5,-423.98 609.5,-414.71 609.5,-406.11"/>
<polygon fill="black" stroke="black" points="613,-406.1 609.5,-396.1 606,-406.1 613,-406.1"/>
</g>
<!-- forgiving_extracts&#45;&gt;DocumentBagMap
bag_apply -->
<g id="edge14" class="edge">
<title>forgiving_extracts&#45;&gt;DocumentBagMap
bag_apply</title>
<path fill="none" stroke="black" d="M649.45,-433.46C674.93,-423.56 708.25,-410.6 736,-399.8"/>
<polygon fill="black" stroke="black" points="737.5,-402.97 745.56,-396.09 734.97,-396.45 737.5,-402.97"/>
</g>
<!-- Alias
get_dicts -->
<g id="node16" class="node">
<title>Alias
get_dicts</title>
<text text-anchor="middle" x="553.5" y="-230.3" font-family="Times,serif" font-size="14.00">Alias</text>
</g>
<!-- get_dicts&#45;&gt;Alias
get_dicts -->
<g id="edge17" class="edge">
<title>get_dicts&#45;&gt;Alias
get_dicts</title>
<path fill="none" stroke="black" d="M553.5,-287.7C553.5,-279.98 553.5,-270.71 553.5,-262.11"/>
<polygon fill="black" stroke="black" points="557,-262.1 553.5,-252.1 550,-262.1 557,-262.1"/>
</g>
<!-- DocumentBagCreator
apply -->
<g id="node17" class="node">
<title>DocumentBagCreator
apply</title>
<text text-anchor="middle" x="883.5" y="-230.3" font-family="Times,serif" font-size="14.00">DocumentBagCreator</text>
</g>
<!-- bag_apply&#45;&gt;DocumentBagCreator
apply -->
<g id="edge18" class="edge">
<title>bag_apply&#45;&gt;DocumentBagCreator
apply</title>
<path fill="none" stroke="black" d="M853.94,-288.05C858.42,-280.01 863.89,-270.2 868.89,-261.23"/>
<polygon fill="black" stroke="black" points="872.07,-262.72 873.88,-252.28 865.95,-259.31 872.07,-262.72"/>
</g>
<!-- DocumentBagExplode
exploded -->
<g id="node18" class="node">
<title>DocumentBagExplode
exploded</title>
<text text-anchor="middle" x="691.5" y="-230.3" font-family="Times,serif" font-size="14.00">DocumentBagExplode</text>
</g>
<!-- bag_apply&#45;&gt;DocumentBagExplode
exploded -->
<g id="edge19" class="edge">
<title>bag_apply&#45;&gt;DocumentBagExplode
exploded</title>
<path fill="none" stroke="black" d="M813.17,-290.67C791.56,-280.78 762.46,-267.46 738.13,-256.33"/>
<polygon fill="black" stroke="black" points="739.28,-253.01 728.73,-252.03 736.37,-259.37 739.28,-253.01"/>
</g>
<!-- d -->
<g id="node25" class="node">
<title>d</title>
<ellipse fill="none" stroke="black" cx="553.5" cy="-162" rx="27" ry="18"/>
<text text-anchor="middle" x="553.5" y="-158.3" font-family="Times,serif" font-size="14.00">d</text>
</g>
<!-- Alias
get_dicts&#45;&gt;d -->
<g id="edge28" class="edge">
<title>Alias
get_dicts&#45;&gt;d</title>
<path fill="none" stroke="black" d="M553.5,-215.7C553.5,-207.98 553.5,-198.71 553.5,-190.11"/>
<polygon fill="black" stroke="black" points="557,-190.1 553.5,-180.1 550,-190.1 557,-190.1"/>
</g>
<!-- apply -->
<g id="node29" class="node">
<title>apply</title>
<ellipse fill="none" stroke="black" cx="883.5" cy="-162" rx="36.5" ry="18"/>
<text text-anchor="middle" x="883.5" y="-158.3" font-family="Times,serif" font-size="14.00">apply</text>
</g>
<!-- DocumentBagCreator
apply&#45;&gt;apply -->
<g id="edge32" class="edge">
<title>DocumentBagCreator
apply&#45;&gt;apply</title>
<path fill="none" stroke="black" d="M883.5,-215.7C883.5,-207.98 883.5,-198.71 883.5,-190.11"/>
<polygon fill="black" stroke="black" points="887,-190.1 883.5,-180.1 880,-190.1 887,-190.1"/>
</g>
<!-- exploded -->
<g id="node30" class="node">
<title>exploded</title>
<ellipse fill="none" stroke="black" cx="691.5" cy="-162" rx="52.79" ry="18"/>
<text text-anchor="middle" x="691.5" y="-158.3" font-family="Times,serif" font-size="14.00">exploded</text>
</g>
<!-- DocumentBagExplode
exploded&#45;&gt;exploded -->
<g id="edge33" class="edge">
<title>DocumentBagExplode
exploded&#45;&gt;exploded</title>
<path fill="none" stroke="black" d="M691.5,-215.7C691.5,-207.98 691.5,-198.71 691.5,-190.11"/>
<polygon fill="black" stroke="black" points="695,-190.1 691.5,-180.1 688,-190.1 695,-190.1"/>
</g>
<!-- Constant
_stats -->
<g id="node19" class="node">
<title>Constant
_stats</title>
<text text-anchor="middle" x="932.5" y="-518.3" font-family="Times,serif" font-size="14.00">Constant</text>
</g>
<!-- _stats -->
<g id="node20" class="node">
<title>_stats</title>
<ellipse fill="none" stroke="black" cx="912.5" cy="-450" rx="38.5" ry="18"/>
<text text-anchor="middle" x="912.5" y="-446.3" font-family="Times,serif" font-size="14.00">_stats</text>
</g>
<!-- Constant
_stats&#45;&gt;_stats -->
<g id="edge20" class="edge">
<title>Constant
_stats&#45;&gt;_stats</title>
<path fill="none" stroke="black" d="M927.56,-503.7C925.33,-495.9 922.65,-486.51 920.17,-477.83"/>
<polygon fill="black" stroke="black" points="923.5,-476.75 917.39,-468.1 916.77,-478.68 923.5,-476.75"/>
</g>
<!-- _stats&#45;&gt;BagPropertyExtractor
get_dicts -->
<g id="edge21" class="edge">
<title>_stats&#45;&gt;BagPropertyExtractor
get_dicts</title>
<path fill="none" stroke="black" d="M879.83,-440.52C868.93,-437.74 856.7,-434.68 845.5,-432 796.71,-420.33 742.06,-408.01 697.65,-398.19"/>
<polygon fill="black" stroke="black" points="698.27,-394.74 687.75,-396.01 696.76,-401.58 698.27,-394.74"/>
</g>
<!-- _stats&#45;&gt;DocumentBagMap
bag_apply -->
<g id="edge22" class="edge">
<title>_stats&#45;&gt;DocumentBagMap
bag_apply</title>
<path fill="none" stroke="black" d="M889.08,-435.67C871.91,-425.9 848.22,-412.42 828.25,-401.05"/>
<polygon fill="black" stroke="black" points="829.8,-397.91 819.38,-396 826.34,-403.99 829.8,-397.91"/>
</g>
<!-- FunctionOperator
stats -->
<g id="node21" class="node">
<title>FunctionOperator
stats</title>
<text text-anchor="middle" x="954.5" y="-374.3" font-family="Times,serif" font-size="14.00">FunctionOperator</text>
</g>
<!-- _stats&#45;&gt;FunctionOperator
stats -->
<g id="edge23" class="edge">
<title>_stats&#45;&gt;FunctionOperator
stats</title>
<path fill="none" stroke="black" d="M922.45,-432.41C927.33,-424.28 933.32,-414.31 938.79,-405.18"/>
<polygon fill="black" stroke="black" points="941.88,-406.83 944.03,-396.45 935.88,-403.22 941.88,-406.83"/>
</g>
<!-- stats -->
<g id="node22" class="node">
<title>stats</title>
<ellipse fill="none" stroke="black" cx="954.5" cy="-306" rx="34" ry="18"/>
<text text-anchor="middle" x="954.5" y="-302.3" font-family="Times,serif" font-size="14.00">stats</text>
</g>
<!-- FunctionOperator
stats&#45;&gt;stats -->
<g id="edge24" class="edge">
<title>FunctionOperator
stats&#45;&gt;stats</title>
<path fill="none" stroke="black" d="M954.5,-359.7C954.5,-351.98 954.5,-342.71 954.5,-334.11"/>
<polygon fill="black" stroke="black" points="958,-334.1 954.5,-324.1 951,-334.1 958,-334.1"/>
</g>
<!-- Configuration
verbosity -->
<g id="node23" class="node">
<title>Configuration
verbosity</title>
<polygon fill="none" stroke="black" points="690.83,-516.44 782.5,-504 874.17,-516.44 874.08,-536.56 690.92,-536.56 690.83,-516.44"/>
<text text-anchor="middle" x="782.5" y="-518.3" font-family="Times,serif" font-size="14.00">Configuration</text>
</g>
<!-- verbosity -->
<g id="node24" class="node">
<title>verbosity</title>
<ellipse fill="none" stroke="black" cx="782.5" cy="-450" rx="54" ry="18"/>
<text text-anchor="middle" x="782.5" y="-446.3" font-family="Times,serif" font-size="14.00">verbosity</text>
</g>
<!-- Configuration
verbosity&#45;&gt;verbosity -->
<g id="edge25" class="edge">
<title>Configuration
verbosity&#45;&gt;verbosity</title>
<path fill="none" stroke="black" d="M782.5,-503.7C782.5,-495.98 782.5,-486.71 782.5,-478.11"/>
<polygon fill="black" stroke="black" points="786,-478.1 782.5,-468.1 779,-478.1 786,-478.1"/>
</g>
<!-- verbosity&#45;&gt;BagPropertyExtractor
get_dicts -->
<g id="edge26" class="edge">
<title>verbosity&#45;&gt;BagPropertyExtractor
get_dicts</title>
<path fill="none" stroke="black" d="M749.55,-435.67C724.54,-425.55 689.67,-411.44 660.99,-399.83"/>
<polygon fill="black" stroke="black" points="662.1,-396.5 651.52,-396 659.48,-402.99 662.1,-396.5"/>
</g>
<!-- verbosity&#45;&gt;DocumentBagMap
bag_apply -->
<g id="edge27" class="edge">
<title>verbosity&#45;&gt;DocumentBagMap
bag_apply</title>
<path fill="none" stroke="black" d="M784.23,-431.7C785,-423.98 785.93,-414.71 786.79,-406.11"/>
<polygon fill="black" stroke="black" points="790.28,-406.4 787.79,-396.1 783.31,-405.7 790.28,-406.4"/>
</g>
<!-- Alias
exploded -->
<g id="node31" class="node">
<title>Alias
exploded</title>
<text text-anchor="middle" x="691.5" y="-86.3" font-family="Times,serif" font-size="14.00">Alias</text>
</g>
<!-- exploded&#45;&gt;Alias
exploded -->
<g id="edge34" class="edge">
<title>exploded&#45;&gt;Alias
exploded</title>
<path fill="none" stroke="black" d="M691.5,-143.7C691.5,-135.98 691.5,-126.71 691.5,-118.11"/>
<polygon fill="black" stroke="black" points="695,-118.1 691.5,-108.1 688,-118.1 695,-118.1"/>
</g>
<!-- e -->
<g id="node33" class="node">
<title>e</title>
<ellipse fill="none" stroke="black" cx="691.5" cy="-18" rx="27" ry="18"/>
<text text-anchor="middle" x="691.5" y="-14.3" font-family="Times,serif" font-size="14.00">e</text>
</g>
<!-- Alias
exploded&#45;&gt;e -->
<g id="edge37" class="edge">
<title>Alias
exploded&#45;&gt;e</title>
<path fill="none" stroke="black" d="M691.5,-71.7C691.5,-63.98 691.5,-54.71 691.5,-46.11"/>
<polygon fill="black" stroke="black" points="695,-46.1 691.5,-36.1 688,-46.1 695,-46.1"/>
</g>
<!-- configuration -->
<g id="node32" class="node">
<title>configuration</title>
<ellipse fill="none" stroke="black" cx="696.5" cy="-306" rx="72.29" ry="18"/>
<text text-anchor="middle" x="696.5" y="-302.3" font-family="Times,serif" font-size="14.00">configuration</text>
</g>
<!-- configuration&#45;&gt;DocumentBagCreator
apply -->
<g id="edge35" class="edge">
<title>configuration&#45;&gt;DocumentBagCreator
apply</title>
<path fill="none" stroke="black" d="M734.79,-290.67C761.79,-280.56 798.36,-266.87 828.47,-255.6"/>
<polygon fill="black" stroke="black" points="829.86,-258.82 838,-252.03 827.41,-252.26 829.86,-258.82"/>
</g>
<!-- configuration&#45;&gt;DocumentBagExplode
exploded -->
<g id="edge36" class="edge">
<title>configuration&#45;&gt;DocumentBagExplode
exploded</title>
<path fill="none" stroke="black" d="M695.26,-287.7C694.71,-279.98 694.05,-270.71 693.44,-262.11"/>
<polygon fill="black" stroke="black" points="696.93,-261.82 692.72,-252.1 689.95,-262.33 696.93,-261.82"/>
</g>
<!-- bag -->
<g id="node34" class="node">
<title>bag</title>
<ellipse fill="none" stroke="black" cx="346.5" cy="-594" rx="28" ry="18"/>
<text text-anchor="middle" x="346.5" y="-590.3" font-family="Times,serif" font-size="14.00">bag</text>
</g>
<!-- bag&#45;&gt;BagMapOperator
docs -->
<g id="edge38" class="edge">
<title>bag&#45;&gt;BagMapOperator
docs</title>
<path fill="none" stroke="black" d="M346.5,-575.7C346.5,-567.98 346.5,-558.71 346.5,-550.11"/>
<polygon fill="black" stroke="black" points="350,-550.1 346.5,-540.1 343,-550.1 350,-550.1"/>
</g>
<!-- FunctionOperator
sql
connection_string
index_column -->
<g id="node35" class="node">
<title>FunctionOperator
sql
connection_string
index_column</title>
<text text-anchor="middle" x="254.5" y="-950.3" font-family="Times,serif" font-size="14.00">FunctionOperator</text>
</g>
<!-- sql -->
<g id="node36" class="node">
<title>sql</title>
<ellipse fill="none" stroke="black" cx="116.5" cy="-882" rx="27" ry="18"/>
<text text-anchor="middle" x="116.5" y="-878.3" font-family="Times,serif" font-size="14.00">sql</text>
</g>
<!-- FunctionOperator
sql
connection_string
index_column&#45;&gt;sql -->
<g id="edge39" class="edge">
<title>FunctionOperator
sql
connection_string
index_column&#45;&gt;sql</title>
<path fill="none" stroke="black" d="M220.74,-935.88C198.08,-924.38 168.49,-909.37 146.63,-898.28"/>
<polygon fill="black" stroke="black" points="147.98,-895.04 137.48,-893.64 144.82,-901.28 147.98,-895.04"/>
</g>
<!-- connection_string -->
<g id="node37" class="node">
<title>connection_string</title>
<ellipse fill="none" stroke="black" cx="254.5" cy="-882" rx="93" ry="18"/>
<text text-anchor="middle" x="254.5" y="-878.3" font-family="Times,serif" font-size="14.00">connection_string</text>
</g>
<!-- FunctionOperator
sql
connection_string
index_column&#45;&gt;connection_string -->
<g id="edge40" class="edge">
<title>FunctionOperator
sql
connection_string
index_column&#45;&gt;connection_string</title>
<path fill="none" stroke="black" d="M254.5,-935.7C254.5,-927.98 254.5,-918.71 254.5,-910.11"/>
<polygon fill="black" stroke="black" points="258,-910.1 254.5,-900.1 251,-910.1 258,-910.1"/>
</g>
<!-- index_column -->
<g id="node38" class="node">
<title>index_column</title>
<ellipse fill="none" stroke="black" cx="439.5" cy="-882" rx="74.19" ry="18"/>
<text text-anchor="middle" x="439.5" y="-878.3" font-family="Times,serif" font-size="14.00">index_column</text>
</g>
<!-- FunctionOperator
sql
connection_string
index_column&#45;&gt;index_column -->
<g id="edge41" class="edge">
<title>FunctionOperator
sql
connection_string
index_column&#45;&gt;index_column</title>
<path fill="none" stroke="black" d="M299.76,-935.88C327.6,-925.34 363.25,-911.85 391.58,-901.13"/>
<polygon fill="black" stroke="black" points="393.15,-904.28 401.27,-897.47 390.68,-897.73 393.15,-904.28"/>
</g>
<!-- SQLTableLoader
dataframe -->
<g id="node39" class="node">
<title>SQLTableLoader
dataframe</title>
<text text-anchor="middle" x="346.5" y="-806.3" font-family="Times,serif" font-size="14.00">SQLTableLoader</text>
</g>
<!-- sql&#45;&gt;SQLTableLoader
dataframe -->
<g id="edge42" class="edge">
<title>sql&#45;&gt;SQLTableLoader
dataframe</title>
<path fill="none" stroke="black" d="M137.56,-870.31C142.4,-868.06 147.57,-865.82 152.5,-864 190.22,-850.06 233.27,-837.94 269.21,-828.82"/>
<polygon fill="black" stroke="black" points="270.3,-832.16 279.15,-826.33 268.6,-825.36 270.3,-832.16"/>
</g>
<!-- connection_string&#45;&gt;SQLTableLoader
dataframe -->
<g id="edge43" class="edge">
<title>connection_string&#45;&gt;SQLTableLoader
dataframe</title>
<path fill="none" stroke="black" d="M276.3,-864.41C288.07,-855.46 302.79,-844.25 315.71,-834.42"/>
<polygon fill="black" stroke="black" points="318.05,-837.04 323.89,-828.2 313.81,-831.47 318.05,-837.04"/>
</g>
<!-- index_column&#45;&gt;SQLTableLoader
dataframe -->
<g id="edge44" class="edge">
<title>index_column&#45;&gt;SQLTableLoader
dataframe</title>
<path fill="none" stroke="black" d="M417.93,-864.76C405.84,-855.67 390.57,-844.17 377.25,-834.14"/>
<polygon fill="black" stroke="black" points="379.34,-831.34 369.25,-828.12 375.14,-836.93 379.34,-831.34"/>
</g>
<!-- dataframe -->
<g id="node40" class="node">
<title>dataframe</title>
<ellipse fill="none" stroke="black" cx="346.5" cy="-738" rx="58.5" ry="18"/>
<text text-anchor="middle" x="346.5" y="-734.3" font-family="Times,serif" font-size="14.00">dataframe</text>
</g>
<!-- SQLTableLoader
dataframe&#45;&gt;dataframe -->
<g id="edge45" class="edge">
<title>SQLTableLoader
dataframe&#45;&gt;dataframe</title>
<path fill="none" stroke="black" d="M346.5,-791.7C346.5,-783.98 346.5,-774.71 346.5,-766.11"/>
<polygon fill="black" stroke="black" points="350,-766.1 346.5,-756.1 343,-766.1 350,-766.1"/>
</g>
<!-- FunctionOperator
bag -->
<g id="node41" class="node">
<title>FunctionOperator
bag</title>
<text text-anchor="middle" x="346.5" y="-662.3" font-family="Times,serif" font-size="14.00">FunctionOperator</text>
</g>
<!-- dataframe&#45;&gt;FunctionOperator
bag -->
<g id="edge46" class="edge">
<title>dataframe&#45;&gt;FunctionOperator
bag</title>
<path fill="none" stroke="black" d="M346.5,-719.7C346.5,-711.98 346.5,-702.71 346.5,-694.11"/>
<polygon fill="black" stroke="black" points="350,-694.1 346.5,-684.1 343,-694.1 350,-694.1"/>
</g>
<!-- FunctionOperator
bag&#45;&gt;bag -->
<g id="edge50" class="edge">
<title>FunctionOperator
bag&#45;&gt;bag</title>
<path fill="none" stroke="black" d="M346.5,-647.7C346.5,-639.98 346.5,-630.71 346.5,-622.11"/>
<polygon fill="black" stroke="black" points="350,-622.1 346.5,-612.1 343,-622.1 350,-622.1"/>
</g>
<!-- source -->
<g id="node42" class="node">
<title>source</title>
<ellipse fill="none" stroke="black" cx="254.5" cy="-1026" rx="41.69" ry="18"/>
<text text-anchor="middle" x="254.5" y="-1022.3" font-family="Times,serif" font-size="14.00">source</text>
</g>
<!-- source&#45;&gt;FunctionOperator
sql
connection_string
index_column -->
<g id="edge47" class="edge">
<title>source&#45;&gt;FunctionOperator
sql
connection_string
index_column</title>
<path fill="none" stroke="black" d="M254.5,-1007.7C254.5,-999.98 254.5,-990.71 254.5,-982.11"/>
<polygon fill="black" stroke="black" points="258,-982.1 254.5,-972.1 251,-982.1 258,-982.1"/>
</g>
<!-- Configuration
bytes_per_chunk -->
<g id="node43" class="node">
<title>Configuration
bytes_per_chunk</title>
<polygon fill="none" stroke="black" points="527.83,-948.44 619.5,-936 711.17,-948.44 711.08,-968.56 527.92,-968.56 527.83,-948.44"/>
<text text-anchor="middle" x="619.5" y="-950.3" font-family="Times,serif" font-size="14.00">Configuration</text>
</g>
<!-- bytes_per_chunk -->
<g id="node44" class="node">
<title>bytes_per_chunk</title>
<ellipse fill="none" stroke="black" cx="619.5" cy="-882" rx="88.5" ry="18"/>
<text text-anchor="middle" x="619.5" y="-878.3" font-family="Times,serif" font-size="14.00">bytes_per_chunk</text>
</g>
<!-- Configuration
bytes_per_chunk&#45;&gt;bytes_per_chunk -->
<g id="edge48" class="edge">
<title>Configuration
bytes_per_chunk&#45;&gt;bytes_per_chunk</title>
<path fill="none" stroke="black" d="M619.5,-935.7C619.5,-927.98 619.5,-918.71 619.5,-910.11"/>
<polygon fill="black" stroke="black" points="623,-910.1 619.5,-900.1 616,-910.1 623,-910.1"/>
</g>
<!-- bytes_per_chunk&#45;&gt;SQLTableLoader
dataframe -->
<g id="edge49" class="edge">
<title>bytes_per_chunk&#45;&gt;SQLTableLoader
dataframe</title>
<path fill="none" stroke="black" d="M566.86,-867.5C526.01,-857.03 468.8,-842.36 422.91,-830.59"/>
<polygon fill="black" stroke="black" points="423.56,-827.14 413,-828.05 421.82,-833.92 423.56,-827.14"/>
</g>
</g>
</svg>
