<?xml version="1.0" encoding="UTF-8" standalone="no"?>
<!DOCTYPE svg PUBLIC "-//W3C//DTD SVG 1.1//EN"
 "http://www.w3.org/Graphics/SVG/1.1/DTD/svg11.dtd">
<!-- Generated by graphviz version 2.43.0 (0)
 -->
<!-- Pages: 1 -->
<svg width="1081pt" height="1052pt"
 viewBox="0.00 0.00 1081.08 1052.00" xmlns="http://www.w3.org/2000/svg" xmlns:xlink="http://www.w3.org/1999/xlink">
<g id="graph0" class="graph" transform="scale(1 1) rotate(0) translate(4 1048)">
<polygon fill="white" stroke="transparent" points="-4,4 -4,-1048 1077.08,-1048 1077.08,4 -4,4"/>
<!-- Configuration
doc_configuration -->
<g id="node1" class="node">
<title>Configuration
doc_configuration</title>
<polygon fill="none" stroke="black" points="207.83,-660.44 299.5,-648 391.17,-660.44 391.08,-680.56 207.92,-680.56 207.83,-660.44"/>
<text text-anchor="middle" x="299.5" y="-662.3" font-family="Times,serif" font-size="14.00">Configuration</text>
</g>
<!-- doc_configuration -->
<g id="node2" class="node">
<title>doc_configuration</title>
<ellipse fill="none" stroke="black" cx="299.5" cy="-594" rx="93" ry="18"/>
<text text-anchor="middle" x="299.5" y="-590.3" font-family="Times,serif" font-size="14.00">doc_configuration</text>
</g>
<!-- Configuration
doc_configuration&#45;&gt;doc_configuration -->
<g id="edge1" class="edge">
<title>Configuration
doc_configuration&#45;&gt;doc_configuration</title>
<path fill="none" stroke="black" d="M299.5,-647.7C299.5,-639.98 299.5,-630.71 299.5,-622.11"/>
<polygon fill="black" stroke="black" points="303,-622.1 299.5,-612.1 296,-622.1 303,-622.1"/>
</g>
<!-- FunctionOperator
Document -->
<g id="node3" class="node">
<title>FunctionOperator
Document</title>
<text text-anchor="middle" x="59.5" y="-518.3" font-family="Times,serif" font-size="14.00">FO:&lt;lambda&gt;</text>
</g>
<!-- doc_configuration&#45;&gt;FunctionOperator
Document -->
<g id="edge2" class="edge">
<title>doc_configuration&#45;&gt;FunctionOperator
Document</title>
<path fill="none" stroke="black" d="M250.35,-578.67C214.95,-568.34 166.74,-554.28 127.63,-542.87"/>
<polygon fill="black" stroke="black" points="128.47,-539.47 117.89,-540.03 126.51,-546.19 128.47,-539.47"/>
</g>
<!-- BagMapOperator
docs -->
<g id="node4" class="node">
<title>BagMapOperator
docs</title>
<text text-anchor="middle" x="708.5" y="-518.3" font-family="Times,serif" font-size="14.00">BagMapOperator</text>
</g>
<!-- doc_configuration&#45;&gt;BagMapOperator
docs -->
<g id="edge3" class="edge">
<title>doc_configuration&#45;&gt;BagMapOperator
docs</title>
<path fill="none" stroke="black" d="M371.24,-582.49C435.72,-572.81 533.26,-557.57 628.23,-540"/>
<polygon fill="black" stroke="black" points="629.11,-543.4 638.3,-538.12 627.83,-536.51 629.11,-543.4"/>
</g>
<!-- Document -->
<g id="node5" class="node">
<title>Document</title>
<ellipse fill="none" stroke="black" cx="59.5" cy="-450" rx="58" ry="18"/>
<text text-anchor="middle" x="59.5" y="-446.3" font-family="Times,serif" font-size="14.00">Document</text>
</g>
<!-- FunctionOperator
Document&#45;&gt;Document -->
<g id="edge4" class="edge">
<title>FunctionOperator
Document&#45;&gt;Document</title>
<path fill="none" stroke="black" d="M59.5,-503.7C59.5,-495.98 59.5,-486.71 59.5,-478.11"/>
<polygon fill="black" stroke="black" points="63,-478.1 59.5,-468.1 56,-478.1 63,-478.1"/>
</g>
<!-- docs -->
<g id="node6" class="node">
<title>docs</title>
<ellipse fill="none" stroke="black" cx="708.5" cy="-450" rx="32" ry="18"/>
<text text-anchor="middle" x="708.5" y="-446.3" font-family="Times,serif" font-size="14.00">docs</text>
</g>
<!-- BagMapOperator
docs&#45;&gt;docs -->
<g id="edge5" class="edge">
<title>BagMapOperator
docs&#45;&gt;docs</title>
<path fill="none" stroke="black" d="M708.5,-503.7C708.5,-495.98 708.5,-486.71 708.5,-478.11"/>
<polygon fill="black" stroke="black" points="712,-478.1 708.5,-468.1 705,-478.1 712,-478.1"/>
</g>
<!-- FunctionOperator
vectorizer -->
<g id="node7" class="node">
<title>FunctionOperator
vectorizer</title>
<text text-anchor="middle" x="59.5" y="-374.3" font-family="Times,serif" font-size="14.00">FO:&lt;lambda&gt;</text>
</g>
<!-- Document&#45;&gt;FunctionOperator
vectorizer -->
<g id="edge6" class="edge">
<title>Document&#45;&gt;FunctionOperator
vectorizer</title>
<path fill="none" stroke="black" d="M59.5,-431.7C59.5,-423.98 59.5,-414.71 59.5,-406.11"/>
<polygon fill="black" stroke="black" points="63,-406.1 59.5,-396.1 56,-406.1 63,-406.1"/>
</g>
<!-- BagPropertyExtractor
get_dicts -->
<g id="node8" class="node">
<title>BagPropertyExtractor
get_dicts</title>
<text text-anchor="middle" x="440.5" y="-374.3" font-family="Times,serif" font-size="14.00">BagPropertyExtractor</text>
</g>
<!-- docs&#45;&gt;BagPropertyExtractor
get_dicts -->
<g id="edge7" class="edge">
<title>docs&#45;&gt;BagPropertyExtractor
get_dicts</title>
<path fill="none" stroke="black" d="M680.07,-441.58C641.27,-431.44 570.29,-412.9 515.63,-398.62"/>
<polygon fill="black" stroke="black" points="516.18,-395.15 505.62,-396.01 514.41,-401.92 516.18,-395.15"/>
</g>
<!-- DocumentBagMap
bag_apply -->
<g id="node9" class="node">
<title>DocumentBagMap
bag_apply</title>
<text text-anchor="middle" x="260.5" y="-374.3" font-family="Times,serif" font-size="14.00">DocumentBagMap</text>
</g>
<!-- docs&#45;&gt;DocumentBagMap
bag_apply -->
<g id="edge8" class="edge">
<title>docs&#45;&gt;DocumentBagMap
bag_apply</title>
<path fill="none" stroke="black" d="M678.19,-443.71C657.92,-440.23 630.64,-435.66 606.5,-432 493.05,-414.78 461.51,-415.78 345.13,-396.22"/>
<polygon fill="black" stroke="black" points="345.55,-392.74 335.11,-394.52 344.38,-399.64 345.55,-392.74"/>
</g>
<!-- FunctionOperator
take -->
<g id="node10" class="node">
<title>FunctionOperator
take</title>
<text text-anchor="middle" x="880.5" y="-374.3" font-family="Times,serif" font-size="14.00">FO:&lt;lambda&gt;</text>
</g>
<!-- docs&#45;&gt;FunctionOperator
take -->
<g id="edge9" class="edge">
<title>docs&#45;&gt;FunctionOperator
take</title>
<path fill="none" stroke="black" d="M733.51,-438.82C758.42,-428.68 797.39,-412.82 828.95,-399.98"/>
<polygon fill="black" stroke="black" points="830.54,-403.11 838.48,-396.1 827.9,-396.63 830.54,-403.11"/>
</g>
<!-- FunctionOperator
compute -->
<g id="node11" class="node">
<title>FunctionOperator
compute</title>
<text text-anchor="middle" x="743.5" y="-374.3" font-family="Times,serif" font-size="14.00">FO:&lt;lambda&gt;</text>
</g>
<!-- docs&#45;&gt;FunctionOperator
compute -->
<g id="edge10" class="edge">
<title>docs&#45;&gt;FunctionOperator
compute</title>
<path fill="none" stroke="black" d="M716.79,-432.41C720.82,-424.37 725.74,-414.51 730.27,-405.47"/>
<polygon fill="black" stroke="black" points="733.44,-406.96 734.78,-396.45 727.18,-403.83 733.44,-406.96"/>
</g>
<!-- vectorizer -->
<g id="node33" class="node">
<title>vectorizer</title>
<ellipse fill="none" stroke="black" cx="59.5" cy="-306" rx="58" ry="18"/>
<text text-anchor="middle" x="59.5" y="-302.3" font-family="Times,serif" font-size="14.00">vectorizer</text>
</g>
<!-- FunctionOperator
vectorizer&#45;&gt;vectorizer -->
<g id="edge37" class="edge">
<title>FunctionOperator
vectorizer&#45;&gt;vectorizer</title>
<path fill="none" stroke="black" d="M59.5,-359.7C59.5,-351.98 59.5,-342.71 59.5,-334.11"/>
<polygon fill="black" stroke="black" points="63,-334.1 59.5,-324.1 56,-334.1 63,-334.1"/>
</g>
<!-- get_dicts -->
<g id="node15" class="node">
<title>get_dicts</title>
<ellipse fill="none" stroke="black" cx="530.5" cy="-306" rx="52.79" ry="18"/>
<text text-anchor="middle" x="530.5" y="-302.3" font-family="Times,serif" font-size="14.00">get_dicts</text>
</g>
<!-- BagPropertyExtractor
get_dicts&#45;&gt;get_dicts -->
<g id="edge15" class="edge">
<title>BagPropertyExtractor
get_dicts&#45;&gt;get_dicts</title>
<path fill="none" stroke="black" d="M462.75,-359.7C474.7,-350.4 489.57,-338.84 502.32,-328.91"/>
<polygon fill="black" stroke="black" points="504.6,-331.57 510.35,-322.67 500.31,-326.04 504.6,-331.57"/>
</g>
<!-- bag_apply -->
<g id="node16" class="node">
<title>bag_apply</title>
<ellipse fill="none" stroke="black" cx="239.5" cy="-306" rx="58" ry="18"/>
<text text-anchor="middle" x="239.5" y="-302.3" font-family="Times,serif" font-size="14.00">bag_apply</text>
</g>
<!-- DocumentBagMap
bag_apply&#45;&gt;bag_apply -->
<g id="edge16" class="edge">
<title>DocumentBagMap
bag_apply&#45;&gt;bag_apply</title>
<path fill="none" stroke="black" d="M255.31,-359.7C252.97,-351.9 250.15,-342.51 247.55,-333.83"/>
<polygon fill="black" stroke="black" points="250.86,-332.67 244.63,-324.1 244.15,-334.68 250.86,-332.67"/>
</g>
<!-- take -->
<g id="node27" class="node">
<title>take</title>
<ellipse fill="none" stroke="black" cx="880.5" cy="-306" rx="30.59" ry="18"/>
<text text-anchor="middle" x="880.5" y="-302.3" font-family="Times,serif" font-size="14.00">take</text>
</g>
<!-- FunctionOperator
take&#45;&gt;take -->
<g id="edge30" class="edge">
<title>FunctionOperator
take&#45;&gt;take</title>
<path fill="none" stroke="black" d="M880.5,-359.7C880.5,-351.98 880.5,-342.71 880.5,-334.11"/>
<polygon fill="black" stroke="black" points="884,-334.1 880.5,-324.1 877,-334.1 884,-334.1"/>
</g>
<!-- compute -->
<g id="node28" class="node">
<title>compute</title>
<ellipse fill="none" stroke="black" cx="743.5" cy="-306" rx="50.89" ry="18"/>
<text text-anchor="middle" x="743.5" y="-302.3" font-family="Times,serif" font-size="14.00">compute</text>
</g>
<!-- FunctionOperator
compute&#45;&gt;compute -->
<g id="edge31" class="edge">
<title>FunctionOperator
compute&#45;&gt;compute</title>
<path fill="none" stroke="black" d="M743.5,-359.7C743.5,-351.98 743.5,-342.71 743.5,-334.11"/>
<polygon fill="black" stroke="black" points="747,-334.1 743.5,-324.1 740,-334.1 747,-334.1"/>
</g>
<!-- Configuration
forgiving_extracts -->
<g id="node12" class="node">
<title>Configuration
forgiving_extracts</title>
<polygon fill="none" stroke="black" points="136.83,-516.44 228.5,-504 320.17,-516.44 320.08,-536.56 136.92,-536.56 136.83,-516.44"/>
<text text-anchor="middle" x="228.5" y="-518.3" font-family="Times,serif" font-size="14.00">Configuration</text>
</g>
<!-- forgiving_extracts -->
<g id="node13" class="node">
<title>forgiving_extracts</title>
<ellipse fill="none" stroke="black" cx="251.5" cy="-450" rx="95" ry="18"/>
<text text-anchor="middle" x="251.5" y="-446.3" font-family="Times,serif" font-size="14.00">forgiving_extracts</text>
</g>
<!-- Configuration
forgiving_extracts&#45;&gt;forgiving_extracts -->
<g id="edge11" class="edge">
<title>Configuration
forgiving_extracts&#45;&gt;forgiving_extracts</title>
<path fill="none" stroke="black" d="M233.95,-504.41C236.54,-496.54 239.69,-486.93 242.61,-478.04"/>
<polygon fill="black" stroke="black" points="245.96,-479.04 245.77,-468.45 239.32,-476.85 245.96,-479.04"/>
</g>
<!-- forgiving_extracts&#45;&gt;BagPropertyExtractor
get_dicts -->
<g id="edge12" class="edge">
<title>forgiving_extracts&#45;&gt;BagPropertyExtractor
get_dicts</title>
<path fill="none" stroke="black" d="M292.98,-433.64C319.92,-423.66 355.37,-410.53 384.77,-399.64"/>
<polygon fill="black" stroke="black" points="386.32,-402.8 394.48,-396.04 383.89,-396.23 386.32,-402.8"/>
</g>
<!-- forgiving_extracts&#45;&gt;DocumentBagMap
bag_apply -->
<g id="edge13" class="edge">
<title>forgiving_extracts&#45;&gt;DocumentBagMap
bag_apply</title>
<path fill="none" stroke="black" d="M253.72,-431.7C254.72,-423.98 255.91,-414.71 257.01,-406.11"/>
<polygon fill="black" stroke="black" points="260.49,-406.47 258.3,-396.1 253.55,-405.57 260.49,-406.47"/>
</g>
<!-- DocumentBagCreator
apply -->
<g id="node14" class="node">
<title>DocumentBagCreator
apply</title>
<text text-anchor="middle" x="195.5" y="-230.3" font-family="Times,serif" font-size="14.00">DocumentBagCreator</text>
</g>
<!-- forgiving_extracts&#45;&gt;DocumentBagCreator
apply -->
<g id="edge14" class="edge">
<title>forgiving_extracts&#45;&gt;DocumentBagCreator
apply</title>
<path fill="none" stroke="black" d="M216.39,-433.08C201.42,-424.37 185.38,-412.04 176.5,-396 153.24,-353.98 162.74,-335.03 172.5,-288 174.38,-278.96 177.87,-269.58 181.59,-261.26"/>
<polygon fill="black" stroke="black" points="184.83,-262.6 185.96,-252.07 178.5,-259.6 184.83,-262.6"/>
</g>
<!-- apply -->
<g id="node17" class="node">
<title>apply</title>
<ellipse fill="none" stroke="black" cx="195.5" cy="-162" rx="36.5" ry="18"/>
<text text-anchor="middle" x="195.5" y="-158.3" font-family="Times,serif" font-size="14.00">apply</text>
</g>
<!-- DocumentBagCreator
apply&#45;&gt;apply -->
<g id="edge17" class="edge">
<title>DocumentBagCreator
apply&#45;&gt;apply</title>
<path fill="none" stroke="black" d="M195.5,-215.7C195.5,-207.98 195.5,-198.71 195.5,-190.11"/>
<polygon fill="black" stroke="black" points="199,-190.1 195.5,-180.1 192,-190.1 199,-190.1"/>
</g>
<!-- Alias
get_dicts -->
<g id="node18" class="node">
<title>Alias
get_dicts</title>
<text text-anchor="middle" x="530.5" y="-230.3" font-family="Times,serif" font-size="14.00">Alias</text>
</g>
<!-- get_dicts&#45;&gt;Alias
get_dicts -->
<g id="edge18" class="edge">
<title>get_dicts&#45;&gt;Alias
get_dicts</title>
<path fill="none" stroke="black" d="M530.5,-287.7C530.5,-279.98 530.5,-270.71 530.5,-262.11"/>
<polygon fill="black" stroke="black" points="534,-262.1 530.5,-252.1 527,-262.1 534,-262.1"/>
</g>
<!-- bag_apply&#45;&gt;DocumentBagCreator
apply -->
<g id="edge19" class="edge">
<title>bag_apply&#45;&gt;DocumentBagCreator
apply</title>
<path fill="none" stroke="black" d="M228.85,-288.05C223.74,-279.92 217.5,-270 211.81,-260.94"/>
<polygon fill="black" stroke="black" points="214.65,-258.88 206.36,-252.28 208.72,-262.61 214.65,-258.88"/>
</g>
<!-- DocumentBagExplode
exploded -->
<g id="node19" class="node">
<title>DocumentBagExplode
exploded</title>
<text text-anchor="middle" x="387.5" y="-230.3" font-family="Times,serif" font-size="14.00">DocumentBagExplode</text>
</g>
<!-- bag_apply&#45;&gt;DocumentBagExplode
exploded -->
<g id="edge20" class="edge">
<title>bag_apply&#45;&gt;DocumentBagExplode
exploded</title>
<path fill="none" stroke="black" d="M269.81,-290.67C290.71,-280.78 318.86,-267.46 342.39,-256.33"/>
<polygon fill="black" stroke="black" points="343.94,-259.47 351.49,-252.03 340.95,-253.14 343.94,-259.47"/>
</g>
<!-- d -->
<g id="node26" class="node">
<title>d</title>
<ellipse fill="none" stroke="black" cx="530.5" cy="-162" rx="27" ry="18"/>
<text text-anchor="middle" x="530.5" y="-158.3" font-family="Times,serif" font-size="14.00">d</text>
</g>
<!-- Alias
get_dicts&#45;&gt;d -->
<g id="edge29" class="edge">
<title>Alias
get_dicts&#45;&gt;d</title>
<path fill="none" stroke="black" d="M530.5,-215.7C530.5,-207.98 530.5,-198.71 530.5,-190.11"/>
<polygon fill="black" stroke="black" points="534,-190.1 530.5,-180.1 527,-190.1 534,-190.1"/>
</g>
<!-- exploded -->
<g id="node29" class="node">
<title>exploded</title>
<ellipse fill="none" stroke="black" cx="387.5" cy="-162" rx="52.79" ry="18"/>
<text text-anchor="middle" x="387.5" y="-158.3" font-family="Times,serif" font-size="14.00">exploded</text>
</g>
<!-- DocumentBagExplode
exploded&#45;&gt;exploded -->
<g id="edge32" class="edge">
<title>DocumentBagExplode
exploded&#45;&gt;exploded</title>
<path fill="none" stroke="black" d="M387.5,-215.7C387.5,-207.98 387.5,-198.71 387.5,-190.11"/>
<polygon fill="black" stroke="black" points="391,-190.1 387.5,-180.1 384,-190.1 391,-190.1"/>
</g>
<!-- Constant
_stats -->
<g id="node20" class="node">
<title>Constant
_stats</title>
<text text-anchor="middle" x="579.5" y="-518.3" font-family="Times,serif" font-size="14.00">Constant</text>
</g>
<!-- _stats -->
<g id="node21" class="node">
<title>_stats</title>
<ellipse fill="none" stroke="black" cx="559.5" cy="-450" rx="38.5" ry="18"/>
<text text-anchor="middle" x="559.5" y="-446.3" font-family="Times,serif" font-size="14.00">_stats</text>
</g>
<!-- Constant
_stats&#45;&gt;_stats -->
<g id="edge21" class="edge">
<title>Constant
_stats&#45;&gt;_stats</title>
<path fill="none" stroke="black" d="M574.56,-503.7C572.33,-495.9 569.65,-486.51 567.17,-477.83"/>
<polygon fill="black" stroke="black" points="570.5,-476.75 564.39,-468.1 563.77,-478.68 570.5,-476.75"/>
</g>
<!-- _stats&#45;&gt;BagPropertyExtractor
get_dicts -->
<g id="edge22" class="edge">
<title>_stats&#45;&gt;BagPropertyExtractor
get_dicts</title>
<path fill="none" stroke="black" d="M536.56,-435.5C520.11,-425.83 497.59,-412.58 478.49,-401.35"/>
<polygon fill="black" stroke="black" points="480.1,-398.24 469.71,-396.18 476.55,-404.27 480.1,-398.24"/>
</g>
<!-- _stats&#45;&gt;DocumentBagMap
bag_apply -->
<g id="edge23" class="edge">
<title>_stats&#45;&gt;DocumentBagMap
bag_apply</title>
<path fill="none" stroke="black" d="M526.82,-440.54C515.92,-437.77 503.7,-434.7 492.5,-432 443.68,-420.23 388.91,-407.69 344.85,-397.76"/>
<polygon fill="black" stroke="black" points="345.57,-394.34 335.05,-395.56 344.04,-401.17 345.57,-394.34"/>
</g>
<!-- FunctionOperator
stats -->
<g id="node22" class="node">
<title>FunctionOperator
stats</title>
<text text-anchor="middle" x="606.5" y="-374.3" font-family="Times,serif" font-size="14.00">FO:&lt;lambda&gt;</text>
</g>
<!-- _stats&#45;&gt;FunctionOperator
stats -->
<g id="edge24" class="edge">
<title>_stats&#45;&gt;FunctionOperator
stats</title>
<path fill="none" stroke="black" d="M570.64,-432.41C576.15,-424.2 582.93,-414.1 589.11,-404.9"/>
<polygon fill="black" stroke="black" points="592.12,-406.7 594.79,-396.45 586.31,-402.8 592.12,-406.7"/>
</g>
<!-- stats -->
<g id="node23" class="node">
<title>stats</title>
<ellipse fill="none" stroke="black" cx="634.5" cy="-306" rx="34" ry="18"/>
<text text-anchor="middle" x="634.5" y="-302.3" font-family="Times,serif" font-size="14.00">stats</text>
</g>
<!-- FunctionOperator
stats&#45;&gt;stats -->
<g id="edge25" class="edge">
<title>FunctionOperator
stats&#45;&gt;stats</title>
<path fill="none" stroke="black" d="M613.42,-359.7C616.57,-351.81 620.38,-342.3 623.88,-333.55"/>
<polygon fill="black" stroke="black" points="627.2,-334.68 627.66,-324.1 620.7,-332.08 627.2,-334.68"/>
</g>
<!-- Configuration
verbosity -->
<g id="node24" class="node">
<title>Configuration
verbosity</title>
<polygon fill="none" stroke="black" points="337.83,-516.44 429.5,-504 521.17,-516.44 521.08,-536.56 337.92,-536.56 337.83,-516.44"/>
<text text-anchor="middle" x="429.5" y="-518.3" font-family="Times,serif" font-size="14.00">Configuration</text>
</g>
<!-- verbosity -->
<g id="node25" class="node">
<title>verbosity</title>
<ellipse fill="none" stroke="black" cx="429.5" cy="-450" rx="54" ry="18"/>
<text text-anchor="middle" x="429.5" y="-446.3" font-family="Times,serif" font-size="14.00">verbosity</text>
</g>
<!-- Configuration
verbosity&#45;&gt;verbosity -->
<g id="edge26" class="edge">
<title>Configuration
verbosity&#45;&gt;verbosity</title>
<path fill="none" stroke="black" d="M429.5,-503.7C429.5,-495.98 429.5,-486.71 429.5,-478.11"/>
<polygon fill="black" stroke="black" points="433,-478.1 429.5,-468.1 426,-478.1 433,-478.1"/>
</g>
<!-- verbosity&#45;&gt;BagPropertyExtractor
get_dicts -->
<g id="edge27" class="edge">
<title>verbosity&#45;&gt;BagPropertyExtractor
get_dicts</title>
<path fill="none" stroke="black" d="M432.22,-431.7C433.43,-423.98 434.89,-414.71 436.24,-406.11"/>
<polygon fill="black" stroke="black" points="439.72,-406.52 437.81,-396.1 432.8,-405.44 439.72,-406.52"/>
</g>
<!-- verbosity&#45;&gt;DocumentBagMap
bag_apply -->
<g id="edge28" class="edge">
<title>verbosity&#45;&gt;DocumentBagMap
bag_apply</title>
<path fill="none" stroke="black" d="M396.92,-435.5C372.63,-425.45 339.01,-411.52 311.23,-400.01"/>
<polygon fill="black" stroke="black" points="312.25,-396.64 301.67,-396.05 309.57,-403.11 312.25,-396.64"/>
</g>
<!-- Alias
exploded -->
<g id="node30" class="node">
<title>Alias
exploded</title>
<text text-anchor="middle" x="387.5" y="-86.3" font-family="Times,serif" font-size="14.00">Alias</text>
</g>
<!-- exploded&#45;&gt;Alias
exploded -->
<g id="edge33" class="edge">
<title>exploded&#45;&gt;Alias
exploded</title>
<path fill="none" stroke="black" d="M387.5,-143.7C387.5,-135.98 387.5,-126.71 387.5,-118.11"/>
<polygon fill="black" stroke="black" points="391,-118.1 387.5,-108.1 384,-118.1 391,-118.1"/>
</g>
<!-- e -->
<g id="node32" class="node">
<title>e</title>
<ellipse fill="none" stroke="black" cx="387.5" cy="-18" rx="27" ry="18"/>
<text text-anchor="middle" x="387.5" y="-14.3" font-family="Times,serif" font-size="14.00">e</text>
</g>
<!-- Alias
exploded&#45;&gt;e -->
<g id="edge36" class="edge">
<title>Alias
exploded&#45;&gt;e</title>
<path fill="none" stroke="black" d="M387.5,-71.7C387.5,-63.98 387.5,-54.71 387.5,-46.11"/>
<polygon fill="black" stroke="black" points="391,-46.1 387.5,-36.1 384,-46.1 391,-46.1"/>
</g>
<!-- configuration -->
<g id="node31" class="node">
<title>configuration</title>
<ellipse fill="none" stroke="black" cx="387.5" cy="-306" rx="72.29" ry="18"/>
<text text-anchor="middle" x="387.5" y="-302.3" font-family="Times,serif" font-size="14.00">configuration</text>
</g>
<!-- configuration&#45;&gt;DocumentBagCreator
apply -->
<g id="edge34" class="edge">
<title>configuration&#45;&gt;DocumentBagCreator
apply</title>
<path fill="none" stroke="black" d="M348.18,-290.67C320.46,-280.56 282.92,-266.87 252,-255.6"/>
<polygon fill="black" stroke="black" points="252.81,-252.17 242.22,-252.03 250.41,-258.75 252.81,-252.17"/>
</g>
<!-- configuration&#45;&gt;DocumentBagExplode
exploded -->
<g id="edge35" class="edge">
<title>configuration&#45;&gt;DocumentBagExplode
exploded</title>
<path fill="none" stroke="black" d="M387.5,-287.7C387.5,-279.98 387.5,-270.71 387.5,-262.11"/>
<polygon fill="black" stroke="black" points="391,-262.1 387.5,-252.1 384,-262.1 391,-262.1"/>
</g>
<!-- bag -->
<g id="node34" class="node">
<title>bag</title>
<ellipse fill="none" stroke="black" cx="708.5" cy="-594" rx="28" ry="18"/>
<text text-anchor="middle" x="708.5" y="-590.3" font-family="Times,serif" font-size="14.00">bag</text>
</g>
<!-- bag&#45;&gt;BagMapOperator
docs -->
<g id="edge38" class="edge">
<title>bag&#45;&gt;BagMapOperator
docs</title>
<path fill="none" stroke="black" d="M708.5,-575.7C708.5,-567.98 708.5,-558.71 708.5,-550.11"/>
<polygon fill="black" stroke="black" points="712,-550.1 708.5,-540.1 705,-550.1 712,-550.1"/>
</g>
<!-- FunctionOperator
sql
connection_string
index_column -->
<g id="node35" class="node">
<title>FunctionOperator
sql
connection_string
index_column</title>
<text text-anchor="middle" x="616.5" y="-950.3" font-family="Times,serif" font-size="14.00">FO:&lt;lambda&gt;</text>
</g>
<!-- sql -->
<g id="node36" class="node">
<title>sql</title>
<ellipse fill="none" stroke="black" cx="478.5" cy="-882" rx="27" ry="18"/>
<text text-anchor="middle" x="478.5" y="-878.3" font-family="Times,serif" font-size="14.00">sql</text>
</g>
<!-- FunctionOperator
sql
connection_string
index_column&#45;&gt;sql -->
<g id="edge39" class="edge">
<title>FunctionOperator
sql
connection_string
index_column&#45;&gt;sql</title>
<path fill="none" stroke="black" d="M582.74,-935.88C560.08,-924.38 530.49,-909.37 508.63,-898.28"/>
<polygon fill="black" stroke="black" points="509.98,-895.04 499.48,-893.64 506.82,-901.28 509.98,-895.04"/>
</g>
<!-- connection_string -->
<g id="node37" class="node">
<title>connection_string</title>
<ellipse fill="none" stroke="black" cx="616.5" cy="-882" rx="93" ry="18"/>
<text text-anchor="middle" x="616.5" y="-878.3" font-family="Times,serif" font-size="14.00">connection_string</text>
</g>
<!-- FunctionOperator
sql
connection_string
index_column&#45;&gt;connection_string -->
<g id="edge40" class="edge">
<title>FunctionOperator
sql
connection_string
index_column&#45;&gt;connection_string</title>
<path fill="none" stroke="black" d="M616.5,-935.7C616.5,-927.98 616.5,-918.71 616.5,-910.11"/>
<polygon fill="black" stroke="black" points="620,-910.1 616.5,-900.1 613,-910.1 620,-910.1"/>
</g>
<!-- index_column -->
<g id="node38" class="node">
<title>index_column</title>
<ellipse fill="none" stroke="black" cx="801.5" cy="-882" rx="74.19" ry="18"/>
<text text-anchor="middle" x="801.5" y="-878.3" font-family="Times,serif" font-size="14.00">index_column</text>
</g>
<!-- FunctionOperator
sql
connection_string
index_column&#45;&gt;index_column -->
<g id="edge41" class="edge">
<title>FunctionOperator
sql
connection_string
index_column&#45;&gt;index_column</title>
<path fill="none" stroke="black" d="M661.76,-935.88C689.6,-925.34 725.25,-911.85 753.58,-901.13"/>
<polygon fill="black" stroke="black" points="755.15,-904.28 763.27,-897.47 752.68,-897.73 755.15,-904.28"/>
</g>
<!-- SQLTableLoader
dataframe -->
<g id="node39" class="node">
<title>SQLTableLoader
dataframe</title>
<text text-anchor="middle" x="708.5" y="-806.3" font-family="Times,serif" font-size="14.00">SQLTableLoader</text>
</g>
<!-- sql&#45;&gt;SQLTableLoader
dataframe -->
<g id="edge42" class="edge">
<title>sql&#45;&gt;SQLTableLoader
dataframe</title>
<path fill="none" stroke="black" d="M499.56,-870.31C504.4,-868.06 509.57,-865.82 514.5,-864 552.22,-850.06 595.27,-837.94 631.21,-828.82"/>
<polygon fill="black" stroke="black" points="632.3,-832.16 641.15,-826.33 630.6,-825.36 632.3,-832.16"/>
</g>
<!-- connection_string&#45;&gt;SQLTableLoader
dataframe -->
<g id="edge43" class="edge">
<title>connection_string&#45;&gt;SQLTableLoader
dataframe</title>
<path fill="none" stroke="black" d="M638.3,-864.41C650.07,-855.46 664.79,-844.25 677.71,-834.42"/>
<polygon fill="black" stroke="black" points="680.05,-837.04 685.89,-828.2 675.81,-831.47 680.05,-837.04"/>
</g>
<!-- index_column&#45;&gt;SQLTableLoader
dataframe -->
<g id="edge44" class="edge">
<title>index_column&#45;&gt;SQLTableLoader
dataframe</title>
<path fill="none" stroke="black" d="M779.93,-864.76C767.84,-855.67 752.57,-844.17 739.25,-834.14"/>
<polygon fill="black" stroke="black" points="741.34,-831.34 731.25,-828.12 737.14,-836.93 741.34,-831.34"/>
</g>
<!-- dataframe -->
<g id="node40" class="node">
<title>dataframe</title>
<ellipse fill="none" stroke="black" cx="708.5" cy="-738" rx="58.5" ry="18"/>
<text text-anchor="middle" x="708.5" y="-734.3" font-family="Times,serif" font-size="14.00">dataframe</text>
</g>
<!-- SQLTableLoader
dataframe&#45;&gt;dataframe -->
<g id="edge45" class="edge">
<title>SQLTableLoader
dataframe&#45;&gt;dataframe</title>
<path fill="none" stroke="black" d="M708.5,-791.7C708.5,-783.98 708.5,-774.71 708.5,-766.11"/>
<polygon fill="black" stroke="black" points="712,-766.1 708.5,-756.1 705,-766.1 712,-766.1"/>
</g>
<!-- FunctionOperator
bag -->
<g id="node41" class="node">
<title>FunctionOperator
bag</title>
<text text-anchor="middle" x="708.5" y="-662.3" font-family="Times,serif" font-size="14.00">FO:&lt;lambda&gt;</text>
</g>
<!-- dataframe&#45;&gt;FunctionOperator
bag -->
<g id="edge46" class="edge">
<title>dataframe&#45;&gt;FunctionOperator
bag</title>
<path fill="none" stroke="black" d="M708.5,-719.7C708.5,-711.98 708.5,-702.71 708.5,-694.11"/>
<polygon fill="black" stroke="black" points="712,-694.1 708.5,-684.1 705,-694.1 712,-694.1"/>
</g>
<!-- FunctionOperator
bag&#45;&gt;bag -->
<g id="edge50" class="edge">
<title>FunctionOperator
bag&#45;&gt;bag</title>
<path fill="none" stroke="black" d="M708.5,-647.7C708.5,-639.98 708.5,-630.71 708.5,-622.11"/>
<polygon fill="black" stroke="black" points="712,-622.1 708.5,-612.1 705,-622.1 712,-622.1"/>
</g>
<!-- source -->
<g id="node42" class="node">
<title>source</title>
<ellipse fill="none" stroke="black" cx="616.5" cy="-1026" rx="41.69" ry="18"/>
<text text-anchor="middle" x="616.5" y="-1022.3" font-family="Times,serif" font-size="14.00">source</text>
</g>
<!-- source&#45;&gt;FunctionOperator
sql
connection_string
index_column -->
<g id="edge47" class="edge">
<title>source&#45;&gt;FunctionOperator
sql
connection_string
index_column</title>
<path fill="none" stroke="black" d="M616.5,-1007.7C616.5,-999.98 616.5,-990.71 616.5,-982.11"/>
<polygon fill="black" stroke="black" points="620,-982.1 616.5,-972.1 613,-982.1 620,-982.1"/>
</g>
<!-- Configuration
bytes_per_chunk -->
<g id="node43" class="node">
<title>Configuration
bytes_per_chunk</title>
<polygon fill="none" stroke="black" points="889.83,-948.44 981.5,-936 1073.17,-948.44 1073.08,-968.56 889.92,-968.56 889.83,-948.44"/>
<text text-anchor="middle" x="981.5" y="-950.3" font-family="Times,serif" font-size="14.00">Configuration</text>
</g>
<!-- bytes_per_chunk -->
<g id="node44" class="node">
<title>bytes_per_chunk</title>
<ellipse fill="none" stroke="black" cx="981.5" cy="-882" rx="88.5" ry="18"/>
<text text-anchor="middle" x="981.5" y="-878.3" font-family="Times,serif" font-size="14.00">bytes_per_chunk</text>
</g>
<!-- Configuration
bytes_per_chunk&#45;&gt;bytes_per_chunk -->
<g id="edge48" class="edge">
<title>Configuration
bytes_per_chunk&#45;&gt;bytes_per_chunk</title>
<path fill="none" stroke="black" d="M981.5,-935.7C981.5,-927.98 981.5,-918.71 981.5,-910.11"/>
<polygon fill="black" stroke="black" points="985,-910.1 981.5,-900.1 978,-910.1 985,-910.1"/>
</g>
<!-- bytes_per_chunk&#45;&gt;SQLTableLoader
dataframe -->
<g id="edge49" class="edge">
<title>bytes_per_chunk&#45;&gt;SQLTableLoader
dataframe</title>
<path fill="none" stroke="black" d="M928.86,-867.5C888.01,-857.03 830.8,-842.36 784.91,-830.59"/>
<polygon fill="black" stroke="black" points="785.56,-827.14 775,-828.05 783.82,-833.92 785.56,-827.14"/>
</g>
</g>
</svg>
