<?xml version="1.0" encoding="UTF-8" standalone="no"?>
<!DOCTYPE svg PUBLIC "-//W3C//DTD SVG 1.1//EN"
 "http://www.w3.org/Graphics/SVG/1.1/DTD/svg11.dtd">
<!-- Generated by graphviz version 2.43.0 (0)
 -->
<!-- Pages: 1 -->
<svg width="1438pt" height="764pt"
 viewBox="0.00 0.00 1437.75 764.00" xmlns="http://www.w3.org/2000/svg" xmlns:xlink="http://www.w3.org/1999/xlink">
<g id="graph0" class="graph" transform="scale(1 1) rotate(0) translate(4 760)">
<polygon fill="white" stroke="transparent" points="-4,4 -4,-760 1433.75,-760 1433.75,4 -4,4"/>
<!-- Configuration
doc_configuration -->
<g id="node1" class="node">
<title>Configuration
doc_configuration</title>
<polygon fill="none" stroke="black" points="212.83,-660.44 304.5,-648 396.17,-660.44 396.08,-680.56 212.92,-680.56 212.83,-660.44"/>
<text text-anchor="middle" x="304.5" y="-662.3" font-family="Times,serif" font-size="14.00">Configuration</text>
</g>
<!-- doc_configuration -->
<g id="node2" class="node">
<title>doc_configuration</title>
<ellipse fill="none" stroke="black" cx="304.5" cy="-594" rx="93" ry="18"/>
<text text-anchor="middle" x="304.5" y="-590.3" font-family="Times,serif" font-size="14.00">doc_configuration</text>
</g>
<!-- Configuration
doc_configuration&#45;&gt;doc_configuration -->
<g id="edge1" class="edge">
<title>Configuration
doc_configuration&#45;&gt;doc_configuration</title>
<path fill="none" stroke="black" d="M304.5,-647.7C304.5,-639.98 304.5,-630.71 304.5,-622.11"/>
<polygon fill="black" stroke="black" points="308,-622.1 304.5,-612.1 301,-622.1 308,-622.1"/>
</g>
<!-- FunctionOperator
vectorizer -->
<g id="node3" class="node">
<title>FunctionOperator
vectorizer</title>
<text text-anchor="middle" x="205.5" y="-518.3" font-family="Times,serif" font-size="14.00">FunctionOperator</text>
</g>
<!-- doc_configuration&#45;&gt;FunctionOperator
vectorizer -->
<g id="edge2" class="edge">
<title>doc_configuration&#45;&gt;FunctionOperator
vectorizer</title>
<path fill="none" stroke="black" d="M281.04,-576.41C268.25,-567.37 252.23,-556.04 238.23,-546.14"/>
<polygon fill="black" stroke="black" points="240.02,-543.12 229.83,-540.2 235.97,-548.83 240.02,-543.12"/>
</g>
<!-- BagMapOperator
docs -->
<g id="node4" class="node">
<title>BagMapOperator
docs</title>
<text text-anchor="middle" x="402.5" y="-518.3" font-family="Times,serif" font-size="14.00">BagMapOperator</text>
</g>
<!-- doc_configuration&#45;&gt;BagMapOperator
docs -->
<g id="edge3" class="edge">
<title>doc_configuration&#45;&gt;BagMapOperator
docs</title>
<path fill="none" stroke="black" d="M327.72,-576.41C340.38,-567.37 356.24,-556.04 370.1,-546.14"/>
<polygon fill="black" stroke="black" points="372.32,-548.86 378.42,-540.2 368.25,-543.16 372.32,-548.86"/>
</g>
<!-- vectorizer -->
<g id="node5" class="node">
<title>vectorizer</title>
<ellipse fill="none" stroke="black" cx="132.5" cy="-450" rx="58" ry="18"/>
<text text-anchor="middle" x="132.5" y="-446.3" font-family="Times,serif" font-size="14.00">vectorizer</text>
</g>
<!-- FunctionOperator
vectorizer&#45;&gt;vectorizer -->
<g id="edge4" class="edge">
<title>FunctionOperator
vectorizer&#45;&gt;vectorizer</title>
<path fill="none" stroke="black" d="M187.46,-503.7C178.3,-494.92 167.05,-484.13 157.12,-474.61"/>
<polygon fill="black" stroke="black" points="159.47,-472.01 149.83,-467.62 154.63,-477.07 159.47,-472.01"/>
</g>
<!-- docs -->
<g id="node6" class="node">
<title>docs</title>
<ellipse fill="none" stroke="black" cx="416.5" cy="-450" rx="32" ry="18"/>
<text text-anchor="middle" x="416.5" y="-446.3" font-family="Times,serif" font-size="14.00">docs</text>
</g>
<!-- BagMapOperator
docs&#45;&gt;docs -->
<g id="edge5" class="edge">
<title>BagMapOperator
docs&#45;&gt;docs</title>
<path fill="none" stroke="black" d="M405.96,-503.7C407.5,-495.98 409.36,-486.71 411.08,-478.11"/>
<polygon fill="black" stroke="black" points="414.55,-478.59 413.08,-468.1 407.69,-477.22 414.55,-478.59"/>
</g>
<!-- ChromaIndexFromBag
add_to_chroma -->
<g id="node7" class="node">
<title>ChromaIndexFromBag
add_to_chroma</title>
<text text-anchor="middle" x="89.5" y="-374.3" font-family="Times,serif" font-size="14.00">ChromaIndexFromBag</text>
</g>
<!-- vectorizer&#45;&gt;ChromaIndexFromBag
add_to_chroma -->
<g id="edge6" class="edge">
<title>vectorizer&#45;&gt;ChromaIndexFromBag
add_to_chroma</title>
<path fill="none" stroke="black" d="M122.09,-432.05C117.09,-423.92 111,-414 105.44,-404.94"/>
<polygon fill="black" stroke="black" points="108.33,-402.96 100.11,-396.28 102.37,-406.63 108.33,-402.96"/>
</g>
<!-- docs&#45;&gt;ChromaIndexFromBag
add_to_chroma -->
<g id="edge9" class="edge">
<title>docs&#45;&gt;ChromaIndexFromBag
add_to_chroma</title>
<path fill="none" stroke="black" d="M387.19,-442.73C340.8,-432.8 248.58,-413.05 179.01,-398.16"/>
<polygon fill="black" stroke="black" points="179.43,-394.67 168.92,-396 177.97,-401.52 179.43,-394.67"/>
</g>
<!-- BagPropertyExtractor
get_dicts -->
<g id="node8" class="node">
<title>BagPropertyExtractor
get_dicts</title>
<text text-anchor="middle" x="609.5" y="-374.3" font-family="Times,serif" font-size="14.00">BagPropertyExtractor</text>
</g>
<!-- docs&#45;&gt;BagPropertyExtractor
get_dicts -->
<g id="edge7" class="edge">
<title>docs&#45;&gt;BagPropertyExtractor
get_dicts</title>
<path fill="none" stroke="black" d="M442.53,-439.56C470.68,-429.35 516.41,-412.76 552.9,-399.53"/>
<polygon fill="black" stroke="black" points="554.24,-402.77 562.45,-396.07 551.86,-396.19 554.24,-402.77"/>
</g>
<!-- DocumentBagMap
bag_apply -->
<g id="node9" class="node">
<title>DocumentBagMap
bag_apply</title>
<text text-anchor="middle" x="789.5" y="-374.3" font-family="Times,serif" font-size="14.00">DocumentBagMap</text>
</g>
<!-- docs&#45;&gt;DocumentBagMap
bag_apply -->
<g id="edge8" class="edge">
<title>docs&#45;&gt;DocumentBagMap
bag_apply</title>
<path fill="none" stroke="black" d="M446.6,-443.72C497.62,-434.71 604.6,-415.63 704.87,-396.3"/>
<polygon fill="black" stroke="black" points="705.71,-399.7 714.86,-394.37 704.38,-392.83 705.71,-399.7"/>
</g>
<!-- FunctionOperator
take -->
<g id="node10" class="node">
<title>FunctionOperator
take</title>
<text text-anchor="middle" x="269.5" y="-374.3" font-family="Times,serif" font-size="14.00">FunctionOperator</text>
</g>
<!-- docs&#45;&gt;FunctionOperator
take -->
<g id="edge10" class="edge">
<title>docs&#45;&gt;FunctionOperator
take</title>
<path fill="none" stroke="black" d="M392.88,-437.75C371.85,-427.74 340.49,-412.81 314.66,-400.5"/>
<polygon fill="black" stroke="black" points="315.95,-397.24 305.42,-396.1 312.94,-403.56 315.95,-397.24"/>
</g>
<!-- FunctionOperator
compute -->
<g id="node11" class="node">
<title>FunctionOperator
compute</title>
<text text-anchor="middle" x="431.5" y="-374.3" font-family="Times,serif" font-size="14.00">FunctionOperator</text>
</g>
<!-- docs&#45;&gt;FunctionOperator
compute -->
<g id="edge11" class="edge">
<title>docs&#45;&gt;FunctionOperator
compute</title>
<path fill="none" stroke="black" d="M420.13,-432.05C421.8,-424.26 423.82,-414.82 425.7,-406.08"/>
<polygon fill="black" stroke="black" points="429.13,-406.79 427.8,-396.28 422.28,-405.32 429.13,-406.79"/>
</g>
<!-- add_to_chroma -->
<g id="node26" class="node">
<title>add_to_chroma</title>
<ellipse fill="none" stroke="black" cx="89.5" cy="-306" rx="80.69" ry="18"/>
<text text-anchor="middle" x="89.5" y="-302.3" font-family="Times,serif" font-size="14.00">add_to_chroma</text>
</g>
<!-- ChromaIndexFromBag
add_to_chroma&#45;&gt;add_to_chroma -->
<g id="edge29" class="edge">
<title>ChromaIndexFromBag
add_to_chroma&#45;&gt;add_to_chroma</title>
<path fill="none" stroke="black" d="M89.5,-359.7C89.5,-351.98 89.5,-342.71 89.5,-334.11"/>
<polygon fill="black" stroke="black" points="93,-334.1 89.5,-324.1 86,-334.1 93,-334.1"/>
</g>
<!-- get_dicts -->
<g id="node14" class="node">
<title>get_dicts</title>
<ellipse fill="none" stroke="black" cx="553.5" cy="-306" rx="52.79" ry="18"/>
<text text-anchor="middle" x="553.5" y="-302.3" font-family="Times,serif" font-size="14.00">get_dicts</text>
</g>
<!-- BagPropertyExtractor
get_dicts&#45;&gt;get_dicts -->
<g id="edge15" class="edge">
<title>BagPropertyExtractor
get_dicts&#45;&gt;get_dicts</title>
<path fill="none" stroke="black" d="M595.66,-359.7C588.84,-351.18 580.51,-340.76 573.06,-331.45"/>
<polygon fill="black" stroke="black" points="575.78,-329.25 566.8,-323.62 570.31,-333.62 575.78,-329.25"/>
</g>
<!-- bag_apply -->
<g id="node15" class="node">
<title>bag_apply</title>
<ellipse fill="none" stroke="black" cx="844.5" cy="-306" rx="58" ry="18"/>
<text text-anchor="middle" x="844.5" y="-302.3" font-family="Times,serif" font-size="14.00">bag_apply</text>
</g>
<!-- DocumentBagMap
bag_apply&#45;&gt;bag_apply -->
<g id="edge16" class="edge">
<title>DocumentBagMap
bag_apply&#45;&gt;bag_apply</title>
<path fill="none" stroke="black" d="M803.1,-359.7C809.72,-351.27 817.81,-340.97 825.07,-331.73"/>
<polygon fill="black" stroke="black" points="828.02,-333.65 831.44,-323.62 822.51,-329.32 828.02,-333.65"/>
</g>
<!-- take -->
<g id="node27" class="node">
<title>take</title>
<ellipse fill="none" stroke="black" cx="269.5" cy="-306" rx="30.59" ry="18"/>
<text text-anchor="middle" x="269.5" y="-302.3" font-family="Times,serif" font-size="14.00">take</text>
</g>
<!-- FunctionOperator
take&#45;&gt;take -->
<g id="edge30" class="edge">
<title>FunctionOperator
take&#45;&gt;take</title>
<path fill="none" stroke="black" d="M269.5,-359.7C269.5,-351.98 269.5,-342.71 269.5,-334.11"/>
<polygon fill="black" stroke="black" points="273,-334.1 269.5,-324.1 266,-334.1 273,-334.1"/>
</g>
<!-- compute -->
<g id="node28" class="node">
<title>compute</title>
<ellipse fill="none" stroke="black" cx="431.5" cy="-306" rx="50.89" ry="18"/>
<text text-anchor="middle" x="431.5" y="-302.3" font-family="Times,serif" font-size="14.00">compute</text>
</g>
<!-- FunctionOperator
compute&#45;&gt;compute -->
<g id="edge31" class="edge">
<title>FunctionOperator
compute&#45;&gt;compute</title>
<path fill="none" stroke="black" d="M431.5,-359.7C431.5,-351.98 431.5,-342.71 431.5,-334.11"/>
<polygon fill="black" stroke="black" points="435,-334.1 431.5,-324.1 428,-334.1 435,-334.1"/>
</g>
<!-- Configuration
forgiving_extracts -->
<g id="node12" class="node">
<title>Configuration
forgiving_extracts</title>
<polygon fill="none" stroke="black" points="691.83,-516.44 783.5,-504 875.17,-516.44 875.08,-536.56 691.92,-536.56 691.83,-516.44"/>
<text text-anchor="middle" x="783.5" y="-518.3" font-family="Times,serif" font-size="14.00">Configuration</text>
</g>
<!-- forgiving_extracts -->
<g id="node13" class="node">
<title>forgiving_extracts</title>
<ellipse fill="none" stroke="black" cx="782.5" cy="-450" rx="95" ry="18"/>
<text text-anchor="middle" x="782.5" y="-446.3" font-family="Times,serif" font-size="14.00">forgiving_extracts</text>
</g>
<!-- Configuration
forgiving_extracts&#45;&gt;forgiving_extracts -->
<g id="edge12" class="edge">
<title>Configuration
forgiving_extracts&#45;&gt;forgiving_extracts</title>
<path fill="none" stroke="black" d="M783.25,-503.7C783.14,-495.98 783.01,-486.71 782.89,-478.11"/>
<polygon fill="black" stroke="black" points="786.39,-478.05 782.74,-468.1 779.39,-478.15 786.39,-478.05"/>
</g>
<!-- forgiving_extracts&#45;&gt;BagPropertyExtractor
get_dicts -->
<g id="edge13" class="edge">
<title>forgiving_extracts&#45;&gt;BagPropertyExtractor
get_dicts</title>
<path fill="none" stroke="black" d="M744.11,-433.46C719.72,-423.6 687.87,-410.71 661.27,-399.95"/>
<polygon fill="black" stroke="black" points="662.31,-396.6 651.73,-396.09 659.69,-403.09 662.31,-396.6"/>
</g>
<!-- forgiving_extracts&#45;&gt;DocumentBagMap
bag_apply -->
<g id="edge14" class="edge">
<title>forgiving_extracts&#45;&gt;DocumentBagMap
bag_apply</title>
<path fill="none" stroke="black" d="M784.23,-431.7C785,-423.98 785.93,-414.71 786.79,-406.11"/>
<polygon fill="black" stroke="black" points="790.28,-406.4 787.79,-396.1 783.31,-405.7 790.28,-406.4"/>
</g>
<!-- Alias
get_dicts -->
<g id="node16" class="node">
<title>Alias
get_dicts</title>
<text text-anchor="middle" x="553.5" y="-230.3" font-family="Times,serif" font-size="14.00">Alias</text>
</g>
<!-- get_dicts&#45;&gt;Alias
get_dicts -->
<g id="edge17" class="edge">
<title>get_dicts&#45;&gt;Alias
get_dicts</title>
<path fill="none" stroke="black" d="M553.5,-287.7C553.5,-279.98 553.5,-270.71 553.5,-262.11"/>
<polygon fill="black" stroke="black" points="557,-262.1 553.5,-252.1 550,-262.1 557,-262.1"/>
</g>
<!-- DocumentBagCreator
apply -->
<g id="node17" class="node">
<title>DocumentBagCreator
apply</title>
<text text-anchor="middle" x="883.5" y="-230.3" font-family="Times,serif" font-size="14.00">DocumentBagCreator</text>
</g>
<!-- bag_apply&#45;&gt;DocumentBagCreator
apply -->
<g id="edge18" class="edge">
<title>bag_apply&#45;&gt;DocumentBagCreator
apply</title>
<path fill="none" stroke="black" d="M853.94,-288.05C858.42,-280.01 863.89,-270.2 868.89,-261.23"/>
<polygon fill="black" stroke="black" points="872.07,-262.72 873.88,-252.28 865.95,-259.31 872.07,-262.72"/>
</g>
<!-- DocumentBagExplode
exploded -->
<g id="node18" class="node">
<title>DocumentBagExplode
exploded</title>
<text text-anchor="middle" x="691.5" y="-230.3" font-family="Times,serif" font-size="14.00">DocumentBagExplode</text>
</g>
<!-- bag_apply&#45;&gt;DocumentBagExplode
exploded -->
<g id="edge19" class="edge">
<title>bag_apply&#45;&gt;DocumentBagExplode
exploded</title>
<path fill="none" stroke="black" d="M813.17,-290.67C791.56,-280.78 762.46,-267.46 738.13,-256.33"/>
<polygon fill="black" stroke="black" points="739.28,-253.01 728.73,-252.03 736.37,-259.37 739.28,-253.01"/>
</g>
<!-- d -->
<g id="node25" class="node">
<title>d</title>
<ellipse fill="none" stroke="black" cx="553.5" cy="-162" rx="27" ry="18"/>
<text text-anchor="middle" x="553.5" y="-158.3" font-family="Times,serif" font-size="14.00">d</text>
</g>
<!-- Alias
get_dicts&#45;&gt;d -->
<g id="edge28" class="edge">
<title>Alias
get_dicts&#45;&gt;d</title>
<path fill="none" stroke="black" d="M553.5,-215.7C553.5,-207.98 553.5,-198.71 553.5,-190.11"/>
<polygon fill="black" stroke="black" points="557,-190.1 553.5,-180.1 550,-190.1 557,-190.1"/>
</g>
<!-- apply -->
<g id="node29" class="node">
<title>apply</title>
<ellipse fill="none" stroke="black" cx="883.5" cy="-162" rx="36.5" ry="18"/>
<text text-anchor="middle" x="883.5" y="-158.3" font-family="Times,serif" font-size="14.00">apply</text>
</g>
<!-- DocumentBagCreator
apply&#45;&gt;apply -->
<g id="edge32" class="edge">
<title>DocumentBagCreator
apply&#45;&gt;apply</title>
<path fill="none" stroke="black" d="M883.5,-215.7C883.5,-207.98 883.5,-198.71 883.5,-190.11"/>
<polygon fill="black" stroke="black" points="887,-190.1 883.5,-180.1 880,-190.1 887,-190.1"/>
</g>
<!-- exploded -->
<g id="node30" class="node">
<title>exploded</title>
<ellipse fill="none" stroke="black" cx="691.5" cy="-162" rx="52.79" ry="18"/>
<text text-anchor="middle" x="691.5" y="-158.3" font-family="Times,serif" font-size="14.00">exploded</text>
</g>
<!-- DocumentBagExplode
exploded&#45;&gt;exploded -->
<g id="edge33" class="edge">
<title>DocumentBagExplode
exploded&#45;&gt;exploded</title>
<path fill="none" stroke="black" d="M691.5,-215.7C691.5,-207.98 691.5,-198.71 691.5,-190.11"/>
<polygon fill="black" stroke="black" points="695,-190.1 691.5,-180.1 688,-190.1 695,-190.1"/>
</g>
<!-- Constant
_stats -->
<g id="node19" class="node">
<title>Constant
_stats</title>
<text text-anchor="middle" x="933.5" y="-518.3" font-family="Times,serif" font-size="14.00">Constant</text>
</g>
<!-- _stats -->
<g id="node20" class="node">
<title>_stats</title>
<ellipse fill="none" stroke="black" cx="933.5" cy="-450" rx="38.5" ry="18"/>
<text text-anchor="middle" x="933.5" y="-446.3" font-family="Times,serif" font-size="14.00">_stats</text>
</g>
<!-- Constant
_stats&#45;&gt;_stats -->
<g id="edge20" class="edge">
<title>Constant
_stats&#45;&gt;_stats</title>
<path fill="none" stroke="black" d="M933.5,-503.7C933.5,-495.98 933.5,-486.71 933.5,-478.11"/>
<polygon fill="black" stroke="black" points="937,-478.1 933.5,-468.1 930,-478.1 937,-478.1"/>
</g>
<!-- _stats&#45;&gt;BagPropertyExtractor
get_dicts -->
<g id="edge21" class="edge">
<title>_stats&#45;&gt;BagPropertyExtractor
get_dicts</title>
<path fill="none" stroke="black" d="M904.9,-437.84C898.88,-435.72 892.52,-433.65 886.5,-432 869.14,-427.23 780.29,-410.45 707.83,-397.03"/>
<polygon fill="black" stroke="black" points="708.19,-393.54 697.72,-395.16 706.92,-400.42 708.19,-393.54"/>
</g>
<!-- _stats&#45;&gt;DocumentBagMap
bag_apply -->
<g id="edge22" class="edge">
<title>_stats&#45;&gt;DocumentBagMap
bag_apply</title>
<path fill="none" stroke="black" d="M907.76,-436.49C887.17,-426.48 857.83,-412.22 833.53,-400.4"/>
<polygon fill="black" stroke="black" points="835.01,-397.23 824.49,-396.01 831.96,-403.53 835.01,-397.23"/>
</g>
<!-- FunctionOperator
stats -->
<g id="node21" class="node">
<title>FunctionOperator
stats</title>
<text text-anchor="middle" x="954.5" y="-374.3" font-family="Times,serif" font-size="14.00">FunctionOperator</text>
</g>
<!-- _stats&#45;&gt;FunctionOperator
stats -->
<g id="edge23" class="edge">
<title>_stats&#45;&gt;FunctionOperator
stats</title>
<path fill="none" stroke="black" d="M938.58,-432.05C940.92,-424.26 943.75,-414.82 946.38,-406.08"/>
<polygon fill="black" stroke="black" points="949.8,-406.86 949.32,-396.28 943.09,-404.85 949.8,-406.86"/>
</g>
<!-- stats -->
<g id="node22" class="node">
<title>stats</title>
<ellipse fill="none" stroke="black" cx="954.5" cy="-306" rx="34" ry="18"/>
<text text-anchor="middle" x="954.5" y="-302.3" font-family="Times,serif" font-size="14.00">stats</text>
</g>
<!-- FunctionOperator
stats&#45;&gt;stats -->
<g id="edge24" class="edge">
<title>FunctionOperator
stats&#45;&gt;stats</title>
<path fill="none" stroke="black" d="M954.5,-359.7C954.5,-351.98 954.5,-342.71 954.5,-334.11"/>
<polygon fill="black" stroke="black" points="958,-334.1 954.5,-324.1 951,-334.1 958,-334.1"/>
</g>
<!-- Configuration
verbosity -->
<g id="node23" class="node">
<title>Configuration
verbosity</title>
<polygon fill="none" stroke="black" points="490.83,-516.44 582.5,-504 674.17,-516.44 674.08,-536.56 490.92,-536.56 490.83,-516.44"/>
<text text-anchor="middle" x="582.5" y="-518.3" font-family="Times,serif" font-size="14.00">Configuration</text>
</g>
<!-- verbosity -->
<g id="node24" class="node">
<title>verbosity</title>
<ellipse fill="none" stroke="black" cx="609.5" cy="-450" rx="54" ry="18"/>
<text text-anchor="middle" x="609.5" y="-446.3" font-family="Times,serif" font-size="14.00">verbosity</text>
</g>
<!-- Configuration
verbosity&#45;&gt;verbosity -->
<g id="edge25" class="edge">
<title>Configuration
verbosity&#45;&gt;verbosity</title>
<path fill="none" stroke="black" d="M588.76,-504.76C591.87,-496.7 595.71,-486.74 599.24,-477.6"/>
<polygon fill="black" stroke="black" points="602.56,-478.71 602.9,-468.12 596.03,-476.19 602.56,-478.71"/>
</g>
<!-- verbosity&#45;&gt;BagPropertyExtractor
get_dicts -->
<g id="edge26" class="edge">
<title>verbosity&#45;&gt;BagPropertyExtractor
get_dicts</title>
<path fill="none" stroke="black" d="M609.5,-431.7C609.5,-423.98 609.5,-414.71 609.5,-406.11"/>
<polygon fill="black" stroke="black" points="613,-406.1 609.5,-396.1 606,-406.1 613,-406.1"/>
</g>
<!-- verbosity&#45;&gt;DocumentBagMap
bag_apply -->
<g id="edge27" class="edge">
<title>verbosity&#45;&gt;DocumentBagMap
bag_apply</title>
<path fill="none" stroke="black" d="M643.36,-435.83C669.45,-425.68 706.04,-411.46 736.07,-399.78"/>
<polygon fill="black" stroke="black" points="737.52,-402.97 745.57,-396.08 734.98,-396.45 737.52,-402.97"/>
</g>
<!-- Alias
exploded -->
<g id="node31" class="node">
<title>Alias
exploded</title>
<text text-anchor="middle" x="691.5" y="-86.3" font-family="Times,serif" font-size="14.00">Alias</text>
</g>
<!-- exploded&#45;&gt;Alias
exploded -->
<g id="edge34" class="edge">
<title>exploded&#45;&gt;Alias
exploded</title>
<path fill="none" stroke="black" d="M691.5,-143.7C691.5,-135.98 691.5,-126.71 691.5,-118.11"/>
<polygon fill="black" stroke="black" points="695,-118.1 691.5,-108.1 688,-118.1 695,-118.1"/>
</g>
<!-- e -->
<g id="node33" class="node">
<title>e</title>
<ellipse fill="none" stroke="black" cx="691.5" cy="-18" rx="27" ry="18"/>
<text text-anchor="middle" x="691.5" y="-14.3" font-family="Times,serif" font-size="14.00">e</text>
</g>
<!-- Alias
exploded&#45;&gt;e -->
<g id="edge37" class="edge">
<title>Alias
exploded&#45;&gt;e</title>
<path fill="none" stroke="black" d="M691.5,-71.7C691.5,-63.98 691.5,-54.71 691.5,-46.11"/>
<polygon fill="black" stroke="black" points="695,-46.1 691.5,-36.1 688,-46.1 695,-46.1"/>
</g>
<!-- configuration -->
<g id="node32" class="node">
<title>configuration</title>
<ellipse fill="none" stroke="black" cx="696.5" cy="-306" rx="72.29" ry="18"/>
<text text-anchor="middle" x="696.5" y="-302.3" font-family="Times,serif" font-size="14.00">configuration</text>
</g>
<!-- configuration&#45;&gt;DocumentBagCreator
apply -->
<g id="edge35" class="edge">
<title>configuration&#45;&gt;DocumentBagCreator
apply</title>
<path fill="none" stroke="black" d="M734.79,-290.67C761.79,-280.56 798.36,-266.87 828.47,-255.6"/>
<polygon fill="black" stroke="black" points="829.86,-258.82 838,-252.03 827.41,-252.26 829.86,-258.82"/>
</g>
<!-- configuration&#45;&gt;DocumentBagExplode
exploded -->
<g id="edge36" class="edge">
<title>configuration&#45;&gt;DocumentBagExplode
exploded</title>
<path fill="none" stroke="black" d="M695.26,-287.7C694.71,-279.98 694.05,-270.71 693.44,-262.11"/>
<polygon fill="black" stroke="black" points="696.93,-261.82 692.72,-252.1 689.95,-262.33 696.93,-261.82"/>
</g>
<!-- bag -->
<g id="node34" class="node">
<title>bag</title>
<ellipse fill="none" stroke="black" cx="1090.5" cy="-594" rx="28" ry="18"/>
<text text-anchor="middle" x="1090.5" y="-590.3" font-family="Times,serif" font-size="14.00">bag</text>
</g>
<!-- bag&#45;&gt;BagMapOperator
docs -->
<g id="edge38" class="edge">
<title>bag&#45;&gt;BagMapOperator
docs</title>
<path fill="none" stroke="black" d="M1062.7,-591.82C977.53,-587.95 712.18,-573.94 482.83,-540.09"/>
<polygon fill="black" stroke="black" points="483.04,-536.58 472.63,-538.57 482,-543.51 483.04,-536.58"/>
</g>
<!-- BagFilterOperator
file_path_list -->
<g id="node35" class="node">
<title>BagFilterOperator
file_path_list</title>
<text text-anchor="middle" x="1066.5" y="-518.3" font-family="Times,serif" font-size="14.00">BagFilterOperator</text>
</g>
<!-- bag&#45;&gt;BagFilterOperator
file_path_list -->
<g id="edge39" class="edge">
<title>bag&#45;&gt;BagFilterOperator
file_path_list</title>
<path fill="none" stroke="black" d="M1084.7,-576.05C1082,-568.18 1078.7,-558.62 1075.7,-549.79"/>
<polygon fill="black" stroke="black" points="1078.98,-548.58 1072.4,-540.28 1072.37,-550.87 1078.98,-548.58"/>
</g>
<!-- BagFilterOperator
dir_list -->
<g id="node36" class="node">
<title>BagFilterOperator
dir_list</title>
<text text-anchor="middle" x="1233.5" y="-518.3" font-family="Times,serif" font-size="14.00">BagFilterOperator</text>
</g>
<!-- bag&#45;&gt;BagFilterOperator
dir_list -->
<g id="edge40" class="edge">
<title>bag&#45;&gt;BagFilterOperator
dir_list</title>
<path fill="none" stroke="black" d="M1112.2,-582.37C1132.7,-572.35 1163.9,-557.06 1189.6,-544.5"/>
<polygon fill="black" stroke="black" points="1191.35,-547.54 1198.8,-540.01 1188.28,-541.25 1191.35,-547.54"/>
</g>
<!-- file_path_list -->
<g id="node37" class="node">
<title>file_path_list</title>
<ellipse fill="none" stroke="black" cx="1066.5" cy="-450" rx="69.59" ry="18"/>
<text text-anchor="middle" x="1066.5" y="-446.3" font-family="Times,serif" font-size="14.00">file_path_list</text>
</g>
<!-- BagFilterOperator
file_path_list&#45;&gt;file_path_list -->
<g id="edge41" class="edge">
<title>BagFilterOperator
file_path_list&#45;&gt;file_path_list</title>
<path fill="none" stroke="black" d="M1066.5,-503.7C1066.5,-495.98 1066.5,-486.71 1066.5,-478.11"/>
<polygon fill="black" stroke="black" points="1070,-478.1 1066.5,-468.1 1063,-478.1 1070,-478.1"/>
</g>
<!-- dir_list -->
<g id="node38" class="node">
<title>dir_list</title>
<ellipse fill="none" stroke="black" cx="1233.5" cy="-450" rx="43" ry="18"/>
<text text-anchor="middle" x="1233.5" y="-446.3" font-family="Times,serif" font-size="14.00">dir_list</text>
</g>
<!-- BagFilterOperator
dir_list&#45;&gt;dir_list -->
<g id="edge42" class="edge">
<title>BagFilterOperator
dir_list&#45;&gt;dir_list</title>
<path fill="none" stroke="black" d="M1233.5,-503.7C1233.5,-495.98 1233.5,-486.71 1233.5,-478.11"/>
<polygon fill="black" stroke="black" points="1237,-478.1 1233.5,-468.1 1230,-478.1 1237,-478.1"/>
</g>
<!-- Alias
source -->
<g id="node39" class="node">
<title>Alias
source</title>
<text text-anchor="middle" x="1350.5" y="-662.3" font-family="Times,serif" font-size="14.00">Alias</text>
</g>
<!-- root_path -->
<g id="node40" class="node">
<title>root_path</title>
<ellipse fill="none" stroke="black" cx="1374.5" cy="-594" rx="55.49" ry="18"/>
<text text-anchor="middle" x="1374.5" y="-590.3" font-family="Times,serif" font-size="14.00">root_path</text>
</g>
<!-- Alias
source&#45;&gt;root_path -->
<g id="edge43" class="edge">
<title>Alias
source&#45;&gt;root_path</title>
<path fill="none" stroke="black" d="M1356.4,-647.7C1359.1,-639.9 1362.3,-630.51 1365.3,-621.83"/>
<polygon fill="black" stroke="black" points="1368.7,-622.69 1368.6,-612.1 1362.07,-620.45 1368.7,-622.69"/>
</g>
<!-- PathLoader
paths -->
<g id="node41" class="node">
<title>PathLoader
paths</title>
<text text-anchor="middle" x="1374.5" y="-518.3" font-family="Times,serif" font-size="14.00">PathLoader</text>
</g>
<!-- root_path&#45;&gt;PathLoader
paths -->
<g id="edge44" class="edge">
<title>root_path&#45;&gt;PathLoader
paths</title>
<path fill="none" stroke="black" d="M1374.5,-575.7C1374.5,-567.98 1374.5,-558.71 1374.5,-550.11"/>
<polygon fill="black" stroke="black" points="1378,-550.1 1374.5,-540.1 1371,-550.1 1378,-550.1"/>
</g>
<!-- paths -->
<g id="node42" class="node">
<title>paths</title>
<ellipse fill="none" stroke="black" cx="1374.5" cy="-450" rx="36.5" ry="18"/>
<text text-anchor="middle" x="1374.5" y="-446.3" font-family="Times,serif" font-size="14.00">paths</text>
</g>
<!-- PathLoader
paths&#45;&gt;paths -->
<g id="edge45" class="edge">
<title>PathLoader
paths&#45;&gt;paths</title>
<path fill="none" stroke="black" d="M1374.5,-503.7C1374.5,-495.98 1374.5,-486.71 1374.5,-478.11"/>
<polygon fill="black" stroke="black" points="1378,-478.1 1374.5,-468.1 1371,-478.1 1378,-478.1"/>
</g>
<!-- source -->
<g id="node43" class="node">
<title>source</title>
<ellipse fill="none" stroke="black" cx="1196.5" cy="-738" rx="41.69" ry="18"/>
<text text-anchor="middle" x="1196.5" y="-734.3" font-family="Times,serif" font-size="14.00">source</text>
</g>
<!-- source&#45;&gt;Alias
source -->
<g id="edge46" class="edge">
<title>source&#45;&gt;Alias
source</title>
<path fill="none" stroke="black" d="M1224,-724.49C1249.2,-713.05 1286.5,-696.07 1314.1,-683.52"/>
<polygon fill="black" stroke="black" points="1315.82,-686.59 1323.5,-679.29 1312.94,-680.2 1315.82,-686.59"/>
</g>
<!-- FunctionOperator
bag -->
<g id="node44" class="node">
<title>FunctionOperator
bag</title>
<text text-anchor="middle" x="1138.5" y="-662.3" font-family="Times,serif" font-size="14.00">FunctionOperator</text>
</g>
<!-- source&#45;&gt;FunctionOperator
bag -->
<g id="edge47" class="edge">
<title>source&#45;&gt;FunctionOperator
bag</title>
<path fill="none" stroke="black" d="M1183,-720.76C1175.9,-712.18 1167.1,-701.46 1159.1,-691.86"/>
<polygon fill="black" stroke="black" points="1161.77,-689.6 1152.7,-684.12 1156.38,-694.06 1161.77,-689.6"/>
</g>
<!-- FunctionOperator
bag&#45;&gt;bag -->
<g id="edge48" class="edge">
<title>FunctionOperator
bag&#45;&gt;bag</title>
<path fill="none" stroke="black" d="M1126.6,-647.7C1120.7,-639.02 1113.4,-628.37 1106.9,-618.92"/>
<polygon fill="black" stroke="black" points="1109.76,-616.91 1101.2,-610.67 1104,-620.89 1109.76,-616.91"/>
</g>
<!-- _exclude -->
<g id="node45" class="node">
<title>_exclude</title>
<ellipse fill="none" stroke="black" cx="1250.5" cy="-594" rx="50.89" ry="18"/>
<text text-anchor="middle" x="1250.5" y="-590.3" font-family="Times,serif" font-size="14.00">_exclude</text>
</g>
<!-- _exclude&#45;&gt;PathLoader
paths -->
<g id="edge49" class="edge">
<title>_exclude&#45;&gt;PathLoader
paths</title>
<path fill="none" stroke="black" d="M1276.5,-578.33C1293.5,-568.7 1316.1,-555.95 1335.3,-545.11"/>
<polygon fill="black" stroke="black" points="1337.19,-548.06 1344.2,-540.12 1333.77,-541.96 1337.19,-548.06"/>
</g>
</g>
</svg>
