<?xml version="1.0" encoding="UTF-8" standalone="no"?>
<!DOCTYPE svg PUBLIC "-//W3C//DTD SVG 1.1//EN"
 "http://www.w3.org/Graphics/SVG/1.1/DTD/svg11.dtd">
<!-- Generated by graphviz version 2.43.0 (0)
 -->
<!-- Pages: 1 -->
<svg width="817pt" height="764pt"
 viewBox="0.00 0.00 817.50 764.00" xmlns="http://www.w3.org/2000/svg" xmlns:xlink="http://www.w3.org/1999/xlink">
<g id="graph0" class="graph" transform="scale(1 1) rotate(0) translate(4 760)">
<polygon fill="white" stroke="transparent" points="-4,4 -4,-760 813.5,-760 813.5,4 -4,4"/>
<!-- Configuration
doc_configuration -->
<g id="node1" class="node">
<title>Configuration
doc_configuration</title>
<polygon fill="none" stroke="black" points="209.83,-660.44 301.5,-648 393.17,-660.44 393.08,-680.56 209.91,-680.56 209.83,-660.44"/>
<text text-anchor="middle" x="301.5" y="-662.3" font-family="Times,serif" font-size="14.00">Configuration</text>
</g>
<!-- doc_configuration -->
<g id="node2" class="node">
<title>doc_configuration</title>
<ellipse fill="none" stroke="black" cx="301.5" cy="-594" rx="93" ry="18"/>
<text text-anchor="middle" x="301.5" y="-590.3" font-family="Times,serif" font-size="14.00">doc_configuration</text>
</g>
<!-- Configuration
doc_configuration&#45;&gt;doc_configuration -->
<g id="edge1" class="edge">
<title>Configuration
doc_configuration&#45;&gt;doc_configuration</title>
<path fill="none" stroke="black" d="M301.5,-647.7C301.5,-639.98 301.5,-630.71 301.5,-622.11"/>
<polygon fill="black" stroke="black" points="305,-622.1 301.5,-612.1 298,-622.1 305,-622.1"/>
</g>
<!-- BagMapOperator
docs -->
<g id="node3" class="node">
<title>BagMapOperator
docs</title>
<text text-anchor="middle" x="387.5" y="-518.3" font-family="Times,serif" font-size="14.00">BagMapOperator</text>
</g>
<!-- doc_configuration&#45;&gt;BagMapOperator
docs -->
<g id="edge2" class="edge">
<title>doc_configuration&#45;&gt;BagMapOperator
docs</title>
<path fill="none" stroke="black" d="M321.88,-576.41C332.78,-567.54 346.39,-556.47 358.38,-546.71"/>
<polygon fill="black" stroke="black" points="360.83,-549.23 366.37,-540.2 356.4,-543.8 360.83,-549.23"/>
</g>
<!-- LambdaOperator
vectorizer -->
<g id="node4" class="node">
<title>LambdaOperator
vectorizer</title>
<text text-anchor="middle" x="172.5" y="-518.3" font-family="Times,serif" font-size="14.00">LambdaOperator</text>
</g>
<!-- doc_configuration&#45;&gt;LambdaOperator
vectorizer -->
<g id="edge3" class="edge">
<title>doc_configuration&#45;&gt;LambdaOperator
vectorizer</title>
<path fill="none" stroke="black" d="M271.58,-576.76C254.19,-567.32 232.02,-555.3 213.07,-545.01"/>
<polygon fill="black" stroke="black" points="214.52,-541.81 204.06,-540.12 211.18,-547.97 214.52,-541.81"/>
</g>
<!-- docs -->
<g id="node5" class="node">
<title>docs</title>
<ellipse fill="none" stroke="black" cx="409.5" cy="-450" rx="32" ry="18"/>
<text text-anchor="middle" x="409.5" y="-446.3" font-family="Times,serif" font-size="14.00">docs</text>
</g>
<!-- BagMapOperator
docs&#45;&gt;docs -->
<g id="edge4" class="edge">
<title>BagMapOperator
docs&#45;&gt;docs</title>
<path fill="none" stroke="black" d="M392.94,-503.7C395.39,-495.9 398.34,-486.51 401.07,-477.83"/>
<polygon fill="black" stroke="black" points="404.47,-478.69 404.13,-468.1 397.79,-476.59 404.47,-478.69"/>
</g>
<!-- vectorizer -->
<g id="node6" class="node">
<title>vectorizer</title>
<ellipse fill="none" stroke="black" cx="177.5" cy="-234" rx="58" ry="18"/>
<text text-anchor="middle" x="177.5" y="-230.3" font-family="Times,serif" font-size="14.00">vectorizer</text>
</g>
<!-- LambdaOperator
vectorizer&#45;&gt;vectorizer -->
<g id="edge5" class="edge">
<title>LambdaOperator
vectorizer&#45;&gt;vectorizer</title>
<path fill="none" stroke="black" d="M155.85,-503.57C147.25,-493.77 137.19,-480.93 130.5,-468 108.05,-424.56 97.44,-407.39 109.5,-360 119.05,-322.47 142.4,-284.04 159.07,-259.87"/>
<polygon fill="black" stroke="black" points="161.96,-261.84 164.87,-251.65 156.24,-257.8 161.96,-261.84"/>
</g>
<!-- LambdaOperator
take -->
<g id="node7" class="node">
<title>LambdaOperator
take</title>
<text text-anchor="middle" x="584.5" y="-374.3" font-family="Times,serif" font-size="14.00">LambdaOperator</text>
</g>
<!-- docs&#45;&gt;LambdaOperator
take -->
<g id="edge6" class="edge">
<title>docs&#45;&gt;LambdaOperator
take</title>
<path fill="none" stroke="black" d="M434.95,-438.82C460.29,-428.68 499.95,-412.82 532.05,-399.98"/>
<polygon fill="black" stroke="black" points="533.76,-403.06 541.75,-396.1 531.16,-396.56 533.76,-403.06"/>
</g>
<!-- LambdaOperator
compute -->
<g id="node8" class="node">
<title>LambdaOperator
compute</title>
<text text-anchor="middle" x="740.5" y="-374.3" font-family="Times,serif" font-size="14.00">LambdaOperator</text>
</g>
<!-- docs&#45;&gt;LambdaOperator
compute -->
<g id="edge7" class="edge">
<title>docs&#45;&gt;LambdaOperator
compute</title>
<path fill="none" stroke="black" d="M437.16,-440.9C447.84,-437.91 460.19,-434.61 471.5,-432 552.63,-413.26 576.17,-413.18 661.36,-396.19"/>
<polygon fill="black" stroke="black" points="662.08,-399.61 671.2,-394.21 660.7,-392.75 662.08,-399.61"/>
</g>
<!-- BagPropertyExtractor
get_dicts -->
<g id="node9" class="node">
<title>BagPropertyExtractor
get_dicts</title>
<text text-anchor="middle" x="409.5" y="-374.3" font-family="Times,serif" font-size="14.00">BagPropertyExtractor</text>
</g>
<!-- docs&#45;&gt;BagPropertyExtractor
get_dicts -->
<g id="edge8" class="edge">
<title>docs&#45;&gt;BagPropertyExtractor
get_dicts</title>
<path fill="none" stroke="black" d="M409.5,-431.7C409.5,-423.98 409.5,-414.71 409.5,-406.11"/>
<polygon fill="black" stroke="black" points="413,-406.1 409.5,-396.1 406,-406.1 413,-406.1"/>
</g>
<!-- DocumentBagExtractor
e -->
<g id="node10" class="node">
<title>DocumentBagExtractor
e</title>
<text text-anchor="middle" x="211.5" y="-374.3" font-family="Times,serif" font-size="14.00">DocumentBagExtractor</text>
</g>
<!-- docs&#45;&gt;DocumentBagExtractor
e -->
<g id="edge9" class="edge">
<title>docs&#45;&gt;DocumentBagExtractor
e</title>
<path fill="none" stroke="black" d="M383.21,-439.7C354.34,-429.5 307.08,-412.79 269.44,-399.48"/>
<polygon fill="black" stroke="black" points="270.19,-396.03 259.6,-396 267.86,-402.63 270.19,-396.03"/>
</g>
<!-- ChromaIndexFromBag
chroma_index
compute_index
query_chroma -->
<g id="node11" class="node">
<title>ChromaIndexFromBag
chroma_index
compute_index
query_chroma</title>
<text text-anchor="middle" x="249.5" y="-86.3" font-family="Times,serif" font-size="14.00">ChromaIndexFromBag</text>
</g>
<!-- vectorizer&#45;&gt;ChromaIndexFromBag
chroma_index
compute_index
query_chroma -->
<g id="edge10" class="edge">
<title>vectorizer&#45;&gt;ChromaIndexFromBag
chroma_index
compute_index
query_chroma</title>
<path fill="none" stroke="black" d="M186.05,-216.15C198.43,-191.73 221.48,-146.26 236.13,-117.38"/>
<polygon fill="black" stroke="black" points="239.35,-118.77 240.75,-108.27 233.1,-115.61 239.35,-118.77"/>
</g>
<!-- take -->
<g id="node12" class="node">
<title>take</title>
<ellipse fill="none" stroke="black" cx="584.5" cy="-306" rx="30.59" ry="18"/>
<text text-anchor="middle" x="584.5" y="-302.3" font-family="Times,serif" font-size="14.00">take</text>
</g>
<!-- LambdaOperator
take&#45;&gt;take -->
<g id="edge11" class="edge">
<title>LambdaOperator
take&#45;&gt;take</title>
<path fill="none" stroke="black" d="M584.5,-359.7C584.5,-351.98 584.5,-342.71 584.5,-334.11"/>
<polygon fill="black" stroke="black" points="588,-334.1 584.5,-324.1 581,-334.1 588,-334.1"/>
</g>
<!-- compute -->
<g id="node13" class="node">
<title>compute</title>
<ellipse fill="none" stroke="black" cx="740.5" cy="-306" rx="50.89" ry="18"/>
<text text-anchor="middle" x="740.5" y="-302.3" font-family="Times,serif" font-size="14.00">compute</text>
</g>
<!-- LambdaOperator
compute&#45;&gt;compute -->
<g id="edge12" class="edge">
<title>LambdaOperator
compute&#45;&gt;compute</title>
<path fill="none" stroke="black" d="M740.5,-359.7C740.5,-351.98 740.5,-342.71 740.5,-334.11"/>
<polygon fill="black" stroke="black" points="744,-334.1 740.5,-324.1 737,-334.1 744,-334.1"/>
</g>
<!-- get_dicts -->
<g id="node14" class="node">
<title>get_dicts</title>
<ellipse fill="none" stroke="black" cx="387.5" cy="-306" rx="52.79" ry="18"/>
<text text-anchor="middle" x="387.5" y="-302.3" font-family="Times,serif" font-size="14.00">get_dicts</text>
</g>
<!-- BagPropertyExtractor
get_dicts&#45;&gt;get_dicts -->
<g id="edge13" class="edge">
<title>BagPropertyExtractor
get_dicts&#45;&gt;get_dicts</title>
<path fill="none" stroke="black" d="M404.07,-359.7C401.61,-351.9 398.66,-342.51 395.94,-333.83"/>
<polygon fill="black" stroke="black" points="399.22,-332.59 392.88,-324.1 392.54,-334.69 399.22,-332.59"/>
</g>
<!-- e -->
<g id="node15" class="node">
<title>e</title>
<ellipse fill="none" stroke="black" cx="211.5" cy="-306" rx="27" ry="18"/>
<text text-anchor="middle" x="211.5" y="-302.3" font-family="Times,serif" font-size="14.00">e</text>
</g>
<!-- DocumentBagExtractor
e&#45;&gt;e -->
<g id="edge14" class="edge">
<title>DocumentBagExtractor
e&#45;&gt;e</title>
<path fill="none" stroke="black" d="M211.5,-359.7C211.5,-351.98 211.5,-342.71 211.5,-334.11"/>
<polygon fill="black" stroke="black" points="215,-334.1 211.5,-324.1 208,-334.1 215,-334.1"/>
</g>
<!-- chroma_index -->
<g id="node24" class="node">
<title>chroma_index</title>
<ellipse fill="none" stroke="black" cx="75.5" cy="-18" rx="75.5" ry="18"/>
<text text-anchor="middle" x="75.5" y="-14.3" font-family="Times,serif" font-size="14.00">chroma_index</text>
</g>
<!-- ChromaIndexFromBag
chroma_index
compute_index
query_chroma&#45;&gt;chroma_index -->
<g id="edge24" class="edge">
<title>ChromaIndexFromBag
chroma_index
compute_index
query_chroma&#45;&gt;chroma_index</title>
<path fill="none" stroke="black" d="M206.94,-71.88C181.13,-61.49 148.19,-48.24 121.75,-37.6"/>
<polygon fill="black" stroke="black" points="122.9,-34.3 112.32,-33.81 120.29,-40.79 122.9,-34.3"/>
</g>
<!-- compute_index -->
<g id="node25" class="node">
<title>compute_index</title>
<ellipse fill="none" stroke="black" cx="249.5" cy="-18" rx="80.69" ry="18"/>
<text text-anchor="middle" x="249.5" y="-14.3" font-family="Times,serif" font-size="14.00">compute_index</text>
</g>
<!-- ChromaIndexFromBag
chroma_index
compute_index
query_chroma&#45;&gt;compute_index -->
<g id="edge25" class="edge">
<title>ChromaIndexFromBag
chroma_index
compute_index
query_chroma&#45;&gt;compute_index</title>
<path fill="none" stroke="black" d="M249.5,-71.7C249.5,-63.98 249.5,-54.71 249.5,-46.11"/>
<polygon fill="black" stroke="black" points="253,-46.1 249.5,-36.1 246,-46.1 253,-46.1"/>
</g>
<!-- query_chroma -->
<g id="node26" class="node">
<title>query_chroma</title>
<ellipse fill="none" stroke="black" cx="424.5" cy="-18" rx="76.89" ry="18"/>
<text text-anchor="middle" x="424.5" y="-14.3" font-family="Times,serif" font-size="14.00">query_chroma</text>
</g>
<!-- ChromaIndexFromBag
chroma_index
compute_index
query_chroma&#45;&gt;query_chroma -->
<g id="edge26" class="edge">
<title>ChromaIndexFromBag
chroma_index
compute_index
query_chroma&#45;&gt;query_chroma</title>
<path fill="none" stroke="black" d="M292.31,-71.88C318.27,-61.49 351.39,-48.24 377.99,-37.6"/>
<polygon fill="black" stroke="black" points="379.48,-40.78 387.47,-33.81 376.88,-34.28 379.48,-40.78"/>
</g>
<!-- LambdaOperator
idx_dict -->
<g id="node16" class="node">
<title>LambdaOperator
idx_dict</title>
<text text-anchor="middle" x="365.5" y="-230.3" font-family="Times,serif" font-size="14.00">LambdaOperator</text>
</g>
<!-- get_dicts&#45;&gt;LambdaOperator
idx_dict -->
<g id="edge15" class="edge">
<title>get_dicts&#45;&gt;LambdaOperator
idx_dict</title>
<path fill="none" stroke="black" d="M382.18,-288.05C379.73,-280.26 376.76,-270.82 374.01,-262.08"/>
<polygon fill="black" stroke="black" points="377.26,-260.77 370.93,-252.28 370.59,-262.87 377.26,-260.77"/>
</g>
<!-- idx_dict -->
<g id="node22" class="node">
<title>idx_dict</title>
<ellipse fill="none" stroke="black" cx="304.5" cy="-162" rx="47" ry="18"/>
<text text-anchor="middle" x="304.5" y="-158.3" font-family="Times,serif" font-size="14.00">idx_dict</text>
</g>
<!-- LambdaOperator
idx_dict&#45;&gt;idx_dict -->
<g id="edge21" class="edge">
<title>LambdaOperator
idx_dict&#45;&gt;idx_dict</title>
<path fill="none" stroke="black" d="M350.42,-215.7C342.93,-207.09 333.74,-196.55 325.56,-187.17"/>
<polygon fill="black" stroke="black" points="328.19,-184.87 318.99,-179.62 322.91,-189.46 328.19,-184.87"/>
</g>
<!-- bag -->
<g id="node17" class="node">
<title>bag</title>
<ellipse fill="none" stroke="black" cx="550.5" cy="-594" rx="28" ry="18"/>
<text text-anchor="middle" x="550.5" y="-590.3" font-family="Times,serif" font-size="14.00">bag</text>
</g>
<!-- bag&#45;&gt;BagMapOperator
docs -->
<g id="edge16" class="edge">
<title>bag&#45;&gt;BagMapOperator
docs</title>
<path fill="none" stroke="black" d="M527.84,-583.27C504.4,-573.2 467.05,-557.16 436.77,-544.16"/>
<polygon fill="black" stroke="black" points="437.78,-540.78 427.21,-540.05 435.01,-547.22 437.78,-540.78"/>
</g>
<!-- BagFilterOperator
file_path_list -->
<g id="node18" class="node">
<title>BagFilterOperator
file_path_list</title>
<text text-anchor="middle" x="550.5" y="-518.3" font-family="Times,serif" font-size="14.00">BagFilterOperator</text>
</g>
<!-- bag&#45;&gt;BagFilterOperator
file_path_list -->
<g id="edge17" class="edge">
<title>bag&#45;&gt;BagFilterOperator
file_path_list</title>
<path fill="none" stroke="black" d="M550.5,-575.7C550.5,-567.98 550.5,-558.71 550.5,-550.11"/>
<polygon fill="black" stroke="black" points="554,-550.1 550.5,-540.1 547,-550.1 554,-550.1"/>
</g>
<!-- BagFilterOperator
dir_list -->
<g id="node19" class="node">
<title>BagFilterOperator
dir_list</title>
<text text-anchor="middle" x="717.5" y="-518.3" font-family="Times,serif" font-size="14.00">BagFilterOperator</text>
</g>
<!-- bag&#45;&gt;BagFilterOperator
dir_list -->
<g id="edge18" class="edge">
<title>bag&#45;&gt;BagFilterOperator
dir_list</title>
<path fill="none" stroke="black" d="M573.37,-583.41C597.42,-573.34 636.01,-557.16 667.22,-544.08"/>
<polygon fill="black" stroke="black" points="668.77,-547.22 676.64,-540.13 666.06,-540.77 668.77,-547.22"/>
</g>
<!-- file_path_list -->
<g id="node20" class="node">
<title>file_path_list</title>
<ellipse fill="none" stroke="black" cx="550.5" cy="-450" rx="69.59" ry="18"/>
<text text-anchor="middle" x="550.5" y="-446.3" font-family="Times,serif" font-size="14.00">file_path_list</text>
</g>
<!-- BagFilterOperator
file_path_list&#45;&gt;file_path_list -->
<g id="edge19" class="edge">
<title>BagFilterOperator
file_path_list&#45;&gt;file_path_list</title>
<path fill="none" stroke="black" d="M550.5,-503.7C550.5,-495.98 550.5,-486.71 550.5,-478.11"/>
<polygon fill="black" stroke="black" points="554,-478.1 550.5,-468.1 547,-478.1 554,-478.1"/>
</g>
<!-- dir_list -->
<g id="node21" class="node">
<title>dir_list</title>
<ellipse fill="none" stroke="black" cx="717.5" cy="-450" rx="43" ry="18"/>
<text text-anchor="middle" x="717.5" y="-446.3" font-family="Times,serif" font-size="14.00">dir_list</text>
</g>
<!-- BagFilterOperator
dir_list&#45;&gt;dir_list -->
<g id="edge20" class="edge">
<title>BagFilterOperator
dir_list&#45;&gt;dir_list</title>
<path fill="none" stroke="black" d="M717.5,-503.7C717.5,-495.98 717.5,-486.71 717.5,-478.11"/>
<polygon fill="black" stroke="black" points="721,-478.1 717.5,-468.1 714,-478.1 721,-478.1"/>
</g>
<!-- idx_dict&#45;&gt;ChromaIndexFromBag
chroma_index
compute_index
query_chroma -->
<g id="edge22" class="edge">
<title>idx_dict&#45;&gt;ChromaIndexFromBag
chroma_index
compute_index
query_chroma</title>
<path fill="none" stroke="black" d="M291.47,-144.41C284.88,-136.03 276.75,-125.68 269.41,-116.33"/>
<polygon fill="black" stroke="black" points="272.14,-114.14 263.21,-108.45 266.64,-118.47 272.14,-114.14"/>
</g>
<!-- configuration -->
<g id="node23" class="node">
<title>configuration</title>
<ellipse fill="none" stroke="black" cx="211.5" cy="-450" rx="72.29" ry="18"/>
<text text-anchor="middle" x="211.5" y="-446.3" font-family="Times,serif" font-size="14.00">configuration</text>
</g>
<!-- configuration&#45;&gt;DocumentBagExtractor
e -->
<g id="edge23" class="edge">
<title>configuration&#45;&gt;DocumentBagExtractor
e</title>
<path fill="none" stroke="black" d="M211.5,-431.7C211.5,-423.98 211.5,-414.71 211.5,-406.11"/>
<polygon fill="black" stroke="black" points="215,-406.1 211.5,-396.1 208,-406.1 215,-406.1"/>
</g>
<!-- Alias
source -->
<g id="node27" class="node">
<title>Alias
source</title>
<text text-anchor="middle" x="664.5" y="-662.3" font-family="Times,serif" font-size="14.00">Alias</text>
</g>
<!-- root_path -->
<g id="node28" class="node">
<title>root_path</title>
<ellipse fill="none" stroke="black" cx="664.5" cy="-594" rx="55.49" ry="18"/>
<text text-anchor="middle" x="664.5" y="-590.3" font-family="Times,serif" font-size="14.00">root_path</text>
</g>
<!-- Alias
source&#45;&gt;root_path -->
<g id="edge27" class="edge">
<title>Alias
source&#45;&gt;root_path</title>
<path fill="none" stroke="black" d="M664.5,-647.7C664.5,-639.98 664.5,-630.71 664.5,-622.11"/>
<polygon fill="black" stroke="black" points="668,-622.1 664.5,-612.1 661,-622.1 668,-622.1"/>
</g>
<!-- source -->
<g id="node29" class="node">
<title>source</title>
<ellipse fill="none" stroke="black" cx="607.5" cy="-738" rx="41.69" ry="18"/>
<text text-anchor="middle" x="607.5" y="-734.3" font-family="Times,serif" font-size="14.00">source</text>
</g>
<!-- source&#45;&gt;Alias
source -->
<g id="edge28" class="edge">
<title>source&#45;&gt;Alias
source</title>
<path fill="none" stroke="black" d="M620.72,-720.76C627.64,-712.27 636.27,-701.68 644.03,-692.15"/>
<polygon fill="black" stroke="black" points="646.96,-694.09 650.56,-684.12 641.53,-689.67 646.96,-694.09"/>
</g>
<!-- LambdaOperator
bag -->
<g id="node30" class="node">
<title>LambdaOperator
bag</title>
<text text-anchor="middle" x="550.5" y="-662.3" font-family="Times,serif" font-size="14.00">LambdaOperator</text>
</g>
<!-- source&#45;&gt;LambdaOperator
bag -->
<g id="edge29" class="edge">
<title>source&#45;&gt;LambdaOperator
bag</title>
<path fill="none" stroke="black" d="M594.28,-720.76C587.36,-712.27 578.74,-701.68 570.98,-692.15"/>
<polygon fill="black" stroke="black" points="573.47,-689.67 564.45,-684.12 568.04,-694.09 573.47,-689.67"/>
</g>
<!-- LambdaOperator
bag&#45;&gt;bag -->
<g id="edge30" class="edge">
<title>LambdaOperator
bag&#45;&gt;bag</title>
<path fill="none" stroke="black" d="M550.5,-647.7C550.5,-639.98 550.5,-630.71 550.5,-622.11"/>
<polygon fill="black" stroke="black" points="554,-622.1 550.5,-612.1 547,-622.1 554,-622.1"/>
</g>
</g>
</svg>
