<?xml version="1.0" encoding="UTF-8" standalone="no"?>
<!DOCTYPE svg PUBLIC "-//W3C//DTD SVG 1.1//EN"
 "http://www.w3.org/Graphics/SVG/1.1/DTD/svg11.dtd">
<!-- Generated by graphviz version 2.43.0 (0)
 -->
<!-- Pages: 1 -->
<svg width="1084pt" height="1196pt"
 viewBox="0.00 0.00 1083.90 1196.00" xmlns="http://www.w3.org/2000/svg" xmlns:xlink="http://www.w3.org/1999/xlink">
<g id="graph0" class="graph" transform="scale(1 1) rotate(0) translate(4 1192)">
<polygon fill="white" stroke="transparent" points="-4,4 -4,-1192 1079.9,-1192 1079.9,4 -4,4"/>
<!-- Configuration
doc_configuration -->
<g id="node1" class="node">
<title>Configuration
doc_configuration</title>
<polygon fill="none" stroke="black" points="75.83,-804.44 167.5,-792 259.17,-804.44 259.08,-824.56 75.92,-824.56 75.83,-804.44"/>
<text text-anchor="middle" x="167.5" y="-806.3" font-family="Times,serif" font-size="14.00">Configuration</text>
</g>
<!-- doc_configuration -->
<g id="node2" class="node">
<title>doc_configuration</title>
<ellipse fill="none" stroke="black" cx="167.5" cy="-738" rx="93" ry="18"/>
<text text-anchor="middle" x="167.5" y="-734.3" font-family="Times,serif" font-size="14.00">doc_configuration</text>
</g>
<!-- Configuration
doc_configuration&#45;&gt;doc_configuration -->
<g id="edge1" class="edge">
<title>Configuration
doc_configuration&#45;&gt;doc_configuration</title>
<path fill="none" stroke="black" d="M167.5,-791.7C167.5,-783.98 167.5,-774.71 167.5,-766.11"/>
<polygon fill="black" stroke="black" points="171,-766.1 167.5,-756.1 164,-766.1 171,-766.1"/>
</g>
<!-- FunctionOperator
Document -->
<g id="node3" class="node">
<title>FunctionOperator
Document</title>
<text text-anchor="middle" x="152.5" y="-662.3" font-family="Times,serif" font-size="14.00">FunctionOperator</text>
</g>
<!-- doc_configuration&#45;&gt;FunctionOperator
Document -->
<g id="edge2" class="edge">
<title>doc_configuration&#45;&gt;FunctionOperator
Document</title>
<path fill="none" stroke="black" d="M163.79,-719.7C162.14,-711.98 160.15,-702.71 158.31,-694.11"/>
<polygon fill="black" stroke="black" points="161.68,-693.15 156.17,-684.1 154.84,-694.61 161.68,-693.15"/>
</g>
<!-- BagMapOperator
docs -->
<g id="node4" class="node">
<title>BagMapOperator
docs</title>
<text text-anchor="middle" x="358.5" y="-518.3" font-family="Times,serif" font-size="14.00">BagMapOperator</text>
</g>
<!-- doc_configuration&#45;&gt;BagMapOperator
docs -->
<g id="edge3" class="edge">
<title>doc_configuration&#45;&gt;BagMapOperator
docs</title>
<path fill="none" stroke="black" d="M190.61,-720.56C203.81,-710.66 220.31,-697.41 233.5,-684 256.34,-660.78 310.96,-587.71 339.85,-548.48"/>
<polygon fill="black" stroke="black" points="342.83,-550.33 345.94,-540.2 337.2,-546.18 342.83,-550.33"/>
</g>
<!-- Document -->
<g id="node5" class="node">
<title>Document</title>
<ellipse fill="none" stroke="black" cx="143.5" cy="-594" rx="58" ry="18"/>
<text text-anchor="middle" x="143.5" y="-590.3" font-family="Times,serif" font-size="14.00">Document</text>
</g>
<!-- FunctionOperator
Document&#45;&gt;Document -->
<g id="edge4" class="edge">
<title>FunctionOperator
Document&#45;&gt;Document</title>
<path fill="none" stroke="black" d="M150.28,-647.7C149.28,-639.98 148.09,-630.71 146.99,-622.11"/>
<polygon fill="black" stroke="black" points="150.45,-621.57 145.7,-612.1 143.51,-622.47 150.45,-621.57"/>
</g>
<!-- docs -->
<g id="node6" class="node">
<title>docs</title>
<ellipse fill="none" stroke="black" cx="429.5" cy="-450" rx="32" ry="18"/>
<text text-anchor="middle" x="429.5" y="-446.3" font-family="Times,serif" font-size="14.00">docs</text>
</g>
<!-- BagMapOperator
docs&#45;&gt;docs -->
<g id="edge5" class="edge">
<title>BagMapOperator
docs&#45;&gt;docs</title>
<path fill="none" stroke="black" d="M376.05,-503.7C385.34,-494.53 396.86,-483.18 406.83,-473.35"/>
<polygon fill="black" stroke="black" points="409.42,-475.71 414.08,-466.2 404.5,-470.73 409.42,-475.71"/>
</g>
<!-- FunctionOperator
vectorizer -->
<g id="node7" class="node">
<title>FunctionOperator
vectorizer</title>
<text text-anchor="middle" x="125.5" y="-518.3" font-family="Times,serif" font-size="14.00">FunctionOperator</text>
</g>
<!-- Document&#45;&gt;FunctionOperator
vectorizer -->
<g id="edge6" class="edge">
<title>Document&#45;&gt;FunctionOperator
vectorizer</title>
<path fill="none" stroke="black" d="M139.05,-575.7C137.05,-567.9 134.63,-558.51 132.4,-549.83"/>
<polygon fill="black" stroke="black" points="135.78,-548.91 129.9,-540.1 129,-550.66 135.78,-548.91"/>
</g>
<!-- BagPropertyExtractor
get_dicts -->
<g id="node8" class="node">
<title>BagPropertyExtractor
get_dicts</title>
<text text-anchor="middle" x="609.5" y="-374.3" font-family="Times,serif" font-size="14.00">BagPropertyExtractor</text>
</g>
<!-- docs&#45;&gt;BagPropertyExtractor
get_dicts -->
<g id="edge7" class="edge">
<title>docs&#45;&gt;BagPropertyExtractor
get_dicts</title>
<path fill="none" stroke="black" d="M454.91,-439.12C481.02,-428.97 522.45,-412.85 555.85,-399.86"/>
<polygon fill="black" stroke="black" points="557.43,-403 565.49,-396.12 554.9,-396.47 557.43,-403"/>
</g>
<!-- DocumentBagMap
bag_apply -->
<g id="node9" class="node">
<title>DocumentBagMap
bag_apply</title>
<text text-anchor="middle" x="789.5" y="-374.3" font-family="Times,serif" font-size="14.00">DocumentBagMap</text>
</g>
<!-- docs&#45;&gt;DocumentBagMap
bag_apply -->
<g id="edge8" class="edge">
<title>docs&#45;&gt;DocumentBagMap
bag_apply</title>
<path fill="none" stroke="black" d="M459.45,-443.4C508.54,-434.2 609.48,-415.15 704.76,-396.33"/>
<polygon fill="black" stroke="black" points="705.72,-399.71 714.85,-394.34 704.36,-392.84 705.72,-399.71"/>
</g>
<!-- ChromaIndexFromBag
add_to_chroma -->
<g id="node10" class="node">
<title>ChromaIndexFromBag
add_to_chroma</title>
<text text-anchor="middle" x="89.5" y="-374.3" font-family="Times,serif" font-size="14.00">ChromaIndexFromBag</text>
</g>
<!-- docs&#45;&gt;ChromaIndexFromBag
add_to_chroma -->
<g id="edge9" class="edge">
<title>docs&#45;&gt;ChromaIndexFromBag
add_to_chroma</title>
<path fill="none" stroke="black" d="M399.92,-442.91C351.93,-433.03 255.15,-413.1 182.34,-398.11"/>
<polygon fill="black" stroke="black" points="182.73,-394.62 172.23,-396.03 181.32,-401.47 182.73,-394.62"/>
</g>
<!-- FunctionOperator
take -->
<g id="node11" class="node">
<title>FunctionOperator
take</title>
<text text-anchor="middle" x="269.5" y="-374.3" font-family="Times,serif" font-size="14.00">FunctionOperator</text>
</g>
<!-- docs&#45;&gt;FunctionOperator
take -->
<g id="edge10" class="edge">
<title>docs&#45;&gt;FunctionOperator
take</title>
<path fill="none" stroke="black" d="M404.85,-438.22C381.78,-428.12 346.65,-412.75 317.96,-400.2"/>
<polygon fill="black" stroke="black" points="319.07,-396.87 308.51,-396.07 316.27,-403.28 319.07,-396.87"/>
</g>
<!-- FunctionOperator
compute -->
<g id="node12" class="node">
<title>FunctionOperator
compute</title>
<text text-anchor="middle" x="431.5" y="-374.3" font-family="Times,serif" font-size="14.00">FunctionOperator</text>
</g>
<!-- docs&#45;&gt;FunctionOperator
compute -->
<g id="edge11" class="edge">
<title>docs&#45;&gt;FunctionOperator
compute</title>
<path fill="none" stroke="black" d="M429.99,-431.7C430.21,-423.98 430.48,-414.71 430.73,-406.11"/>
<polygon fill="black" stroke="black" points="434.23,-406.19 431.01,-396.1 427.23,-406 434.23,-406.19"/>
</g>
<!-- vectorizer -->
<g id="node35" class="node">
<title>vectorizer</title>
<ellipse fill="none" stroke="black" cx="90.5" cy="-450" rx="58" ry="18"/>
<text text-anchor="middle" x="90.5" y="-446.3" font-family="Times,serif" font-size="14.00">vectorizer</text>
</g>
<!-- FunctionOperator
vectorizer&#45;&gt;vectorizer -->
<g id="edge39" class="edge">
<title>FunctionOperator
vectorizer&#45;&gt;vectorizer</title>
<path fill="none" stroke="black" d="M116.85,-503.7C112.86,-495.73 108.05,-486.1 103.63,-477.26"/>
<polygon fill="black" stroke="black" points="106.65,-475.48 99.05,-468.1 100.39,-478.61 106.65,-475.48"/>
</g>
<!-- get_dicts -->
<g id="node16" class="node">
<title>get_dicts</title>
<ellipse fill="none" stroke="black" cx="604.5" cy="-306" rx="52.79" ry="18"/>
<text text-anchor="middle" x="604.5" y="-302.3" font-family="Times,serif" font-size="14.00">get_dicts</text>
</g>
<!-- BagPropertyExtractor
get_dicts&#45;&gt;get_dicts -->
<g id="edge16" class="edge">
<title>BagPropertyExtractor
get_dicts&#45;&gt;get_dicts</title>
<path fill="none" stroke="black" d="M608.26,-359.7C607.71,-351.98 607.05,-342.71 606.44,-334.11"/>
<polygon fill="black" stroke="black" points="609.93,-333.82 605.72,-324.1 602.95,-334.33 609.93,-333.82"/>
</g>
<!-- bag_apply -->
<g id="node17" class="node">
<title>bag_apply</title>
<ellipse fill="none" stroke="black" cx="734.5" cy="-306" rx="58" ry="18"/>
<text text-anchor="middle" x="734.5" y="-302.3" font-family="Times,serif" font-size="14.00">bag_apply</text>
</g>
<!-- DocumentBagMap
bag_apply&#45;&gt;bag_apply -->
<g id="edge17" class="edge">
<title>DocumentBagMap
bag_apply&#45;&gt;bag_apply</title>
<path fill="none" stroke="black" d="M775.9,-359.7C769.28,-351.27 761.19,-340.97 753.93,-331.73"/>
<polygon fill="black" stroke="black" points="756.49,-329.32 747.56,-323.62 750.98,-333.65 756.49,-329.32"/>
</g>
<!-- add_to_chroma -->
<g id="node28" class="node">
<title>add_to_chroma</title>
<ellipse fill="none" stroke="black" cx="89.5" cy="-306" rx="80.69" ry="18"/>
<text text-anchor="middle" x="89.5" y="-302.3" font-family="Times,serif" font-size="14.00">add_to_chroma</text>
</g>
<!-- ChromaIndexFromBag
add_to_chroma&#45;&gt;add_to_chroma -->
<g id="edge31" class="edge">
<title>ChromaIndexFromBag
add_to_chroma&#45;&gt;add_to_chroma</title>
<path fill="none" stroke="black" d="M89.5,-359.7C89.5,-351.98 89.5,-342.71 89.5,-334.11"/>
<polygon fill="black" stroke="black" points="93,-334.1 89.5,-324.1 86,-334.1 93,-334.1"/>
</g>
<!-- take -->
<g id="node29" class="node">
<title>take</title>
<ellipse fill="none" stroke="black" cx="269.5" cy="-306" rx="30.59" ry="18"/>
<text text-anchor="middle" x="269.5" y="-302.3" font-family="Times,serif" font-size="14.00">take</text>
</g>
<!-- FunctionOperator
take&#45;&gt;take -->
<g id="edge32" class="edge">
<title>FunctionOperator
take&#45;&gt;take</title>
<path fill="none" stroke="black" d="M269.5,-359.7C269.5,-351.98 269.5,-342.71 269.5,-334.11"/>
<polygon fill="black" stroke="black" points="273,-334.1 269.5,-324.1 266,-334.1 273,-334.1"/>
</g>
<!-- compute -->
<g id="node30" class="node">
<title>compute</title>
<ellipse fill="none" stroke="black" cx="431.5" cy="-306" rx="50.89" ry="18"/>
<text text-anchor="middle" x="431.5" y="-302.3" font-family="Times,serif" font-size="14.00">compute</text>
</g>
<!-- FunctionOperator
compute&#45;&gt;compute -->
<g id="edge33" class="edge">
<title>FunctionOperator
compute&#45;&gt;compute</title>
<path fill="none" stroke="black" d="M431.5,-359.7C431.5,-351.98 431.5,-342.71 431.5,-334.11"/>
<polygon fill="black" stroke="black" points="435,-334.1 431.5,-324.1 428,-334.1 435,-334.1"/>
</g>
<!-- Configuration
forgiving_extracts -->
<g id="node13" class="node">
<title>Configuration
forgiving_extracts</title>
<polygon fill="none" stroke="black" points="840.83,-516.44 932.5,-504 1024.17,-516.44 1024.08,-536.56 840.92,-536.56 840.83,-516.44"/>
<text text-anchor="middle" x="932.5" y="-518.3" font-family="Times,serif" font-size="14.00">Configuration</text>
</g>
<!-- forgiving_extracts -->
<g id="node14" class="node">
<title>forgiving_extracts</title>
<ellipse fill="none" stroke="black" cx="932.5" cy="-450" rx="95" ry="18"/>
<text text-anchor="middle" x="932.5" y="-446.3" font-family="Times,serif" font-size="14.00">forgiving_extracts</text>
</g>
<!-- Configuration
forgiving_extracts&#45;&gt;forgiving_extracts -->
<g id="edge12" class="edge">
<title>Configuration
forgiving_extracts&#45;&gt;forgiving_extracts</title>
<path fill="none" stroke="black" d="M932.5,-503.7C932.5,-495.98 932.5,-486.71 932.5,-478.11"/>
<polygon fill="black" stroke="black" points="936,-478.1 932.5,-468.1 929,-478.1 936,-478.1"/>
</g>
<!-- forgiving_extracts&#45;&gt;BagPropertyExtractor
get_dicts -->
<g id="edge13" class="edge">
<title>forgiving_extracts&#45;&gt;BagPropertyExtractor
get_dicts</title>
<path fill="none" stroke="black" d="M872.5,-436C823.45,-425.37 753.4,-410.18 697.92,-398.16"/>
<polygon fill="black" stroke="black" points="698.6,-394.73 688.09,-396.03 697.12,-401.57 698.6,-394.73"/>
</g>
<!-- forgiving_extracts&#45;&gt;DocumentBagMap
bag_apply -->
<g id="edge14" class="edge">
<title>forgiving_extracts&#45;&gt;DocumentBagMap
bag_apply</title>
<path fill="none" stroke="black" d="M899.69,-432.94C880.08,-423.34 854.92,-411.02 833.59,-400.58"/>
<polygon fill="black" stroke="black" points="834.92,-397.33 824.4,-396.08 831.84,-403.62 834.92,-397.33"/>
</g>
<!-- DocumentBagCreator
apply -->
<g id="node15" class="node">
<title>DocumentBagCreator
apply</title>
<text text-anchor="middle" x="927.5" y="-230.3" font-family="Times,serif" font-size="14.00">DocumentBagCreator</text>
</g>
<!-- forgiving_extracts&#45;&gt;DocumentBagCreator
apply -->
<g id="edge15" class="edge">
<title>forgiving_extracts&#45;&gt;DocumentBagCreator
apply</title>
<path fill="none" stroke="black" d="M988.67,-435.47C1009.6,-427.5 1031.5,-415.1 1044.5,-396 1071.6,-356.32 1075.9,-328.18 1049.5,-288 1040.5,-274.25 1027,-264.04 1012.3,-256.48"/>
<polygon fill="black" stroke="black" points="1013.54,-253.2 1003,-252.11 1010.56,-259.53 1013.54,-253.2"/>
</g>
<!-- apply -->
<g id="node18" class="node">
<title>apply</title>
<ellipse fill="none" stroke="black" cx="927.5" cy="-162" rx="36.5" ry="18"/>
<text text-anchor="middle" x="927.5" y="-158.3" font-family="Times,serif" font-size="14.00">apply</text>
</g>
<!-- DocumentBagCreator
apply&#45;&gt;apply -->
<g id="edge18" class="edge">
<title>DocumentBagCreator
apply&#45;&gt;apply</title>
<path fill="none" stroke="black" d="M927.5,-215.7C927.5,-207.98 927.5,-198.71 927.5,-190.11"/>
<polygon fill="black" stroke="black" points="931,-190.1 927.5,-180.1 924,-190.1 931,-190.1"/>
</g>
<!-- Alias
get_dicts -->
<g id="node19" class="node">
<title>Alias
get_dicts</title>
<text text-anchor="middle" x="602.5" y="-230.3" font-family="Times,serif" font-size="14.00">Alias</text>
</g>
<!-- get_dicts&#45;&gt;Alias
get_dicts -->
<g id="edge19" class="edge">
<title>get_dicts&#45;&gt;Alias
get_dicts</title>
<path fill="none" stroke="black" d="M604.01,-287.7C603.79,-279.98 603.52,-270.71 603.27,-262.11"/>
<polygon fill="black" stroke="black" points="606.77,-262 602.99,-252.1 599.77,-262.19 606.77,-262"/>
</g>
<!-- bag_apply&#45;&gt;DocumentBagCreator
apply -->
<g id="edge20" class="edge">
<title>bag_apply&#45;&gt;DocumentBagCreator
apply</title>
<path fill="none" stroke="black" d="M770.8,-291.83C798.91,-281.64 838.35,-267.33 870.63,-255.62"/>
<polygon fill="black" stroke="black" points="872.19,-258.78 880.4,-252.08 869.81,-252.2 872.19,-258.78"/>
</g>
<!-- DocumentBagExplode
exploded -->
<g id="node20" class="node">
<title>DocumentBagExplode
exploded</title>
<text text-anchor="middle" x="735.5" y="-230.3" font-family="Times,serif" font-size="14.00">DocumentBagExplode</text>
</g>
<!-- bag_apply&#45;&gt;DocumentBagExplode
exploded -->
<g id="edge21" class="edge">
<title>bag_apply&#45;&gt;DocumentBagExplode
exploded</title>
<path fill="none" stroke="black" d="M734.75,-287.7C734.86,-279.98 734.99,-270.71 735.11,-262.11"/>
<polygon fill="black" stroke="black" points="738.61,-262.15 735.26,-252.1 731.61,-262.05 738.61,-262.15"/>
</g>
<!-- d -->
<g id="node27" class="node">
<title>d</title>
<ellipse fill="none" stroke="black" cx="602.5" cy="-162" rx="27" ry="18"/>
<text text-anchor="middle" x="602.5" y="-158.3" font-family="Times,serif" font-size="14.00">d</text>
</g>
<!-- Alias
get_dicts&#45;&gt;d -->
<g id="edge30" class="edge">
<title>Alias
get_dicts&#45;&gt;d</title>
<path fill="none" stroke="black" d="M602.5,-215.7C602.5,-207.98 602.5,-198.71 602.5,-190.11"/>
<polygon fill="black" stroke="black" points="606,-190.1 602.5,-180.1 599,-190.1 606,-190.1"/>
</g>
<!-- exploded -->
<g id="node31" class="node">
<title>exploded</title>
<ellipse fill="none" stroke="black" cx="735.5" cy="-162" rx="52.79" ry="18"/>
<text text-anchor="middle" x="735.5" y="-158.3" font-family="Times,serif" font-size="14.00">exploded</text>
</g>
<!-- DocumentBagExplode
exploded&#45;&gt;exploded -->
<g id="edge34" class="edge">
<title>DocumentBagExplode
exploded&#45;&gt;exploded</title>
<path fill="none" stroke="black" d="M735.5,-215.7C735.5,-207.98 735.5,-198.71 735.5,-190.11"/>
<polygon fill="black" stroke="black" points="739,-190.1 735.5,-180.1 732,-190.1 739,-190.1"/>
</g>
<!-- Constant
_stats -->
<g id="node21" class="node">
<title>Constant
_stats</title>
<text text-anchor="middle" x="781.5" y="-518.3" font-family="Times,serif" font-size="14.00">Constant</text>
</g>
<!-- _stats -->
<g id="node22" class="node">
<title>_stats</title>
<ellipse fill="none" stroke="black" cx="781.5" cy="-450" rx="38.5" ry="18"/>
<text text-anchor="middle" x="781.5" y="-446.3" font-family="Times,serif" font-size="14.00">_stats</text>
</g>
<!-- Constant
_stats&#45;&gt;_stats -->
<g id="edge22" class="edge">
<title>Constant
_stats&#45;&gt;_stats</title>
<path fill="none" stroke="black" d="M781.5,-503.7C781.5,-495.98 781.5,-486.71 781.5,-478.11"/>
<polygon fill="black" stroke="black" points="785,-478.1 781.5,-468.1 778,-478.1 785,-478.1"/>
</g>
<!-- _stats&#45;&gt;BagPropertyExtractor
get_dicts -->
<g id="edge23" class="edge">
<title>_stats&#45;&gt;BagPropertyExtractor
get_dicts</title>
<path fill="none" stroke="black" d="M753.48,-437.6C728.49,-427.42 691.26,-412.27 660.92,-399.93"/>
<polygon fill="black" stroke="black" points="661.92,-396.56 651.34,-396.03 659.28,-403.04 661.92,-396.56"/>
</g>
<!-- _stats&#45;&gt;DocumentBagMap
bag_apply -->
<g id="edge24" class="edge">
<title>_stats&#45;&gt;DocumentBagMap
bag_apply</title>
<path fill="none" stroke="black" d="M783.48,-431.7C784.36,-423.98 785.42,-414.71 786.4,-406.11"/>
<polygon fill="black" stroke="black" points="789.89,-406.43 787.55,-396.1 782.93,-405.64 789.89,-406.43"/>
</g>
<!-- FunctionOperator
stats -->
<g id="node23" class="node">
<title>FunctionOperator
stats</title>
<text text-anchor="middle" x="963.5" y="-374.3" font-family="Times,serif" font-size="14.00">FunctionOperator</text>
</g>
<!-- _stats&#45;&gt;FunctionOperator
stats -->
<g id="edge25" class="edge">
<title>_stats&#45;&gt;FunctionOperator
stats</title>
<path fill="none" stroke="black" d="M810.34,-437.91C836.98,-427.66 877.23,-412.18 909.78,-399.66"/>
<polygon fill="black" stroke="black" points="911.1,-402.9 919.18,-396.05 908.59,-396.37 911.1,-402.9"/>
</g>
<!-- stats -->
<g id="node24" class="node">
<title>stats</title>
<ellipse fill="none" stroke="black" cx="1006.5" cy="-306" rx="34" ry="18"/>
<text text-anchor="middle" x="1006.5" y="-302.3" font-family="Times,serif" font-size="14.00">stats</text>
</g>
<!-- FunctionOperator
stats&#45;&gt;stats -->
<g id="edge26" class="edge">
<title>FunctionOperator
stats&#45;&gt;stats</title>
<path fill="none" stroke="black" d="M974.13,-359.7C979.2,-351.44 985.37,-341.39 990.96,-332.3"/>
<polygon fill="black" stroke="black" points="994.04,-333.97 996.29,-323.62 988.07,-330.31 994.04,-333.97"/>
</g>
<!-- Configuration
verbosity -->
<g id="node25" class="node">
<title>Configuration
verbosity</title>
<polygon fill="none" stroke="black" points="524.83,-516.44 616.5,-504 708.17,-516.44 708.08,-536.56 524.92,-536.56 524.83,-516.44"/>
<text text-anchor="middle" x="616.5" y="-518.3" font-family="Times,serif" font-size="14.00">Configuration</text>
</g>
<!-- verbosity -->
<g id="node26" class="node">
<title>verbosity</title>
<ellipse fill="none" stroke="black" cx="616.5" cy="-450" rx="54" ry="18"/>
<text text-anchor="middle" x="616.5" y="-446.3" font-family="Times,serif" font-size="14.00">verbosity</text>
</g>
<!-- Configuration
verbosity&#45;&gt;verbosity -->
<g id="edge27" class="edge">
<title>Configuration
verbosity&#45;&gt;verbosity</title>
<path fill="none" stroke="black" d="M616.5,-503.7C616.5,-495.98 616.5,-486.71 616.5,-478.11"/>
<polygon fill="black" stroke="black" points="620,-478.1 616.5,-468.1 613,-478.1 620,-478.1"/>
</g>
<!-- verbosity&#45;&gt;BagPropertyExtractor
get_dicts -->
<g id="edge28" class="edge">
<title>verbosity&#45;&gt;BagPropertyExtractor
get_dicts</title>
<path fill="none" stroke="black" d="M614.77,-431.7C614,-423.98 613.07,-414.71 612.21,-406.11"/>
<polygon fill="black" stroke="black" points="615.69,-405.7 611.21,-396.1 608.72,-406.4 615.69,-405.7"/>
</g>
<!-- verbosity&#45;&gt;DocumentBagMap
bag_apply -->
<g id="edge29" class="edge">
<title>verbosity&#45;&gt;DocumentBagMap
bag_apply</title>
<path fill="none" stroke="black" d="M649.45,-435.67C674.46,-425.55 709.33,-411.44 738.01,-399.83"/>
<polygon fill="black" stroke="black" points="739.52,-402.99 747.48,-396 736.9,-396.5 739.52,-402.99"/>
</g>
<!-- Alias
exploded -->
<g id="node32" class="node">
<title>Alias
exploded</title>
<text text-anchor="middle" x="735.5" y="-86.3" font-family="Times,serif" font-size="14.00">Alias</text>
</g>
<!-- exploded&#45;&gt;Alias
exploded -->
<g id="edge35" class="edge">
<title>exploded&#45;&gt;Alias
exploded</title>
<path fill="none" stroke="black" d="M735.5,-143.7C735.5,-135.98 735.5,-126.71 735.5,-118.11"/>
<polygon fill="black" stroke="black" points="739,-118.1 735.5,-108.1 732,-118.1 739,-118.1"/>
</g>
<!-- e -->
<g id="node34" class="node">
<title>e</title>
<ellipse fill="none" stroke="black" cx="735.5" cy="-18" rx="27" ry="18"/>
<text text-anchor="middle" x="735.5" y="-14.3" font-family="Times,serif" font-size="14.00">e</text>
</g>
<!-- Alias
exploded&#45;&gt;e -->
<g id="edge38" class="edge">
<title>Alias
exploded&#45;&gt;e</title>
<path fill="none" stroke="black" d="M735.5,-71.7C735.5,-63.98 735.5,-54.71 735.5,-46.11"/>
<polygon fill="black" stroke="black" points="739,-46.1 735.5,-36.1 732,-46.1 739,-46.1"/>
</g>
<!-- configuration -->
<g id="node33" class="node">
<title>configuration</title>
<ellipse fill="none" stroke="black" cx="882.5" cy="-306" rx="72.29" ry="18"/>
<text text-anchor="middle" x="882.5" y="-302.3" font-family="Times,serif" font-size="14.00">configuration</text>
</g>
<!-- configuration&#45;&gt;DocumentBagCreator
apply -->
<g id="edge36" class="edge">
<title>configuration&#45;&gt;DocumentBagCreator
apply</title>
<path fill="none" stroke="black" d="M893.39,-288.05C898.62,-279.92 905,-270 910.82,-260.94"/>
<polygon fill="black" stroke="black" points="913.92,-262.58 916.39,-252.28 908.04,-258.8 913.92,-262.58"/>
</g>
<!-- configuration&#45;&gt;DocumentBagExplode
exploded -->
<g id="edge37" class="edge">
<title>configuration&#45;&gt;DocumentBagExplode
exploded</title>
<path fill="none" stroke="black" d="M850.6,-289.81C830.05,-280.02 803.01,-267.15 780.31,-256.34"/>
<polygon fill="black" stroke="black" points="781.73,-253.14 771.2,-252 778.72,-259.46 781.73,-253.14"/>
</g>
<!-- vectorizer&#45;&gt;ChromaIndexFromBag
add_to_chroma -->
<g id="edge40" class="edge">
<title>vectorizer&#45;&gt;ChromaIndexFromBag
add_to_chroma</title>
<path fill="none" stroke="black" d="M90.25,-431.7C90.14,-423.98 90.01,-414.71 89.89,-406.11"/>
<polygon fill="black" stroke="black" points="93.39,-406.05 89.74,-396.1 86.39,-406.15 93.39,-406.05"/>
</g>
<!-- bag -->
<g id="node36" class="node">
<title>bag</title>
<ellipse fill="none" stroke="black" cx="358.5" cy="-594" rx="28" ry="18"/>
<text text-anchor="middle" x="358.5" y="-590.3" font-family="Times,serif" font-size="14.00">bag</text>
</g>
<!-- bag&#45;&gt;BagMapOperator
docs -->
<g id="edge41" class="edge">
<title>bag&#45;&gt;BagMapOperator
docs</title>
<path fill="none" stroke="black" d="M358.5,-575.7C358.5,-567.98 358.5,-558.71 358.5,-550.11"/>
<polygon fill="black" stroke="black" points="362,-550.1 358.5,-540.1 355,-550.1 362,-550.1"/>
</g>
<!-- Alias
source -->
<g id="node37" class="node">
<title>Alias
source</title>
<text text-anchor="middle" x="377.5" y="-1094.3" font-family="Times,serif" font-size="14.00">Alias</text>
</g>
<!-- root_path -->
<g id="node38" class="node">
<title>root_path</title>
<ellipse fill="none" stroke="black" cx="377.5" cy="-1026" rx="55.49" ry="18"/>
<text text-anchor="middle" x="377.5" y="-1022.3" font-family="Times,serif" font-size="14.00">root_path</text>
</g>
<!-- Alias
source&#45;&gt;root_path -->
<g id="edge42" class="edge">
<title>Alias
source&#45;&gt;root_path</title>
<path fill="none" stroke="black" d="M377.5,-1079.7C377.5,-1072 377.5,-1062.7 377.5,-1054.1"/>
<polygon fill="black" stroke="black" points="381,-1054.1 377.5,-1044.1 374,-1054.1 381,-1054.1"/>
</g>
<!-- PathLoader
paths -->
<g id="node39" class="node">
<title>PathLoader
paths</title>
<text text-anchor="middle" x="439.5" y="-950.3" font-family="Times,serif" font-size="14.00">PathLoader</text>
</g>
<!-- root_path&#45;&gt;PathLoader
paths -->
<g id="edge43" class="edge">
<title>root_path&#45;&gt;PathLoader
paths</title>
<path fill="none" stroke="black" d="M392.19,-1008.4C399.69,-999.95 408.97,-989.47 417.31,-980.05"/>
<polygon fill="black" stroke="black" points="420.03,-982.25 424.05,-972.45 414.8,-977.61 420.03,-982.25"/>
</g>
<!-- paths -->
<g id="node40" class="node">
<title>paths</title>
<ellipse fill="none" stroke="black" cx="439.5" cy="-882" rx="36.5" ry="18"/>
<text text-anchor="middle" x="439.5" y="-878.3" font-family="Times,serif" font-size="14.00">paths</text>
</g>
<!-- PathLoader
paths&#45;&gt;paths -->
<g id="edge44" class="edge">
<title>PathLoader
paths&#45;&gt;paths</title>
<path fill="none" stroke="black" d="M439.5,-935.7C439.5,-927.98 439.5,-918.71 439.5,-910.11"/>
<polygon fill="black" stroke="black" points="443,-910.1 439.5,-900.1 436,-910.1 443,-910.1"/>
</g>
<!-- FunctionOperator
file_path_list -->
<g id="node41" class="node">
<title>FunctionOperator
file_path_list</title>
<text text-anchor="middle" x="358.5" y="-806.3" font-family="Times,serif" font-size="14.00">FunctionOperator</text>
</g>
<!-- paths&#45;&gt;FunctionOperator
file_path_list -->
<g id="edge45" class="edge">
<title>paths&#45;&gt;FunctionOperator
file_path_list</title>
<path fill="none" stroke="black" d="M421.92,-865.81C411.49,-856.79 398.03,-845.16 386.19,-834.93"/>
<polygon fill="black" stroke="black" points="388.18,-832.02 378.32,-828.13 383.6,-837.32 388.18,-832.02"/>
</g>
<!-- FunctionOperator
dir_list -->
<g id="node42" class="node">
<title>FunctionOperator
dir_list</title>
<text text-anchor="middle" x="520.5" y="-806.3" font-family="Times,serif" font-size="14.00">FunctionOperator</text>
</g>
<!-- paths&#45;&gt;FunctionOperator
dir_list -->
<g id="edge46" class="edge">
<title>paths&#45;&gt;FunctionOperator
dir_list</title>
<path fill="none" stroke="black" d="M457.08,-865.81C467.51,-856.79 480.97,-845.16 492.81,-834.93"/>
<polygon fill="black" stroke="black" points="495.4,-837.32 500.68,-828.13 490.82,-832.02 495.4,-837.32"/>
</g>
<!-- file_path_list -->
<g id="node44" class="node">
<title>file_path_list</title>
<ellipse fill="none" stroke="black" cx="358.5" cy="-738" rx="69.59" ry="18"/>
<text text-anchor="middle" x="358.5" y="-734.3" font-family="Times,serif" font-size="14.00">file_path_list</text>
</g>
<!-- FunctionOperator
file_path_list&#45;&gt;file_path_list -->
<g id="edge48" class="edge">
<title>FunctionOperator
file_path_list&#45;&gt;file_path_list</title>
<path fill="none" stroke="black" d="M358.5,-791.7C358.5,-783.98 358.5,-774.71 358.5,-766.11"/>
<polygon fill="black" stroke="black" points="362,-766.1 358.5,-756.1 355,-766.1 362,-766.1"/>
</g>
<!-- dir_list -->
<g id="node45" class="node">
<title>dir_list</title>
<ellipse fill="none" stroke="black" cx="520.5" cy="-738" rx="43" ry="18"/>
<text text-anchor="middle" x="520.5" y="-734.3" font-family="Times,serif" font-size="14.00">dir_list</text>
</g>
<!-- FunctionOperator
dir_list&#45;&gt;dir_list -->
<g id="edge49" class="edge">
<title>FunctionOperator
dir_list&#45;&gt;dir_list</title>
<path fill="none" stroke="black" d="M520.5,-791.7C520.5,-783.98 520.5,-774.71 520.5,-766.11"/>
<polygon fill="black" stroke="black" points="524,-766.1 520.5,-756.1 517,-766.1 524,-766.1"/>
</g>
<!-- source -->
<g id="node43" class="node">
<title>source</title>
<ellipse fill="none" stroke="black" cx="377.5" cy="-1170" rx="41.69" ry="18"/>
<text text-anchor="middle" x="377.5" y="-1166.3" font-family="Times,serif" font-size="14.00">source</text>
</g>
<!-- source&#45;&gt;Alias
source -->
<g id="edge47" class="edge">
<title>source&#45;&gt;Alias
source</title>
<path fill="none" stroke="black" d="M377.5,-1151.7C377.5,-1144 377.5,-1134.7 377.5,-1126.1"/>
<polygon fill="black" stroke="black" points="381,-1126.1 377.5,-1116.1 374,-1126.1 381,-1126.1"/>
</g>
<!-- FunctionOperator
bag -->
<g id="node46" class="node">
<title>FunctionOperator
bag</title>
<text text-anchor="middle" x="358.5" y="-662.3" font-family="Times,serif" font-size="14.00">FunctionOperator</text>
</g>
<!-- file_path_list&#45;&gt;FunctionOperator
bag -->
<g id="edge50" class="edge">
<title>file_path_list&#45;&gt;FunctionOperator
bag</title>
<path fill="none" stroke="black" d="M358.5,-719.7C358.5,-711.98 358.5,-702.71 358.5,-694.11"/>
<polygon fill="black" stroke="black" points="362,-694.1 358.5,-684.1 355,-694.1 362,-694.1"/>
</g>
<!-- FunctionOperator
bag&#45;&gt;bag -->
<g id="edge52" class="edge">
<title>FunctionOperator
bag&#45;&gt;bag</title>
<path fill="none" stroke="black" d="M358.5,-647.7C358.5,-639.98 358.5,-630.71 358.5,-622.11"/>
<polygon fill="black" stroke="black" points="362,-622.1 358.5,-612.1 355,-622.1 362,-622.1"/>
</g>
<!-- _exclude -->
<g id="node47" class="node">
<title>_exclude</title>
<ellipse fill="none" stroke="black" cx="501.5" cy="-1026" rx="50.89" ry="18"/>
<text text-anchor="middle" x="501.5" y="-1022.3" font-family="Times,serif" font-size="14.00">_exclude</text>
</g>
<!-- _exclude&#45;&gt;PathLoader
paths -->
<g id="edge51" class="edge">
<title>_exclude&#45;&gt;PathLoader
paths</title>
<path fill="none" stroke="black" d="M486.81,-1008.4C479.31,-999.95 470.03,-989.47 461.69,-980.05"/>
<polygon fill="black" stroke="black" points="464.2,-977.61 454.95,-972.45 458.97,-982.25 464.2,-977.61"/>
</g>
</g>
</svg>
