<?xml version="1.0" encoding="UTF-8" standalone="no"?>
<!DOCTYPE svg PUBLIC "-//W3C//DTD SVG 1.1//EN"
 "http://www.w3.org/Graphics/SVG/1.1/DTD/svg11.dtd">
<!-- Generated by graphviz version 2.43.0 (0)
 -->
<!-- Pages: 1 -->
<svg width="1082pt" height="692pt"
 viewBox="0.00 0.00 1081.96 692.00" xmlns="http://www.w3.org/2000/svg" xmlns:xlink="http://www.w3.org/1999/xlink">
<g id="graph0" class="graph" transform="scale(1 1) rotate(0) translate(4 688)">
<polygon fill="white" stroke="transparent" points="-4,4 -4,-688 1077.96,-688 1077.96,4 -4,4"/>
<!-- Configuration
doc_configuration -->
<g id="node1" class="node">
<title>Configuration
doc_configuration</title>
<polygon fill="none" stroke="black" points="1.33,-660.44 93,-648 184.67,-660.44 184.58,-680.56 1.42,-680.56 1.33,-660.44"/>
<text text-anchor="middle" x="93" y="-662.3" font-family="Times,serif" font-size="14.00">Configuration</text>
</g>
<!-- doc_configuration -->
<g id="node2" class="node">
<title>doc_configuration</title>
<ellipse fill="none" stroke="black" cx="93" cy="-594" rx="93" ry="18"/>
<text text-anchor="middle" x="93" y="-590.3" font-family="Times,serif" font-size="14.00">doc_configuration</text>
</g>
<!-- Configuration
doc_configuration&#45;&gt;doc_configuration -->
<g id="edge1" class="edge">
<title>Configuration
doc_configuration&#45;&gt;doc_configuration</title>
<path fill="none" stroke="black" d="M93,-647.7C93,-639.98 93,-630.71 93,-622.11"/>
<polygon fill="black" stroke="black" points="96.5,-622.1 93,-612.1 89.5,-622.1 96.5,-622.1"/>
</g>
<!-- FunctionOperator
vectorizer -->
<g id="node3" class="node">
<title>FunctionOperator
vectorizer</title>
<text text-anchor="middle" x="93" y="-518.3" font-family="Times,serif" font-size="14.00">FunctionOperator</text>
</g>
<!-- doc_configuration&#45;&gt;FunctionOperator
vectorizer -->
<g id="edge2" class="edge">
<title>doc_configuration&#45;&gt;FunctionOperator
vectorizer</title>
<path fill="none" stroke="black" d="M93,-575.7C93,-567.98 93,-558.71 93,-550.11"/>
<polygon fill="black" stroke="black" points="96.5,-550.1 93,-540.1 89.5,-550.1 96.5,-550.1"/>
</g>
<!-- vectorizer -->
<g id="node4" class="node">
<title>vectorizer</title>
<ellipse fill="none" stroke="black" cx="93" cy="-450" rx="58" ry="18"/>
<text text-anchor="middle" x="93" y="-446.3" font-family="Times,serif" font-size="14.00">vectorizer</text>
</g>
<!-- FunctionOperator
vectorizer&#45;&gt;vectorizer -->
<g id="edge3" class="edge">
<title>FunctionOperator
vectorizer&#45;&gt;vectorizer</title>
<path fill="none" stroke="black" d="M93,-503.7C93,-495.98 93,-486.71 93,-478.11"/>
<polygon fill="black" stroke="black" points="96.5,-478.1 93,-468.1 89.5,-478.1 96.5,-478.1"/>
</g>
<!-- ChromaIndexFromBag
add_to_chroma -->
<g id="node5" class="node">
<title>ChromaIndexFromBag
add_to_chroma</title>
<text text-anchor="middle" x="93" y="-374.3" font-family="Times,serif" font-size="14.00">ChromaIndexFromBag</text>
</g>
<!-- vectorizer&#45;&gt;ChromaIndexFromBag
add_to_chroma -->
<g id="edge4" class="edge">
<title>vectorizer&#45;&gt;ChromaIndexFromBag
add_to_chroma</title>
<path fill="none" stroke="black" d="M93,-431.7C93,-423.98 93,-414.71 93,-406.11"/>
<polygon fill="black" stroke="black" points="96.5,-406.1 93,-396.1 89.5,-406.1 96.5,-406.1"/>
</g>
<!-- add_to_chroma -->
<g id="node25" class="node">
<title>add_to_chroma</title>
<ellipse fill="none" stroke="black" cx="93" cy="-306" rx="80.69" ry="18"/>
<text text-anchor="middle" x="93" y="-302.3" font-family="Times,serif" font-size="14.00">add_to_chroma</text>
</g>
<!-- ChromaIndexFromBag
add_to_chroma&#45;&gt;add_to_chroma -->
<g id="edge27" class="edge">
<title>ChromaIndexFromBag
add_to_chroma&#45;&gt;add_to_chroma</title>
<path fill="none" stroke="black" d="M93,-359.7C93,-351.98 93,-342.71 93,-334.11"/>
<polygon fill="black" stroke="black" points="96.5,-334.1 93,-324.1 89.5,-334.1 96.5,-334.1"/>
</g>
<!-- Configuration
forgiving_extracts -->
<g id="node6" class="node">
<title>Configuration
forgiving_extracts</title>
<polygon fill="none" stroke="black" points="695.33,-516.44 787,-504 878.67,-516.44 878.58,-536.56 695.41,-536.56 695.33,-516.44"/>
<text text-anchor="middle" x="787" y="-518.3" font-family="Times,serif" font-size="14.00">Configuration</text>
</g>
<!-- forgiving_extracts -->
<g id="node7" class="node">
<title>forgiving_extracts</title>
<ellipse fill="none" stroke="black" cx="786" cy="-450" rx="95" ry="18"/>
<text text-anchor="middle" x="786" y="-446.3" font-family="Times,serif" font-size="14.00">forgiving_extracts</text>
</g>
<!-- Configuration
forgiving_extracts&#45;&gt;forgiving_extracts -->
<g id="edge5" class="edge">
<title>Configuration
forgiving_extracts&#45;&gt;forgiving_extracts</title>
<path fill="none" stroke="black" d="M786.75,-503.7C786.64,-495.98 786.51,-486.71 786.39,-478.11"/>
<polygon fill="black" stroke="black" points="789.89,-478.05 786.25,-468.1 782.89,-478.15 789.89,-478.05"/>
</g>
<!-- BagPropertyExtractor
get_dicts -->
<g id="node8" class="node">
<title>BagPropertyExtractor
get_dicts</title>
<text text-anchor="middle" x="613" y="-374.3" font-family="Times,serif" font-size="14.00">BagPropertyExtractor</text>
</g>
<!-- forgiving_extracts&#45;&gt;BagPropertyExtractor
get_dicts -->
<g id="edge6" class="edge">
<title>forgiving_extracts&#45;&gt;BagPropertyExtractor
get_dicts</title>
<path fill="none" stroke="black" d="M747.61,-433.46C723.23,-423.6 691.37,-410.71 664.77,-399.95"/>
<polygon fill="black" stroke="black" points="665.81,-396.6 655.23,-396.09 663.19,-403.09 665.81,-396.6"/>
</g>
<!-- DocumentBagMap
bag_apply -->
<g id="node9" class="node">
<title>DocumentBagMap
bag_apply</title>
<text text-anchor="middle" x="793" y="-374.3" font-family="Times,serif" font-size="14.00">DocumentBagMap</text>
</g>
<!-- forgiving_extracts&#45;&gt;DocumentBagMap
bag_apply -->
<g id="edge7" class="edge">
<title>forgiving_extracts&#45;&gt;DocumentBagMap
bag_apply</title>
<path fill="none" stroke="black" d="M787.73,-431.7C788.5,-423.98 789.43,-414.71 790.29,-406.11"/>
<polygon fill="black" stroke="black" points="793.78,-406.4 791.29,-396.1 786.81,-405.7 793.78,-406.4"/>
</g>
<!-- get_dicts -->
<g id="node10" class="node">
<title>get_dicts</title>
<ellipse fill="none" stroke="black" cx="613" cy="-306" rx="52.79" ry="18"/>
<text text-anchor="middle" x="613" y="-302.3" font-family="Times,serif" font-size="14.00">get_dicts</text>
</g>
<!-- BagPropertyExtractor
get_dicts&#45;&gt;get_dicts -->
<g id="edge8" class="edge">
<title>BagPropertyExtractor
get_dicts&#45;&gt;get_dicts</title>
<path fill="none" stroke="black" d="M613,-359.7C613,-351.98 613,-342.71 613,-334.11"/>
<polygon fill="black" stroke="black" points="616.5,-334.1 613,-324.1 609.5,-334.1 616.5,-334.1"/>
</g>
<!-- bag_apply -->
<g id="node11" class="node">
<title>bag_apply</title>
<ellipse fill="none" stroke="black" cx="768" cy="-306" rx="58" ry="18"/>
<text text-anchor="middle" x="768" y="-302.3" font-family="Times,serif" font-size="14.00">bag_apply</text>
</g>
<!-- DocumentBagMap
bag_apply&#45;&gt;bag_apply -->
<g id="edge9" class="edge">
<title>DocumentBagMap
bag_apply&#45;&gt;bag_apply</title>
<path fill="none" stroke="black" d="M786.82,-359.7C784.01,-351.81 780.61,-342.3 777.48,-333.55"/>
<polygon fill="black" stroke="black" points="780.76,-332.34 774.11,-324.1 774.17,-334.69 780.76,-332.34"/>
</g>
<!-- Alias
get_dicts -->
<g id="node12" class="node">
<title>Alias
get_dicts</title>
<text text-anchor="middle" x="613" y="-230.3" font-family="Times,serif" font-size="14.00">Alias</text>
</g>
<!-- get_dicts&#45;&gt;Alias
get_dicts -->
<g id="edge10" class="edge">
<title>get_dicts&#45;&gt;Alias
get_dicts</title>
<path fill="none" stroke="black" d="M613,-287.7C613,-279.98 613,-270.71 613,-262.11"/>
<polygon fill="black" stroke="black" points="616.5,-262.1 613,-252.1 609.5,-262.1 616.5,-262.1"/>
</g>
<!-- DocumentBagCreator
apply -->
<g id="node13" class="node">
<title>DocumentBagCreator
apply</title>
<text text-anchor="middle" x="746" y="-230.3" font-family="Times,serif" font-size="14.00">DocumentBagCreator</text>
</g>
<!-- bag_apply&#45;&gt;DocumentBagCreator
apply -->
<g id="edge11" class="edge">
<title>bag_apply&#45;&gt;DocumentBagCreator
apply</title>
<path fill="none" stroke="black" d="M762.68,-288.05C760.23,-280.26 757.26,-270.82 754.51,-262.08"/>
<polygon fill="black" stroke="black" points="757.77,-260.77 751.43,-252.28 751.09,-262.87 757.77,-260.77"/>
</g>
<!-- DocumentBagExplode
exploded -->
<g id="node14" class="node">
<title>DocumentBagExplode
exploded</title>
<text text-anchor="middle" x="938" y="-230.3" font-family="Times,serif" font-size="14.00">DocumentBagExplode</text>
</g>
<!-- bag_apply&#45;&gt;DocumentBagExplode
exploded -->
<g id="edge12" class="edge">
<title>bag_apply&#45;&gt;DocumentBagExplode
exploded</title>
<path fill="none" stroke="black" d="M801.59,-291.17C826,-281.12 859.47,-267.34 887.15,-255.94"/>
<polygon fill="black" stroke="black" points="888.75,-259.06 896.67,-252.02 886.09,-252.59 888.75,-259.06"/>
</g>
<!-- d -->
<g id="node21" class="node">
<title>d</title>
<ellipse fill="none" stroke="black" cx="613" cy="-162" rx="27" ry="18"/>
<text text-anchor="middle" x="613" y="-158.3" font-family="Times,serif" font-size="14.00">d</text>
</g>
<!-- Alias
get_dicts&#45;&gt;d -->
<g id="edge21" class="edge">
<title>Alias
get_dicts&#45;&gt;d</title>
<path fill="none" stroke="black" d="M613,-215.7C613,-207.98 613,-198.71 613,-190.11"/>
<polygon fill="black" stroke="black" points="616.5,-190.1 613,-180.1 609.5,-190.1 616.5,-190.1"/>
</g>
<!-- apply -->
<g id="node28" class="node">
<title>apply</title>
<ellipse fill="none" stroke="black" cx="746" cy="-162" rx="36.5" ry="18"/>
<text text-anchor="middle" x="746" y="-158.3" font-family="Times,serif" font-size="14.00">apply</text>
</g>
<!-- DocumentBagCreator
apply&#45;&gt;apply -->
<g id="edge30" class="edge">
<title>DocumentBagCreator
apply&#45;&gt;apply</title>
<path fill="none" stroke="black" d="M746,-215.7C746,-207.98 746,-198.71 746,-190.11"/>
<polygon fill="black" stroke="black" points="749.5,-190.1 746,-180.1 742.5,-190.1 749.5,-190.1"/>
</g>
<!-- exploded -->
<g id="node29" class="node">
<title>exploded</title>
<ellipse fill="none" stroke="black" cx="938" cy="-162" rx="52.79" ry="18"/>
<text text-anchor="middle" x="938" y="-158.3" font-family="Times,serif" font-size="14.00">exploded</text>
</g>
<!-- DocumentBagExplode
exploded&#45;&gt;exploded -->
<g id="edge31" class="edge">
<title>DocumentBagExplode
exploded&#45;&gt;exploded</title>
<path fill="none" stroke="black" d="M938,-215.7C938,-207.98 938,-198.71 938,-190.11"/>
<polygon fill="black" stroke="black" points="941.5,-190.1 938,-180.1 934.5,-190.1 941.5,-190.1"/>
</g>
<!-- Constant
_stats -->
<g id="node15" class="node">
<title>Constant
_stats</title>
<text text-anchor="middle" x="937" y="-518.3" font-family="Times,serif" font-size="14.00">Constant</text>
</g>
<!-- _stats -->
<g id="node16" class="node">
<title>_stats</title>
<ellipse fill="none" stroke="black" cx="937" cy="-450" rx="38.5" ry="18"/>
<text text-anchor="middle" x="937" y="-446.3" font-family="Times,serif" font-size="14.00">_stats</text>
</g>
<!-- Constant
_stats&#45;&gt;_stats -->
<g id="edge13" class="edge">
<title>Constant
_stats&#45;&gt;_stats</title>
<path fill="none" stroke="black" d="M937,-503.7C937,-495.98 937,-486.71 937,-478.11"/>
<polygon fill="black" stroke="black" points="940.5,-478.1 937,-468.1 933.5,-478.1 940.5,-478.1"/>
</g>
<!-- _stats&#45;&gt;BagPropertyExtractor
get_dicts -->
<g id="edge14" class="edge">
<title>_stats&#45;&gt;BagPropertyExtractor
get_dicts</title>
<path fill="none" stroke="black" d="M908.4,-437.84C902.38,-435.72 896.03,-433.65 890,-432 872.64,-427.23 783.79,-410.45 711.33,-397.03"/>
<polygon fill="black" stroke="black" points="711.7,-393.54 701.23,-395.16 710.42,-400.42 711.7,-393.54"/>
</g>
<!-- _stats&#45;&gt;DocumentBagMap
bag_apply -->
<g id="edge15" class="edge">
<title>_stats&#45;&gt;DocumentBagMap
bag_apply</title>
<path fill="none" stroke="black" d="M911.26,-436.49C890.67,-426.48 861.33,-412.22 837.03,-400.4"/>
<polygon fill="black" stroke="black" points="838.51,-397.23 827.99,-396.01 835.45,-403.53 838.51,-397.23"/>
</g>
<!-- FunctionOperator
stats -->
<g id="node17" class="node">
<title>FunctionOperator
stats</title>
<text text-anchor="middle" x="999" y="-374.3" font-family="Times,serif" font-size="14.00">FunctionOperator</text>
</g>
<!-- _stats&#45;&gt;FunctionOperator
stats -->
<g id="edge16" class="edge">
<title>_stats&#45;&gt;FunctionOperator
stats</title>
<path fill="none" stroke="black" d="M951.07,-433.12C958.74,-424.46 968.4,-413.55 977.04,-403.8"/>
<polygon fill="black" stroke="black" points="979.68,-406.1 983.69,-396.29 974.44,-401.46 979.68,-406.1"/>
</g>
<!-- stats -->
<g id="node18" class="node">
<title>stats</title>
<ellipse fill="none" stroke="black" cx="1039.96" cy="-306" rx="34" ry="18"/>
<text text-anchor="middle" x="1039.96" y="-302.3" font-family="Times,serif" font-size="14.00">stats</text>
</g>
<!-- FunctionOperator
stats&#45;&gt;stats -->
<g id="edge17" class="edge">
<title>FunctionOperator
stats&#45;&gt;stats</title>
<path fill="none" stroke="black" d="M1009.16,-359.7C1013.96,-351.44 1019.86,-341.39 1025.16,-332.3"/>
<polygon fill="black" stroke="black" points="1028.21,-334.01 1030.26,-323.62 1022.17,-330.47 1028.21,-334.01"/>
</g>
<!-- Configuration
verbosity -->
<g id="node19" class="node">
<title>Configuration
verbosity</title>
<polygon fill="none" stroke="black" points="494.33,-516.44 586,-504 677.67,-516.44 677.58,-536.56 494.41,-536.56 494.33,-516.44"/>
<text text-anchor="middle" x="586" y="-518.3" font-family="Times,serif" font-size="14.00">Configuration</text>
</g>
<!-- verbosity -->
<g id="node20" class="node">
<title>verbosity</title>
<ellipse fill="none" stroke="black" cx="613" cy="-450" rx="54" ry="18"/>
<text text-anchor="middle" x="613" y="-446.3" font-family="Times,serif" font-size="14.00">verbosity</text>
</g>
<!-- Configuration
verbosity&#45;&gt;verbosity -->
<g id="edge18" class="edge">
<title>Configuration
verbosity&#45;&gt;verbosity</title>
<path fill="none" stroke="black" d="M592.26,-504.76C595.38,-496.7 599.22,-486.74 602.74,-477.6"/>
<polygon fill="black" stroke="black" points="606.06,-478.71 606.4,-468.12 599.53,-476.19 606.06,-478.71"/>
</g>
<!-- verbosity&#45;&gt;BagPropertyExtractor
get_dicts -->
<g id="edge19" class="edge">
<title>verbosity&#45;&gt;BagPropertyExtractor
get_dicts</title>
<path fill="none" stroke="black" d="M613,-431.7C613,-423.98 613,-414.71 613,-406.11"/>
<polygon fill="black" stroke="black" points="616.5,-406.1 613,-396.1 609.5,-406.1 616.5,-406.1"/>
</g>
<!-- verbosity&#45;&gt;DocumentBagMap
bag_apply -->
<g id="edge20" class="edge">
<title>verbosity&#45;&gt;DocumentBagMap
bag_apply</title>
<path fill="none" stroke="black" d="M646.86,-435.83C672.96,-425.68 709.54,-411.46 739.58,-399.78"/>
<polygon fill="black" stroke="black" points="741.03,-402.97 749.08,-396.08 738.49,-396.45 741.03,-402.97"/>
</g>
<!-- docs -->
<g id="node22" class="node">
<title>docs</title>
<ellipse fill="none" stroke="black" cx="435" cy="-450" rx="32" ry="18"/>
<text text-anchor="middle" x="435" y="-446.3" font-family="Times,serif" font-size="14.00">docs</text>
</g>
<!-- docs&#45;&gt;ChromaIndexFromBag
add_to_chroma -->
<g id="edge24" class="edge">
<title>docs&#45;&gt;ChromaIndexFromBag
add_to_chroma</title>
<path fill="none" stroke="black" d="M405.55,-442.97C357.42,-433.12 259.94,-413.17 186.58,-398.15"/>
<polygon fill="black" stroke="black" points="186.89,-394.64 176.39,-396.07 185.49,-401.5 186.89,-394.64"/>
</g>
<!-- docs&#45;&gt;BagPropertyExtractor
get_dicts -->
<g id="edge22" class="edge">
<title>docs&#45;&gt;BagPropertyExtractor
get_dicts</title>
<path fill="none" stroke="black" d="M460.5,-438.97C486.4,-428.79 527.27,-412.72 560.18,-399.77"/>
<polygon fill="black" stroke="black" points="561.64,-402.96 569.67,-396.04 559.08,-396.44 561.64,-402.96"/>
</g>
<!-- docs&#45;&gt;DocumentBagMap
bag_apply -->
<g id="edge23" class="edge">
<title>docs&#45;&gt;DocumentBagMap
bag_apply</title>
<path fill="none" stroke="black" d="M464.73,-443.39C513.47,-434.16 613.67,-415.09 708.33,-396.32"/>
<polygon fill="black" stroke="black" points="709.22,-399.71 718.35,-394.33 707.86,-392.85 709.22,-399.71"/>
</g>
<!-- FunctionOperator
take -->
<g id="node23" class="node">
<title>FunctionOperator
take</title>
<text text-anchor="middle" x="273" y="-374.3" font-family="Times,serif" font-size="14.00">FunctionOperator</text>
</g>
<!-- docs&#45;&gt;FunctionOperator
take -->
<g id="edge25" class="edge">
<title>docs&#45;&gt;FunctionOperator
take</title>
<path fill="none" stroke="black" d="M410.4,-438.37C386.92,-428.22 350.88,-412.65 321.61,-400"/>
<polygon fill="black" stroke="black" points="322.93,-396.76 312.36,-396.01 320.15,-403.18 322.93,-396.76"/>
</g>
<!-- FunctionOperator
compute -->
<g id="node24" class="node">
<title>FunctionOperator
compute</title>
<text text-anchor="middle" x="435" y="-374.3" font-family="Times,serif" font-size="14.00">FunctionOperator</text>
</g>
<!-- docs&#45;&gt;FunctionOperator
compute -->
<g id="edge26" class="edge">
<title>docs&#45;&gt;FunctionOperator
compute</title>
<path fill="none" stroke="black" d="M435,-431.7C435,-423.98 435,-414.71 435,-406.11"/>
<polygon fill="black" stroke="black" points="438.5,-406.1 435,-396.1 431.5,-406.1 438.5,-406.1"/>
</g>
<!-- take -->
<g id="node26" class="node">
<title>take</title>
<ellipse fill="none" stroke="black" cx="273" cy="-306" rx="30.59" ry="18"/>
<text text-anchor="middle" x="273" y="-302.3" font-family="Times,serif" font-size="14.00">take</text>
</g>
<!-- FunctionOperator
take&#45;&gt;take -->
<g id="edge28" class="edge">
<title>FunctionOperator
take&#45;&gt;take</title>
<path fill="none" stroke="black" d="M273,-359.7C273,-351.98 273,-342.71 273,-334.11"/>
<polygon fill="black" stroke="black" points="276.5,-334.1 273,-324.1 269.5,-334.1 276.5,-334.1"/>
</g>
<!-- compute -->
<g id="node27" class="node">
<title>compute</title>
<ellipse fill="none" stroke="black" cx="435" cy="-306" rx="50.89" ry="18"/>
<text text-anchor="middle" x="435" y="-302.3" font-family="Times,serif" font-size="14.00">compute</text>
</g>
<!-- FunctionOperator
compute&#45;&gt;compute -->
<g id="edge29" class="edge">
<title>FunctionOperator
compute&#45;&gt;compute</title>
<path fill="none" stroke="black" d="M435,-359.7C435,-351.98 435,-342.71 435,-334.11"/>
<polygon fill="black" stroke="black" points="438.5,-334.1 435,-324.1 431.5,-334.1 438.5,-334.1"/>
</g>
<!-- Alias
exploded -->
<g id="node30" class="node">
<title>Alias
exploded</title>
<text text-anchor="middle" x="938" y="-86.3" font-family="Times,serif" font-size="14.00">Alias</text>
</g>
<!-- exploded&#45;&gt;Alias
exploded -->
<g id="edge32" class="edge">
<title>exploded&#45;&gt;Alias
exploded</title>
<path fill="none" stroke="black" d="M938,-143.7C938,-135.98 938,-126.71 938,-118.11"/>
<polygon fill="black" stroke="black" points="941.5,-118.1 938,-108.1 934.5,-118.1 941.5,-118.1"/>
</g>
<!-- e -->
<g id="node32" class="node">
<title>e</title>
<ellipse fill="none" stroke="black" cx="938" cy="-18" rx="27" ry="18"/>
<text text-anchor="middle" x="938" y="-14.3" font-family="Times,serif" font-size="14.00">e</text>
</g>
<!-- Alias
exploded&#45;&gt;e -->
<g id="edge35" class="edge">
<title>Alias
exploded&#45;&gt;e</title>
<path fill="none" stroke="black" d="M938,-71.7C938,-63.98 938,-54.71 938,-46.11"/>
<polygon fill="black" stroke="black" points="941.5,-46.1 938,-36.1 934.5,-46.1 941.5,-46.1"/>
</g>
<!-- configuration -->
<g id="node31" class="node">
<title>configuration</title>
<ellipse fill="none" stroke="black" cx="916" cy="-306" rx="72.29" ry="18"/>
<text text-anchor="middle" x="916" y="-302.3" font-family="Times,serif" font-size="14.00">configuration</text>
</g>
<!-- configuration&#45;&gt;DocumentBagCreator
apply -->
<g id="edge33" class="edge">
<title>configuration&#45;&gt;DocumentBagCreator
apply</title>
<path fill="none" stroke="black" d="M880.36,-290.33C856.15,-280.36 823.76,-267.02 796.85,-255.94"/>
<polygon fill="black" stroke="black" points="798.16,-252.69 787.58,-252.12 795.49,-259.17 798.16,-252.69"/>
</g>
<!-- configuration&#45;&gt;DocumentBagExplode
exploded -->
<g id="edge34" class="edge">
<title>configuration&#45;&gt;DocumentBagExplode
exploded</title>
<path fill="none" stroke="black" d="M921.44,-287.7C923.89,-279.9 926.84,-270.51 929.57,-261.83"/>
<polygon fill="black" stroke="black" points="932.97,-262.69 932.63,-252.1 926.29,-260.59 932.97,-262.69"/>
</g>
<!-- Alias
source -->
<g id="node33" class="node">
<title>Alias
source</title>
<text text-anchor="middle" x="435" y="-518.3" font-family="Times,serif" font-size="14.00">Alias</text>
</g>
<!-- Alias
source&#45;&gt;docs -->
<g id="edge36" class="edge">
<title>Alias
source&#45;&gt;docs</title>
<path fill="none" stroke="black" d="M435,-503.7C435,-495.98 435,-486.71 435,-478.11"/>
<polygon fill="black" stroke="black" points="438.5,-478.1 435,-468.1 431.5,-478.1 438.5,-478.1"/>
</g>
<!-- source -->
<g id="node34" class="node">
<title>source</title>
<ellipse fill="none" stroke="black" cx="435" cy="-594" rx="41.69" ry="18"/>
<text text-anchor="middle" x="435" y="-590.3" font-family="Times,serif" font-size="14.00">source</text>
</g>
<!-- source&#45;&gt;Alias
source -->
<g id="edge37" class="edge">
<title>source&#45;&gt;Alias
source</title>
<path fill="none" stroke="black" d="M435,-575.7C435,-567.98 435,-558.71 435,-550.11"/>
<polygon fill="black" stroke="black" points="438.5,-550.1 435,-540.1 431.5,-550.1 438.5,-550.1"/>
</g>
</g>
</svg>
