<?xml version="1.0" encoding="UTF-8" standalone="no"?>
<!DOCTYPE svg PUBLIC "-//W3C//DTD SVG 1.1//EN"
 "http://www.w3.org/Graphics/SVG/1.1/DTD/svg11.dtd">
<!-- Generated by graphviz version 2.43.0 (0)
 -->
<!-- Pages: 1 -->
<svg width="1120pt" height="620pt"
 viewBox="0.00 0.00 1120.46 620.00" xmlns="http://www.w3.org/2000/svg" xmlns:xlink="http://www.w3.org/1999/xlink">
<g id="graph0" class="graph" transform="scale(1 1) rotate(0) translate(4 616)">
<polygon fill="white" stroke="transparent" points="-4,4 -4,-616 1116.46,-616 1116.46,4 -4,4"/>
<!-- Configuration
doc_configuration -->
<g id="node1" class="node">
<title>Configuration
doc_configuration</title>
<polygon fill="none" stroke="black" points="1.33,-588.44 93,-576 184.67,-588.44 184.58,-608.56 1.42,-608.56 1.33,-588.44"/>
<text text-anchor="middle" x="93" y="-590.3" font-family="Times,serif" font-size="14.00">Configuration</text>
</g>
<!-- doc_configuration -->
<g id="node2" class="node">
<title>doc_configuration</title>
<ellipse fill="none" stroke="black" cx="93" cy="-522" rx="93" ry="18"/>
<text text-anchor="middle" x="93" y="-518.3" font-family="Times,serif" font-size="14.00">doc_configuration</text>
</g>
<!-- Configuration
doc_configuration&#45;&gt;doc_configuration -->
<g id="edge1" class="edge">
<title>Configuration
doc_configuration&#45;&gt;doc_configuration</title>
<path fill="none" stroke="black" d="M93,-575.7C93,-567.98 93,-558.71 93,-550.11"/>
<polygon fill="black" stroke="black" points="96.5,-550.1 93,-540.1 89.5,-550.1 96.5,-550.1"/>
</g>
<!-- FunctionOperator
Document -->
<g id="node3" class="node">
<title>FunctionOperator
Document</title>
<text text-anchor="middle" x="93" y="-446.3" font-family="Times,serif" font-size="14.00">FO:&lt;lambda&gt;</text>
</g>
<!-- doc_configuration&#45;&gt;FunctionOperator
Document -->
<g id="edge2" class="edge">
<title>doc_configuration&#45;&gt;FunctionOperator
Document</title>
<path fill="none" stroke="black" d="M93,-503.7C93,-495.98 93,-486.71 93,-478.11"/>
<polygon fill="black" stroke="black" points="96.5,-478.1 93,-468.1 89.5,-478.1 96.5,-478.1"/>
</g>
<!-- Document -->
<g id="node4" class="node">
<title>Document</title>
<ellipse fill="none" stroke="black" cx="93" cy="-378" rx="58" ry="18"/>
<text text-anchor="middle" x="93" y="-374.3" font-family="Times,serif" font-size="14.00">Document</text>
</g>
<!-- FunctionOperator
Document&#45;&gt;Document -->
<g id="edge3" class="edge">
<title>FunctionOperator
Document&#45;&gt;Document</title>
<path fill="none" stroke="black" d="M93,-431.7C93,-423.98 93,-414.71 93,-406.11"/>
<polygon fill="black" stroke="black" points="96.5,-406.1 93,-396.1 89.5,-406.1 96.5,-406.1"/>
</g>
<!-- FunctionOperator
vectorizer -->
<g id="node5" class="node">
<title>FunctionOperator
vectorizer</title>
<text text-anchor="middle" x="93" y="-302.3" font-family="Times,serif" font-size="14.00">FO:&lt;lambda&gt;</text>
</g>
<!-- Document&#45;&gt;FunctionOperator
vectorizer -->
<g id="edge4" class="edge">
<title>Document&#45;&gt;FunctionOperator
vectorizer</title>
<path fill="none" stroke="black" d="M93,-359.7C93,-351.98 93,-342.71 93,-334.11"/>
<polygon fill="black" stroke="black" points="96.5,-334.1 93,-324.1 89.5,-334.1 96.5,-334.1"/>
</g>
<!-- vectorizer -->
<g id="node32" class="node">
<title>vectorizer</title>
<ellipse fill="none" stroke="black" cx="93" cy="-234" rx="58" ry="18"/>
<text text-anchor="middle" x="93" y="-230.3" font-family="Times,serif" font-size="14.00">vectorizer</text>
</g>
<!-- FunctionOperator
vectorizer&#45;&gt;vectorizer -->
<g id="edge35" class="edge">
<title>FunctionOperator
vectorizer&#45;&gt;vectorizer</title>
<path fill="none" stroke="black" d="M93,-287.7C93,-279.98 93,-270.71 93,-262.11"/>
<polygon fill="black" stroke="black" points="96.5,-262.1 93,-252.1 89.5,-262.1 96.5,-262.1"/>
</g>
<!-- Configuration
forgiving_extracts -->
<g id="node6" class="node">
<title>Configuration
forgiving_extracts</title>
<polygon fill="none" stroke="black" points="249.33,-516.44 341,-504 432.67,-516.44 432.58,-536.56 249.41,-536.56 249.33,-516.44"/>
<text text-anchor="middle" x="341" y="-518.3" font-family="Times,serif" font-size="14.00">Configuration</text>
</g>
<!-- forgiving_extracts -->
<g id="node7" class="node">
<title>forgiving_extracts</title>
<ellipse fill="none" stroke="black" cx="358" cy="-450" rx="95" ry="18"/>
<text text-anchor="middle" x="358" y="-446.3" font-family="Times,serif" font-size="14.00">forgiving_extracts</text>
</g>
<!-- Configuration
forgiving_extracts&#45;&gt;forgiving_extracts -->
<g id="edge5" class="edge">
<title>Configuration
forgiving_extracts&#45;&gt;forgiving_extracts</title>
<path fill="none" stroke="black" d="M345.03,-504.41C346.92,-496.62 349.23,-487.14 351.36,-478.33"/>
<polygon fill="black" stroke="black" points="354.8,-478.99 353.76,-468.45 348,-477.34 354.8,-478.99"/>
</g>
<!-- BagPropertyExtractor
get_dicts -->
<g id="node8" class="node">
<title>BagPropertyExtractor
get_dicts</title>
<text text-anchor="middle" x="447" y="-374.3" font-family="Times,serif" font-size="14.00">BagPropertyExtractor</text>
</g>
<!-- forgiving_extracts&#45;&gt;BagPropertyExtractor
get_dicts -->
<g id="edge6" class="edge">
<title>forgiving_extracts&#45;&gt;BagPropertyExtractor
get_dicts</title>
<path fill="none" stroke="black" d="M379.09,-432.41C390.48,-423.46 404.72,-412.25 417.22,-402.42"/>
<polygon fill="black" stroke="black" points="419.43,-405.13 425.13,-396.2 415.1,-399.63 419.43,-405.13"/>
</g>
<!-- DocumentBagMap
bag_apply -->
<g id="node9" class="node">
<title>DocumentBagMap
bag_apply</title>
<text text-anchor="middle" x="627" y="-374.3" font-family="Times,serif" font-size="14.00">DocumentBagMap</text>
</g>
<!-- forgiving_extracts&#45;&gt;DocumentBagMap
bag_apply -->
<g id="edge7" class="edge">
<title>forgiving_extracts&#45;&gt;DocumentBagMap
bag_apply</title>
<path fill="none" stroke="black" d="M411.47,-435.09C451.5,-424.67 506.79,-410.28 551.35,-398.69"/>
<polygon fill="black" stroke="black" points="552.46,-402.02 561.26,-396.11 550.7,-395.24 552.46,-402.02"/>
</g>
<!-- DocumentBagCreator
apply -->
<g id="node10" class="node">
<title>DocumentBagCreator
apply</title>
<text text-anchor="middle" x="422" y="-230.3" font-family="Times,serif" font-size="14.00">DocumentBagCreator</text>
</g>
<!-- forgiving_extracts&#45;&gt;DocumentBagCreator
apply -->
<g id="edge8" class="edge">
<title>forgiving_extracts&#45;&gt;DocumentBagCreator
apply</title>
<path fill="none" stroke="black" d="M353.02,-431.97C348.5,-413.83 343.47,-384.43 350,-360 360.03,-322.51 384.3,-284.6 401.9,-260.52"/>
<polygon fill="black" stroke="black" points="404.86,-262.41 408.04,-252.3 399.25,-258.22 404.86,-262.41"/>
</g>
<!-- get_dicts -->
<g id="node11" class="node">
<title>get_dicts</title>
<ellipse fill="none" stroke="black" cx="250" cy="-306" rx="52.79" ry="18"/>
<text text-anchor="middle" x="250" y="-302.3" font-family="Times,serif" font-size="14.00">get_dicts</text>
</g>
<!-- BagPropertyExtractor
get_dicts&#45;&gt;get_dicts -->
<g id="edge9" class="edge">
<title>BagPropertyExtractor
get_dicts&#45;&gt;get_dicts</title>
<path fill="none" stroke="black" d="M399.06,-359.97C367.31,-348.68 325.93,-333.98 294.83,-322.93"/>
<polygon fill="black" stroke="black" points="295.71,-319.53 285.12,-319.48 293.37,-326.13 295.71,-319.53"/>
</g>
<!-- bag_apply -->
<g id="node12" class="node">
<title>bag_apply</title>
<ellipse fill="none" stroke="black" cx="466" cy="-306" rx="58" ry="18"/>
<text text-anchor="middle" x="466" y="-302.3" font-family="Times,serif" font-size="14.00">bag_apply</text>
</g>
<!-- DocumentBagMap
bag_apply&#45;&gt;bag_apply -->
<g id="edge10" class="edge">
<title>DocumentBagMap
bag_apply&#45;&gt;bag_apply</title>
<path fill="none" stroke="black" d="M587.62,-359.88C563.37,-349.34 532.33,-335.84 507.67,-325.12"/>
<polygon fill="black" stroke="black" points="508.78,-321.79 498.22,-321.01 505.99,-328.21 508.78,-321.79"/>
</g>
<!-- apply -->
<g id="node13" class="node">
<title>apply</title>
<ellipse fill="none" stroke="black" cx="422" cy="-162" rx="36.5" ry="18"/>
<text text-anchor="middle" x="422" y="-158.3" font-family="Times,serif" font-size="14.00">apply</text>
</g>
<!-- DocumentBagCreator
apply&#45;&gt;apply -->
<g id="edge11" class="edge">
<title>DocumentBagCreator
apply&#45;&gt;apply</title>
<path fill="none" stroke="black" d="M422,-215.7C422,-207.98 422,-198.71 422,-190.11"/>
<polygon fill="black" stroke="black" points="425.5,-190.1 422,-180.1 418.5,-190.1 425.5,-190.1"/>
</g>
<!-- Alias
get_dicts -->
<g id="node14" class="node">
<title>Alias
get_dicts</title>
<text text-anchor="middle" x="250" y="-230.3" font-family="Times,serif" font-size="14.00">Alias</text>
</g>
<!-- get_dicts&#45;&gt;Alias
get_dicts -->
<g id="edge12" class="edge">
<title>get_dicts&#45;&gt;Alias
get_dicts</title>
<path fill="none" stroke="black" d="M250,-287.7C250,-279.98 250,-270.71 250,-262.11"/>
<polygon fill="black" stroke="black" points="253.5,-262.1 250,-252.1 246.5,-262.1 253.5,-262.1"/>
</g>
<!-- bag_apply&#45;&gt;DocumentBagCreator
apply -->
<g id="edge13" class="edge">
<title>bag_apply&#45;&gt;DocumentBagCreator
apply</title>
<path fill="none" stroke="black" d="M455.35,-288.05C450.24,-279.92 444,-270 438.31,-260.94"/>
<polygon fill="black" stroke="black" points="441.15,-258.88 432.86,-252.28 435.22,-262.61 441.15,-258.88"/>
</g>
<!-- DocumentBagExplode
exploded -->
<g id="node15" class="node">
<title>DocumentBagExplode
exploded</title>
<text text-anchor="middle" x="614" y="-230.3" font-family="Times,serif" font-size="14.00">DocumentBagExplode</text>
</g>
<!-- bag_apply&#45;&gt;DocumentBagExplode
exploded -->
<g id="edge14" class="edge">
<title>bag_apply&#45;&gt;DocumentBagExplode
exploded</title>
<path fill="none" stroke="black" d="M496.31,-290.67C517.21,-280.78 545.37,-267.46 568.89,-256.33"/>
<polygon fill="black" stroke="black" points="570.44,-259.47 577.99,-252.03 567.45,-253.14 570.44,-259.47"/>
</g>
<!-- d -->
<g id="node22" class="node">
<title>d</title>
<ellipse fill="none" stroke="black" cx="250" cy="-162" rx="27" ry="18"/>
<text text-anchor="middle" x="250" y="-158.3" font-family="Times,serif" font-size="14.00">d</text>
</g>
<!-- Alias
get_dicts&#45;&gt;d -->
<g id="edge23" class="edge">
<title>Alias
get_dicts&#45;&gt;d</title>
<path fill="none" stroke="black" d="M250,-215.7C250,-207.98 250,-198.71 250,-190.11"/>
<polygon fill="black" stroke="black" points="253.5,-190.1 250,-180.1 246.5,-190.1 253.5,-190.1"/>
</g>
<!-- exploded -->
<g id="node28" class="node">
<title>exploded</title>
<ellipse fill="none" stroke="black" cx="614" cy="-162" rx="52.79" ry="18"/>
<text text-anchor="middle" x="614" y="-158.3" font-family="Times,serif" font-size="14.00">exploded</text>
</g>
<!-- DocumentBagExplode
exploded&#45;&gt;exploded -->
<g id="edge30" class="edge">
<title>DocumentBagExplode
exploded&#45;&gt;exploded</title>
<path fill="none" stroke="black" d="M614,-215.7C614,-207.98 614,-198.71 614,-190.11"/>
<polygon fill="black" stroke="black" points="617.5,-190.1 614,-180.1 610.5,-190.1 617.5,-190.1"/>
</g>
<!-- Constant
_stats -->
<g id="node16" class="node">
<title>Constant
_stats</title>
<text text-anchor="middle" x="692" y="-518.3" font-family="Times,serif" font-size="14.00">Constant</text>
</g>
<!-- _stats -->
<g id="node17" class="node">
<title>_stats</title>
<ellipse fill="none" stroke="black" cx="672" cy="-450" rx="38.5" ry="18"/>
<text text-anchor="middle" x="672" y="-446.3" font-family="Times,serif" font-size="14.00">_stats</text>
</g>
<!-- Constant
_stats&#45;&gt;_stats -->
<g id="edge15" class="edge">
<title>Constant
_stats&#45;&gt;_stats</title>
<path fill="none" stroke="black" d="M687.06,-503.7C684.83,-495.9 682.15,-486.51 679.67,-477.83"/>
<polygon fill="black" stroke="black" points="683,-476.75 676.89,-468.1 676.27,-478.68 683,-476.75"/>
</g>
<!-- _stats&#45;&gt;BagPropertyExtractor
get_dicts -->
<g id="edge16" class="edge">
<title>_stats&#45;&gt;BagPropertyExtractor
get_dicts</title>
<path fill="none" stroke="black" d="M640.72,-439.27C607.45,-428.92 553.88,-412.25 511.5,-399.07"/>
<polygon fill="black" stroke="black" points="512.41,-395.69 501.82,-396.05 510.32,-402.37 512.41,-395.69"/>
</g>
<!-- _stats&#45;&gt;DocumentBagMap
bag_apply -->
<g id="edge17" class="edge">
<title>_stats&#45;&gt;DocumentBagMap
bag_apply</title>
<path fill="none" stroke="black" d="M661.34,-432.41C656.06,-424.2 649.57,-414.1 643.65,-404.9"/>
<polygon fill="black" stroke="black" points="646.57,-402.97 638.22,-396.45 640.68,-406.75 646.57,-402.97"/>
</g>
<!-- FunctionOperator
stats -->
<g id="node18" class="node">
<title>FunctionOperator
stats</title>
<text text-anchor="middle" x="779" y="-374.3" font-family="Times,serif" font-size="14.00">FO:&lt;lambda&gt;</text>
</g>
<!-- _stats&#45;&gt;FunctionOperator
stats -->
<g id="edge18" class="edge">
<title>_stats&#45;&gt;FunctionOperator
stats</title>
<path fill="none" stroke="black" d="M693.4,-435C707.94,-425.49 727.5,-412.69 744.26,-401.73"/>
<polygon fill="black" stroke="black" points="746.27,-404.6 752.72,-396.19 742.43,-398.74 746.27,-404.6"/>
</g>
<!-- stats -->
<g id="node19" class="node">
<title>stats</title>
<ellipse fill="none" stroke="black" cx="779" cy="-306" rx="34" ry="18"/>
<text text-anchor="middle" x="779" y="-302.3" font-family="Times,serif" font-size="14.00">stats</text>
</g>
<!-- FunctionOperator
stats&#45;&gt;stats -->
<g id="edge19" class="edge">
<title>FunctionOperator
stats&#45;&gt;stats</title>
<path fill="none" stroke="black" d="M779,-359.7C779,-351.98 779,-342.71 779,-334.11"/>
<polygon fill="black" stroke="black" points="782.5,-334.1 779,-324.1 775.5,-334.1 782.5,-334.1"/>
</g>
<!-- Configuration
verbosity -->
<g id="node20" class="node">
<title>Configuration
verbosity</title>
<polygon fill="none" stroke="black" points="450.33,-516.44 542,-504 633.67,-516.44 633.58,-536.56 450.41,-536.56 450.33,-516.44"/>
<text text-anchor="middle" x="542" y="-518.3" font-family="Times,serif" font-size="14.00">Configuration</text>
</g>
<!-- verbosity -->
<g id="node21" class="node">
<title>verbosity</title>
<ellipse fill="none" stroke="black" cx="542" cy="-450" rx="54" ry="18"/>
<text text-anchor="middle" x="542" y="-446.3" font-family="Times,serif" font-size="14.00">verbosity</text>
</g>
<!-- Configuration
verbosity&#45;&gt;verbosity -->
<g id="edge20" class="edge">
<title>Configuration
verbosity&#45;&gt;verbosity</title>
<path fill="none" stroke="black" d="M542,-503.7C542,-495.98 542,-486.71 542,-478.11"/>
<polygon fill="black" stroke="black" points="545.5,-478.1 542,-468.1 538.5,-478.1 545.5,-478.1"/>
</g>
<!-- verbosity&#45;&gt;BagPropertyExtractor
get_dicts -->
<g id="edge21" class="edge">
<title>verbosity&#45;&gt;BagPropertyExtractor
get_dicts</title>
<path fill="none" stroke="black" d="M520.44,-433.12C508.02,-423.96 492.19,-412.29 478.4,-402.14"/>
<polygon fill="black" stroke="black" points="480.25,-399.16 470.13,-396.04 476.1,-404.79 480.25,-399.16"/>
</g>
<!-- verbosity&#45;&gt;DocumentBagMap
bag_apply -->
<g id="edge22" class="edge">
<title>verbosity&#45;&gt;DocumentBagMap
bag_apply</title>
<path fill="none" stroke="black" d="M561.29,-433.12C572.3,-424.05 586.31,-412.51 598.56,-402.42"/>
<polygon fill="black" stroke="black" points="600.81,-405.1 606.31,-396.04 596.36,-399.69 600.81,-405.1"/>
</g>
<!-- docs -->
<g id="node23" class="node">
<title>docs</title>
<ellipse fill="none" stroke="black" cx="779" cy="-450" rx="32" ry="18"/>
<text text-anchor="middle" x="779" y="-446.3" font-family="Times,serif" font-size="14.00">docs</text>
</g>
<!-- docs&#45;&gt;BagPropertyExtractor
get_dicts -->
<g id="edge24" class="edge">
<title>docs&#45;&gt;BagPropertyExtractor
get_dicts</title>
<path fill="none" stroke="black" d="M751.65,-440.73C741.45,-437.78 729.74,-434.56 719,-432 686.52,-424.25 609.28,-409.32 545.38,-397.27"/>
<polygon fill="black" stroke="black" points="545.71,-393.77 535.24,-395.37 544.42,-400.65 545.71,-393.77"/>
</g>
<!-- docs&#45;&gt;DocumentBagMap
bag_apply -->
<g id="edge25" class="edge">
<title>docs&#45;&gt;DocumentBagMap
bag_apply</title>
<path fill="none" stroke="black" d="M754.92,-437.91C733.05,-427.84 700.2,-412.71 673.27,-400.31"/>
<polygon fill="black" stroke="black" points="674.57,-397.05 664.02,-396.05 671.64,-403.41 674.57,-397.05"/>
</g>
<!-- FunctionOperator
take -->
<g id="node24" class="node">
<title>FunctionOperator
take</title>
<text text-anchor="middle" x="916" y="-374.3" font-family="Times,serif" font-size="14.00">FO:&lt;lambda&gt;</text>
</g>
<!-- docs&#45;&gt;FunctionOperator
take -->
<g id="edge26" class="edge">
<title>docs&#45;&gt;FunctionOperator
take</title>
<path fill="none" stroke="black" d="M801.93,-437.28C821.43,-427.32 849.95,-412.75 873.6,-400.67"/>
<polygon fill="black" stroke="black" points="875.41,-403.67 882.72,-396 872.22,-397.44 875.41,-403.67"/>
</g>
<!-- FunctionOperator
compute -->
<g id="node25" class="node">
<title>FunctionOperator
compute</title>
<text text-anchor="middle" x="1052.96" y="-374.3" font-family="Times,serif" font-size="14.00">FO:&lt;lambda&gt;</text>
</g>
<!-- docs&#45;&gt;FunctionOperator
compute -->
<g id="edge27" class="edge">
<title>docs&#45;&gt;FunctionOperator
compute</title>
<path fill="none" stroke="black" d="M807.55,-441.71C848.8,-431.17 926.35,-411.36 983.28,-396.81"/>
<polygon fill="black" stroke="black" points="984.48,-400.12 993.3,-394.25 982.74,-393.33 984.48,-400.12"/>
</g>
<!-- take -->
<g id="node26" class="node">
<title>take</title>
<ellipse fill="none" stroke="black" cx="916" cy="-306" rx="30.59" ry="18"/>
<text text-anchor="middle" x="916" y="-302.3" font-family="Times,serif" font-size="14.00">take</text>
</g>
<!-- FunctionOperator
take&#45;&gt;take -->
<g id="edge28" class="edge">
<title>FunctionOperator
take&#45;&gt;take</title>
<path fill="none" stroke="black" d="M916,-359.7C916,-351.98 916,-342.71 916,-334.11"/>
<polygon fill="black" stroke="black" points="919.5,-334.1 916,-324.1 912.5,-334.1 919.5,-334.1"/>
</g>
<!-- compute -->
<g id="node27" class="node">
<title>compute</title>
<ellipse fill="none" stroke="black" cx="1052.96" cy="-306" rx="50.89" ry="18"/>
<text text-anchor="middle" x="1052.96" y="-302.3" font-family="Times,serif" font-size="14.00">compute</text>
</g>
<!-- FunctionOperator
compute&#45;&gt;compute -->
<g id="edge29" class="edge">
<title>FunctionOperator
compute&#45;&gt;compute</title>
<path fill="none" stroke="black" d="M1052.96,-359.7C1052.96,-351.98 1052.96,-342.71 1052.96,-334.11"/>
<polygon fill="black" stroke="black" points="1056.46,-334.1 1052.96,-324.1 1049.46,-334.1 1056.46,-334.1"/>
</g>
<!-- Alias
exploded -->
<g id="node29" class="node">
<title>Alias
exploded</title>
<text text-anchor="middle" x="614" y="-86.3" font-family="Times,serif" font-size="14.00">Alias</text>
</g>
<!-- exploded&#45;&gt;Alias
exploded -->
<g id="edge31" class="edge">
<title>exploded&#45;&gt;Alias
exploded</title>
<path fill="none" stroke="black" d="M614,-143.7C614,-135.98 614,-126.71 614,-118.11"/>
<polygon fill="black" stroke="black" points="617.5,-118.1 614,-108.1 610.5,-118.1 617.5,-118.1"/>
</g>
<!-- e -->
<g id="node31" class="node">
<title>e</title>
<ellipse fill="none" stroke="black" cx="614" cy="-18" rx="27" ry="18"/>
<text text-anchor="middle" x="614" y="-14.3" font-family="Times,serif" font-size="14.00">e</text>
</g>
<!-- Alias
exploded&#45;&gt;e -->
<g id="edge34" class="edge">
<title>Alias
exploded&#45;&gt;e</title>
<path fill="none" stroke="black" d="M614,-71.7C614,-63.98 614,-54.71 614,-46.11"/>
<polygon fill="black" stroke="black" points="617.5,-46.1 614,-36.1 610.5,-46.1 617.5,-46.1"/>
</g>
<!-- configuration -->
<g id="node30" class="node">
<title>configuration</title>
<ellipse fill="none" stroke="black" cx="614" cy="-306" rx="72.29" ry="18"/>
<text text-anchor="middle" x="614" y="-302.3" font-family="Times,serif" font-size="14.00">configuration</text>
</g>
<!-- configuration&#45;&gt;DocumentBagCreator
apply -->
<g id="edge32" class="edge">
<title>configuration&#45;&gt;DocumentBagCreator
apply</title>
<path fill="none" stroke="black" d="M574.68,-290.67C546.97,-280.56 509.42,-266.87 478.5,-255.6"/>
<polygon fill="black" stroke="black" points="479.31,-252.17 468.72,-252.03 476.91,-258.75 479.31,-252.17"/>
</g>
<!-- configuration&#45;&gt;DocumentBagExplode
exploded -->
<g id="edge33" class="edge">
<title>configuration&#45;&gt;DocumentBagExplode
exploded</title>
<path fill="none" stroke="black" d="M614,-287.7C614,-279.98 614,-270.71 614,-262.11"/>
<polygon fill="black" stroke="black" points="617.5,-262.1 614,-252.1 610.5,-262.1 617.5,-262.1"/>
</g>
<!-- Alias
source -->
<g id="node33" class="node">
<title>Alias
source</title>
<text text-anchor="middle" x="779" y="-518.3" font-family="Times,serif" font-size="14.00">Alias</text>
</g>
<!-- Alias
source&#45;&gt;docs -->
<g id="edge36" class="edge">
<title>Alias
source&#45;&gt;docs</title>
<path fill="none" stroke="black" d="M779,-503.7C779,-495.98 779,-486.71 779,-478.11"/>
<polygon fill="black" stroke="black" points="782.5,-478.1 779,-468.1 775.5,-478.1 782.5,-478.1"/>
</g>
<!-- source -->
<g id="node34" class="node">
<title>source</title>
<ellipse fill="none" stroke="black" cx="779" cy="-594" rx="41.69" ry="18"/>
<text text-anchor="middle" x="779" y="-590.3" font-family="Times,serif" font-size="14.00">source</text>
</g>
<!-- source&#45;&gt;Alias
source -->
<g id="edge37" class="edge">
<title>source&#45;&gt;Alias
source</title>
<path fill="none" stroke="black" d="M779,-575.7C779,-567.98 779,-558.71 779,-550.11"/>
<polygon fill="black" stroke="black" points="782.5,-550.1 779,-540.1 775.5,-550.1 782.5,-550.1"/>
</g>
</g>
</svg>
